<?xml version="1.0" encoding="UTF-8" standalone="no"?>
<!-- Created with Inkscape (http://www.inkscape.org/) -->

<svg
   version="1.1"
   id="svg2"
   width="353.53421mm"
   height="353.53421mm"
   viewBox="0 0 1336.1923 1336.1923"
   xmlns="http://www.w3.org/2000/svg"
   xmlns:svg="http://www.w3.org/2000/svg">
  <defs
     id="defs6" />
  <g
     id="g8"
     transform="translate(2186.004,995.21308)">
    <path
       style="fill:#000000"
       d="m -2185.5391,253.63304 c 1.1845,-222.3433 45.0096,-418.58566 127.4643,-570.76668 l 5.1043,-9.42059 -7.2971,-14.57941 c -86.4689,-172.76313 -124.1444,-343.22011 -125.2841,-566.82942 l -0.4447,-87.25 66.8421,0.029 c 124.9579,0.0542 183.8811,4.80631 280.3421,22.60924 96.4959,17.80937 227.3891,62.08678 309.0647,104.5477 l 11.5647,6.01217 14.9353,-7.47531 c 176.2372,-88.20906 350.7398,-125.59548 586.68531,-125.69472 l 66.75,-0.0281 -0.024,67.25 c -0.086,235.44446 -37.4448,409.65395 -125.7063,586.1853 l -7.4673,14.93529 6.0282,11.56471 c 42.1663,80.89302 86.7471,212.7032 104.5316,309.0647004 17.8169,96.5363996 22.5577,155.3181996 22.6102,280.3453996 l 0.028,66.8453 -87.75,-0.4582 c -223.30591,-1.166 -393.64121,-38.8457 -566.32941,-125.2771 l -14.5794,-7.297 -9.4206,5.1042 c -152.2073,82.4689 -348.376,126.2773 -570.7667,127.4637 l -87.3461,0.4659 0.4653,-87.3461 z m 204.7269,80.7657 c 157.6586,-12.8213 333.1219,-61.1742 450.5397,-124.1564 12.5878,-6.752 10.6283,-6.8853 28.2228,1.9209 172.0754,86.1253 343.181,124.1564 563.98751,125.3556 l 85.25,0.463 -0.028,-64.3474 c -0.053,-122.3027 -4.904,-181.9111 -22.6102,-277.8474996 -17.8828,-96.8941004 -62.4862,-228.5372904 -105.0456,-310.0330904 l -6.5451,-12.5331 7.9826,-15.9669 c 88.4625,-176.94481 126.1334,-351.45354 126.2218,-584.71691 l 0.0245,-64.75 -64.25,0.0281 c -233.76941,0.10215 -408.54341,37.79464 -585.21691,126.21033 l -15.9669,7.99059 -12.5331,-6.52906 c -82.2289,-42.83688 -213.0103,-87.15509 -310.0331,-105.06171 -95.8591,-17.69184 -155.6117,-22.55413 -277.8442,-22.60924 l -64.3442,-0.029 0.4494,84.75 c 1.1726,221.10789 39.1993,392.33592 125.3628,564.4875 8.8062,17.59449 8.6728,15.63501 1.9208,28.2228 -82.5974,153.9864 -126.0516,347.8811 -127.2709,567.888 l -0.4702,84.8482 84.8482,-0.4708 c 80.5208,-0.4468 86.5059,-0.6056 117.3483,-3.1139 z m -93.659,-133.6971 c 2.9684,-130.2275 28.8965,-258.2889 77.2431,-381.51085 6.2787,-16.00289 11.4159,-30.06539 11.4159,-31.25 0,-1.63077 0.6072,-2.15385 2.5,-2.15385 1.8529,0 2.5,0.53013 2.5,2.04804 0,3.97532 31.9636,49.21301 59.3008,83.92761 9.7346,12.36161 17.6992,23.02409 17.6992,23.69442 0,0.67033 -2.492,8.33133 -5.5377,17.02433 -16.8883,48.2022 -34.8434,124.9157 -41.8645,178.8668 l -2.2203,17.0613 17.0613,-2.2203 c 227.7531,-29.6394 465.7007,-157.1784 609.5612,-326.72257 6.325,-7.45421 12.175,-13.5759 13,-13.60374 3.8852,-0.13113 56,99.16632 56,106.70012 0,2.0778 -23.3083,26.42959 -47,49.10409 -200.224,191.6278 -464.8866,301.5726 -740.9147,307.7871 l -29.4148,0.6623 z m 87.159,22.6043 c 271.4982,-21.5311 531.9065,-144.7457 713.597,-337.64486 l 12.597,-13.37414 -6.6703,-14.5 c -13.4325,-29.19962 -40.5484,-80.32209 -45.502,-85.78664 -0.922,-1.017 -3.664,1.59512 -13.0838,12.46394 -117.0849,135.0948 -293.3264,245.5977 -472.4379,296.2171 -50.9307,14.3937 -153.9405,34.4984 -157.6667,30.7723 -5.6227,-5.6228 25.5729,-148.2709 43.623,-199.4743 2.7741,-7.8692 5.0437,-14.9191 5.0437,-15.6664 0,-0.74739 -8.2499,-11.85897 -18.3331,-24.69243 -16.3258,-20.77873 -54.7369,-73.68635 -55.9328,-77.042 -0.7788,-2.18539 -1.3075,-1.03391 -12.046,26.23518 -47.7442,121.24125 -74.0336,250.17815 -77.3228,379.23085 l -0.69,27.0703 26.9124,-0.6752 c 14.8018,-0.3714 40.8623,-1.7816 57.9123,-3.1337 z m 978.5,5.7783 c -118.9349,-4.1366 -250.1175,-32.0818 -365.75,-77.914 -30.755,-12.1901 -31.5699,-12.7111 -25.3504,-16.2067 8.5079,-4.7817 57.9195,-40.5877 80.0694,-58.022 l 23.469,-18.4726 20.031,6.6328 c 22.206,7.353 57.6287,17.6178 73.031,21.163 5.5,1.266 16.7636,3.8878 25.0301,5.8264 31.1114,7.2957 95.4783,17.5892 95.4627,15.2663 -0.07,-10.4251 -10.5908,-70.4072 -18.0204,-102.7377996 -46.3365,-201.6360404 -158.3764,-389.8332904 -311.7224,-523.6104904 -7.2875,-6.35753 -13.2271,-12.04583 -13.1991,-12.64068 0.1689,-3.58792 100.6592,-55.58153 107.4249,-55.58153 3.9214,0 53.6402,50.6243 84.4617,86 173.8097,199.49171 272.19211,459.7398 273.03441,722.25 l 0.028,8.75 -19.75,-0.2035 c -10.8625,-0.112 -23.57501,-0.3366 -28.25001,-0.4992 z m 44.97191,-8.5473 c -1.1715,-260.8027 -99.88061,-521.01117 -273.03441,-719.75 -28.9611,-33.24042 -78.5273,-84 -82.025,-84 -5.5691,0 -103.9524,50.75368 -101.7076,52.46858 10.9823,8.38967 50.4189,45.74401 70.6709,66.9394 136.5599,142.92143 228.1756,323.0028 262.0511,515.09202 7.0273,39.8483 9.3564,60.5 6.8231,60.5 -29.2649,-8e-4 -137.3,-23.8352 -195.8589,-43.21 l -18.6089,-6.1569 -22.8911,17.9923 c -19.9451,15.6769 -73.624,54.7117 -77.1411,56.0964 -2.9223,1.1506 0.084,2.6455 25.5,12.6788 123.223,48.6443 260.0859,75.8747 389.00001,77.3959 l 17.25,0.2035 -0.028,-6.25 z m -771.17331,-302.5 c -208.7442,-198.88907 -333.021,-482.04979 -339.4825,-773.5 l -0.6374,-28.75 8.9107,0.0281 c 133.7357,0.42137 276.3196,28.29913 405.1606,79.21632 32.192,12.72207 31.1935,11.72114 19.5,19.54885 -20.0966,13.45277 -53.1815,37.61066 -74.4064,54.32997 -12.4819,9.83221 -23.5307,17.87676 -24.553,17.87676 -1.0223,0 -9.2684,-2.49086 -18.3247,-5.53524 -56.4954,-18.99173 -164.5428,-43.25739 -193.503,-43.45759 -2.6929,-0.0186 8.1025,64.91802 17.5275,105.43144 46.9391,201.76829 161.2017,392.75749 313.2596,523.61172 5.9125,5.08803 10.75,9.82415 10.75,10.5247 0,3.48972 -100.4123,56.42497 -107.0319,56.42497 -0.3515,0 -8.0777,-7.0875 -17.1695,-15.75 z m 29.7798,6.39 c 27.8867,-12.5378 89.9957,-45.73369 89.1915,-47.67072 -0.1484,-0.35751 -4.3199,-4.14813 -9.2699,-8.4236 -138.3729,-119.51705 -247.3563,-291.75597 -299.6339,-473.54568 -13.8538,-48.17507 -31.8661,-137.98942 -31.8661,-158.89306 0,-8.15953 134.28,20.27617 199.8668,42.32462 l 16.3667,5.50206 22.6591,-17.84904 c 20.1032,-15.83563 65.1002,-48.63797 75.4306,-54.98807 4.9792,-3.0607 5.9642,-2.46009 -22.3232,-13.61232 -126.1201,-49.7226 -270.0188,-77.88285 -400.9104,-78.45611 l -6.4104,-0.0281 0.661,26.44227 c 6.8492,274.00509 115.41,536.30346 304.4347,735.55773 13.9284,14.68226 48.721,49 49.6779,49 0.1122,0 5.5688,-2.412 12.1256,-5.36 z m 181.4216,-115.43393 c -43.8863,-36.12384 -98.4895,-90.78841 -130.3848,-130.53139 -4.8402,-6.03114 -5.4505,-4.77654 12.6012,-25.90716 37.8161,-44.26604 115.2745,-118.76752 123.4814,-118.76752 10.7692,0 139.3022,128.49999 139.3022,139.26644 0,6.9435 -70.2242,81.27464 -107.1061,113.3701 -33.6027,29.24171 -31.3894,27.9235 -37.8939,22.56953 z m 24.5683,-15.70341 c 39.9978,-34.19774 78.2659,-73.14261 112.3215,-114.30794 5.4688,-6.61048 6.3178,-4.86551 -13.5517,-27.8521 -30.0523,-34.76669 -60.914,-65.62844 -95.6807,-95.68068 -22.9867,-19.86961 -21.2418,-19.02063 -27.8514,-13.55134 -44.1786,36.55691 -92.534,84.93776 -125.1456,125.21143 l -4.7143,5.82204 3.2494,4.17796 c 26.6495,34.26451 92.9462,100.59017 128.2971,128.35316 4.9147,3.85982 3.3731,4.67303 23.0757,-12.17253 z m -236.2359,-233.75266 c -14.4803,-25.40295 -28.7124,-53.01695 -37.3397,-72.44842 l -6.3039,-14.19843 13.548,-14.30157 c 198.5792,-209.62562 473.0203,-331.35587 771.00451,-341.98446 39.1418,-1.39612 34.3345,-6.20101 32.9583,32.94157 -4.7856,136.11231 -29.9264,258.22062 -78.23631,379.99131 -12.0056,30.26145 -12.307,30.70801 -16.5382,24.5 -15.332,-22.49495 -43.5046,-61.15782 -57.7297,-79.22565 -20.2988,-25.78237 -19.2336,-22.33938 -12.6777,-40.9761 17.8182,-50.65258 48.9812,-190.38266 43.649,-195.71492 -3.4864,-3.48641 -104.8533,16.76052 -153.9138,30.74263 -179.4242,51.13532 -357.9843,163.70937 -472.2529,297.73406 -14.7455,17.29491 -11.8375,18.07948 -26.1676,-7.06002 z m 25.7993,2.00866 c 148.639,-171.14807 381.5015,-295.47666 608.3683,-324.81651 21.1245,-2.73196 21.5003,-2.7091 21.4989,1.30785 -0.011,30.75285 -25.4225,145.04061 -43.9791,197.79221 -2.9071,8.26413 -4.6684,14.72037 -4.1898,15.35789 0.4541,0.60494 8.9212,11.4499 18.8156,24.0999 15.5117,19.83172 47.6967,64.13334 53.9941,74.32109 l 2.0528,3.32109 2.0582,-4.82109 c 51.59971,-120.8717 81.15181,-257.03689 86.40001,-398.09919 1.3463,-36.1869 5.8135,-31.72209 -30.3726,-30.35588 -296.15521,11.18133 -573.05871,134.22401 -767.76101,341.15625 l -12.0878,12.84715 6.6327,14.81529 c 9.0517,20.21827 44.1905,86.79036 46.0697,87.28092 0.072,0.0189 5.6974,-6.37423 12.5,-14.20697 z"
       id="path293" />
  </g>
</svg>
