<?xml version="1.0" encoding="UTF-8"?>
<svg xmlns="http://www.w3.org/2000/svg" xmlns:xlink="http://www.w3.org/1999/xlink" width="612pt" height="792pt" viewBox="0 0 612 792" version="1.1">
<g id="surface1">
<path style="fill:none;stroke-width:10;stroke-linecap:butt;stroke-linejoin:miter;stroke:rgb(0%,0%,0%);stroke-opacity:1;stroke-miterlimit:10;" d="M 286.328125 1862.1875 L 253.90625 1776.5625 L 223.515625 1689.140625 L 195.078125 1599.921875 L 168.671875 1508.90625 L 144.296875 1416.210938 L 121.953125 1321.835938 L 101.640625 1225.78125 L 83.359375 1128.125 L 67.109375 1028.867188 L 52.929688 928.085938 L 40.820312 825.78125 L 30.820312 722.03125 L 22.851562 616.796875 L 16.992188 510.15625 L 13.203125 402.148438 L 11.5625 292.8125 L 10 10 L 292.8125 11.5625 L 331.25 11.757812 L 366.210938 11.992188 L 382.617188 12.070312 L 399.0625 12.1875 L 431.875 12.421875 L 464.6875 12.734375 L 481.132812 12.929688 L 497.539062 13.125 L 517.929688 13.4375 L 528.164062 13.632812 L 548.554688 14.101562 L 558.75 14.414062 L 568.984375 14.726562 L 579.179688 15.117188 L 590.429688 15.585938 L 601.679688 16.132812 L 612.929688 16.757812 L 624.179688 17.421875 L 635.429688 18.164062 L 646.679688 18.984375 L 657.890625 19.804688 L 669.140625 20.742188 L 683.984375 21.953125 L 763.203125 29.21875 L 843.164062 38.242188 L 923.59375 48.945312 L 1004.375 61.25 L 1085.3125 75.117188 L 1166.132812 90.507812 L 1246.757812 107.34375 L 1326.914062 125.625 L 1406.445312 145.234375 L 1485.15625 166.171875 L 1562.890625 188.359375 L 1639.414062 211.71875 L 1714.53125 236.25 L 1788.125 261.875 L 1859.882812 288.554688 L 1929.726562 316.25 L 1997.421875 344.84375 L 2062.8125 374.335938 L 2125.625 404.6875 L 2185.78125 435.78125 L 2190.820312 438.554688 L 2195.859375 441.25 L 2200.9375 443.945312 L 2206.054688 446.601562 L 2207.34375 447.265625 L 2208.671875 447.890625 L 2210 448.476562 L 2211.367188 449.0625 L 2212.695312 449.570312 L 2214.101562 450.078125 L 2215.46875 450.546875 L 2216.875 450.976562 L 2218.242188 451.328125 L 2219.609375 451.601562 L 2221.015625 451.835938 L 2222.382812 451.992188 L 2223.789062 452.070312 L 2225.195312 452.070312 L 2226.601562 452.03125 L 2228.007812 451.914062 L 2229.375 451.71875 L 2230.78125 451.484375 L 2232.148438 451.171875 L 2233.476562 450.820312 L 2236.757812 449.765625 L 2239.960938 448.59375 L 2243.164062 447.304688 L 2246.328125 445.9375 L 2252.65625 442.929688 L 2258.984375 439.882812 L 2265.273438 436.757812 L 2271.523438 433.554688 L 2279.84375 429.375 L 2365.898438 387.539062 L 2451.992188 348.046875 L 2538.320312 310.898438 L 2624.960938 276.054688 L 2712.070312 243.554688 L 2799.765625 213.28125 L 2888.164062 185.273438 L 2977.421875 159.453125 L 3067.617188 135.78125 L 3158.90625 114.296875 L 3251.445312 94.921875 L 3345.273438 77.65625 L 3440.625 62.460938 L 3537.578125 49.296875 L 3636.210938 38.125 L 3736.71875 28.945312 L 3839.21875 21.757812 L 3943.789062 16.445312 L 4050.625 13.046875 L 4159.804688 11.523438 L 4443.984375 10 L 4443.867188 224.492188 L 4443.867188 252.265625 L 4443.828125 266.132812 L 4443.789062 280.039062 L 4443.710938 293.90625 L 4443.632812 307.8125 L 4443.515625 321.679688 L 4443.398438 335.585938 L 4443.242188 349.453125 L 4443.046875 363.359375 L 4442.65625 391.09375 L 4442.421875 405 L 4442.1875 418.867188 L 4441.914062 432.773438 L 4441.640625 446.640625 L 4441.289062 462.304688 L 4440.898438 477.96875 L 4440.429688 493.632812 L 4439.414062 524.960938 L 4438.789062 540.625 L 4438.164062 556.25 L 4436.757812 587.578125 L 4435.976562 603.203125 L 4435.15625 618.867188 L 4434.257812 634.492188 L 4433.4375 648.554688 L 4432.539062 662.617188 L 4431.601562 676.679688 L 4430.585938 690.742188 L 4429.53125 704.804688 L 4428.4375 718.828125 L 4427.265625 732.851562 L 4426.015625 746.914062 L 4424.765625 760.9375 L 4422.03125 788.984375 L 4420.585938 803.007812 L 4419.101562 816.992188 L 4417.539062 831.015625 L 4415.9375 845 L 4414.257812 858.984375 L 4412.539062 872.96875 L 4410.78125 886.953125 L 4408.945312 900.9375 L 4407.070312 914.882812 L 4405.117188 928.828125 L 4403.125 942.773438 L 4401.09375 956.71875 L 4398.984375 970.664062 L 4396.679688 985.703125 L 4394.335938 1000.703125 L 4391.914062 1015.742188 L 4389.492188 1030.742188 L 4386.992188 1045.78125 L 4384.492188 1060.78125 L 4381.914062 1075.78125 L 4379.335938 1090.742188 L 4376.679688 1105.742188 L 4371.289062 1135.664062 L 4368.515625 1150.625 L 4358.90625 1199.921875 L 4348.046875 1250.742188 L 4336.015625 1302.851562 L 4329.375 1329.960938 L 4325.976562 1343.554688 L 4322.539062 1357.070312 L 4319.0625 1370.625 L 4315.546875 1384.101562 L 4308.359375 1411.132812 L 4304.6875 1424.609375 L 4300.976562 1438.046875 L 4297.226562 1451.523438 L 4293.398438 1464.960938 L 4288.867188 1480.820312 L 4284.257812 1496.640625 L 4279.609375 1512.460938 L 4274.882812 1528.28125 L 4270.117188 1544.0625 L 4265.273438 1559.804688 L 4260.390625 1575.585938 L 4255.46875 1591.328125 L 4250.46875 1607.03125 L 4245.429688 1622.734375 L 4240.351562 1638.398438 L 4235.195312 1654.0625 L 4229.960938 1669.726562 L 4224.726562 1685.351562 L 4219.375 1700.976562 L 4214.023438 1716.5625 L 4208.59375 1732.109375 L 4203.125 1747.65625 L 4197.578125 1763.203125 L 4191.992188 1778.710938 L 4186.328125 1794.21875 L 4180.625 1809.6875 L 4174.882812 1825.15625 L 4169.0625 1840.585938 L 4163.203125 1855.976562 L 4157.304688 1871.367188 L 4151.328125 1886.757812 L 4145.273438 1902.109375 L 4124.53125 1953.4375 L 4103.515625 2003.28125 L 4082.34375 2051.523438 L 4061.015625 2097.851562 L 4039.6875 2142.109375 L 4018.359375 2184.101562 L 3996.523438 2225.859375 L 4023.164062 2279.101562 L 4066.132812 2367.539062 L 4106.5625 2455.976562 L 4144.570312 2544.648438 L 4180.117188 2633.632812 L 4213.242188 2723.125 L 4244.023438 2813.242188 L 4272.421875 2904.140625 L 4298.554688 2996.015625 L 4322.382812 3088.984375 L 4343.984375 3183.203125 L 4363.398438 3278.867188 L 4380.585938 3376.054688 L 4395.664062 3474.960938 L 4408.59375 3575.703125 L 4419.492188 3678.515625 L 4428.320312 3783.476562 L 4435.15625 3890.78125 L 4440 4000.546875 L 4442.890625 4112.96875 L 4443.90625 4228.125 L 4443.984375 4443.984375 L 4229.804688 4443.867188 L 4114.375 4442.890625 L 4001.71875 4439.960938 L 3891.757812 4435.117188 L 3784.257812 4428.28125 L 3679.0625 4419.453125 L 3576.09375 4408.554688 L 3475.195312 4395.585938 L 3376.132812 4380.546875 L 3278.828125 4363.320312 L 3183.085938 4343.90625 L 3088.789062 4322.304688 L 2995.742188 4298.476562 L 2903.828125 4272.382812 L 2812.890625 4243.945312 L 2722.734375 4213.203125 L 2633.28125 4180.078125 L 2544.335938 4144.53125 L 2455.78125 4106.5625 L 2367.382812 4066.132812 L 2279.0625 4023.164062 L 2225.859375 3996.523438 L 2184.0625 4018.320312 L 2141.796875 4039.765625 L 2097.265625 4061.210938 L 2050.742188 4082.578125 L 2002.382812 4103.828125 L 1989.6875 4109.257812 L 1976.953125 4114.648438 L 1951.40625 4125.273438 L 1938.632812 4130.546875 L 1925.78125 4135.742188 L 1912.96875 4140.898438 L 1900.117188 4146.015625 L 1887.265625 4151.09375 L 1874.375 4156.132812 L 1861.484375 4161.132812 L 1848.554688 4166.054688 L 1833.164062 4171.914062 L 1817.734375 4177.695312 L 1802.265625 4183.398438 L 1786.796875 4189.0625 L 1771.328125 4194.6875 L 1755.820312 4200.234375 L 1740.273438 4205.742188 L 1724.726562 4211.210938 L 1709.140625 4216.601562 L 1693.554688 4221.953125 L 1677.96875 4227.226562 L 1662.34375 4232.460938 L 1646.71875 4237.65625 L 1631.054688 4242.773438 L 1615.351562 4247.851562 L 1599.6875 4252.851562 L 1583.945312 4257.8125 L 1568.242188 4262.734375 L 1552.460938 4267.578125 L 1536.71875 4272.34375 L 1520.9375 4277.109375 L 1505.117188 4281.796875 L 1489.335938 4286.40625 L 1473.476562 4290.976562 L 1457.65625 4295.46875 L 1441.796875 4299.960938 L 1425.898438 4304.335938 L 1410 4308.671875 L 1355.976562 4322.890625 L 1302.851562 4336.015625 L 1250.78125 4348.046875 L 1199.960938 4358.90625 L 1150.625 4368.515625 L 1135.703125 4371.289062 L 1120.742188 4373.984375 L 1105.742188 4376.679688 L 1090.78125 4379.335938 L 1075.78125 4381.914062 L 1060.820312 4384.492188 L 1030.820312 4389.492188 L 1015.78125 4391.914062 L 1000.78125 4394.296875 L 985.78125 4396.640625 L 970.742188 4398.984375 L 957.773438 4400.9375 L 944.765625 4402.851562 L 931.796875 4404.6875 L 918.789062 4406.523438 L 905.820312 4408.28125 L 892.8125 4410 L 879.804688 4411.640625 L 866.757812 4413.28125 L 840.742188 4416.40625 L 827.695312 4417.890625 L 801.601562 4420.703125 L 775.507812 4423.359375 L 762.421875 4424.570312 L 748.789062 4425.820312 L 735.15625 4426.992188 L 721.523438 4428.125 L 707.851562 4429.21875 L 694.21875 4430.234375 L 680.546875 4431.25 L 666.914062 4432.1875 L 653.242188 4433.085938 L 639.570312 4433.945312 L 625.898438 4434.765625 L 598.554688 4436.25 L 584.882812 4436.914062 L 571.210938 4437.539062 L 557.5 4438.125 L 543.828125 4438.671875 L 531.132812 4439.140625 L 518.476562 4439.570312 L 505.78125 4440 L 493.085938 4440.390625 L 467.695312 4441.09375 L 455.039062 4441.445312 L 416.953125 4442.265625 L 404.257812 4442.5 L 378.867188 4442.890625 L 353.476562 4443.203125 L 340.820312 4443.320312 L 284.101562 4443.710938 L 224.492188 4443.867188 L 10 4443.984375 L 11.523438 4161.484375 L 13.007812 4052.148438 L 16.40625 3945.195312 L 21.679688 3840.46875 L 28.90625 3737.851562 L 38.046875 3637.226562 L 49.21875 3538.476562 L 62.382812 3441.445312 L 77.578125 3346.015625 L 94.84375 3252.070312 L 114.21875 3159.453125 L 135.703125 3068.085938 L 159.335938 2977.8125 L 185.15625 2888.515625 L 213.203125 2800.039062 L 243.476562 2712.304688 L 276.015625 2625.15625 L 310.859375 2538.4375 L 348.007812 2452.070312 L 387.5 2365.9375 L 429.375 2279.84375 L 432.929688 2272.8125 L 436.484375 2265.742188 L 440 2258.671875 L 443.476562 2251.5625 L 445.15625 2248.085938 L 446.757812 2244.53125 L 448.203125 2240.976562 L 449.570312 2237.34375 L 450.078125 2236.054688 L 450.859375 2233.398438 L 451.210938 2232.03125 L 451.484375 2230.664062 L 451.71875 2229.296875 L 451.914062 2227.929688 L 452.03125 2226.5625 L 452.070312 2224.882812 L 452.03125 2223.203125 L 451.914062 2221.5625 L 451.679688 2219.921875 L 451.367188 2218.28125 L 450.9375 2216.640625 L 450.46875 2215.078125 L 449.882812 2213.515625 L 448.085938 2209.296875 L 447.148438 2207.226562 L 446.132812 2205.117188 L 445.117188 2203.085938 L 444.0625 2201.054688 L 442.96875 2199.023438 L 441.875 2197.03125 L 438.984375 2191.71875 L 435.78125 2185.78125 L 395.46875 2107.773438 L 357.109375 2027.851562 L 320.742188 1945.976562 Z M 286.328125 1862.1875 " transform="matrix(0.1,0,0,-0.1,0,792)"/>
<path style="fill:none;stroke-width:10;stroke-linecap:butt;stroke-linejoin:miter;stroke:rgb(0%,0%,0%);stroke-opacity:1;stroke-miterlimit:10;" d="M 1526.484375 1942.617188 L 1593.242188 1864.921875 L 1662.226562 1789.726562 L 1733.28125 1717.1875 L 1806.40625 1647.382812 L 1881.484375 1580.46875 L 1885.390625 1577.109375 L 1889.335938 1573.671875 L 1893.203125 1570.195312 L 1896.992188 1566.71875 L 1900.78125 1563.164062 L 1904.53125 1559.570312 L 1908.242188 1555.9375 L 1911.914062 1552.265625 L 1913.242188 1550.898438 L 1914.492188 1549.492188 L 1915.703125 1548.007812 L 1916.835938 1546.484375 L 1917.1875 1545.859375 L 1917.304688 1545.390625 L 1914.882812 1542.460938 L 1907.890625 1537.304688 L 1896.914062 1530.195312 L 1890.390625 1526.25 L 1883.90625 1522.34375 L 1877.34375 1518.476562 L 1870.78125 1514.648438 L 1857.65625 1507.070312 L 1851.054688 1503.359375 L 1844.414062 1499.648438 L 1832.226562 1492.890625 L 1820.039062 1486.171875 L 1807.8125 1479.492188 L 1795.585938 1472.851562 L 1783.320312 1466.210938 L 1771.054688 1459.648438 L 1746.445312 1446.601562 L 1734.101562 1440.117188 L 1721.757812 1433.671875 L 1709.414062 1427.265625 L 1684.648438 1414.53125 L 1672.226562 1408.242188 L 1659.765625 1401.953125 L 1640.15625 1392.148438 L 1632.96875 1388.59375 L 1625.742188 1385.078125 L 1618.515625 1381.601562 L 1611.25 1378.164062 L 1603.984375 1374.765625 L 1596.679688 1371.40625 L 1589.375 1368.085938 L 1575.898438 1362.265625 L 1566.09375 1358.59375 L 1560.546875 1357.304688 L 1559.609375 1357.890625 L 1558.710938 1358.554688 L 1557.851562 1359.257812 L 1557.03125 1360 L 1547.851562 1368.203125 L 1538.75 1376.445312 L 1529.726562 1384.804688 L 1520.78125 1393.242188 L 1503.28125 1409.804688 L 1401.054688 1511.328125 L 1303.125 1616.875 L 1209.570312 1726.25 L 1120.507812 1839.257812 L 1035.976562 1955.742188 L 956.09375 2075.46875 L 880.9375 2198.28125 L 810.585938 2323.984375 L 745.117188 2452.382812 L 684.648438 2583.28125 L 629.21875 2716.484375 L 578.945312 2851.796875 L 533.867188 2989.0625 L 494.101562 3128.085938 L 459.726562 3268.632812 L 430.859375 3410.585938 L 407.539062 3553.671875 L 389.804688 3697.773438 L 377.851562 3842.65625 L 371.679688 3988.125 L 369.570312 4083.984375 L 399.257812 4083.867188 L 466.367188 4082.96875 L 533.828125 4080.742188 L 601.601562 4077.109375 L 669.6875 4072.1875 L 737.96875 4065.898438 L 806.40625 4058.28125 L 874.960938 4049.414062 L 943.554688 4039.21875 L 1012.148438 4027.734375 L 1080.664062 4014.960938 L 1149.0625 4000.976562 L 1217.265625 3985.703125 L 1285.273438 3969.179688 L 1352.96875 3951.445312 L 1420.273438 3932.5 L 1487.226562 3912.34375 L 1553.710938 3890.976562 L 1619.6875 3868.4375 L 1685.039062 3844.726562 L 1698.320312 3839.6875 L 1711.5625 3834.609375 L 1738.046875 3824.375 L 1751.289062 3819.21875 L 1777.695312 3808.828125 L 1790.898438 3803.59375 L 1797.851562 3800.78125 L 1804.765625 3797.96875 L 1811.679688 3795 L 1818.554688 3791.992188 L 1825.039062 3788.90625 L 1830.273438 3786.09375 L 1834.296875 3783.515625 L 1837.148438 3781.132812 L 1838.945312 3778.867188 L 1839.6875 3776.640625 L 1839.414062 3774.453125 L 1838.242188 3772.226562 L 1836.171875 3769.882812 L 1833.320312 3767.382812 L 1830.15625 3765.039062 L 1826.914062 3762.773438 L 1823.671875 3760.546875 L 1820.390625 3758.359375 L 1809.21875 3750.859375 L 1798.125 3743.320312 L 1787.03125 3735.742188 L 1775.976562 3728.085938 L 1764.960938 3720.390625 L 1753.984375 3712.65625 L 1743.007812 3704.882812 L 1732.109375 3697.070312 L 1719.0625 3687.695312 L 1706.054688 3678.320312 L 1693.085938 3668.867188 L 1667.226562 3649.882812 L 1654.335938 3640.3125 L 1641.484375 3630.703125 L 1628.671875 3621.054688 L 1615.898438 3611.40625 L 1603.125 3601.679688 L 1590.390625 3591.914062 L 1577.695312 3582.109375 L 1564.882812 3572.03125 L 1551.992188 3561.992188 L 1539.0625 3552.070312 L 1526.09375 3542.226562 L 1522.03125 3539.21875 L 1518.007812 3536.171875 L 1513.945312 3533.203125 L 1509.84375 3530.234375 L 1505.742188 3527.304688 L 1501.640625 3524.414062 L 1497.460938 3521.523438 L 1493.320312 3518.671875 L 1491.484375 3517.421875 L 1489.609375 3516.289062 L 1487.65625 3515.195312 L 1485.703125 3514.179688 L 1484.921875 3513.984375 L 1483.242188 3514.257812 L 1481.5625 3514.570312 L 1479.882812 3514.960938 L 1478.203125 3515.429688 L 1466.796875 3518.710938 L 1461.09375 3520.429688 L 1455.429688 3522.148438 L 1444.101562 3525.742188 L 1438.4375 3527.578125 L 1419.921875 3533.75 L 1406.992188 3537.96875 L 1394.0625 3542.148438 L 1381.09375 3546.210938 L 1368.085938 3550.234375 L 1355.078125 3554.140625 L 1342.03125 3558.007812 L 1328.984375 3561.757812 L 1313.59375 3566.132812 L 1298.164062 3570.46875 L 1282.734375 3574.726562 L 1251.875 3583.085938 L 1236.40625 3587.148438 L 1220.898438 3591.210938 L 1205.390625 3595.195312 L 1174.375 3603.007812 L 1143.28125 3610.585938 L 1127.929688 3614.257812 L 1112.578125 3617.890625 L 1097.226562 3621.484375 L 1081.835938 3625 L 1066.445312 3628.476562 L 1051.054688 3631.914062 L 1035.625 3635.273438 L 1020.234375 3638.59375 L 1004.804688 3641.835938 L 989.335938 3645.039062 L 973.90625 3648.203125 L 958.4375 3651.289062 L 946.757812 3653.59375 L 935.117188 3655.859375 L 911.757812 3660.15625 L 900.078125 3662.1875 L 888.359375 3664.21875 L 864.921875 3668.046875 L 838.59375 3671.914062 L 815.273438 3674.765625 L 795.273438 3676.601562 L 778.867188 3677.304688 L 777.8125 3675.703125 L 777.460938 3671.09375 L 777.695312 3663.710938 L 778.476562 3653.710938 L 779.296875 3646.054688 L 780.15625 3638.398438 L 781.09375 3630.703125 L 782.070312 3623.046875 L 783.085938 3615.390625 L 784.179688 3607.773438 L 785.3125 3600.117188 L 786.484375 3592.5 L 788.828125 3577.578125 L 793.671875 3547.8125 L 798.75 3518.046875 L 804.0625 3488.359375 L 806.796875 3473.515625 L 809.570312 3458.671875 L 812.421875 3443.867188 L 815.3125 3429.0625 L 818.28125 3414.257812 L 820.507812 3403.164062 L 822.773438 3392.109375 L 825.078125 3381.054688 L 827.460938 3369.960938 L 829.84375 3358.945312 L 832.265625 3347.890625 L 837.265625 3325.859375 L 862.421875 3225.234375 L 890.859375 3125.3125 L 922.5 3026.171875 L 957.304688 2927.929688 L 995.15625 2830.742188 L 1036.015625 2734.6875 L 1079.804688 2639.921875 L 1126.445312 2546.5625 L 1175.859375 2454.726562 L 1227.96875 2364.53125 L 1282.695312 2276.09375 L 1340 2189.570312 L 1399.804688 2105.078125 L 1461.953125 2022.695312 Z M 1526.484375 1942.617188 " transform="matrix(0.1,0,0,-0.1,0,792)"/>
<path style="fill:none;stroke-width:10;stroke-linecap:butt;stroke-linejoin:miter;stroke:rgb(0%,0%,0%);stroke-opacity:1;stroke-miterlimit:10;" d="M 1885.78125 2078.75 L 1875.703125 2089.609375 L 1865.664062 2100.546875 L 1855.703125 2111.523438 L 1845.78125 2122.578125 L 1835.9375 2133.671875 L 1826.132812 2144.804688 L 1816.40625 2156.015625 L 1806.757812 2167.265625 L 1789.179688 2188.164062 L 1783.945312 2194.53125 L 1778.710938 2200.9375 L 1773.515625 2207.34375 L 1768.320312 2213.789062 L 1767.695312 2214.53125 L 1767.070312 2215.351562 L 1766.484375 2216.132812 L 1765.898438 2216.953125 L 1764.882812 2218.671875 L 1764.414062 2219.570312 L 1763.984375 2220.46875 L 1763.554688 2221.5625 L 1763.242188 2222.734375 L 1763.046875 2223.90625 L 1762.96875 2225.117188 L 1763.046875 2226.328125 L 1763.203125 2227.5 L 1763.476562 2228.671875 L 1763.867188 2229.804688 L 1765.078125 2232.695312 L 1765.898438 2234.179688 L 1766.71875 2235.625 L 1767.578125 2237.070312 L 1769.375 2239.882812 L 1770.3125 2241.289062 L 1771.328125 2242.617188 L 1772.304688 2243.984375 L 1777.03125 2250.039062 L 1781.796875 2256.015625 L 1786.679688 2261.914062 L 1791.640625 2267.773438 L 1802.304688 2280.273438 L 1813.007812 2292.734375 L 1823.75 2305.195312 L 1834.53125 2317.578125 L 1842.1875 2326.171875 L 1849.882812 2334.726562 L 1857.617188 2343.28125 L 1865.351562 2351.796875 L 1873.125 2360.273438 L 1880.898438 2368.710938 L 1888.75 2377.148438 L 1896.601562 2385.546875 L 1904.492188 2393.90625 L 1912.421875 2402.265625 L 1920.351562 2410.585938 L 1928.359375 2418.867188 L 1939.140625 2430.078125 L 1950 2441.25 L 1960.898438 2452.382812 L 1971.835938 2463.515625 L 1982.773438 2474.570312 L 1993.789062 2485.585938 L 2004.84375 2496.5625 L 2015.9375 2507.539062 L 2027.03125 2518.4375 L 2038.203125 2529.335938 L 2049.375 2540.15625 L 2060.625 2550.976562 L 2071.875 2561.71875 L 2083.164062 2572.460938 L 2105.898438 2593.789062 L 2113.554688 2600.898438 L 2121.25 2607.96875 L 2128.984375 2615 L 2136.71875 2621.992188 L 2144.53125 2628.945312 L 2152.382812 2635.859375 L 2168.164062 2649.53125 L 2185.078125 2663.632812 L 2199.648438 2675.039062 L 2211.523438 2683.554688 L 2220.507812 2688.828125 L 2226.289062 2690.625 L 2234.53125 2687.539062 L 2248.007812 2678.59375 L 2266.171875 2664.492188 L 2288.398438 2645.820312 L 2313.984375 2623.164062 L 2325.546875 2612.617188 L 2337.070312 2602.03125 L 2348.554688 2591.40625 L 2359.960938 2580.742188 L 2371.367188 2570.039062 L 2382.695312 2559.257812 L 2393.984375 2548.4375 L 2405.234375 2537.578125 L 2415.664062 2527.5 L 2436.367188 2507.265625 L 2446.679688 2497.109375 L 2467.226562 2476.71875 L 2477.460938 2466.445312 L 2487.695312 2456.210938 L 2508.007812 2435.585938 L 2528.242188 2414.882812 L 2538.320312 2404.492188 L 2548.359375 2394.0625 L 2558.398438 2383.59375 L 2568.398438 2373.125 L 2597.148438 2342.539062 L 2623.125 2314.101562 L 2645.78125 2288.476562 L 2664.492188 2266.289062 L 2678.59375 2248.125 L 2687.539062 2234.648438 L 2690.625 2226.40625 L 2688.945312 2221.328125 L 2683.945312 2213.085938 L 2676.015625 2202.070312 L 2665.3125 2188.515625 L 2659.6875 2181.71875 L 2654.0625 2175 L 2648.398438 2168.28125 L 2642.65625 2161.601562 L 2636.914062 2154.960938 L 2631.09375 2148.359375 L 2625.273438 2141.796875 L 2619.414062 2135.234375 L 2610.664062 2125.585938 L 2601.875 2115.9375 L 2593.085938 2106.328125 L 2584.21875 2096.71875 L 2575.351562 2087.1875 L 2566.445312 2077.65625 L 2557.539062 2068.164062 L 2548.554688 2058.671875 L 2539.570312 2049.257812 L 2530.546875 2039.84375 L 2521.484375 2030.46875 L 2512.382812 2021.09375 L 2502.8125 2011.210938 L 2493.203125 2001.40625 L 2483.554688 1991.601562 L 2473.867188 1981.875 L 2454.414062 1962.421875 L 2444.648438 1952.773438 L 2434.84375 1943.125 L 2425 1933.515625 L 2415.117188 1923.945312 L 2405.195312 1914.414062 L 2395.273438 1904.921875 L 2385.78125 1895.9375 L 2376.210938 1886.992188 L 2366.601562 1878.085938 L 2356.953125 1869.296875 L 2347.226562 1860.546875 L 2337.421875 1851.835938 L 2327.578125 1843.203125 L 2317.695312 1834.648438 L 2305.742188 1824.21875 L 2293.75 1813.828125 L 2281.71875 1803.4375 L 2269.6875 1793.125 L 2264.101562 1788.398438 L 2258.476562 1783.789062 L 2252.773438 1779.257812 L 2246.992188 1774.804688 L 2241.40625 1770.742188 L 2236.601562 1767.65625 L 2232.460938 1765.429688 L 2228.867188 1763.984375 L 2225.742188 1763.28125 L 2224.765625 1763.203125 L 2223.75 1763.203125 L 2222.734375 1763.28125 L 2221.757812 1763.4375 L 2220.78125 1763.710938 L 2219.804688 1764.023438 L 2218.90625 1764.414062 L 2218.007812 1764.882812 L 2215.585938 1766.445312 L 2213.515625 1768.125 L 2207.304688 1773.28125 L 2197.539062 1781.40625 L 2187.8125 1789.570312 L 2178.125 1797.773438 L 2168.515625 1806.015625 L 2158.90625 1814.296875 L 2149.296875 1822.617188 L 2139.765625 1830.976562 L 2130.273438 1839.375 L 2120.78125 1847.851562 L 2111.367188 1856.328125 L 2092.617188 1873.4375 L 2081.914062 1883.320312 L 2071.25 1893.242188 L 2060.625 1903.203125 L 2050.039062 1913.203125 L 2039.453125 1923.28125 L 2028.945312 1933.359375 L 2018.476562 1943.476562 L 2008.007812 1953.632812 L 1997.617188 1963.867188 L 1987.265625 1974.101562 L 1976.914062 1984.414062 L 1966.640625 1994.726562 L 1956.40625 2005.078125 L 1946.171875 2015.507812 L 1936.015625 2025.9375 L 1925.898438 2036.445312 L 1915.820312 2046.953125 L 1905.78125 2057.5 Z M 1885.78125 2078.75 " transform="matrix(0.1,0,0,-0.1,0,792)"/>
<path style="fill:none;stroke-width:10;stroke-linecap:butt;stroke-linejoin:miter;stroke:rgb(0%,0%,0%);stroke-opacity:1;stroke-miterlimit:10;" d="M 1664.140625 2682.5 L 1744.492188 2764.414062 L 1828.632812 2843.75 L 1916.328125 2920.390625 L 2007.304688 2994.21875 L 2101.328125 3065.078125 L 2198.242188 3132.890625 L 2297.8125 3197.539062 L 2399.765625 3258.828125 L 2503.90625 3316.71875 L 2610 3371.09375 L 2717.8125 3421.757812 L 2827.148438 3468.671875 L 2937.773438 3511.640625 L 3049.414062 3550.625 L 3161.914062 3585.429688 L 3275 3615.976562 L 3388.476562 3642.148438 L 3502.109375 3663.828125 L 3615.625 3680.820312 L 3625.859375 3682.1875 L 3636.09375 3683.476562 L 3646.328125 3684.6875 L 3656.523438 3685.898438 L 3661.09375 3686.367188 L 3665.703125 3686.757812 L 3670.273438 3687.03125 L 3674.882812 3687.1875 L 3676.757812 3687.1875 L 3677.695312 3687.148438 L 3678.632812 3687.070312 L 3679.570312 3686.953125 L 3681.445312 3686.640625 L 3682.34375 3686.40625 L 3683.046875 3686.25 L 3683.398438 3686.132812 L 3684.023438 3685.820312 L 3684.648438 3685.429688 L 3684.921875 3685.234375 L 3685.195312 3684.960938 L 3685.46875 3684.726562 L 3685.703125 3684.453125 L 3686.09375 3683.90625 L 3686.289062 3683.59375 L 3686.601562 3682.96875 L 3686.835938 3682.148438 L 3686.992188 3681.367188 L 3687.148438 3680.546875 L 3687.226562 3679.726562 L 3687.304688 3678.945312 L 3687.34375 3678.125 L 3687.34375 3677.304688 L 3687.304688 3676.484375 L 3686.679688 3659.0625 L 3684.84375 3637.851562 L 3681.914062 3613.164062 L 3680.351562 3601.757812 L 3678.671875 3590.351562 L 3676.953125 3578.945312 L 3675.15625 3567.539062 L 3673.28125 3556.171875 L 3671.367188 3544.804688 L 3669.375 3533.4375 L 3667.304688 3522.109375 L 3665.039062 3509.726562 L 3662.695312 3497.382812 L 3660.3125 3485.039062 L 3657.890625 3472.695312 L 3655.429688 3460.390625 L 3652.96875 3448.046875 L 3650.429688 3435.742188 L 3647.851562 3423.4375 L 3645.234375 3411.132812 L 3642.617188 3398.867188 L 3639.921875 3386.601562 L 3637.1875 3374.335938 L 3634.453125 3362.109375 L 3631.71875 3349.921875 L 3626.09375 3325.546875 L 3623.242188 3313.359375 L 3620.351562 3301.210938 L 3617.421875 3289.023438 L 3614.492188 3276.875 L 3611.484375 3264.726562 L 3608.476562 3252.617188 L 3605.429688 3240.46875 L 3599.257812 3216.25 L 3596.09375 3204.140625 L 3592.890625 3192.03125 L 3589.6875 3179.960938 L 3586.171875 3166.835938 L 3582.617188 3153.75 L 3578.945312 3140.664062 L 3575.273438 3127.617188 L 3571.484375 3114.609375 L 3567.65625 3101.5625 L 3563.789062 3088.554688 L 3559.84375 3075.585938 L 3554.921875 3059.882812 L 3552.421875 3052.070312 L 3547.265625 3036.445312 L 3544.648438 3028.632812 L 3541.992188 3020.859375 L 3539.296875 3013.085938 L 3537.734375 3008.632812 L 3536.210938 3004.140625 L 3534.765625 2999.648438 L 3533.359375 2995.15625 L 3531.953125 2990.625 L 3530.664062 2986.09375 L 3529.375 2981.523438 L 3528.164062 2976.992188 L 3527.617188 2974.804688 L 3527.1875 2972.617188 L 3526.796875 2970.390625 L 3526.523438 2968.203125 L 3526.484375 2967.1875 L 3526.484375 2966.679688 L 3526.5625 2966.445312 L 3526.5625 2966.328125 L 3526.640625 2966.210938 L 3526.679688 2966.09375 L 3526.71875 2966.015625 L 3526.796875 2965.898438 L 3526.835938 2965.78125 L 3526.914062 2965.703125 L 3526.992188 2965.585938 L 3527.148438 2965.429688 L 3540.273438 2948.554688 L 3546.875 2940.15625 L 3553.4375 2931.71875 L 3560 2923.320312 L 3566.5625 2914.882812 L 3573.164062 2906.484375 L 3579.726562 2898.085938 L 3599.648438 2872.460938 L 3609.492188 2859.570312 L 3619.335938 2846.640625 L 3629.101562 2833.710938 L 3638.828125 2820.703125 L 3648.476562 2807.695312 L 3658.085938 2794.648438 L 3665.664062 2784.375 L 3673.242188 2774.0625 L 3680.78125 2763.789062 L 3688.28125 2753.476562 L 3695.78125 2743.125 L 3710.703125 2722.421875 L 3725.546875 2701.640625 L 3732.929688 2691.210938 L 3747.617188 2670.351562 L 3753.203125 2662.34375 L 3758.710938 2654.257812 L 3764.140625 2646.09375 L 3769.453125 2637.890625 L 3776.289062 2626.835938 L 3783.125 2642.890625 L 3808.398438 2703.710938 L 3832.539062 2765.273438 L 3855.546875 2827.539062 L 3877.460938 2890.507812 L 3898.242188 2954.101562 L 3917.890625 3018.359375 L 3936.40625 3083.203125 L 3953.789062 3148.632812 L 3970 3214.648438 L 3985.078125 3281.171875 L 3998.984375 3348.203125 L 4011.757812 3415.703125 L 4023.320312 3483.671875 L 4033.710938 3552.070312 L 4042.96875 3620.859375 L 4050.976562 3690 L 4057.8125 3759.53125 L 4063.476562 3829.375 L 4067.890625 3899.492188 L 4071.132812 3969.882812 L 4071.640625 3981.328125 L 4072.1875 3992.734375 L 4073.359375 4015.546875 L 4073.90625 4027.1875 L 4074.179688 4037.226562 L 4074.0625 4045.820312 L 4073.4375 4053.007812 L 4072.1875 4058.945312 L 4070.234375 4063.710938 L 4067.421875 4067.421875 L 4063.710938 4070.234375 L 4058.945312 4072.1875 L 4053.007812 4073.398438 L 4045.820312 4074.023438 L 4037.226562 4074.140625 L 4027.1875 4073.90625 L 4017.148438 4073.398438 L 4007.109375 4072.851562 L 3997.03125 4072.34375 L 3986.992188 4071.835938 L 3969.882812 4071.09375 L 3822.34375 4062.695312 L 3675.898438 4048.828125 L 3530.703125 4029.453125 L 3386.953125 4004.726562 L 3244.804688 3974.6875 L 3104.414062 3939.375 L 2965.9375 3898.90625 L 2829.492188 3853.359375 L 2695.3125 3802.734375 L 2563.476562 3747.1875 L 2434.21875 3686.71875 L 2307.617188 3621.445312 L 2183.867188 3551.40625 L 2063.125 3476.679688 L 1945.546875 3397.34375 L 1831.289062 3313.476562 L 1720.546875 3225.117188 L 1613.398438 3132.34375 L 1510.078125 3035.273438 L 1410.703125 2933.90625 L 1370.390625 2891.09375 L 1392.5 2841.679688 L 1399.0625 2827.617188 L 1405.703125 2813.554688 L 1409.101562 2806.5625 L 1415.976562 2792.65625 L 1419.453125 2785.703125 L 1425.3125 2774.101562 L 1431.171875 2762.539062 L 1437.03125 2750.9375 L 1448.90625 2727.8125 L 1460.859375 2704.765625 L 1472.890625 2681.71875 L 1478.945312 2670.234375 L 1485.039062 2658.75 L 1503.4375 2624.414062 L 1509.648438 2613.007812 L 1515.859375 2601.5625 L 1520.898438 2592.382812 L 1526.015625 2583.242188 L 1531.171875 2574.140625 L 1536.445312 2565.078125 L 1541.054688 2557.460938 L 1544.335938 2552.617188 L 1546.09375 2550.742188 L 1551.132812 2556.289062 L 1556.132812 2561.875 L 1561.09375 2567.5 L 1566.015625 2573.164062 L 1571.445312 2579.414062 L 1576.875 2585.625 L 1587.734375 2598.125 Z M 1664.140625 2682.5 " transform="matrix(0.1,0,0,-0.1,0,792)"/>
<path style="fill:none;stroke-width:10;stroke-linecap:butt;stroke-linejoin:miter;stroke:rgb(0%,0%,0%);stroke-opacity:1;stroke-miterlimit:10;" d="M 2934.414062 2500.234375 L 2867.65625 2578.359375 L 2798.59375 2654.101562 L 2727.265625 2727.460938 L 2653.789062 2798.359375 L 2578.125 2866.5625 L 2573.359375 2870.742188 L 2568.554688 2874.960938 L 2563.828125 2879.21875 L 2559.140625 2883.476562 L 2554.453125 2887.8125 L 2545.234375 2896.5625 L 2540.703125 2901.015625 L 2539.101562 2902.578125 L 2537.578125 2904.21875 L 2536.09375 2905.898438 L 2534.6875 2907.617188 L 2534.296875 2908.28125 L 2534.140625 2908.710938 L 2536.640625 2911.640625 L 2543.710938 2916.796875 L 2554.804688 2923.867188 L 2561.289062 2927.734375 L 2574.414062 2935.390625 L 2580.976562 2939.179688 L 2587.578125 2942.929688 L 2594.179688 2946.640625 L 2600.820312 2950.351562 L 2607.460938 2953.984375 L 2631.914062 2967.265625 L 2656.445312 2980.390625 L 2668.710938 2986.875 L 2681.015625 2993.359375 L 2693.359375 2999.804688 L 2705.703125 3006.210938 L 2718.046875 3012.578125 L 2742.8125 3025.234375 L 2767.65625 3037.734375 L 2792.578125 3050.078125 L 2805.039062 3056.210938 L 2812.226562 3059.765625 L 2819.453125 3063.242188 L 2826.71875 3066.71875 L 2833.945312 3070.117188 L 2841.25 3073.515625 L 2848.515625 3076.835938 L 2855.859375 3080.15625 L 2863.164062 3083.398438 L 2876.71875 3089.101562 L 2886.5625 3092.695312 L 2892.226562 3093.984375 L 2895.3125 3092.734375 L 2900.507812 3089.140625 L 2907.695312 3083.320312 L 2911.71875 3079.804688 L 2915.742188 3076.210938 L 2919.765625 3072.65625 L 2923.710938 3069.023438 L 2927.695312 3065.390625 L 2931.601562 3061.757812 L 2935.507812 3058.046875 L 2939.375 3054.335938 L 2958.90625 3035.351562 L 2968.59375 3025.78125 L 2978.242188 3016.171875 L 2987.851562 3006.523438 L 2997.421875 2996.875 L 3006.953125 2987.148438 L 3016.445312 2977.382812 L 3034.492188 2958.710938 L 3043.476562 2949.335938 L 3061.367188 2930.507812 L 3070.273438 2921.09375 L 3079.140625 2911.601562 L 3088.007812 2902.148438 L 3096.835938 2892.617188 L 3105.625 2883.085938 L 3114.414062 2873.515625 L 3123.164062 2863.945312 L 3131.875 2854.335938 L 3140.585938 2844.6875 L 3149.257812 2835.039062 L 3157.890625 2825.351562 L 3173.789062 2807.304688 L 3258.789062 2706.054688 L 3339.960938 2601.914062 L 3417.265625 2495.078125 L 3490.625 2385.585938 L 3560 2273.632812 L 3625.3125 2159.414062 L 3686.523438 2043.007812 L 3743.59375 1924.609375 L 3796.445312 1804.335938 L 3845.039062 1682.34375 L 3889.296875 1558.75 L 3929.140625 1433.75 L 3964.609375 1307.460938 L 3995.546875 1180.039062 L 4021.953125 1051.601562 L 4043.789062 922.34375 L 4060.9375 792.421875 L 4073.359375 661.914062 L 4081.015625 530.976562 L 4083.867188 399.804688 L 4083.984375 370.625 L 4067.65625 370.78125 L 4051.328125 370.898438 L 4035.039062 371.054688 L 4018.710938 371.25 L 3986.054688 371.71875 L 3969.726562 371.992188 L 3953.4375 372.265625 L 3946.054688 372.421875 L 3938.710938 372.578125 L 3931.328125 372.773438 L 3923.984375 372.96875 L 3864.21875 375.664062 L 3803.90625 379.492188 L 3743.125 384.492188 L 3681.953125 390.625 L 3620.429688 397.890625 L 3558.632812 406.289062 L 3496.679688 415.78125 L 3434.570312 426.367188 L 3372.421875 438.007812 L 3310.273438 450.703125 L 3248.203125 464.492188 L 3186.289062 479.257812 L 3124.609375 495.039062 L 3063.203125 511.835938 L 3002.148438 529.609375 L 2941.5625 548.359375 L 2881.445312 568.046875 L 2821.914062 588.671875 L 2763.007812 610.234375 L 2750.742188 614.882812 L 2726.210938 624.335938 L 2713.984375 629.101562 L 2701.757812 633.90625 L 2689.53125 638.75 L 2665.15625 648.515625 L 2656.445312 652.03125 L 2647.773438 655.664062 L 2639.140625 659.335938 L 2630.585938 663.164062 L 2624.804688 665.898438 L 2620.078125 668.359375 L 2616.328125 670.585938 L 2613.515625 672.578125 L 2611.5625 674.375 L 2610.429688 676.015625 L 2610.039062 677.578125 L 2610.351562 679.0625 L 2611.289062 680.507812 L 2612.8125 681.992188 L 2614.648438 683.28125 L 2616.484375 684.492188 L 2618.359375 685.625 L 2620.3125 686.71875 L 2625.664062 690 L 2631.015625 693.359375 L 2636.289062 696.796875 L 2641.484375 700.3125 L 2649.53125 705.820312 L 2657.539062 711.328125 L 2665.546875 716.875 L 2673.515625 722.421875 L 2681.445312 728.007812 L 2689.414062 733.632812 L 2697.34375 739.296875 L 2705.234375 744.960938 L 2731.71875 763.945312 L 2744.882812 773.515625 L 2758.085938 783.125 L 2771.210938 792.734375 L 2784.335938 802.382812 L 2797.421875 812.070312 L 2810.507812 821.796875 L 2823.554688 831.5625 L 2836.5625 841.328125 L 2849.570312 851.171875 L 2862.539062 861.015625 L 2875.46875 870.976562 L 2887.1875 880.117188 L 2965.429688 941.679688 L 3032.1875 919.609375 L 3043.007812 916.09375 L 3053.828125 912.617188 L 3075.46875 905.742188 L 3086.289062 902.382812 L 3097.148438 899.023438 L 3108.007812 895.703125 L 3129.726562 889.140625 L 3151.523438 882.734375 L 3162.421875 879.570312 L 3174.375 876.09375 L 3198.28125 869.296875 L 3210.273438 865.976562 L 3222.265625 862.734375 L 3234.296875 859.53125 L 3246.328125 856.367188 L 3258.359375 853.242188 L 3267.890625 850.9375 L 3277.421875 848.671875 L 3286.992188 846.40625 L 3296.523438 844.21875 L 3312.1875 840.585938 L 3327.8125 836.953125 L 3359.0625 829.609375 L 3377.265625 825.546875 L 3386.367188 823.554688 L 3395.46875 821.601562 L 3404.570312 819.6875 L 3422.851562 816.015625 L 3431.992188 814.257812 L 3446.953125 811.367188 L 3461.953125 808.554688 L 3476.953125 805.820312 L 3491.953125 803.125 L 3506.992188 800.46875 L 3522.03125 797.929688 L 3537.070312 795.429688 L 3552.109375 792.96875 L 3567.1875 790.585938 L 3582.265625 788.28125 L 3597.34375 786.015625 L 3612.421875 783.828125 L 3622.851562 782.382812 L 3633.28125 781.054688 L 3643.710938 779.84375 L 3654.140625 778.710938 L 3663.90625 777.929688 L 3671.171875 777.617188 L 3675.703125 777.890625 L 3677.265625 778.75 L 3676.992188 785.15625 L 3676.210938 793.242188 L 3675.351562 801.289062 L 3674.414062 809.335938 L 3673.320312 817.34375 L 3671.796875 828.007812 L 3668.59375 849.335938 L 3666.953125 860 L 3665.234375 870.664062 L 3663.515625 881.289062 L 3659.921875 902.539062 L 3657.265625 917.929688 L 3654.570312 933.28125 L 3651.835938 948.632812 L 3649.023438 963.984375 L 3646.171875 979.296875 L 3643.28125 994.609375 L 3640.351562 1009.921875 L 3637.382812 1025.234375 L 3634.335938 1040.546875 L 3628.085938 1071.09375 L 3624.921875 1086.367188 L 3621.015625 1104.375 L 3617.226562 1121.210938 L 3592.421875 1221.640625 L 3564.375 1321.367188 L 3533.203125 1420.15625 L 3498.90625 1518.007812 L 3461.5625 1614.765625 L 3421.289062 1710.3125 L 3378.046875 1804.609375 L 3331.953125 1897.5 L 3283.046875 1988.90625 L 3231.445312 2078.710938 L 3177.148438 2166.835938 L 3120.234375 2253.125 L 3060.78125 2337.539062 L 2998.789062 2419.960938 Z M 2934.414062 2500.234375 " transform="matrix(0.1,0,0,-0.1,0,792)"/>
<path style="fill:none;stroke-width:10;stroke-linecap:butt;stroke-linejoin:miter;stroke:rgb(0%,0%,0%);stroke-opacity:1;stroke-miterlimit:10;" d="M 2628.203125 1627.460938 L 2711.054688 1706.5625 L 2789.726562 1788.007812 L 2863.984375 1871.71875 L 2867.96875 1876.40625 L 2871.953125 1881.054688 L 2876.015625 1885.664062 L 2880.117188 1890.234375 L 2884.257812 1894.804688 L 2888.4375 1899.296875 L 2892.65625 1903.789062 L 2896.953125 1908.203125 L 2898.867188 1910.15625 L 2900.859375 1912.070312 L 2902.890625 1913.90625 L 2905 1915.703125 L 2905.976562 1916.445312 L 2906.757812 1916.875 L 2907.304688 1917.03125 L 2910.390625 1914.726562 L 2915.664062 1907.890625 L 2922.851562 1897.03125 L 2931.679688 1882.65625 L 2937.734375 1872.34375 L 2943.75 1861.992188 L 2949.6875 1851.601562 L 2955.585938 1841.210938 L 2961.40625 1830.78125 L 2967.1875 1820.3125 L 2972.929688 1809.804688 L 2978.59375 1799.296875 L 2985.273438 1786.914062 L 2991.914062 1774.492188 L 2998.515625 1762.109375 L 3005.078125 1749.648438 L 3011.601562 1737.1875 L 3018.085938 1724.6875 L 3024.53125 1712.1875 L 3030.9375 1699.6875 L 3037.265625 1687.148438 L 3043.59375 1674.570312 L 3049.882812 1661.992188 L 3056.09375 1649.375 L 3066.640625 1627.617188 L 3075.78125 1608.046875 L 3083.398438 1591.171875 L 3089.101562 1577.460938 L 3092.695312 1567.382812 L 3093.984375 1561.40625 L 3093.398438 1559.804688 L 3091.71875 1557.148438 L 3089.0625 1553.671875 L 3086.289062 1550.234375 L 3083.476562 1546.835938 L 3080.585938 1543.515625 L 3076.289062 1538.671875 L 3071.914062 1533.828125 L 3067.539062 1529.023438 L 3063.125 1524.21875 L 3058.671875 1519.453125 L 3054.257812 1514.726562 L 3049.765625 1510 L 3045.234375 1505.273438 L 3036.445312 1496.171875 L 3027.578125 1487.03125 L 3018.671875 1477.96875 L 3009.765625 1468.945312 L 3000.820312 1459.921875 L 2991.835938 1450.9375 L 2982.8125 1441.992188 L 2973.789062 1433.085938 L 2964.726562 1424.179688 L 2955.585938 1415.3125 L 2946.484375 1406.484375 L 2937.304688 1397.695312 L 2835.625 1303.945312 L 2730.820312 1214.335938 L 2623.085938 1128.90625 L 2512.5 1047.695312 L 2399.21875 970.820312 L 2283.4375 898.320312 L 2165.15625 830.234375 L 2044.648438 766.601562 L 1921.914062 707.5 L 1797.1875 652.96875 L 1670.585938 603.085938 L 1542.1875 557.851562 L 1412.1875 517.421875 L 1280.664062 481.757812 L 1147.773438 450.976562 L 1013.671875 425.078125 L 878.476562 404.179688 L 742.304688 388.28125 L 605.3125 377.421875 L 467.578125 371.757812 L 369.53125 369.53125 L 371.757812 467.578125 L 373.828125 532.65625 L 377.03125 597.578125 L 381.40625 662.421875 L 386.875 727.109375 L 393.515625 791.679688 L 401.289062 856.09375 L 410.234375 920.351562 L 420.273438 984.453125 L 431.445312 1048.4375 L 443.789062 1112.1875 L 457.265625 1175.820312 L 471.835938 1239.21875 L 487.578125 1302.460938 L 504.453125 1365.507812 L 522.421875 1428.359375 L 541.5625 1490.976562 L 561.796875 1553.398438 L 583.164062 1615.585938 L 605.625 1677.578125 L 609.6875 1688.203125 L 613.75 1698.867188 L 617.851562 1709.53125 L 621.914062 1720.195312 L 626.015625 1730.820312 L 630.117188 1741.484375 L 634.257812 1752.109375 L 638.359375 1762.734375 L 641.757812 1771.484375 L 645.117188 1780.195312 L 651.679688 1797.773438 L 658.085938 1815.351562 L 661.210938 1824.179688 L 664.296875 1833.007812 L 665.117188 1835.390625 L 665.859375 1837.734375 L 666.5625 1840.15625 L 667.1875 1842.539062 L 667.265625 1843.789062 L 667.34375 1844.375 L 667.382812 1844.960938 L 667.382812 1845.351562 L 667.421875 1845.742188 L 667.5 1846.132812 L 667.578125 1846.484375 L 667.695312 1846.875 L 667.8125 1847.226562 L 667.96875 1847.578125 L 668.359375 1848.203125 L 668.828125 1848.828125 L 669.101562 1849.101562 L 669.453125 1849.335938 L 669.804688 1849.53125 L 670.195312 1849.765625 L 671.367188 1850.234375 L 671.757812 1850.351562 L 672.617188 1850.507812 L 673.007812 1850.546875 L 673.4375 1850.585938 L 673.867188 1850.585938 L 674.648438 1850.625 L 675.46875 1850.664062 L 676.25 1850.664062 L 677.03125 1850.625 L 677.8125 1850.546875 L 678.59375 1850.429688 L 680.15625 1850.117188 L 680.507812 1850.039062 L 681.210938 1849.726562 L 681.835938 1849.335938 L 682.148438 1849.101562 L 682.421875 1848.867188 L 682.65625 1848.59375 L 683.125 1847.96875 L 683.28125 1847.65625 L 683.59375 1846.953125 L 683.710938 1846.601562 L 683.789062 1846.25 L 683.828125 1845.898438 L 683.90625 1845.351562 L 683.984375 1844.335938 L 683.984375 1843.828125 L 684.765625 1840.820312 L 687.03125 1835.898438 L 690.742188 1829.140625 L 693.984375 1823.75 L 697.265625 1818.398438 L 700.625 1813.046875 L 703.984375 1807.734375 L 707.382812 1802.460938 L 710.859375 1797.1875 L 714.375 1791.953125 L 717.890625 1786.757812 L 726.171875 1774.6875 L 734.492188 1762.617188 L 742.890625 1750.585938 L 759.765625 1726.679688 L 768.320312 1714.765625 L 776.914062 1702.890625 L 785.507812 1691.054688 L 794.140625 1679.296875 L 802.773438 1667.578125 L 811.445312 1655.898438 L 820.15625 1644.21875 L 828.90625 1632.578125 L 837.695312 1620.976562 L 846.523438 1609.375 L 855.351562 1597.8125 L 864.257812 1586.289062 L 873.203125 1574.804688 L 882.1875 1563.320312 L 891.171875 1551.875 L 896.640625 1544.921875 L 902.109375 1537.890625 L 907.5 1530.859375 L 912.851562 1523.828125 L 918.203125 1516.71875 L 923.515625 1509.609375 L 928.789062 1502.5 L 934.023438 1495.3125 L 935.546875 1493.203125 L 937.03125 1491.054688 L 938.476562 1488.90625 L 939.84375 1486.71875 L 940.429688 1485.664062 L 940.625 1485.078125 L 940.351562 1483.632812 L 940 1482.1875 L 939.609375 1480.742188 L 939.179688 1479.335938 L 935.117188 1466.523438 L 933.046875 1460.117188 L 930.9375 1453.75 L 928.789062 1447.382812 L 926.601562 1441.015625 L 924.414062 1434.6875 L 922.1875 1428.320312 L 917.65625 1415.117188 L 913.203125 1401.875 L 908.828125 1388.632812 L 904.570312 1375.3125 L 900.351562 1361.992188 L 896.25 1348.671875 L 892.226562 1335.273438 L 888.28125 1321.875 L 884.453125 1308.476562 L 880.625 1295.039062 L 876.875 1281.5625 L 873.164062 1268.085938 L 869.492188 1254.609375 L 865.898438 1241.09375 L 862.34375 1227.578125 L 855.390625 1200.546875 L 851.992188 1186.992188 L 848.671875 1173.398438 L 845.351562 1159.84375 L 838.945312 1132.65625 L 835.820312 1119.023438 L 832.734375 1105.390625 L 829.21875 1089.84375 L 825.78125 1074.257812 L 822.421875 1058.632812 L 819.140625 1043.046875 L 815.9375 1027.382812 L 812.8125 1011.757812 L 809.726562 996.09375 L 806.757812 980.390625 L 803.828125 964.726562 L 800.976562 949.023438 L 798.203125 933.320312 L 795.46875 917.578125 L 793.710938 906.914062 L 790.273438 885.585938 L 788.671875 874.882812 L 787.070312 864.21875 L 785.546875 853.515625 L 784.0625 842.8125 L 782.617188 832.109375 L 775.234375 775.234375 L 832.109375 782.617188 L 946.171875 799.882812 L 1060.546875 821.875 L 1174.84375 848.476562 L 1288.90625 879.570312 L 1402.421875 915 L 1515.15625 954.648438 L 1626.835938 998.320312 L 1737.1875 1045.898438 L 1845.976562 1097.265625 L 1952.890625 1152.304688 L 2057.734375 1210.78125 L 2160.234375 1272.65625 L 2260.117188 1337.734375 L 2357.109375 1405.898438 L 2450.9375 1476.992188 L 2541.40625 1550.898438 Z M 2628.203125 1627.460938 " transform="matrix(0.1,0,0,-0.1,0,792)"/>
</g>
</svg>
