<?xml version="1.0" encoding="UTF-8"?>
<svg xmlns="http://www.w3.org/2000/svg" xmlns:xlink="http://www.w3.org/1999/xlink" width="612pt" height="792pt" viewBox="0 0 612 792" version="1.1">
<g id="surface1">
<path style="fill:none;stroke-width:1;stroke-linecap:butt;stroke-linejoin:miter;stroke:rgb(0%,0%,0%);stroke-opacity:1;stroke-miterlimit:10;" d="M 4200 3000 C 4200 3662.734375 3662.734375 4200 3000 4200 C 2337.265625 4200 1800 3662.734375 1800 3000 C 1800 2337.265625 2337.265625 1800 3000 1800 C 3662.734375 1800 4200 2337.265625 4200 3000 " transform="matrix(0.1,0,0,-0.1,0,792)"/>
<path style="fill:none;stroke-width:1;stroke-linecap:butt;stroke-linejoin:miter;stroke:rgb(0%,0%,0%);stroke-opacity:1;stroke-miterlimit:10;" d="M 4300 3000 C 4300 3717.96875 3717.96875 4300 3000 4300 C 2282.03125 4300 1700 3717.96875 1700 3000 C 1700 2282.03125 2282.03125 1700 3000 1700 C 3717.96875 1700 4300 2282.03125 4300 3000 " transform="matrix(0.1,0,0,-0.1,0,792)"/>
<path style="fill:none;stroke-width:1;stroke-linecap:butt;stroke-linejoin:miter;stroke:rgb(0%,0%,0%);stroke-opacity:1;stroke-miterlimit:10;" d="M 4400 3000 C 4400 3773.203125 3773.203125 4400 3000 4400 C 2226.796875 4400 1600 3773.203125 1600 3000 C 1600 2226.796875 2226.796875 1600 3000 1600 C 3773.203125 1600 4400 2226.796875 4400 3000 " transform="matrix(0.1,0,0,-0.1,0,792)"/>
<path style="fill:none;stroke-width:1;stroke-linecap:butt;stroke-linejoin:miter;stroke:rgb(0%,0%,0%);stroke-opacity:1;stroke-miterlimit:10;" d="M 4500 3000 C 4500 3828.4375 3828.4375 4500 3000 4500 C 2171.5625 4500 1500 3828.4375 1500 3000 C 1500 2171.5625 2171.5625 1500 3000 1500 C 3828.4375 1500 4500 2171.5625 4500 3000 " transform="matrix(0.1,0,0,-0.1,0,792)"/>
<path style="fill:none;stroke-width:1;stroke-linecap:butt;stroke-linejoin:miter;stroke:rgb(0%,0%,0%);stroke-opacity:1;stroke-miterlimit:10;" d="M 4900 3700 C 4900 4362.734375 4362.734375 4900 3700 4900 C 3037.265625 4900 2500 4362.734375 2500 3700 C 2500 3037.265625 3037.265625 2500 3700 2500 C 4362.734375 2500 4900 3037.265625 4900 3700 " transform="matrix(0.1,0,0,-0.1,0,792)"/>
<path style="fill:none;stroke-width:1;stroke-linecap:butt;stroke-linejoin:miter;stroke:rgb(0%,0%,0%);stroke-opacity:1;stroke-miterlimit:10;" d="M 5000 3700 C 5000 4417.96875 4417.96875 5000 3700 5000 C 2982.03125 5000 2400 4417.96875 2400 3700 C 2400 2982.03125 2982.03125 2400 3700 2400 C 4417.96875 2400 5000 2982.03125 5000 3700 " transform="matrix(0.1,0,0,-0.1,0,792)"/>
<path style="fill:none;stroke-width:1;stroke-linecap:butt;stroke-linejoin:miter;stroke:rgb(0%,0%,0%);stroke-opacity:1;stroke-miterlimit:10;" d="M 5100 3700 C 5100 4473.203125 4473.203125 5100 3700 5100 C 2926.796875 5100 2300 4473.203125 2300 3700 C 2300 2926.796875 2926.796875 2300 3700 2300 C 4473.203125 2300 5100 2926.796875 5100 3700 " transform="matrix(0.1,0,0,-0.1,0,792)"/>
<path style="fill:none;stroke-width:1;stroke-linecap:butt;stroke-linejoin:miter;stroke:rgb(0%,0%,0%);stroke-opacity:1;stroke-miterlimit:10;" d="M 5200 3700 C 5200 4528.4375 4528.4375 5200 3700 5200 C 2871.5625 5200 2200 4528.4375 2200 3700 C 2200 2871.5625 2871.5625 2200 3700 2200 C 4528.4375 2200 5200 2871.5625 5200 3700 " transform="matrix(0.1,0,0,-0.1,0,792)"/>
<path style="fill:none;stroke-width:1;stroke-linecap:butt;stroke-linejoin:miter;stroke:rgb(0%,0%,0%);stroke-opacity:1;stroke-miterlimit:10;" d="M 3500 2300 C 3500 2962.734375 2962.734375 3500 2300 3500 C 1637.265625 3500 1100 2962.734375 1100 2300 C 1100 1637.265625 1637.265625 1100 2300 1100 C 2962.734375 1100 3500 1637.265625 3500 2300 " transform="matrix(0.1,0,0,-0.1,0,792)"/>
<path style="fill:none;stroke-width:1;stroke-linecap:butt;stroke-linejoin:miter;stroke:rgb(0%,0%,0%);stroke-opacity:1;stroke-miterlimit:10;" d="M 3600 2300 C 3600 3017.96875 3017.96875 3600 2300 3600 C 1582.03125 3600 1000 3017.96875 1000 2300 C 1000 1582.03125 1582.03125 1000 2300 1000 C 3017.96875 1000 3600 1582.03125 3600 2300 " transform="matrix(0.1,0,0,-0.1,0,792)"/>
<path style="fill:none;stroke-width:1;stroke-linecap:butt;stroke-linejoin:miter;stroke:rgb(0%,0%,0%);stroke-opacity:1;stroke-miterlimit:10;" d="M 3700 2300 C 3700 3073.203125 3073.203125 3700 2300 3700 C 1526.796875 3700 900 3073.203125 900 2300 C 900 1526.796875 1526.796875 900 2300 900 C 3073.203125 900 3700 1526.796875 3700 2300 " transform="matrix(0.1,0,0,-0.1,0,792)"/>
<path style="fill:none;stroke-width:1;stroke-linecap:butt;stroke-linejoin:miter;stroke:rgb(0%,0%,0%);stroke-opacity:1;stroke-miterlimit:10;" d="M 3800 2300 C 3800 3128.4375 3128.4375 3800 2300 3800 C 1471.5625 3800 800 3128.4375 800 2300 C 800 1471.5625 1471.5625 800 2300 800 C 3128.4375 800 3800 1471.5625 3800 2300 " transform="matrix(0.1,0,0,-0.1,0,792)"/>
<path style="fill:none;stroke-width:1;stroke-linecap:butt;stroke-linejoin:miter;stroke:rgb(0%,0%,0%);stroke-opacity:1;stroke-miterlimit:10;" d="M 4900 2300 C 4900 2962.734375 4362.734375 3500 3700 3500 C 3037.265625 3500 2500 2962.734375 2500 2300 C 2500 1637.265625 3037.265625 1100 3700 1100 C 4362.734375 1100 4900 1637.265625 4900 2300 " transform="matrix(0.1,0,0,-0.1,0,792)"/>
<path style="fill:none;stroke-width:1;stroke-linecap:butt;stroke-linejoin:miter;stroke:rgb(0%,0%,0%);stroke-opacity:1;stroke-miterlimit:10;" d="M 5000 2300 C 5000 3017.96875 4417.96875 3600 3700 3600 C 2982.03125 3600 2400 3017.96875 2400 2300 C 2400 1582.03125 2982.03125 1000 3700 1000 C 4417.96875 1000 5000 1582.03125 5000 2300 " transform="matrix(0.1,0,0,-0.1,0,792)"/>
<path style="fill:none;stroke-width:1;stroke-linecap:butt;stroke-linejoin:miter;stroke:rgb(0%,0%,0%);stroke-opacity:1;stroke-miterlimit:10;" d="M 5100 2300 C 5100 3073.203125 4473.203125 3700 3700 3700 C 2926.796875 3700 2300 3073.203125 2300 2300 C 2300 1526.796875 2926.796875 900 3700 900 C 4473.203125 900 5100 1526.796875 5100 2300 " transform="matrix(0.1,0,0,-0.1,0,792)"/>
<path style="fill:none;stroke-width:1;stroke-linecap:butt;stroke-linejoin:miter;stroke:rgb(0%,0%,0%);stroke-opacity:1;stroke-miterlimit:10;" d="M 5200 2300 C 5200 3128.4375 4528.4375 3800 3700 3800 C 2871.5625 3800 2200 3128.4375 2200 2300 C 2200 1471.5625 2871.5625 800 3700 800 C 4528.4375 800 5200 1471.5625 5200 2300 " transform="matrix(0.1,0,0,-0.1,0,792)"/>
<path style="fill:none;stroke-width:1;stroke-linecap:butt;stroke-linejoin:miter;stroke:rgb(0%,0%,0%);stroke-opacity:1;stroke-miterlimit:10;" d="M 3500 3700 C 3500 4362.734375 2962.734375 4900 2300 4900 C 1637.265625 4900 1100 4362.734375 1100 3700 C 1100 3037.265625 1637.265625 2500 2300 2500 C 2962.734375 2500 3500 3037.265625 3500 3700 " transform="matrix(0.1,0,0,-0.1,0,792)"/>
<path style="fill:none;stroke-width:1;stroke-linecap:butt;stroke-linejoin:miter;stroke:rgb(0%,0%,0%);stroke-opacity:1;stroke-miterlimit:10;" d="M 3600 3700 C 3600 4417.96875 3017.96875 5000 2300 5000 C 1582.03125 5000 1000 4417.96875 1000 3700 C 1000 2982.03125 1582.03125 2400 2300 2400 C 3017.96875 2400 3600 2982.03125 3600 3700 " transform="matrix(0.1,0,0,-0.1,0,792)"/>
<path style="fill:none;stroke-width:1;stroke-linecap:butt;stroke-linejoin:miter;stroke:rgb(0%,0%,0%);stroke-opacity:1;stroke-miterlimit:10;" d="M 3700 3700 C 3700 4473.203125 3073.203125 5100 2300 5100 C 1526.796875 5100 900 4473.203125 900 3700 C 900 2926.796875 1526.796875 2300 2300 2300 C 3073.203125 2300 3700 2926.796875 3700 3700 " transform="matrix(0.1,0,0,-0.1,0,792)"/>
<path style="fill:none;stroke-width:1;stroke-linecap:butt;stroke-linejoin:miter;stroke:rgb(0%,0%,0%);stroke-opacity:1;stroke-miterlimit:10;" d="M 3800 3700 C 3800 4528.4375 3128.4375 5200 2300 5200 C 1471.5625 5200 800 4528.4375 800 3700 C 800 2871.5625 1471.5625 2200 2300 2200 C 3128.4375 2200 3800 2871.5625 3800 3700 " transform="matrix(0.1,0,0,-0.1,0,792)"/>
</g>
</svg>
