<?xml version="1.0" encoding="UTF-8" standalone="no"?>
<svg
   width="537.5426pt"
   height="537.5426pt"
   viewBox="0 0 537.54261 537.54261"
   version="1.1"
   id="svg135"
   xmlns="http://www.w3.org/2000/svg"
   xmlns:svg="http://www.w3.org/2000/svg">
  <defs
     id="defs139" />
  <g
     id="surface1"
     transform="rotate(45,525.56227,274.40498)">
    <path
       style="fill:none;stroke:#000000;stroke-width:1;stroke-linecap:butt;stroke-linejoin:miter;stroke-miterlimit:10;stroke-opacity:1"
       d="m 3300,900 h 200 v 200 h -200 z m 0,0"
       transform="matrix(0.1,0,0,-0.1,0,792)"
       id="path2" />
    <path
       style="fill:none;stroke:#000000;stroke-width:1;stroke-linecap:butt;stroke-linejoin:miter;stroke-miterlimit:10;stroke-opacity:1"
       d="m 2500,1700 h 200 v 200 h -200 z m 0,0"
       transform="matrix(0.1,0,0,-0.1,0,792)"
       id="path4" />
    <path
       style="fill:none;stroke:#000000;stroke-width:1;stroke-linecap:butt;stroke-linejoin:miter;stroke-miterlimit:10;stroke-opacity:1"
       d="m 3300,1700 h 200 v 200 h -200 z m 0,0"
       transform="matrix(0.1,0,0,-0.1,0,792)"
       id="path6" />
    <path
       style="fill:none;stroke:#000000;stroke-width:1;stroke-linecap:butt;stroke-linejoin:miter;stroke-miterlimit:10;stroke-opacity:1"
       d="m 4100,1700 h 200 v 200 h -200 z m 0,0"
       transform="matrix(0.1,0,0,-0.1,0,792)"
       id="path8" />
    <path
       style="fill:none;stroke:#000000;stroke-width:1;stroke-linecap:butt;stroke-linejoin:miter;stroke-miterlimit:10;stroke-opacity:1"
       d="m 1700,2500 h 200 v 200 h -200 z m 0,0"
       transform="matrix(0.1,0,0,-0.1,0,792)"
       id="path10" />
    <path
       style="fill:none;stroke:#000000;stroke-width:1;stroke-linecap:butt;stroke-linejoin:miter;stroke-miterlimit:10;stroke-opacity:1"
       d="m 2500,2500 h 200 v 200 h -200 z m 0,0"
       transform="matrix(0.1,0,0,-0.1,0,792)"
       id="path12" />
    <path
       style="fill:none;stroke:#000000;stroke-width:1;stroke-linecap:butt;stroke-linejoin:miter;stroke-miterlimit:10;stroke-opacity:1"
       d="m 3300,2500 h 200 v 200 h -200 z m 0,0"
       transform="matrix(0.1,0,0,-0.1,0,792)"
       id="path14" />
    <path
       style="fill:none;stroke:#000000;stroke-width:1;stroke-linecap:butt;stroke-linejoin:miter;stroke-miterlimit:10;stroke-opacity:1"
       d="m 4100,2500 h 200 v 200 h -200 z m 0,0"
       transform="matrix(0.1,0,0,-0.1,0,792)"
       id="path16" />
    <path
       style="fill:none;stroke:#000000;stroke-width:1;stroke-linecap:butt;stroke-linejoin:miter;stroke-miterlimit:10;stroke-opacity:1"
       d="m 4900,2500 h 200 v 200 h -200 z m 0,0"
       transform="matrix(0.1,0,0,-0.1,0,792)"
       id="path18" />
    <path
       style="fill:none;stroke:#000000;stroke-width:1;stroke-linecap:butt;stroke-linejoin:miter;stroke-miterlimit:10;stroke-opacity:1"
       d="m 900,3300 h 200 v 200 H 900 Z m 0,0"
       transform="matrix(0.1,0,0,-0.1,0,792)"
       id="path20" />
    <path
       style="fill:none;stroke:#000000;stroke-width:1;stroke-linecap:butt;stroke-linejoin:miter;stroke-miterlimit:10;stroke-opacity:1"
       d="m 1700,3300 h 200 v 200 h -200 z m 0,0"
       transform="matrix(0.1,0,0,-0.1,0,792)"
       id="path22" />
    <path
       style="fill:none;stroke:#000000;stroke-width:1;stroke-linecap:butt;stroke-linejoin:miter;stroke-miterlimit:10;stroke-opacity:1"
       d="m 2500,3300 h 200 v 200 h -200 z m 0,0"
       transform="matrix(0.1,0,0,-0.1,0,792)"
       id="path24" />
    <path
       style="fill:none;stroke:#000000;stroke-width:1;stroke-linecap:butt;stroke-linejoin:miter;stroke-miterlimit:10;stroke-opacity:1"
       d="m 3300,3300 h 200 v 200 h -200 z m 0,0"
       transform="matrix(0.1,0,0,-0.1,0,792)"
       id="path26" />
    <path
       style="fill:none;stroke:#000000;stroke-width:1;stroke-linecap:butt;stroke-linejoin:miter;stroke-miterlimit:10;stroke-opacity:1"
       d="m 4100,3300 h 200 v 200 h -200 z m 0,0"
       transform="matrix(0.1,0,0,-0.1,0,792)"
       id="path28" />
    <path
       style="fill:none;stroke:#000000;stroke-width:1;stroke-linecap:butt;stroke-linejoin:miter;stroke-miterlimit:10;stroke-opacity:1"
       d="m 4900,3300 h 200 v 200 h -200 z m 0,0"
       transform="matrix(0.1,0,0,-0.1,0,792)"
       id="path30" />
    <path
       style="fill:none;stroke:#000000;stroke-width:1;stroke-linecap:butt;stroke-linejoin:miter;stroke-miterlimit:10;stroke-opacity:1"
       d="m 5700,3300 h 200 v 200 h -200 z m 0,0"
       transform="matrix(0.1,0,0,-0.1,0,792)"
       id="path32" />
    <path
       style="fill:none;stroke:#000000;stroke-width:1;stroke-linecap:butt;stroke-linejoin:miter;stroke-miterlimit:10;stroke-opacity:1"
       d="m 1700,4100 h 200 v 200 h -200 z m 0,0"
       transform="matrix(0.1,0,0,-0.1,0,792)"
       id="path34" />
    <path
       style="fill:none;stroke:#000000;stroke-width:1;stroke-linecap:butt;stroke-linejoin:miter;stroke-miterlimit:10;stroke-opacity:1"
       d="m 2500,4100 h 200 v 200 h -200 z m 0,0"
       transform="matrix(0.1,0,0,-0.1,0,792)"
       id="path36" />
    <path
       style="fill:none;stroke:#000000;stroke-width:1;stroke-linecap:butt;stroke-linejoin:miter;stroke-miterlimit:10;stroke-opacity:1"
       d="m 3300,4100 h 200 v 200 h -200 z m 0,0"
       transform="matrix(0.1,0,0,-0.1,0,792)"
       id="path38" />
    <path
       style="fill:none;stroke:#000000;stroke-width:1;stroke-linecap:butt;stroke-linejoin:miter;stroke-miterlimit:10;stroke-opacity:1"
       d="m 4100,4100 h 200 v 200 h -200 z m 0,0"
       transform="matrix(0.1,0,0,-0.1,0,792)"
       id="path40" />
    <path
       style="fill:none;stroke:#000000;stroke-width:1;stroke-linecap:butt;stroke-linejoin:miter;stroke-miterlimit:10;stroke-opacity:1"
       d="m 4900,4100 h 200 v 200 h -200 z m 0,0"
       transform="matrix(0.1,0,0,-0.1,0,792)"
       id="path42" />
    <path
       style="fill:none;stroke:#000000;stroke-width:1;stroke-linecap:butt;stroke-linejoin:miter;stroke-miterlimit:10;stroke-opacity:1"
       d="m 2500,4900 h 200 v 200 h -200 z m 0,0"
       transform="matrix(0.1,0,0,-0.1,0,792)"
       id="path44" />
    <path
       style="fill:none;stroke:#000000;stroke-width:1;stroke-linecap:butt;stroke-linejoin:miter;stroke-miterlimit:10;stroke-opacity:1"
       d="m 3300,4900 h 200 v 200 h -200 z m 0,0"
       transform="matrix(0.1,0,0,-0.1,0,792)"
       id="path46" />
    <path
       style="fill:none;stroke:#000000;stroke-width:1;stroke-linecap:butt;stroke-linejoin:miter;stroke-miterlimit:10;stroke-opacity:1"
       d="m 4100,4900 h 200 v 200 h -200 z m 0,0"
       transform="matrix(0.1,0,0,-0.1,0,792)"
       id="path48" />
    <path
       style="fill:none;stroke:#000000;stroke-width:1;stroke-linecap:butt;stroke-linejoin:miter;stroke-miterlimit:10;stroke-opacity:1"
       d="m 3300,5700 h 200 v 200 h -200 z m 0,0"
       transform="matrix(0.1,0,0,-0.1,0,792)"
       id="path50" />
    <path
       id="path52"
       style="fill:none;stroke:#000000;stroke-width:1;stroke-linecap:butt;stroke-linejoin:miter;stroke-miterlimit:10;stroke-opacity:1"
       d="M 3700.0029,1899.9971 V 699.99707 h -600 V 1100.002 H 2899.9932 V 699.99707 500.00195 h 200.0097 799.9951 V 699.99707 1899.9971 Z"
       transform="matrix(0.1,0,0,-0.1,0,792)" />
    <path
       id="path54"
       style="fill:none;stroke:#000000;stroke-width:1;stroke-linecap:butt;stroke-linejoin:miter;stroke-miterlimit:10;stroke-opacity:1"
       d="m 2099.998,1899.9971 v -399.9903 -200.0097 h 199.9952 1200 v 200.0097 h -1200 v 399.9903 z"
       transform="matrix(0.1,0,0,-0.1,0,792)" />
    <path
       id="path56"
       style="fill:none;stroke:#000000;stroke-width:1;stroke-linecap:butt;stroke-linejoin:miter;stroke-miterlimit:10;stroke-opacity:1"
       d="M 1300.0029,2700.0068 V 2300.002 2100.0068 h 199.9951 1200 v 199.9952 h -1200 v 400.0048 z"
       transform="matrix(0.1,0,0,-0.1,0,792)" />
    <path
       id="path58"
       style="fill:none;stroke:#000000;stroke-width:1;stroke-linecap:butt;stroke-linejoin:miter;stroke-miterlimit:10;stroke-opacity:1"
       d="m 499.99316,3900.0068 v -200.0097 -600 -199.9951 H 1900.0029 v 199.9951 H 700.00293 v 600 h 399.99027 v 200.0097 H 700.00293 Z"
       transform="matrix(0.1,0,0,-0.1,0,792)" />
    <path
       style="fill:none;stroke:#000000;stroke-width:1;stroke-linecap:butt;stroke-linejoin:miter;stroke-miterlimit:10;stroke-opacity:1"
       d="m 2900,1700 v 1000 h 200 V 1700 h -200"
       transform="matrix(0.1,0,0,-0.1,0,792)"
       id="path66" />
    <path
       style="fill:none;stroke:#000000;stroke-width:1;stroke-linecap:butt;stroke-linejoin:miter;stroke-miterlimit:10;stroke-opacity:1"
       d="m 2100,2500 v 1000 h 200 V 2500 h -200"
       transform="matrix(0.1,0,0,-0.1,0,792)"
       id="path68" />
    <path
       style="fill:none;stroke:#000000;stroke-width:1;stroke-linecap:butt;stroke-linejoin:miter;stroke-miterlimit:10;stroke-opacity:1"
       d="m 3700,2500 v 1000 h 200 V 2500 h -200"
       transform="matrix(0.1,0,0,-0.1,0,792)"
       id="path70" />
    <path
       style="fill:none;stroke:#000000;stroke-width:1;stroke-linecap:butt;stroke-linejoin:miter;stroke-miterlimit:10;stroke-opacity:1"
       d="m 2900,3300 v 1000 h 200 V 3300 h -200"
       transform="matrix(0.1,0,0,-0.1,0,792)"
       id="path72" />
    <path
       style="fill:none;stroke:#000000;stroke-width:1;stroke-linecap:butt;stroke-linejoin:miter;stroke-miterlimit:10;stroke-opacity:1"
       d="m 4500,3300 v 1000 h 200 V 3300 h -200"
       transform="matrix(0.1,0,0,-0.1,0,792)"
       id="path74" />
    <path
       style="fill:none;stroke:#000000;stroke-width:1;stroke-linecap:butt;stroke-linejoin:miter;stroke-miterlimit:10;stroke-opacity:1"
       d="m 3700,4100 v 1000 h 200 V 4100 h -200"
       transform="matrix(0.1,0,0,-0.1,0,792)"
       id="path76" />
    <path
       style="fill:none;stroke:#000000;stroke-width:1;stroke-linecap:butt;stroke-linejoin:miter;stroke-miterlimit:10;stroke-opacity:1"
       d="m 3300,2100 v 200 H 4300 V 2100 H 3300"
       transform="matrix(0.1,0,0,-0.1,0,792)"
       id="path78" />
    <path
       style="fill:none;stroke:#000000;stroke-width:1;stroke-linecap:butt;stroke-linejoin:miter;stroke-miterlimit:10;stroke-opacity:1"
       d="m 2500,2900 v 200 H 3500 V 2900 H 2500"
       transform="matrix(0.1,0,0,-0.1,0,792)"
       id="path80" />
    <path
       style="fill:none;stroke:#000000;stroke-width:1;stroke-linecap:butt;stroke-linejoin:miter;stroke-miterlimit:10;stroke-opacity:1"
       d="m 1700,3700 v 200 H 2700 V 3700 H 1700"
       transform="matrix(0.1,0,0,-0.1,0,792)"
       id="path82" />
    <path
       style="fill:none;stroke:#000000;stroke-width:1;stroke-linecap:butt;stroke-linejoin:miter;stroke-miterlimit:10;stroke-opacity:1"
       d="m 4100,2900 v 200 H 5100 V 2900 H 4100"
       transform="matrix(0.1,0,0,-0.1,0,792)"
       id="path84" />
    <path
       style="fill:none;stroke:#000000;stroke-width:1;stroke-linecap:butt;stroke-linejoin:miter;stroke-miterlimit:10;stroke-opacity:1"
       d="m 3300,3700 v 200 H 4300 V 3700 H 3300"
       transform="matrix(0.1,0,0,-0.1,0,792)"
       id="path86" />
    <path
       style="fill:none;stroke:#000000;stroke-width:1;stroke-linecap:butt;stroke-linejoin:miter;stroke-miterlimit:10;stroke-opacity:1"
       d="m 2500,4500 v 200 H 3500 V 4500 H 2500"
       transform="matrix(0.1,0,0,-0.1,0,792)"
       id="path88" />
    <path
       id="path92"
       style="fill:none;stroke:#000000;stroke-width:1;stroke-linecap:butt;stroke-linejoin:miter;stroke-miterlimit:10;stroke-opacity:1"
       d="m 1300.0029,4700.002 v -199.9952 -1200 h 199.9951 v 1200 h 400.0049 V 4700.002 H 1499.998 Z"
       transform="matrix(0.1,0,0,-0.1,0,792)" />
    <path
       id="path94"
       style="fill:none;stroke:#000000;stroke-width:1;stroke-linecap:butt;stroke-linejoin:miter;stroke-miterlimit:10;stroke-opacity:1"
       d="m 2099.998,5499.9971 v -199.9951 -1200 h 199.9952 v 1200 h 400.0048 v 199.9951 h -400.0048 z"
       transform="matrix(0.1,0,0,-0.1,0,792)" />
    <path
       id="path96"
       style="fill:none;stroke:#000000;stroke-width:1;stroke-linecap:butt;stroke-linejoin:miter;stroke-miterlimit:10;stroke-opacity:1"
       d="m 2899.9932,6300.0068 v -200.0097 -1200 h 200.0097 v 1200 h 600 v -399.9903 h 199.9951 v 399.9903 200.0097 h -199.9951 -600 z"
       transform="matrix(0.1,0,0,-0.1,0,792)" />
    <path
       id="path106"
       style="fill:none;stroke:#000000;stroke-width:1;stroke-linecap:butt;stroke-linejoin:miter;stroke-miterlimit:10;stroke-opacity:1"
       d="m 4499.998,2700.0068 v -1200 h -400.0048 v -200.0097 h 400.0048 199.9952 v 200.0097 1200 z"
       transform="matrix(0.1,0,0,-0.1,0,792)" />
    <path
       id="path108"
       style="fill:none;stroke:#000000;stroke-width:1;stroke-linecap:butt;stroke-linejoin:miter;stroke-miterlimit:10;stroke-opacity:1"
       d="m 5299.9932,3500.002 v -1200 h -399.9903 v -199.9952 h 399.9903 200.0097 v 199.9952 1200 z"
       transform="matrix(0.1,0,0,-0.1,0,792)" />
    <path
       id="path110"
       style="fill:none;stroke:#000000;stroke-width:1;stroke-linecap:butt;stroke-linejoin:miter;stroke-miterlimit:10;stroke-opacity:1"
       d="m 4900.0029,3900.0068 v -200.0097 h 1200 v -600 H 5699.998 V 2900.002 h 400.0049 199.9951 v 199.9951 800.0097 z"
       transform="matrix(0.1,0,0,-0.1,0,792)" />
    <path
       id="path120"
       style="fill:none;stroke:#000000;stroke-width:1;stroke-linecap:butt;stroke-linejoin:miter;stroke-miterlimit:10;stroke-opacity:1"
       d="m 4099.9932,4700.002 v -199.9952 h 1200 V 4100.002 h 200.0097 v 400.0048 199.9952 h -200.0097 z"
       transform="matrix(0.1,0,0,-0.1,0,792)" />
    <path
       id="path122"
       style="fill:none;stroke:#000000;stroke-width:1;stroke-linecap:butt;stroke-linejoin:miter;stroke-miterlimit:10;stroke-opacity:1"
       d="M 3299.998,5499.9971 V 5300.002 h 1200 v -400.0049 h 199.9952 v 400.0049 199.9951 H 4499.998 Z"
       transform="matrix(0.1,0,0,-0.1,0,792)" />
    <path
       style="fill:none;stroke:#000000;stroke-width:1;stroke-linecap:butt;stroke-linejoin:miter;stroke-miterlimit:10;stroke-opacity:1"
       d="m 2700,300 v 800 h -800 v 800 h -800 v 800 H 300 v 1400 h 800 v 800 h 800 v 800 h 800 v 800 h 1400 v -800 h 800 v -800 h 800 v -800 h 800 V 2700 H 5700 V 1900 H 4900 V 1100 H 4100 V 300 Z m 0,0"
       transform="matrix(0.1,0,0,-0.1,0,792)"
       id="path132" />
  </g>
</svg>
