<?xml version="1.0" encoding="UTF-8"?>
<svg xmlns="http://www.w3.org/2000/svg" xmlns:xlink="http://www.w3.org/1999/xlink" width="590pt" height="590pt" viewBox="0 0 590 590" version="1.1">
<g id="surface1">
<path style="fill:none;stroke-width:10;stroke-linecap:butt;stroke-linejoin:miter;stroke:rgb(0%,0%,0%);stroke-opacity:1;stroke-miterlimit:10;" d="M 4197.03125 590.820312 L 4409.179688 802.929688 L 4197.03125 1015.078125 L 3984.921875 802.929688 L 4197.03125 590.820312 " transform="matrix(0.1,0,0,-0.1,0,590)"/>
<path style="fill:none;stroke-width:10;stroke-linecap:butt;stroke-linejoin:miter;stroke:rgb(0%,0%,0%);stroke-opacity:1;stroke-miterlimit:10;" d="M 3348.515625 590.820312 L 3560.664062 802.929688 L 3348.515625 1015.078125 L 3136.40625 802.929688 L 3348.515625 590.820312 " transform="matrix(0.1,0,0,-0.1,0,590)"/>
<path style="fill:none;stroke-width:10;stroke-linecap:butt;stroke-linejoin:miter;stroke:rgb(0%,0%,0%);stroke-opacity:1;stroke-miterlimit:10;" d="M 3772.773438 1015.078125 L 3984.921875 1227.226562 L 3772.773438 1439.335938 L 3560.664062 1227.226562 L 3772.773438 1015.078125 " transform="matrix(0.1,0,0,-0.1,0,590)"/>
<path style="fill:none;stroke-width:10;stroke-linecap:butt;stroke-linejoin:miter;stroke:rgb(0%,0%,0%);stroke-opacity:1;stroke-miterlimit:10;" d="M 4197.03125 1439.335938 L 4409.179688 1651.484375 L 4197.03125 1863.59375 L 3984.921875 1651.484375 L 4197.03125 1439.335938 " transform="matrix(0.1,0,0,-0.1,0,590)"/>
<path style="fill:none;stroke-width:10;stroke-linecap:butt;stroke-linejoin:miter;stroke:rgb(0%,0%,0%);stroke-opacity:1;stroke-miterlimit:10;" d="M 2500 590.820312 L 2712.148438 802.929688 L 2500 1015.078125 L 2287.851562 802.929688 L 2500 590.820312 " transform="matrix(0.1,0,0,-0.1,0,590)"/>
<path style="fill:none;stroke-width:10;stroke-linecap:butt;stroke-linejoin:miter;stroke:rgb(0%,0%,0%);stroke-opacity:1;stroke-miterlimit:10;" d="M 2924.257812 1015.078125 L 3136.40625 1227.226562 L 2924.257812 1439.335938 L 2712.148438 1227.226562 L 2924.257812 1015.078125 " transform="matrix(0.1,0,0,-0.1,0,590)"/>
<path style="fill:none;stroke-width:10;stroke-linecap:butt;stroke-linejoin:miter;stroke:rgb(0%,0%,0%);stroke-opacity:1;stroke-miterlimit:10;" d="M 3348.515625 1439.335938 L 3560.664062 1651.484375 L 3348.515625 1863.59375 L 3136.40625 1651.484375 L 3348.515625 1439.335938 " transform="matrix(0.1,0,0,-0.1,0,590)"/>
<path style="fill:none;stroke-width:10;stroke-linecap:butt;stroke-linejoin:miter;stroke:rgb(0%,0%,0%);stroke-opacity:1;stroke-miterlimit:10;" d="M 3772.773438 1863.59375 L 3984.921875 2075.742188 L 3772.773438 2287.851562 L 3560.664062 2075.742188 L 3772.773438 1863.59375 " transform="matrix(0.1,0,0,-0.1,0,590)"/>
<path style="fill:none;stroke-width:10;stroke-linecap:butt;stroke-linejoin:miter;stroke:rgb(0%,0%,0%);stroke-opacity:1;stroke-miterlimit:10;" d="M 4197.03125 2287.851562 L 4409.179688 2500 L 4197.03125 2712.148438 L 3984.921875 2500 L 4197.03125 2287.851562 " transform="matrix(0.1,0,0,-0.1,0,590)"/>
<path style="fill:none;stroke-width:10;stroke-linecap:butt;stroke-linejoin:miter;stroke:rgb(0%,0%,0%);stroke-opacity:1;stroke-miterlimit:10;" d="M 1651.484375 590.820312 L 1863.59375 802.929688 L 1651.484375 1015.078125 L 1439.335938 802.929688 L 1651.484375 590.820312 " transform="matrix(0.1,0,0,-0.1,0,590)"/>
<path style="fill:none;stroke-width:10;stroke-linecap:butt;stroke-linejoin:miter;stroke:rgb(0%,0%,0%);stroke-opacity:1;stroke-miterlimit:10;" d="M 2075.742188 1015.078125 L 2287.851562 1227.226562 L 2075.742188 1439.335938 L 1863.59375 1227.226562 L 2075.742188 1015.078125 " transform="matrix(0.1,0,0,-0.1,0,590)"/>
<path style="fill:none;stroke-width:10;stroke-linecap:butt;stroke-linejoin:miter;stroke:rgb(0%,0%,0%);stroke-opacity:1;stroke-miterlimit:10;" d="M 2500 1439.335938 L 2712.148438 1651.484375 L 2500 1863.59375 L 2287.851562 1651.484375 L 2500 1439.335938 " transform="matrix(0.1,0,0,-0.1,0,590)"/>
<path style="fill:none;stroke-width:10;stroke-linecap:butt;stroke-linejoin:miter;stroke:rgb(0%,0%,0%);stroke-opacity:1;stroke-miterlimit:10;" d="M 2924.257812 1863.59375 L 3136.40625 2075.742188 L 2924.257812 2287.851562 L 2712.148438 2075.742188 L 2924.257812 1863.59375 " transform="matrix(0.1,0,0,-0.1,0,590)"/>
<path style="fill:none;stroke-width:10;stroke-linecap:butt;stroke-linejoin:miter;stroke:rgb(0%,0%,0%);stroke-opacity:1;stroke-miterlimit:10;" d="M 3348.515625 2287.851562 L 3560.664062 2500 L 3348.515625 2712.148438 L 3136.40625 2500 L 3348.515625 2287.851562 " transform="matrix(0.1,0,0,-0.1,0,590)"/>
<path style="fill:none;stroke-width:10;stroke-linecap:butt;stroke-linejoin:miter;stroke:rgb(0%,0%,0%);stroke-opacity:1;stroke-miterlimit:10;" d="M 3772.773438 2712.148438 L 3984.921875 2924.257812 L 3772.773438 3136.40625 L 3560.664062 2924.257812 L 3772.773438 2712.148438 " transform="matrix(0.1,0,0,-0.1,0,590)"/>
<path style="fill:none;stroke-width:10;stroke-linecap:butt;stroke-linejoin:miter;stroke:rgb(0%,0%,0%);stroke-opacity:1;stroke-miterlimit:10;" d="M 4197.03125 3136.40625 L 4409.179688 3348.515625 L 4197.03125 3560.664062 L 3984.921875 3348.515625 L 4197.03125 3136.40625 " transform="matrix(0.1,0,0,-0.1,0,590)"/>
<path style="fill:none;stroke-width:10;stroke-linecap:butt;stroke-linejoin:miter;stroke:rgb(0%,0%,0%);stroke-opacity:1;stroke-miterlimit:10;" d="M 802.929688 590.820312 L 1015.078125 802.929688 L 802.929688 1015.078125 L 590.820312 802.929688 L 802.929688 590.820312 " transform="matrix(0.1,0,0,-0.1,0,590)"/>
<path style="fill:none;stroke-width:10;stroke-linecap:butt;stroke-linejoin:miter;stroke:rgb(0%,0%,0%);stroke-opacity:1;stroke-miterlimit:10;" d="M 1227.226562 1015.078125 L 1439.335938 1227.226562 L 1227.226562 1439.335938 L 1015.078125 1227.226562 L 1227.226562 1015.078125 " transform="matrix(0.1,0,0,-0.1,0,590)"/>
<path style="fill:none;stroke-width:10;stroke-linecap:butt;stroke-linejoin:miter;stroke:rgb(0%,0%,0%);stroke-opacity:1;stroke-miterlimit:10;" d="M 1651.484375 1439.335938 L 1863.59375 1651.484375 L 1651.484375 1863.59375 L 1439.335938 1651.484375 L 1651.484375 1439.335938 " transform="matrix(0.1,0,0,-0.1,0,590)"/>
<path style="fill:none;stroke-width:10;stroke-linecap:butt;stroke-linejoin:miter;stroke:rgb(0%,0%,0%);stroke-opacity:1;stroke-miterlimit:10;" d="M 2075.742188 1863.59375 L 2287.851562 2075.742188 L 2075.742188 2287.851562 L 1863.59375 2075.742188 L 2075.742188 1863.59375 " transform="matrix(0.1,0,0,-0.1,0,590)"/>
<path style="fill:none;stroke-width:10;stroke-linecap:butt;stroke-linejoin:miter;stroke:rgb(0%,0%,0%);stroke-opacity:1;stroke-miterlimit:10;" d="M 2500 2287.851562 L 2712.148438 2500 L 2500 2712.148438 L 2287.851562 2500 L 2500 2287.851562 " transform="matrix(0.1,0,0,-0.1,0,590)"/>
<path style="fill:none;stroke-width:10;stroke-linecap:butt;stroke-linejoin:miter;stroke:rgb(0%,0%,0%);stroke-opacity:1;stroke-miterlimit:10;" d="M 2924.257812 2712.148438 L 3136.40625 2924.257812 L 2924.257812 3136.40625 L 2712.148438 2924.257812 L 2924.257812 2712.148438 " transform="matrix(0.1,0,0,-0.1,0,590)"/>
<path style="fill:none;stroke-width:10;stroke-linecap:butt;stroke-linejoin:miter;stroke:rgb(0%,0%,0%);stroke-opacity:1;stroke-miterlimit:10;" d="M 3348.515625 3136.40625 L 3560.664062 3348.515625 L 3348.515625 3560.664062 L 3136.40625 3348.515625 L 3348.515625 3136.40625 " transform="matrix(0.1,0,0,-0.1,0,590)"/>
<path style="fill:none;stroke-width:10;stroke-linecap:butt;stroke-linejoin:miter;stroke:rgb(0%,0%,0%);stroke-opacity:1;stroke-miterlimit:10;" d="M 3772.773438 3560.664062 L 3984.921875 3772.773438 L 3772.773438 3984.921875 L 3560.664062 3772.773438 L 3772.773438 3560.664062 " transform="matrix(0.1,0,0,-0.1,0,590)"/>
<path style="fill:none;stroke-width:10;stroke-linecap:butt;stroke-linejoin:miter;stroke:rgb(0%,0%,0%);stroke-opacity:1;stroke-miterlimit:10;" d="M 4197.03125 3984.921875 L 4409.179688 4197.03125 L 4197.03125 4409.179688 L 3984.921875 4197.03125 L 4197.03125 3984.921875 " transform="matrix(0.1,0,0,-0.1,0,590)"/>
<path style="fill:none;stroke-width:10;stroke-linecap:butt;stroke-linejoin:miter;stroke:rgb(0%,0%,0%);stroke-opacity:1;stroke-miterlimit:10;" d="M 802.929688 1439.335938 L 1015.078125 1651.484375 L 802.929688 1863.59375 L 590.820312 1651.484375 L 802.929688 1439.335938 " transform="matrix(0.1,0,0,-0.1,0,590)"/>
<path style="fill:none;stroke-width:10;stroke-linecap:butt;stroke-linejoin:miter;stroke:rgb(0%,0%,0%);stroke-opacity:1;stroke-miterlimit:10;" d="M 1227.226562 1863.59375 L 1439.335938 2075.742188 L 1227.226562 2287.851562 L 1015.078125 2075.742188 L 1227.226562 1863.59375 " transform="matrix(0.1,0,0,-0.1,0,590)"/>
<path style="fill:none;stroke-width:10;stroke-linecap:butt;stroke-linejoin:miter;stroke:rgb(0%,0%,0%);stroke-opacity:1;stroke-miterlimit:10;" d="M 1651.484375 2287.851562 L 1863.59375 2500 L 1651.484375 2712.148438 L 1439.335938 2500 L 1651.484375 2287.851562 " transform="matrix(0.1,0,0,-0.1,0,590)"/>
<path style="fill:none;stroke-width:10;stroke-linecap:butt;stroke-linejoin:miter;stroke:rgb(0%,0%,0%);stroke-opacity:1;stroke-miterlimit:10;" d="M 2075.742188 2712.148438 L 2287.851562 2924.257812 L 2075.742188 3136.40625 L 1863.59375 2924.257812 L 2075.742188 2712.148438 " transform="matrix(0.1,0,0,-0.1,0,590)"/>
<path style="fill:none;stroke-width:10;stroke-linecap:butt;stroke-linejoin:miter;stroke:rgb(0%,0%,0%);stroke-opacity:1;stroke-miterlimit:10;" d="M 2500 3136.40625 L 2712.148438 3348.515625 L 2500 3560.664062 L 2287.851562 3348.515625 L 2500 3136.40625 " transform="matrix(0.1,0,0,-0.1,0,590)"/>
<path style="fill:none;stroke-width:10;stroke-linecap:butt;stroke-linejoin:miter;stroke:rgb(0%,0%,0%);stroke-opacity:1;stroke-miterlimit:10;" d="M 2924.257812 3560.664062 L 3136.40625 3772.773438 L 2924.257812 3984.921875 L 2712.148438 3772.773438 L 2924.257812 3560.664062 " transform="matrix(0.1,0,0,-0.1,0,590)"/>
<path style="fill:none;stroke-width:10;stroke-linecap:butt;stroke-linejoin:miter;stroke:rgb(0%,0%,0%);stroke-opacity:1;stroke-miterlimit:10;" d="M 3348.515625 3984.921875 L 3560.664062 4197.03125 L 3348.515625 4409.179688 L 3136.40625 4197.03125 L 3348.515625 3984.921875 " transform="matrix(0.1,0,0,-0.1,0,590)"/>
<path style="fill:none;stroke-width:10;stroke-linecap:butt;stroke-linejoin:miter;stroke:rgb(0%,0%,0%);stroke-opacity:1;stroke-miterlimit:10;" d="M 802.929688 2287.851562 L 1015.078125 2500 L 802.929688 2712.148438 L 590.820312 2500 L 802.929688 2287.851562 " transform="matrix(0.1,0,0,-0.1,0,590)"/>
<path style="fill:none;stroke-width:10;stroke-linecap:butt;stroke-linejoin:miter;stroke:rgb(0%,0%,0%);stroke-opacity:1;stroke-miterlimit:10;" d="M 1227.226562 2712.148438 L 1439.335938 2924.257812 L 1227.226562 3136.40625 L 1015.078125 2924.257812 L 1227.226562 2712.148438 " transform="matrix(0.1,0,0,-0.1,0,590)"/>
<path style="fill:none;stroke-width:10;stroke-linecap:butt;stroke-linejoin:miter;stroke:rgb(0%,0%,0%);stroke-opacity:1;stroke-miterlimit:10;" d="M 1651.484375 3136.40625 L 1863.59375 3348.515625 L 1651.484375 3560.664062 L 1439.335938 3348.515625 L 1651.484375 3136.40625 " transform="matrix(0.1,0,0,-0.1,0,590)"/>
<path style="fill:none;stroke-width:10;stroke-linecap:butt;stroke-linejoin:miter;stroke:rgb(0%,0%,0%);stroke-opacity:1;stroke-miterlimit:10;" d="M 2075.742188 3560.664062 L 2287.851562 3772.773438 L 2075.742188 3984.921875 L 1863.59375 3772.773438 L 2075.742188 3560.664062 " transform="matrix(0.1,0,0,-0.1,0,590)"/>
<path style="fill:none;stroke-width:10;stroke-linecap:butt;stroke-linejoin:miter;stroke:rgb(0%,0%,0%);stroke-opacity:1;stroke-miterlimit:10;" d="M 2500 3984.921875 L 2712.148438 4197.03125 L 2500 4409.179688 L 2287.851562 4197.03125 L 2500 3984.921875 " transform="matrix(0.1,0,0,-0.1,0,590)"/>
<path style="fill:none;stroke-width:10;stroke-linecap:butt;stroke-linejoin:miter;stroke:rgb(0%,0%,0%);stroke-opacity:1;stroke-miterlimit:10;" d="M 802.929688 3136.40625 L 1015.078125 3348.515625 L 802.929688 3560.664062 L 590.820312 3348.515625 L 802.929688 3136.40625 " transform="matrix(0.1,0,0,-0.1,0,590)"/>
<path style="fill:none;stroke-width:10;stroke-linecap:butt;stroke-linejoin:miter;stroke:rgb(0%,0%,0%);stroke-opacity:1;stroke-miterlimit:10;" d="M 1227.226562 3560.664062 L 1439.335938 3772.773438 L 1227.226562 3984.921875 L 1015.078125 3772.773438 L 1227.226562 3560.664062 " transform="matrix(0.1,0,0,-0.1,0,590)"/>
<path style="fill:none;stroke-width:10;stroke-linecap:butt;stroke-linejoin:miter;stroke:rgb(0%,0%,0%);stroke-opacity:1;stroke-miterlimit:10;" d="M 1651.484375 3984.921875 L 1863.59375 4197.03125 L 1651.484375 4409.179688 L 1439.335938 4197.03125 L 1651.484375 3984.921875 " transform="matrix(0.1,0,0,-0.1,0,590)"/>
<path style="fill:none;stroke-width:10;stroke-linecap:butt;stroke-linejoin:miter;stroke:rgb(0%,0%,0%);stroke-opacity:1;stroke-miterlimit:10;" d="M 802.929688 3984.921875 L 1015.078125 4197.03125 L 802.929688 4409.179688 L 590.820312 4197.03125 L 802.929688 3984.921875 " transform="matrix(0.1,0,0,-0.1,0,590)"/>
<path style="fill:none;stroke-width:10;stroke-linecap:butt;stroke-linejoin:miter;stroke:rgb(0%,0%,0%);stroke-opacity:1;stroke-miterlimit:10;" d="M 3348.515625 307.96875 L 2994.960938 661.523438 L 3065.703125 732.226562 L 3348.515625 449.375 L 4055.625 1156.484375 L 4126.367188 1085.78125 L 3348.515625 307.96875 " transform="matrix(0.1,0,0,-0.1,0,590)"/>
<path style="fill:none;stroke-width:10;stroke-linecap:butt;stroke-linejoin:miter;stroke:rgb(0%,0%,0%);stroke-opacity:1;stroke-miterlimit:10;" d="M 2500 307.96875 L 2146.445312 661.523438 L 2217.148438 732.226562 L 2500 449.375 L 3207.109375 1156.484375 L 3277.8125 1085.78125 L 2500 307.96875 " transform="matrix(0.1,0,0,-0.1,0,590)"/>
<path style="fill:none;stroke-width:10;stroke-linecap:butt;stroke-linejoin:miter;stroke:rgb(0%,0%,0%);stroke-opacity:1;stroke-miterlimit:10;" d="M 1651.484375 307.96875 L 1297.929688 661.523438 L 1368.632812 732.226562 L 1651.484375 449.375 L 2358.59375 1156.484375 L 2429.296875 1085.78125 L 1651.484375 307.96875 " transform="matrix(0.1,0,0,-0.1,0,590)"/>
<path style="fill:none;stroke-width:10;stroke-linecap:butt;stroke-linejoin:miter;stroke:rgb(0%,0%,0%);stroke-opacity:1;stroke-miterlimit:10;" d="M 4338.476562 1297.929688 L 4267.773438 1368.632812 L 4550.625 1651.484375 L 3843.515625 2358.59375 L 3914.21875 2429.296875 L 4692.03125 1651.484375 L 4338.476562 1297.929688 " transform="matrix(0.1,0,0,-0.1,0,590)"/>
<path style="fill:none;stroke-width:10;stroke-linecap:butt;stroke-linejoin:miter;stroke:rgb(0%,0%,0%);stroke-opacity:1;stroke-miterlimit:10;" d="M 4338.476562 2146.445312 L 4267.773438 2217.148438 L 4550.625 2500 L 3843.515625 3207.109375 L 3914.21875 3277.8125 L 4692.03125 2500 L 4338.476562 2146.445312 " transform="matrix(0.1,0,0,-0.1,0,590)"/>
<path style="fill:none;stroke-width:10;stroke-linecap:butt;stroke-linejoin:miter;stroke:rgb(0%,0%,0%);stroke-opacity:1;stroke-miterlimit:10;" d="M 4338.476562 2994.960938 L 4267.773438 3065.703125 L 4550.625 3348.515625 L 3843.515625 4055.625 L 3914.21875 4126.367188 L 4692.03125 3348.515625 L 4338.476562 2994.960938 " transform="matrix(0.1,0,0,-0.1,0,590)"/>
<path style="fill:none;stroke-width:10;stroke-linecap:butt;stroke-linejoin:miter;stroke:rgb(0%,0%,0%);stroke-opacity:1;stroke-miterlimit:10;" d="M 1085.78125 873.671875 L 307.96875 1651.484375 L 661.523438 2005.039062 L 732.226562 1934.335938 L 449.375 1651.484375 L 1156.484375 944.375 L 1085.78125 873.671875 " transform="matrix(0.1,0,0,-0.1,0,590)"/>
<path style="fill:none;stroke-width:10;stroke-linecap:butt;stroke-linejoin:miter;stroke:rgb(0%,0%,0%);stroke-opacity:1;stroke-miterlimit:10;" d="M 1085.78125 1722.1875 L 307.96875 2500 L 661.523438 2853.554688 L 732.226562 2782.851562 L 449.375 2500 L 1156.484375 1792.890625 L 1085.78125 1722.1875 " transform="matrix(0.1,0,0,-0.1,0,590)"/>
<path style="fill:none;stroke-width:10;stroke-linecap:butt;stroke-linejoin:miter;stroke:rgb(0%,0%,0%);stroke-opacity:1;stroke-miterlimit:10;" d="M 1085.78125 2570.703125 L 307.96875 3348.515625 L 661.523438 3702.070312 L 732.226562 3631.367188 L 449.375 3348.515625 L 1156.484375 2641.40625 L 1085.78125 2570.703125 " transform="matrix(0.1,0,0,-0.1,0,590)"/>
<path style="fill:none;stroke-width:10;stroke-linecap:butt;stroke-linejoin:miter;stroke:rgb(0%,0%,0%);stroke-opacity:1;stroke-miterlimit:10;" d="M 944.375 3843.515625 L 873.671875 3914.21875 L 1651.484375 4692.03125 L 2005.039062 4338.476562 L 1934.335938 4267.773438 L 1651.484375 4550.625 L 944.375 3843.515625 " transform="matrix(0.1,0,0,-0.1,0,590)"/>
<path style="fill:none;stroke-width:10;stroke-linecap:butt;stroke-linejoin:miter;stroke:rgb(0%,0%,0%);stroke-opacity:1;stroke-miterlimit:10;" d="M 1792.890625 3843.515625 L 1722.1875 3914.21875 L 2500 4692.03125 L 2853.554688 4338.476562 L 2782.851562 4267.773438 L 2500 4550.625 L 1792.890625 3843.515625 " transform="matrix(0.1,0,0,-0.1,0,590)"/>
<path style="fill:none;stroke-width:10;stroke-linecap:butt;stroke-linejoin:miter;stroke:rgb(0%,0%,0%);stroke-opacity:1;stroke-miterlimit:10;" d="M 2641.40625 3843.515625 L 2570.703125 3914.21875 L 3348.515625 4692.03125 L 3702.070312 4338.476562 L 3631.367188 4267.773438 L 3348.515625 4550.625 L 2641.40625 3843.515625 " transform="matrix(0.1,0,0,-0.1,0,590)"/>
<path style="fill:none;stroke-width:10;stroke-linecap:butt;stroke-linejoin:miter;stroke:rgb(0%,0%,0%);stroke-opacity:1;stroke-miterlimit:10;" d="M 3489.960938 1297.929688 L 3419.257812 1368.632812 L 4055.625 2005.039062 L 4126.367188 1934.335938 L 3489.960938 1297.929688 " transform="matrix(0.1,0,0,-0.1,0,590)"/>
<path style="fill:none;stroke-width:10;stroke-linecap:butt;stroke-linejoin:miter;stroke:rgb(0%,0%,0%);stroke-opacity:1;stroke-miterlimit:10;" d="M 3489.960938 2146.445312 L 3419.257812 2217.148438 L 4055.625 2853.554688 L 4126.367188 2782.851562 L 3489.960938 2146.445312 " transform="matrix(0.1,0,0,-0.1,0,590)"/>
<path style="fill:none;stroke-width:10;stroke-linecap:butt;stroke-linejoin:miter;stroke:rgb(0%,0%,0%);stroke-opacity:1;stroke-miterlimit:10;" d="M 3489.960938 2994.960938 L 3419.257812 3065.703125 L 4055.625 3702.070312 L 4126.367188 3631.367188 L 3489.960938 2994.960938 " transform="matrix(0.1,0,0,-0.1,0,590)"/>
<path style="fill:none;stroke-width:10;stroke-linecap:butt;stroke-linejoin:miter;stroke:rgb(0%,0%,0%);stroke-opacity:1;stroke-miterlimit:10;" d="M 2641.40625 1297.929688 L 2570.703125 1368.632812 L 3207.109375 2005.039062 L 3277.8125 1934.335938 L 2641.40625 1297.929688 " transform="matrix(0.1,0,0,-0.1,0,590)"/>
<path style="fill:none;stroke-width:10;stroke-linecap:butt;stroke-linejoin:miter;stroke:rgb(0%,0%,0%);stroke-opacity:1;stroke-miterlimit:10;" d="M 2641.40625 2146.445312 L 2570.703125 2217.148438 L 3207.109375 2853.554688 L 3277.8125 2782.851562 L 2641.40625 2146.445312 " transform="matrix(0.1,0,0,-0.1,0,590)"/>
<path style="fill:none;stroke-width:10;stroke-linecap:butt;stroke-linejoin:miter;stroke:rgb(0%,0%,0%);stroke-opacity:1;stroke-miterlimit:10;" d="M 2641.40625 2994.960938 L 2570.703125 3065.703125 L 3207.109375 3702.070312 L 3277.8125 3631.367188 L 2641.40625 2994.960938 " transform="matrix(0.1,0,0,-0.1,0,590)"/>
<path style="fill:none;stroke-width:10;stroke-linecap:butt;stroke-linejoin:miter;stroke:rgb(0%,0%,0%);stroke-opacity:1;stroke-miterlimit:10;" d="M 1792.890625 1297.929688 L 1722.1875 1368.632812 L 2358.59375 2005.039062 L 2429.296875 1934.335938 L 1792.890625 1297.929688 " transform="matrix(0.1,0,0,-0.1,0,590)"/>
<path style="fill:none;stroke-width:10;stroke-linecap:butt;stroke-linejoin:miter;stroke:rgb(0%,0%,0%);stroke-opacity:1;stroke-miterlimit:10;" d="M 1792.890625 2146.445312 L 1722.1875 2217.148438 L 2358.59375 2853.554688 L 2429.296875 2782.851562 L 1792.890625 2146.445312 " transform="matrix(0.1,0,0,-0.1,0,590)"/>
<path style="fill:none;stroke-width:10;stroke-linecap:butt;stroke-linejoin:miter;stroke:rgb(0%,0%,0%);stroke-opacity:1;stroke-miterlimit:10;" d="M 1792.890625 2994.960938 L 1722.1875 3065.703125 L 2358.59375 3702.070312 L 2429.296875 3631.367188 L 1792.890625 2994.960938 " transform="matrix(0.1,0,0,-0.1,0,590)"/>
<path style="fill:none;stroke-width:10;stroke-linecap:butt;stroke-linejoin:miter;stroke:rgb(0%,0%,0%);stroke-opacity:1;stroke-miterlimit:10;" d="M 944.375 1297.929688 L 873.671875 1368.632812 L 1510.039062 2005.039062 L 1580.742188 1934.335938 L 944.375 1297.929688 " transform="matrix(0.1,0,0,-0.1,0,590)"/>
<path style="fill:none;stroke-width:10;stroke-linecap:butt;stroke-linejoin:miter;stroke:rgb(0%,0%,0%);stroke-opacity:1;stroke-miterlimit:10;" d="M 944.375 2146.445312 L 873.671875 2217.148438 L 1510.039062 2853.554688 L 1580.742188 2782.851562 L 944.375 2146.445312 " transform="matrix(0.1,0,0,-0.1,0,590)"/>
<path style="fill:none;stroke-width:10;stroke-linecap:butt;stroke-linejoin:miter;stroke:rgb(0%,0%,0%);stroke-opacity:1;stroke-miterlimit:10;" d="M 944.375 2994.960938 L 873.671875 3065.703125 L 1510.039062 3702.070312 L 1580.742188 3631.367188 L 944.375 2994.960938 " transform="matrix(0.1,0,0,-0.1,0,590)"/>
<path style="fill:none;stroke-width:10;stroke-linecap:butt;stroke-linejoin:miter;stroke:rgb(0%,0%,0%);stroke-opacity:1;stroke-miterlimit:10;" d="M 3631.367188 873.671875 L 2994.960938 1510.039062 L 3065.703125 1580.742188 L 3702.070312 944.375 L 3631.367188 873.671875 " transform="matrix(0.1,0,0,-0.1,0,590)"/>
<path style="fill:none;stroke-width:10;stroke-linecap:butt;stroke-linejoin:miter;stroke:rgb(0%,0%,0%);stroke-opacity:1;stroke-miterlimit:10;" d="M 3631.367188 1722.1875 L 2994.960938 2358.59375 L 3065.703125 2429.296875 L 3702.070312 1792.890625 L 3631.367188 1722.1875 " transform="matrix(0.1,0,0,-0.1,0,590)"/>
<path style="fill:none;stroke-width:10;stroke-linecap:butt;stroke-linejoin:miter;stroke:rgb(0%,0%,0%);stroke-opacity:1;stroke-miterlimit:10;" d="M 3631.367188 2570.703125 L 2994.960938 3207.109375 L 3065.703125 3277.8125 L 3702.070312 2641.40625 L 3631.367188 2570.703125 " transform="matrix(0.1,0,0,-0.1,0,590)"/>
<path style="fill:none;stroke-width:10;stroke-linecap:butt;stroke-linejoin:miter;stroke:rgb(0%,0%,0%);stroke-opacity:1;stroke-miterlimit:10;" d="M 3631.367188 3419.257812 L 2994.960938 4055.625 L 3065.703125 4126.367188 L 3702.070312 3489.960938 L 3631.367188 3419.257812 " transform="matrix(0.1,0,0,-0.1,0,590)"/>
<path style="fill:none;stroke-width:10;stroke-linecap:butt;stroke-linejoin:miter;stroke:rgb(0%,0%,0%);stroke-opacity:1;stroke-miterlimit:10;" d="M 2782.851562 873.671875 L 2146.445312 1510.039062 L 2217.148438 1580.742188 L 2853.554688 944.375 L 2782.851562 873.671875 " transform="matrix(0.1,0,0,-0.1,0,590)"/>
<path style="fill:none;stroke-width:10;stroke-linecap:butt;stroke-linejoin:miter;stroke:rgb(0%,0%,0%);stroke-opacity:1;stroke-miterlimit:10;" d="M 2782.851562 1722.1875 L 2146.445312 2358.59375 L 2217.148438 2429.296875 L 2853.554688 1792.890625 L 2782.851562 1722.1875 " transform="matrix(0.1,0,0,-0.1,0,590)"/>
<path style="fill:none;stroke-width:10;stroke-linecap:butt;stroke-linejoin:miter;stroke:rgb(0%,0%,0%);stroke-opacity:1;stroke-miterlimit:10;" d="M 2782.851562 2570.703125 L 2146.445312 3207.109375 L 2217.148438 3277.8125 L 2853.554688 2641.40625 L 2782.851562 2570.703125 " transform="matrix(0.1,0,0,-0.1,0,590)"/>
<path style="fill:none;stroke-width:10;stroke-linecap:butt;stroke-linejoin:miter;stroke:rgb(0%,0%,0%);stroke-opacity:1;stroke-miterlimit:10;" d="M 2782.851562 3419.257812 L 2146.445312 4055.625 L 2217.148438 4126.367188 L 2853.554688 3489.960938 L 2782.851562 3419.257812 " transform="matrix(0.1,0,0,-0.1,0,590)"/>
<path style="fill:none;stroke-width:10;stroke-linecap:butt;stroke-linejoin:miter;stroke:rgb(0%,0%,0%);stroke-opacity:1;stroke-miterlimit:10;" d="M 1934.335938 873.671875 L 1297.929688 1510.039062 L 1368.632812 1580.742188 L 2005.039062 944.375 L 1934.335938 873.671875 " transform="matrix(0.1,0,0,-0.1,0,590)"/>
<path style="fill:none;stroke-width:10;stroke-linecap:butt;stroke-linejoin:miter;stroke:rgb(0%,0%,0%);stroke-opacity:1;stroke-miterlimit:10;" d="M 1934.335938 1722.1875 L 1297.929688 2358.59375 L 1368.632812 2429.296875 L 2005.039062 1792.890625 L 1934.335938 1722.1875 " transform="matrix(0.1,0,0,-0.1,0,590)"/>
<path style="fill:none;stroke-width:10;stroke-linecap:butt;stroke-linejoin:miter;stroke:rgb(0%,0%,0%);stroke-opacity:1;stroke-miterlimit:10;" d="M 1934.335938 2570.703125 L 1297.929688 3207.109375 L 1368.632812 3277.8125 L 2005.039062 2641.40625 L 1934.335938 2570.703125 " transform="matrix(0.1,0,0,-0.1,0,590)"/>
<path style="fill:none;stroke-width:10;stroke-linecap:butt;stroke-linejoin:miter;stroke:rgb(0%,0%,0%);stroke-opacity:1;stroke-miterlimit:10;" d="M 1934.335938 3419.257812 L 1297.929688 4055.625 L 1368.632812 4126.367188 L 2005.039062 3489.960938 L 1934.335938 3419.257812 " transform="matrix(0.1,0,0,-0.1,0,590)"/>
<path style="fill:none;stroke-width:10;stroke-linecap:butt;stroke-linejoin:miter;stroke:rgb(0%,0%,0%);stroke-opacity:1;stroke-miterlimit:10;" d="M 3843.515625 661.523438 L 3914.21875 732.226562 L 4197.03125 449.375 L 4550.625 802.929688 L 3843.515625 1510.039062 L 3914.21875 1580.742188 L 4692.03125 802.929688 L 4197.03125 307.96875 L 3843.515625 661.523438 " transform="matrix(0.1,0,0,-0.1,0,590)"/>
<path style="fill:none;stroke-width:10;stroke-linecap:butt;stroke-linejoin:miter;stroke:rgb(0%,0%,0%);stroke-opacity:1;stroke-miterlimit:10;" d="M 1085.78125 3419.257812 L 307.96875 4197.03125 L 802.929688 4692.03125 L 1156.484375 4338.476562 L 1085.78125 4267.773438 L 802.929688 4550.625 L 449.375 4197.03125 L 1156.484375 3489.960938 L 1085.78125 3419.257812 " transform="matrix(0.1,0,0,-0.1,0,590)"/>
<path style="fill:none;stroke-width:10;stroke-linecap:butt;stroke-linejoin:miter;stroke:rgb(0%,0%,0%);stroke-opacity:1;stroke-miterlimit:10;" d="M 1580.742188 1085.78125 L 802.929688 307.96875 L 307.96875 802.929688 L 661.523438 1156.484375 L 732.226562 1085.78125 L 449.375 802.929688 L 802.929688 449.375 L 1510.039062 1156.484375 L 1580.742188 1085.78125 " transform="matrix(0.1,0,0,-0.1,0,590)"/>
<path style="fill:none;stroke-width:10;stroke-linecap:butt;stroke-linejoin:miter;stroke:rgb(0%,0%,0%);stroke-opacity:1;stroke-miterlimit:10;" d="M 3419.257812 3914.21875 L 4197.03125 4692.03125 L 4692.03125 4197.03125 L 4338.476562 3843.515625 L 4267.773438 3914.21875 L 4550.625 4197.03125 L 4197.03125 4550.625 L 3489.960938 3843.515625 L 3419.257812 3914.21875 " transform="matrix(0.1,0,0,-0.1,0,590)"/>
<path style="fill:none;stroke-width:10;stroke-linecap:butt;stroke-linejoin:miter;stroke:rgb(0%,0%,0%);stroke-opacity:1;stroke-miterlimit:10;" d="M 4197.03125 166.5625 L 3772.773438 590.820312 L 3348.515625 166.5625 L 2924.257812 590.820312 L 2500 166.5625 L 2075.742188 590.820312 L 1651.484375 166.5625 L 1227.226562 590.820312 L 802.929688 166.5625 L 166.5625 802.929688 L 590.820312 1227.226562 L 166.5625 1651.484375 L 590.820312 2075.742188 L 166.5625 2500 L 590.820312 2924.257812 L 166.5625 3348.515625 L 590.820312 3772.773438 L 166.5625 4197.03125 L 802.929688 4833.4375 L 1227.226562 4409.179688 L 1651.484375 4833.4375 L 2075.742188 4409.179688 L 2500 4833.4375 L 2924.257812 4409.179688 L 3348.515625 4833.4375 L 3772.773438 4409.179688 L 4197.03125 4833.4375 L 4833.4375 4197.03125 L 4409.179688 3772.773438 L 4833.4375 3348.515625 L 4409.179688 2924.257812 L 4833.4375 2500 L 4409.179688 2075.742188 L 4833.4375 1651.484375 L 4409.179688 1227.226562 L 4833.4375 802.929688 L 4197.03125 166.5625 " transform="matrix(0.1,0,0,-0.1,0,590)"/>
</g>
</svg>
