<?xml version="1.0" encoding="UTF-8"?>
<svg xmlns="http://www.w3.org/2000/svg" xmlns:xlink="http://www.w3.org/1999/xlink" width="612pt" height="792pt" viewBox="0 0 612 792" version="1.1">
<g id="surface1">
<path style="fill:none;stroke-width:1;stroke-linecap:butt;stroke-linejoin:miter;stroke:rgb(0%,0%,0%);stroke-opacity:1;stroke-miterlimit:10;" d="M 1200 1000 L 1200 1400 L 1300 1400 L 1300 1000 L 1200 1000 " transform="matrix(0.1,0,0,-0.1,0,792)"/>
<path style="fill:none;stroke-width:1;stroke-linecap:butt;stroke-linejoin:miter;stroke:rgb(0%,0%,0%);stroke-opacity:1;stroke-miterlimit:10;" d="M 1600 700 L 1600 1100 L 1700 1100 L 1700 700 L 1600 700 " transform="matrix(0.1,0,0,-0.1,0,792)"/>
<path style="fill:none;stroke-width:1;stroke-linecap:butt;stroke-linejoin:miter;stroke:rgb(0%,0%,0%);stroke-opacity:1;stroke-miterlimit:10;" d="M 1100 800 L 1100 900 L 1500 900 L 1500 800 L 1100 800 " transform="matrix(0.1,0,0,-0.1,0,792)"/>
<path style="fill:none;stroke-width:1;stroke-linecap:butt;stroke-linejoin:miter;stroke:rgb(0%,0%,0%);stroke-opacity:1;stroke-miterlimit:10;" d="M 1400 1200 L 1400 1300 L 1800 1300 L 1800 1200 L 1400 1200 " transform="matrix(0.1,0,0,-0.1,0,792)"/>
<path style="fill:none;stroke-width:1;stroke-linecap:butt;stroke-linejoin:miter;stroke:rgb(0%,0%,0%);stroke-opacity:1;stroke-miterlimit:10;" d="M 1400 1000 L 1500 1000 L 1500 1100 L 1400 1100 Z M 1400 1000 " transform="matrix(0.1,0,0,-0.1,0,792)"/>
<path style="fill:none;stroke-width:1;stroke-linecap:butt;stroke-linejoin:miter;stroke:rgb(0%,0%,0%);stroke-opacity:1;stroke-miterlimit:10;" d="M 1100 1200 C 1017.148438 1200 950 1132.851562 950 1050 C 950 967.148438 1017.148438 900 1100 900 L 1100 800 C 961.914062 800 850 911.914062 850 1050 C 850 1188.085938 961.914062 1300 1100 1300 L 1100 1200 " transform="matrix(0.1,0,0,-0.1,0,792)"/>
<path style="fill:none;stroke-width:1;stroke-linecap:butt;stroke-linejoin:miter;stroke:rgb(0%,0%,0%);stroke-opacity:1;stroke-miterlimit:10;" d="M 1600 1400 C 1600 1482.851562 1532.851562 1550 1450 1550 C 1367.148438 1550 1300 1482.851562 1300 1400 L 1200 1400 C 1200 1538.085938 1311.914062 1650 1450 1650 C 1588.085938 1650 1700 1538.085938 1700 1400 L 1600 1400 " transform="matrix(0.1,0,0,-0.1,0,792)"/>
<path style="fill:none;stroke-width:1;stroke-linecap:butt;stroke-linejoin:miter;stroke:rgb(0%,0%,0%);stroke-opacity:1;stroke-miterlimit:10;" d="M 1800 900 C 1882.851562 900 1950 967.148438 1950 1050 C 1950 1132.851562 1882.851562 1200 1800 1200 L 1800 1300 C 1938.085938 1300 2050 1188.085938 2050 1050 C 2050 911.914062 1938.085938 800 1800 800 L 1800 900 " transform="matrix(0.1,0,0,-0.1,0,792)"/>
<path style="fill:none;stroke-width:1;stroke-linecap:butt;stroke-linejoin:miter;stroke:rgb(0%,0%,0%);stroke-opacity:1;stroke-miterlimit:10;" d="M 1300 700 C 1300 617.148438 1367.148438 550 1450 550 C 1532.851562 550 1600 617.148438 1600 700 L 1700 700 C 1700 561.914062 1588.085938 450 1450 450 C 1311.914062 450 1200 561.914062 1200 700 L 1300 700 " transform="matrix(0.1,0,0,-0.1,0,792)"/>
<path style="fill:none;stroke-width:1;stroke-linecap:butt;stroke-linejoin:miter;stroke:rgb(0%,0%,0%);stroke-opacity:1;stroke-miterlimit:10;" d="M 1100 1000 C 1072.382812 1000 1050 1022.382812 1050 1050 C 1050 1077.617188 1072.382812 1100 1100 1100 Z M 1100 1000 " transform="matrix(0.1,0,0,-0.1,0,792)"/>
<path style="fill:none;stroke-width:1;stroke-linecap:butt;stroke-linejoin:miter;stroke:rgb(0%,0%,0%);stroke-opacity:1;stroke-miterlimit:10;" d="M 1800 1000 C 1827.617188 1000 1850 1022.382812 1850 1050 C 1850 1077.617188 1827.617188 1100 1800 1100 Z M 1800 1000 " transform="matrix(0.1,0,0,-0.1,0,792)"/>
<path style="fill:none;stroke-width:1;stroke-linecap:butt;stroke-linejoin:miter;stroke:rgb(0%,0%,0%);stroke-opacity:1;stroke-miterlimit:10;" d="M 1400 1400 C 1400 1427.617188 1422.382812 1450 1450 1450 C 1477.617188 1450 1500 1427.617188 1500 1400 Z M 1400 1400 " transform="matrix(0.1,0,0,-0.1,0,792)"/>
<path style="fill:none;stroke-width:1;stroke-linecap:butt;stroke-linejoin:miter;stroke:rgb(0%,0%,0%);stroke-opacity:1;stroke-miterlimit:10;" d="M 1400 700 C 1400 672.382812 1422.382812 650 1450 650 C 1477.617188 650 1500 672.382812 1500 700 Z M 1400 700 " transform="matrix(0.1,0,0,-0.1,0,792)"/>
<path style="fill:none;stroke-width:1;stroke-linecap:butt;stroke-linejoin:miter;stroke:rgb(0%,0%,0%);stroke-opacity:1;stroke-miterlimit:10;" d="M 1100 700 C 906.71875 700 750 856.71875 750 1050 C 750 1243.28125 906.71875 1400 1100 1400 C 1100 1593.28125 1256.71875 1750 1450 1750 C 1643.28125 1750 1800 1593.28125 1800 1400 C 1993.28125 1400 2150 1243.28125 2150 1050 C 2150 856.71875 1993.28125 700 1800 700 C 1800 506.71875 1643.28125 350 1450 350 C 1256.71875 350 1100 506.71875 1100 700 " transform="matrix(0.1,0,0,-0.1,0,792)"/>
</g>
</svg>
