<?xml version="1.0" encoding="UTF-8" standalone="no"?>
<svg
   width="612pt"
   height="792pt"
   viewBox="0 0 612 792"
   version="1.1"
   id="svg31"
   sodipodi:docname="ssolo.svg"
   inkscape:version="1.2.1 (1:1.2.1+202210291244+9c6d41e410)"
   xmlns:inkscape="http://www.inkscape.org/namespaces/inkscape"
   xmlns:sodipodi="http://sodipodi.sourceforge.net/DTD/sodipodi-0.dtd"
   xmlns="http://www.w3.org/2000/svg"
   xmlns:svg="http://www.w3.org/2000/svg">
  <defs
     id="defs35" />
  <sodipodi:namedview
     id="namedview33"
     pagecolor="#ffffff"
     bordercolor="#000000"
     borderopacity="0.25"
     inkscape:showpageshadow="2"
     inkscape:pageopacity="0.0"
     inkscape:pagecheckerboard="0"
     inkscape:deskcolor="#d1d1d1"
     inkscape:document-units="pt"
     showgrid="false"
     inkscape:zoom="3.5757576"
     inkscape:cx="196.04237"
     inkscape:cy="885.68644"
     inkscape:window-width="1920"
     inkscape:window-height="1114"
     inkscape:window-x="0"
     inkscape:window-y="28"
     inkscape:window-maximized="1"
     inkscape:current-layer="svg31" />
  <g
     id="surface1"
     transform="rotate(45,145,687)">
    <path
       id="path2"
       style="fill:none;stroke:#000000;stroke-width:1;stroke-linecap:butt;stroke-linejoin:miter;stroke-miterlimit:10;stroke-opacity:1"
       d="M 1450.0049,1650 C 1311.9191,1650 1200,1538.0809 1200,1399.9951 v -399.9902 h 100.0049 v 399.9902 c 0,82.8515 67.1485,150 150,150 82.8515,0 150,-67.1485 150,-150 h 99.9902 c 0,138.0858 -111.9044,250.0049 -249.9902,250.0049 z"
       transform="matrix(0.1,0,0,-0.1,0,792)" />
    <path
       id="path4"
       style="fill:none;stroke:#000000;stroke-width:1;stroke-linecap:butt;stroke-linejoin:miter;stroke-miterlimit:10;stroke-opacity:1"
       d="M 1600.0049,1099.9951 V 700.00488 c 0,-82.85148 -67.1485,-150 -150,-150 -82.8515,0 -150,67.14852 -150,150 H 1200 C 1200,561.91908 1311.9191,450 1450.0049,450 c 138.0858,0 249.9902,111.91908 249.9902,250.00488 v 399.99022 z"
       transform="matrix(0.1,0,0,-0.1,0,792)" />
    <path
       id="path6"
       style="fill:none;stroke:#000000;stroke-width:1;stroke-linecap:butt;stroke-linejoin:miter;stroke-miterlimit:10;stroke-opacity:1"
       d="m 1099.9951,1300.0049 c -138.08578,0 -249.99022,-111.9191 -249.99022,-250.0049 0,-138.0858 111.90444,-250.00488 249.99022,-250.00488 H 1500 V 900 h -400.0049 c -82.8515,0 -149.99998,67.14852 -149.99998,150 0,82.8515 67.14848,150 149.99998,150 z"
       transform="matrix(0.1,0,0,-0.1,0,792)" />
    <path
       id="path8"
       style="fill:none;stroke:#000000;stroke-width:1;stroke-linecap:butt;stroke-linejoin:miter;stroke-miterlimit:10;stroke-opacity:1"
       d="M 1399.9951,1300.0049 V 1200 H 1800 c 82.8515,0 150,-67.1485 150,-150 0,-82.85148 -67.1485,-150 -150,-150 V 799.99512 c 138.0858,0 250.0049,111.91908 250.0049,250.00488 0,138.0858 -111.9191,250.0049 -250.0049,250.0049 z"
       transform="matrix(0.1,0,0,-0.1,0,792)" />
    <path
       style="fill:none;stroke:#000000;stroke-width:1;stroke-linecap:butt;stroke-linejoin:miter;stroke-miterlimit:10;stroke-opacity:1"
       d="m 1400,1000 h 100 v 100 h -100 z m 0,0"
       transform="matrix(0.1,0,0,-0.1,0,792)"
       id="path10" />
    <path
       style="fill:none;stroke:#000000;stroke-width:1;stroke-linecap:butt;stroke-linejoin:miter;stroke-miterlimit:10;stroke-opacity:1"
       d="m 1100,1000 c -27.6172,0 -50,22.3828 -50,50 0,27.6172 22.3828,50 50,50 z m 0,0"
       transform="matrix(0.1,0,0,-0.1,0,792)"
       id="path20" />
    <path
       style="fill:none;stroke:#000000;stroke-width:1;stroke-linecap:butt;stroke-linejoin:miter;stroke-miterlimit:10;stroke-opacity:1"
       d="m 1800,1000 c 27.6172,0 50,22.3828 50,50 0,27.6172 -22.3828,50 -50,50 z m 0,0"
       transform="matrix(0.1,0,0,-0.1,0,792)"
       id="path22" />
    <path
       style="fill:none;stroke:#000000;stroke-width:1;stroke-linecap:butt;stroke-linejoin:miter;stroke-miterlimit:10;stroke-opacity:1"
       d="m 1400,1400 c 0,27.6172 22.3828,50 50,50 27.6172,0 50,-22.3828 50,-50 z m 0,0"
       transform="matrix(0.1,0,0,-0.1,0,792)"
       id="path24" />
    <path
       style="fill:none;stroke:#000000;stroke-width:1;stroke-linecap:butt;stroke-linejoin:miter;stroke-miterlimit:10;stroke-opacity:1"
       d="m 1400,700 c 0,-27.61719 22.3828,-50 50,-50 27.6172,0 50,22.38281 50,50 z m 0,0"
       transform="matrix(0.1,0,0,-0.1,0,792)"
       id="path26" />
    <path
       style="fill:none;stroke:#000000;stroke-width:1;stroke-linecap:butt;stroke-linejoin:miter;stroke-miterlimit:10;stroke-opacity:1"
       d="m 1100,700 c -193.28125,0 -350,156.71875 -350,350 0,193.2813 156.71875,350 350,350 0,193.2813 156.7188,350 350,350 193.2813,0 350,-156.7187 350,-350 193.2813,0 350,-156.7187 350,-350 0,-193.28125 -156.7187,-350 -350,-350 0,-193.28125 -156.7187,-350 -350,-350 -193.2812,0 -350,156.71875 -350,350"
       transform="matrix(0.1,0,0,-0.1,0,792)"
       id="path28" />
  </g>
</svg>
