<?xml version="1.0" encoding="UTF-8" standalone="no"?>
<!-- Created with Inkscape (http://www.inkscape.org/) -->

<svg
   version="1.1"
   id="svg2"
   width="1328.7178"
   height="1428.8391"
   viewBox="0 0 1328.7178 1428.8391"
   xmlns="http://www.w3.org/2000/svg"
   xmlns:svg="http://www.w3.org/2000/svg">
  <defs
     id="defs6" />
  <g
     id="g8"
     transform="translate(-54.282194,-119.98971)">
    <path
       style="fill:#000000"
       d="M 626.1633,1547.6968 C 625.00794,1546.3046 600.9168,1504.799 567,1445.7667 l -20.5,-35.6803 -80.46431,-0.2932 -80.46431,-0.2932 -39.95286,-69.25 -39.95286,-69.25 h -80.18657 -80.18658 l -39.39625,-68.115 c -21.667945,-37.4632 -40.459941,-69.9757 -41.759995,-72.25 -1.300054,-2.2742 -4.161829,-7.2229 -6.3595,-10.997 -3.317112,-5.6965 -3.821851,-7.2436 -2.971791,-9.1093 0.563186,-1.2361 18.442417,-32.3482 39.731624,-69.138 C 115.8258,1004.6008 133.26306,974.05 133.28606,973.5 c 0.0334,-0.79797 -27.87915,-49.47523 -75.56037,-131.77139 -2.157787,-3.72427 -3.692296,-7.37325 -3.410021,-8.10885 0.282275,-0.73559 18.168942,-31.88847 39.748148,-69.2286 C 115.64302,727.05102 133.29159,696.05 133.28286,695.5 c -0.009,-0.55 -17.72166,-31.6 -39.362066,-69 -21.640406,-37.4 -39.329044,-68.9 -39.308085,-70 0.02096,-1.1 20.342269,-37.1 45.158465,-80 l 45.120356,-78 80.33898,-0.25587 80.33897,-0.25586 39.99468,-69.24414 L 385.55883,259.5 466.02942,259 546.5,258.5 l 39.96837,-69.25514 39.96837,-69.25515 92.34387,0.25515 92.34388,0.25514 39.86102,69 39.86102,69 80.32674,0.26806 80.32673,0.26805 26.1303,45.23195 c 14.3717,24.87756 32.3717,56.12512 40,69.43901 l 13.8697,24.20707 80.4569,0.29293 80.457,0.29293 19.9054,34.5 c 10.948,18.975 31.3299,54.24827 45.2931,78.38505 13.9632,24.13678 25.3876,44.51507 25.3876,45.28509 0,0.77002 -7.3548,14.09674 -16.3441,29.61494 -61.3428,105.89684 -62.9489,108.77793 -61.9,111.03923 0.555,1.19663 18.387,32.25241 39.6266,69.01285 21.2396,36.76044 38.6175,67.45121 38.6175,68.2017 0,0.7505 -3.0887,6.67378 -6.8637,13.16284 -21.838,37.53821 -70.5545,122.12271 -71.3801,123.9345 -0.8292,1.81947 4.9193,12.3416 38.7718,70.9689 36.5984,63.3828 39.6642,69.0473 38.7218,71.5439 -0.5628,1.4912 -3.5043,6.9052 -6.5365,12.0312 -3.0322,5.1259 -20.6902,35.6448 -39.2399,67.8198 -18.5498,32.175 -36.171,62.6625 -39.1584,67.75 l -5.4317,9.25 -80.1916,0.031 -80.1917,0.03 -37.5,65.1222 c -20.625,35.8172 -38.7259,67.0758 -40.2242,69.4635 l -2.7242,4.3413 -80.14461,0.2559 -80.14461,0.256 -39.82751,69 -39.82751,69 -91.92693,0.2552 c -74.93497,0.208 -92.12845,0.012 -93.01713,-1.0584 z m 138.0867,-0.4465 c -24.8875,-0.1489 -65.6125,-0.1489 -90.5,0 -24.8875,0.1488 -4.525,0.2706 45.25,0.2706 49.775,0 70.1375,-0.1218 45.25,-0.2706 z m 84.25,-70.7419 40,-69.4601 80.38525,-0.2742 80.38525,-0.2741 39.9958,-69.25 39.9958,-69.25 h 80.1582 80.1583 l 3.0334,-5.25 c 1.6684,-2.8875 19.1332,-33.15 38.8106,-67.25 19.6774,-34.1 38.2571,-66.1921 41.2881,-71.3158 3.031,-5.1238 5.7127,-10.0874 5.9593,-11.0304 0.2662,-1.0179 -15.2787,-28.9246 -38.2593,-68.6842 -21.2893,-36.8333 -39.1369,-68.0946 -39.6613,-69.4696 -0.971,-2.54565 2.6721,-9.06191 69.8855,-125 l 8.9859,-15.5 -39.8526,-69 c -23.1779,-40.12963 -39.6707,-69.71022 -39.4178,-70.69741 0.342,-1.335 59.9708,-105.22795 75.8894,-132.22439 l 3.4918,-5.9218 -6.4833,-11.0782 c -3.5658,-6.09301 -23.8188,-41.1157 -45.0066,-77.8282 L 1289.7183,401 h -80.2021 -80.2022 l -35.3599,-61.25 c -19.4479,-33.6875 -37.5447,-64.9625 -40.2151,-69.5 l -4.8553,-8.25 -80.19184,-0.0336 -80.19186,-0.0336 -40,-69.45824 -40,-69.45824 -89.96551,0.24184 -89.9655,0.24183 -39.96488,69.25 -39.96487,69.25 h -80.18859 -80.1886 l -39.99577,69.25 -39.99578,69.25 -80.38525,0.27017 L 147.5,401.04035 103,478.16563 c -24.475,42.41891 -44.639365,77.47793 -44.809699,77.90893 -0.170335,0.431 17.492165,31.62308 39.25,69.31572 C 119.19814,663.08293 137,694.65976 137,695.56102 c 0,0.90126 -17.775,32.41628 -39.5,70.03339 -21.725,37.6171 -39.5,68.6329 -39.5,68.92399 0,0.2911 9.828477,17.50604 21.841059,38.25543 C 128.68551,957.14308 137,971.77229 137,973.34398 c 0,0.90358 -17.83733,32.51652 -39.638503,70.25102 l -39.638503,68.6082 1.888503,3.2937 c 1.038677,1.8116 21.238503,36.8464 44.888503,77.8552 l 43,74.5614 80.4359,0.2932 80.4359,0.2933 39.95208,69.25 39.95207,69.25 h 80.20822 80.20821 l 35.35918,61.25 c 19.44755,33.6875 37.54293,64.9625 40.21195,69.5 l 4.85278,8.25 89.69185,-0.016 89.69186,-0.016 40,-69.4602 z M 646.28315,1508.75 c -26.50724,-45.0003 -67.27717,-117.0472 -67.25862,-118.8566 0.0135,-1.3164 15.50514,-29.1684 34.42589,-61.8934 l 34.40136,-59.5 70.82411,-0.206 70.82411,-0.206 34.5,59.9987 c 18.975,32.9992 34.5,60.8602 34.5,61.9133 0,1.0531 -15.525,28.9117 -34.5,61.9081 l -34.5,59.9934 -70.65122,0.049 -70.65123,0.049 -1.9144,-3.25 z m 107.04002,1.5005 c -18.79725,-0.1521 -49.84725,-0.1522 -69,-2e-4 -19.15274,0.1521 -3.77317,0.2766 34.17683,0.2767 37.95,10e-5 53.62043,-0.1243 34.82317,-0.2765 z m 67.56221,-60.3442 C 839.64842,1417.4048 855,1390.447 855,1390 c 0,-0.447 -15.35158,-27.4048 -34.11462,-59.9063 L 786.77076,1271 l -68.13538,0.01 -68.13538,0.01 -34.333,59.491 -34.33301,59.491 34.33301,59.491 34.333,59.491 68.13538,0.01 68.13538,0.01 34.11462,-59.0937 z m -67.56221,-180.6558 c -18.79725,-0.1521 -49.84725,-0.1522 -69,-2e-4 -19.15274,0.1521 -3.77317,0.2766 34.17683,0.2767 37.95,10e-5 53.62043,-0.1243 34.82317,-0.2765 z m -380.16652,44.2593 c -18.88633,-32.7196 -34.57373,-60.3887 -34.86089,-61.4868 -0.36307,-1.3884 10.09763,-20.4235 34.34107,-62.4897 l 34.86317,-60.4932 70.53343,-0.02 70.53344,-0.02 34.46656,59.6683 c 18.95662,32.8175 34.60397,60.6658 34.7719,61.8851 0.20049,1.4556 -11.61344,22.8589 -34.40501,62.3317 L 548.68997,1373 H 478.0927 407.49543 Z m 140.16652,57.7407 c -18.79725,-0.1521 -49.84725,-0.1522 -69,-2e-4 -19.15274,0.1521 -3.77317,0.2766 34.17683,0.2767 37.95,10e-5 53.62043,-0.1243 34.82317,-0.2765 z m 67.38756,-60.7416 34.21073,-59.4102 -34.25204,-59.2993 L 546.41738,1132.5 H 478.0938 409.77022 l -33.52005,58 c -18.43603,31.9 -33.73486,58.7801 -33.99742,59.7335 -0.29197,1.0602 12.23226,23.7803 32.2476,58.5 17.99873,31.2216 33.35964,57.779 34.13536,59.0165 l 1.4104,2.25 68.22694,-0.041 68.22695,-0.04 34.21073,-59.4102 z M 512.25,1130.2504 c -18.8375,-0.1521 -49.6625,-0.1521 -68.5,0 -18.8375,0.1522 -3.425,0.2767 34.25,0.2767 37.675,0 53.0875,-0.1245 34.25,-0.2767 z m 341.34009,182.1406 c -30.19551,-52.3985 -34.78703,-60.9 -34,-62.9534 0.50045,-1.3058 16.20991,-28.9206 34.90991,-61.3664 l 34,-58.9923 70.59498,-0.039 70.59502,-0.04 34.7432,60.172 c 26.76,46.3455 34.6465,60.7643 34.322,62.75 -0.2318,1.4179 -15.7738,29.128 -34.5379,61.578 l -34.1166,59 -70.80034,0.2352 -70.80036,0.2353 -34.90991,-60.5795 z m 140.73308,58.8595 c -18.79725,-0.1521 -49.84725,-0.1522 -69,-2e-4 -19.15274,0.1521 -3.77317,0.2766 34.17683,0.2767 37.95,10e-5 53.6204,-0.1243 34.82317,-0.2765 z m 67.44173,-60.7235 34.265,-59.438 -34.265,-59.5095 -34.2649,-59.5095 -68.30719,0.215 -68.30718,0.215 -33.54978,58 c -18.45238,31.9 -33.76826,58.7459 -34.0353,59.6577 -0.36964,1.262 49.41244,89.3426 65.89655,116.5923 l 1.96602,3.25 68.16844,-0.018 68.16844,-0.018 34.2649,-59.4379 z m -67.44173,-180.2765 c -18.79725,-0.1521 -49.84725,-0.1522 -69,-2e-4 -19.15274,0.1521 -3.77317,0.2766 34.17683,0.2767 37.95,10e-5 53.6204,-0.1243 34.82317,-0.2765 z M 165.62728,1231.7567 C 161.63856,1225.4515 97,1112.8738 97,1112.2321 c 0,-0.4119 15.71502,-27.9701 34.92226,-61.2405 L 166.84453,990.5 h 70.69341 70.69341 l 34.88433,60.4286 c 19.18637,33.2357 34.86235,60.9107 34.8355,61.5 -0.0269,0.5893 -15.6695,28.0714 -34.76145,61.0714 l -34.71264,60 -70.7111,0.2567 -70.7111,0.2567 z m 106.69589,0.4938 c -18.79725,-0.1521 -49.84725,-0.1522 -69,-2e-4 -19.15274,0.1521 -3.77317,0.2766 34.17683,0.2767 37.95,10e-5 53.62043,-0.1243 34.82317,-0.2765 z m 66.75627,-59.0005 c 18.31331,-31.7625 33.73644,-58.483 34.27361,-59.3788 0.76273,-1.272 -6.55752,-14.6892 -33.41734,-61.25 L 305.54169,993 l -68.02085,0.009 -68.02084,0.009 -34.40411,59.6296 c -26.88964,46.6054 -34.18827,59.9815 -33.4159,61.2411 0.54351,0.8864 15.97726,27.5991 34.29722,59.3616 l 33.30902,57.75 h 68.24813 68.24814 l 33.29694,-57.75 z M 272.32317,991.25053 c -18.79725,-0.15214 -49.84725,-0.15222 -69,-1.9e-4 -19.15274,0.15204 -3.77317,0.27651 34.17683,0.27661 37.95,10e-5 53.62043,-0.12429 34.82317,-0.27642 z M 646.18607,1230.75 c -1.08738,-1.7875 -16.25104,-28 -33.69703,-58.25 -17.44599,-30.25 -32.40986,-56.1864 -33.25304,-57.6364 -1.51035,-2.5974 -1.01065,-3.5416 33.73932,-63.75 L 648.24769,990 h 70.69094 70.69095 l 1.56871,3.25 c 0.8628,1.7875 16.47114,29.0434 34.68522,60.5687 18.21407,31.5253 33.11649,57.8022 33.11649,58.3931 0,0.5909 -15.6375,28.2218 -34.75,61.402 l -34.75,60.3277 -70.66844,0.029 -70.66844,0.029 -1.97705,-3.25 z m 107.1371,1.5005 c -18.79725,-0.1521 -49.84725,-0.1522 -69,-2e-4 -19.15274,0.1521 -3.77317,0.2766 34.17683,0.2767 37.95,10e-5 53.62043,-0.1243 34.82317,-0.2765 z M 820.76571,1172.5 c 18.47341,-31.9 33.61754,-58.9 33.65363,-60 0.0361,-1.1 -15.19463,-28.4375 -33.84603,-60.75 L 786.66167,993 l -68.08083,0.0289 -68.08084,0.0289 -34,59.0915 c -18.7,32.5004 -33.94555,59.6641 -33.879,60.3639 0.0666,0.6997 15.35314,27.6486 33.97019,59.8864 l 33.84919,58.6142 68.36865,-0.2569 68.36866,-0.2568 33.58802,-58 z M 753.32317,991.25053 c -18.79725,-0.15214 -49.84725,-0.15222 -69,-1.9e-4 -19.15274,0.15204 -3.77317,0.27651 34.17683,0.27661 37.95,10e-5 53.62043,-0.12429 34.82317,-0.27642 z M 1127.2832,1230.75 c -1.053,-1.7875 -16.6534,-28.7766 -34.6676,-59.9757 -22.944,-39.7371 -32.6577,-57.4423 -32.4344,-59.1184 0.1754,-1.316 15.816,-29.2269 34.757,-62.0243 L 1129.3764,990 l 70.5618,0.0493 70.5618,0.0493 34.5,60.0391 c 18.975,33.0215 34.4888,61.0119 34.4751,62.2008 -0.014,1.1889 -15.5388,29.0451 -34.5,61.9027 l -34.4751,59.7412 -70.6512,0.01 -70.6512,0.01 -1.9144,-3.25 z m 107.04,1.5005 c -18.7973,-0.1521 -49.8473,-0.1522 -69,-2e-4 -19.1528,0.1521 -3.7732,0.2766 34.1768,0.2767 37.95,10e-5 53.6204,-0.1243 34.8232,-0.2765 z M 1302.1229,1172 c 18.6015,-32.175 33.8335,-59.0203 33.849,-59.6563 0.015,-0.636 -15.3253,-27.7516 -34.0905,-60.2569 l -34.1186,-59.10061 -68.1202,0.25691 -68.1201,0.2569 -34.2791,59.3629 -34.279,59.3629 34.2678,59.3836 34.2678,59.3835 68.401,-0.2465 68.4009,-0.2464 z M 1234.25,991.25044 c -18.8375,-0.15218 -49.6625,-0.15218 -68.5,0 -18.8375,0.15218 -3.425,0.2767 34.25,0.2767 37.675,0 53.0875,-0.12452 34.25,-0.2767 z m -861.32276,44.11836 c -18.93498,-32.7972 -34.57002,-60.46441 -34.74453,-61.48275 -0.17851,-1.0417 14.84667,-28.1048 34.35267,-61.87542 l 34.66995,-60.0239 71.04233,0.25664 71.04233,0.25663 34.35403,59.5 c 18.89472,32.725 34.35447,60.33215 34.35501,61.34923 5.3e-4,1.01708 -15.5685,28.80457 -34.59786,61.74997 L 548.80233,1095 h -70.72392 -70.72393 z m 140.39593,57.8817 c -18.79725,-0.1521 -49.84725,-0.1522 -69,-2e-4 -19.15274,0.1521 -3.77317,0.2766 34.17683,0.2767 37.95,10e-5 53.62043,-0.1243 34.82317,-0.2765 z M 580.5,1032.9262 c 18.7,-32.4692 33.85103,-59.57292 33.66897,-60.23054 C 613.9869,972.03805 598.70637,945.2875 580.21223,913.25 L 546.58654,855 478.04327,855.0195 409.5,855.039 375.63056,913.76953 c -18.62819,32.30179 -33.92819,58.99022 -34,59.30762 -0.11836,0.52316 60.55933,106.30185 66.06653,115.17295 l 2.328,3.75 68.23745,-0.02 68.23746,-0.019 z M 512.75,853.25043 c -19.1125,-0.15199 -50.3875,-0.15199 -69.5,0 -19.1125,0.15199 -3.475,0.27634 34.75,0.27634 38.225,0 53.8625,-0.12435 34.75,-0.27634 z m 341.40546,182.27187 c -18.88398,-32.72 -34.5538,-60.32954 -34.82182,-61.35446 -0.31719,-1.21295 11.63895,-22.86501 34.24836,-62.02229 l 34.73568,-60.15879 71.05457,0.25662 71.05455,0.25662 33.8494,58.5 c 18.6172,32.175 34.2933,59.40245 34.8357,60.50545 0.8262,1.67992 -4.6848,11.8253 -33.9498,62.50005 l -34.936,60.4945 -70.86808,0.2566 -70.86805,0.2566 z m 140.16771,57.7282 c -18.79725,-0.1521 -49.84725,-0.1522 -69,-2e-4 -19.15274,0.1521 -3.77317,0.2766 34.17683,0.2767 37.95,10e-5 53.6204,-0.1243 34.82317,-0.2765 z m 67.45733,-60.5881 34.2447,-59.33769 -34.1508,-59.16236 L 1027.7237,855 959.11183,855.03823 890.5,855.07646 857,913.22737 c -18.425,31.983 -33.64894,58.75869 -33.83098,59.50152 -0.24777,1.01107 57.94304,103.46781 66.46272,117.02111 l 1.41437,2.25 h 68.24482 68.24487 z M 993.75,853.25043 c -19.1125,-0.15199 -50.3875,-0.15199 -69.5,0 -19.1125,0.15199 -3.475,0.27634 34.75,0.27634 38.225,0 53.8625,-0.12435 34.75,-0.27634 z M 132.5,896.90486 c -18.7,-32.45793 -34.392486,-59.85889 -34.87219,-60.89101 -0.688793,-1.48199 6.46047,-14.60634 34,-62.41597 L 166.5,713.05849 l 71,-0.01 71,-0.01 34.8999,60.54733 c 34.2422,59.40629 34.87352,60.60059 33.5,63.37308 -0.76994,1.55416 -16.4749,28.96159 -34.8999,60.90539 l -33.5,58.07964 -71,-0.0123 -71,-0.0123 -34,-59.01442 z m 139.82317,57.34567 c -18.79725,-0.15214 -49.84725,-0.15222 -69,-1.9e-4 -19.15274,0.15204 -3.77317,0.27651 34.17683,0.27661 37.95,10e-5 53.62043,-0.12429 34.82317,-0.27642 z M 339.71241,894.5 c 18.44409,-31.9 33.6969,-58.675 33.89513,-59.5 0.19824,-0.825 -14.8797,-27.825 -33.50652,-60 l -33.86694,-58.5 h -68.70891 -68.7089 l -32.97714,57 c -18.13743,31.35 -33.43459,57.93848 -33.9937,59.08551 -0.95857,1.96652 13.82811,28.44469 64.87562,116.17135 l 2.47704,4.25686 68.4898,-0.25686 68.4898,-0.25686 z M 272.32317,714.25053 c -18.79725,-0.15214 -49.84725,-0.15222 -69,-1.9e-4 -19.15274,0.15204 -3.77317,0.27651 34.17683,0.27661 37.95,10e-5 53.62043,-0.12429 34.82317,-0.27642 z M 646.62621,953.75 c -0.78094,-1.2375 -16.59633,-28.55036 -35.14531,-60.69525 l -33.72541,-58.44525 1.66115,-3.05475 C 580.33027,829.87464 596.02836,802.625 614.30129,771 l 33.22351,-57.5 70.99261,-0.25659 70.99262,-0.2566 34.49499,59.7566 c 18.97224,32.86612 34.48376,60.65659 34.47004,61.75659 -0.0137,1.1 -15.53871,28.88352 -34.5,61.74115 L 789.5,955.98229 l -70.72695,0.009 -70.72694,0.009 -1.4199,-2.25 z m 106.69696,0.50053 c -18.79725,-0.15214 -49.84725,-0.15222 -69,-1.9e-4 -19.15274,0.15204 -3.77317,0.27651 34.17683,0.27661 37.95,10e-5 53.62043,-0.12429 34.82317,-0.27642 z M 821.12285,894 c 18.60151,-32.175 33.82559,-58.95 33.83129,-59.5 0.006,-0.55 -15.19775,-27.325 -33.78543,-59.5 l -33.79579,-58.5 -68.57372,-0.25686 -68.57371,-0.25686 -34.20154,59.24985 c -25.32123,43.86583 -33.96408,59.64114 -33.28697,60.75686 0.50301,0.82886 15.91256,27.49759 34.24343,59.26386 l 33.32886,57.75684 68.49633,-0.25684 L 787.30193,952.5 Z M 753.32317,714.25053 c -18.79725,-0.15214 -49.84725,-0.15222 -69,-1.9e-4 -19.15274,0.15204 -3.77317,0.27651 34.17683,0.27661 37.95,10e-5 53.62043,-0.12429 34.82317,-0.27642 z M 1125.1483,949.25 c -2.167,-3.7125 -17.9621,-31.03244 -35.1002,-60.71099 -26.968,-46.70113 -31.0129,-54.23531 -30.065,-56 0.6023,-1.12145 16.2967,-28.36401 34.8763,-60.53901 l 33.7812,-58.5 70.9946,-0.25661 70.9946,-0.25661 34.4351,59.65475 c 18.9393,32.81011 34.4351,60.62163 34.4351,61.80337 0,1.18173 -15.51,29.01507 -34.4666,61.85185 L 1270.5669,956 h -70.7394 -70.7393 z m 109.1749,5.00053 c -18.7973,-0.15214 -49.8473,-0.15222 -69,-1.9e-4 -19.1528,0.15204 -3.7732,0.27651 34.1768,0.27661 37.95,10e-5 53.6204,-0.12429 34.8232,-0.27642 z M 1291.5248,912.5 c 12.7038,-22 28.0445,-48.55997 34.0904,-59.02216 l 10.9927,-19.02216 -34.0573,-58.97784 -34.0574,-58.97784 -68.5747,-0.25684 -68.5747,-0.25684 -33.8386,58.63019 c -18.6112,32.24661 -33.8385,59.17204 -33.8385,59.8343 0,0.66226 15.2491,27.60982 33.8868,59.88347 l 33.8869,58.67937 68.4933,-0.25682 68.4933,-0.25683 z m -57.2016,-198.24947 c -18.7973,-0.15214 -49.8473,-0.15222 -69,-1.9e-4 -19.1528,0.15204 -3.7732,0.27651 34.1768,0.27661 37.95,10e-5 53.6204,-0.12429 34.8232,-0.27642 z M 372.6191,757.03377 C 353.5786,724.04505 338,696.37566 338,695.54623 c 0,-0.82942 15.59648,-28.51961 34.65884,-61.53375 l 34.65884,-60.02572 70.9202,0.25662 70.9202,0.25662 34.39792,59.5 c 18.91885,32.725 34.40194,60.4 34.40685,61.5 0.005,1.1 -15.45711,28.775 -34.36006,61.5 l -34.369,59.5 -70.99779,0.25663 -70.9978,0.25663 z M 512.75,815.25043 c -19.1125,-0.15199 -50.3875,-0.15199 -69.5,0 -19.1125,0.15199 -3.475,0.27634 34.75,0.27634 38.225,0 53.8625,-0.12435 34.75,-0.27634 z m 67.68189,-59.97952 c 18.64579,-32.301 33.89962,-59.1885 33.89739,-59.75 -0.002,-0.5615 -15.26472,-27.45484 -33.91666,-59.76297 L 546.5,577.01588 l -68.5,0.0313 -68.5,0.0314 -34,59.05799 c -18.7,32.4819 -33.96209,59.28225 -33.91574,59.55634 0.0463,0.2741 15.34634,26.99399 34,59.37755 l 33.91574,58.87919 68.51522,0.0252 68.51523,0.0252 33.90144,-58.72909 z M 512.75,575.25043 c -19.1125,-0.15199 -50.3875,-0.15199 -69.5,0 -19.1125,0.15199 -3.475,0.27634 34.75,0.27634 38.225,0 53.8625,-0.12435 34.75,-0.27634 z M 853.93105,757.33689 C 834.99397,724.5149 819.5,696.70339 819.5,695.53352 c 0,-1.16986 15.51167,-28.99646 34.47038,-61.83687 l 34.47037,-59.70985 70.9217,0.2566 70.92165,0.2566 34.9152,60.45881 c 30.2544,52.38821 34.7688,60.73129 33.8188,62.5 -0.603,1.12265 -16.2979,28.36619 -34.8775,60.54119 l -33.7812,58.5 -70.99864,0.25661 -70.99865,0.25661 z m 140.39212,57.91364 c -18.79725,-0.15214 -49.84725,-0.15222 -69,-1.9e-4 -19.15274,0.15204 -3.77317,0.27651 34.17683,0.27661 37.95,10e-5 53.6204,-0.12429 34.82317,-0.27642 z m 67.17553,-59.87388 c 18.6091,-32.24285 33.8346,-59.16442 33.8346,-59.82572 0,-0.66131 -15.2448,-27.60887 -33.8773,-59.88348 l -33.8773,-58.68111 -68.49889,0.25683 -68.49883,0.25683 -34.11203,59 c -30.2443,52.31038 -33.97387,59.22677 -32.8934,61 0.67025,1.1 15.7249,27.2 33.45479,58 17.72988,30.8 32.68129,56.5625 33.22535,57.25 0.77404,0.97811 15.82536,1.25 69.19882,1.25 h 68.20959 z M 994.32317,575.25053 c -18.79725,-0.15214 -49.84725,-0.15222 -69,-1.9e-4 -19.15274,0.15204 -3.77317,0.27651 34.17683,0.27661 37.95,10e-5 53.6204,-0.12429 34.82317,-0.27642 z M 131.57855,617.37686 96.657103,556.79219 98.368979,553.6461 C 99.310511,551.91574 115.03324,524.625 133.30837,493 l 33.22751,-57.5 70.98206,-0.21408 70.98206,-0.21408 34.83792,60.51377 c 23.75004,41.25403 34.63073,61.05493 34.18693,62.21408 -0.35805,0.93517 -16.03512,28.35876 -34.83793,60.94131 L 308.5,677.98199 l -71,-0.0102 -71,-0.0102 -34.92145,-60.58467 z m 140.74462,58.87367 c -18.79725,-0.15214 -49.84725,-0.15222 -69,-1.9e-4 -19.15274,0.15204 -3.77317,0.27651 34.17683,0.27661 37.95,10e-5 53.62043,-0.12429 34.82317,-0.27642 z M 340.15381,616 c 18.619,-32.175 33.67664,-59.175 33.46143,-60 -0.21522,-0.825 -15.49212,-27.6 -33.94869,-59.5 l -33.55739,-58 -68.43618,-0.25686 -68.43619,-0.25685 -33.30506,57.75685 c -18.31779,31.76627 -33.73362,58.47119 -34.2574,59.34425 -0.72998,1.21677 6.57799,14.64166 31.30068,57.5 17.73914,30.75194 33.1403,57.3782 34.22479,59.16948 l 1.97181,3.25686 68.56474,-0.25686 L 306.30109,674.5 Z M 272.32317,436.25053 c -18.79725,-0.15214 -49.84725,-0.15222 -69,-1.9e-4 -19.15274,0.15204 -3.77317,0.27651 34.17683,0.27661 37.95,10e-5 53.62043,-0.12429 34.82317,-0.27642 z M 612.63382,617.36016 C 581.58093,563.42585 577.89438,556.56741 578.92659,554.65135 579.56401,553.46811 595.28592,526.175 613.86416,494 l 33.77861,-58.5 70.92862,-0.23604 70.92861,-0.23604 34.83287,60.43647 c 19.15808,33.24005 34.68308,61.06683 34.5,61.83728 -0.18308,0.77045 -15.84103,28.24276 -34.79544,61.04957 L 789.57486,678 718.53743,677.95881 647.5,677.91761 Z m 140.68935,58.89037 c -18.79725,-0.15214 -49.84725,-0.15222 -69,-1.9e-4 -19.15274,0.15204 -3.77317,0.27651 34.17683,0.27661 37.95,10e-5 53.62043,-0.12429 34.82317,-0.27642 z M 821.21484,616 c 18.58054,-32.175 33.76405,-58.95 33.74113,-59.5 -0.0229,-0.55 -15.26967,-27.325 -33.88168,-59.5 l -33.84002,-58.5 -68.44403,-0.25684 -68.44402,-0.25684 -33.83831,58.75684 c -18.61107,32.31626 -33.9996,59.06857 -34.19674,59.44957 -0.27433,0.53021 34.73708,61.85203 65.40988,114.56413 l 2.47704,4.25686 68.61698,-0.25686 L 787.43204,674.5 Z M 753.32317,436.25053 c -18.79725,-0.15214 -49.84725,-0.15222 -69,-1.9e-4 -19.15274,0.15204 -3.77317,0.27651 34.17683,0.27661 37.95,10e-5 53.62043,-0.12429 34.82317,-0.27642 z M 1127.6185,675.75 C 1125.3443,672.16597 1059,557.04588 1059,556.68389 c 0,-0.1797 15.6979,-27.51959 34.8842,-60.75531 l 34.8843,-60.42858 70.8708,-0.25659 70.8707,-0.2566 34.3345,59.49093 c 18.884,32.72001 34.5538,60.32944 34.8218,61.35429 0.3171,1.21268 -11.6382,22.86877 -34.2361,62.01567 L 1270.7068,678 h -70.8304 -70.8303 z m 107.1315,0.50043 c -19.1125,-0.15199 -50.3875,-0.15199 -69.5,0 -19.1125,0.15199 -3.475,0.27634 34.75,0.27634 38.225,0 53.8625,-0.12435 34.75,-0.27634 z M 1302,616.76589 c 18.425,-31.99003 33.6138,-58.86168 33.7529,-59.71479 0.1392,-0.8531 -14.9644,-27.8761 -33.5635,-60.0511 l -33.8165,-58.5 -68.4534,-0.25682 -68.4533,-0.25682 -34.24,59.35425 -34.2401,59.35425 34.1451,59.15257 34.1451,59.15257 68.6119,-0.0352 68.6118,-0.0352 33.5,-58.16368 z m -67.6768,-180.51536 c -18.7973,-0.15214 -49.8473,-0.15222 -69,-1.9e-4 -19.1528,0.15204 -3.7732,0.27651 34.1768,0.27661 37.95,10e-5 53.6204,-0.12429 34.8232,-0.27642 z m -861.6455,43.23768 c -19.73724,-34.26089 -34.68268,-61.25132 -34.5,-62.30461 0.17727,-1.02207 15.83225,-28.7065 34.78887,-61.52096 L 407.43313,296 h 70.66816 70.66816 l 34.70674,60.13134 c 24.85468,43.06209 34.58412,60.77286 34.27473,62.39129 -0.23761,1.24298 -15.91524,29.08388 -34.83918,61.86867 L 548.50457,540 478.00228,539.96725 407.5,539.9345 Z M 512.25,538.25044 c -18.8375,-0.15218 -49.6625,-0.15218 -68.5,0 -18.8375,0.15218 -3.425,0.2767 34.25,0.2767 37.675,0 53.0875,-0.12452 34.25,-0.2767 z m 68.38506,-61.1209 34.2678,-59.37046 -2.70143,-4.68992 C 610.71564,410.4897 595.325,383.77729 578,353.70824 l -31.5,-54.67099 -68.46352,0.23137 -68.46351,0.23138 -23.09778,40 c -12.70378,22 -28.07398,48.61105 -34.156,59.13568 l -11.05821,19.13567 27.9281,48.36433 c 15.36046,26.60037 30.86378,53.42993 34.45183,59.62123 l 6.52373,11.25692 68.10131,-0.25692 L 546.36726,536.5 Z M 513.32317,297.25053 c -18.79725,-0.15214 -49.84725,-0.15222 -69,-1.9e-4 -19.15274,0.15204 -3.77317,0.27651 34.17683,0.27661 37.95,10e-5 53.62043,-0.12429 34.82317,-0.27642 z M 854,479.86236 c -18.975,-33.02151 -34.48998,-61.01184 -34.47774,-62.20073 0.0122,-1.1889 15.53724,-29.04524 34.5,-61.903 L 888.5,296.01727 l 70.82411,0.24136 70.82409,0.24137 34.4268,59.5 c 24.8413,42.93344 34.3569,60.22792 34.1759,62.11436 -0.138,1.43791 -15.7481,29.45041 -34.6891,62.25 L 1029.6236,540 959.06181,539.95073 888.5,539.90146 Z m 139.25,58.38808 c -18.8375,-0.15218 -49.6625,-0.15218 -68.5,0 -18.8375,0.15218 -3.425,0.2767 34.25,0.2767 37.675,0 53.0875,-0.12452 34.25,-0.2767 z m 68.5066,-61.11335 34.279,-59.3629 -34.2678,-59.38355 L 1027.5,299.0071 959.11405,299.25355 890.72811,299.5 856.88937,358 c -18.6113,32.175 -33.85013,59.02035 -33.86405,59.65633 -0.0139,0.63598 15.32805,27.75159 34.09329,60.25691 l 34.1186,59.10057 68.12015,-0.25691 68.12014,-0.2569 z M 994.32317,297.25053 c -18.79725,-0.15214 -49.84725,-0.15222 -69,-1.9e-4 -19.15274,0.15204 -3.77317,0.27651 34.17683,0.27661 37.95,10e-5 53.6204,-0.12429 34.82317,-0.27642 z m -380.73701,43.79805 c -19.0364,-32.97328 -34.84131,-60.5499 -35.122,-61.28139 -0.2807,-0.73149 15.19794,-28.54085 34.39697,-61.79859 l 34.90734,-60.4686 70.86577,-0.21492 70.86576,-0.21491 34,58.98345 c 18.7,32.4409 34.39055,60.00396 34.8679,61.25124 0.73167,1.91184 -4.42294,11.42871 -32.84011,60.63218 -18.53941,32.10042 -34.18969,59.42157 -34.77842,60.71368 L 789.67897,401 H 718.93839 648.1978 Z m 139.73701,58.20195 c -18.79725,-0.15214 -49.84725,-0.15222 -69,-1.9e-4 -19.15274,0.15204 -3.77317,0.27651 34.17683,0.27661 37.95,10e-5 53.62043,-0.12429 34.82317,-0.27642 z m 67.28655,-59.93971 c 18.63965,-32.27905 34.02628,-59.22976 34.19251,-59.89048 0.16623,-0.66071 -14.99728,-27.68808 -33.69668,-60.06082 L 787.10664,160.5 l -68.32023,-0.25682 -68.32023,-0.25682 -34.3005,59.45907 -34.3005,59.45907 34.31741,59.52755 L 650.5,397.9596 718.60972,397.9798 786.71944,398 Z M 753.32317,158.25053 c -18.79725,-0.15214 -49.84725,-0.15222 -69,-1.9e-4 -19.15274,0.15204 -3.77317,0.27651 34.17683,0.27661 37.95,1e-4 53.62043,-0.12429 34.82317,-0.27642 z M 507.82449,1408.2504 c -21.82153,-0.1503 -57.82153,-0.1503 -80,-10e-5 -22.17847,0.1502 -4.32449,0.2731 39.67551,0.2732 44,0 62.14602,-0.1228 40.32449,-0.2731 z m 501.92551,-10e-5 c -21.8625,-0.1503 -57.6375,-0.1503 -79.5,0 -21.8625,0.1503 -3.975,0.2733 39.75,0.2733 43.725,0 61.6125,-0.123 39.75,-0.2733 z M 266.82449,1269.2504 c -21.82153,-0.1503 -57.82153,-0.1503 -80,-10e-5 -22.17847,0.1502 -4.32449,0.2731 39.67551,0.2732 44,0 62.14602,-0.1228 40.32449,-0.2731 z m 984.00001,0 c -21.8215,-0.1503 -57.8215,-0.1503 -80,-10e-5 -22.1785,0.1502 -4.3245,0.2731 39.6755,0.2732 44,0 62.146,-0.1228 40.3245,-0.2731 z m -984.00001,-870 c -21.82153,-0.15027 -57.82153,-0.15033 -80,-1.4e-4 -22.17847,0.15019 -4.32449,0.27314 39.67551,0.27321 44,8e-5 62.14602,-0.12281 40.32449,-0.27307 z m 984.00001,0 c -21.8215,-0.15027 -57.8215,-0.15033 -80,-1.4e-4 -22.1785,0.15019 -4.3245,0.27314 39.6755,0.27321 44,8e-5 62.146,-0.12281 40.3245,-0.27307 z M 506.75,260.25033 c -21.8625,-0.1503 -57.6375,-0.1503 -79.5,0 -21.8625,0.1503 -3.975,0.27328 39.75,0.27328 43.725,0 61.6125,-0.12298 39.75,-0.27328 z m 503,0 c -21.8625,-0.1503 -57.6375,-0.1503 -79.5,0 -21.8625,0.1503 -3.975,0.27328 39.75,0.27328 43.725,0 61.6125,-0.12298 39.75,-0.27328 z M 764.25,121.25026 c -24.8875,-0.14885 -65.6125,-0.14885 -90.5,0 -24.8875,0.14885 -4.525,0.27064 45.25,0.27064 49.775,0 70.1375,-0.12179 45.25,-0.27064 z"
       id="path293" />
  </g>
</svg>
