<?xml version="1.0" encoding="UTF-8" standalone="no"?>
<!-- Created with Inkscape (http://www.inkscape.org/) -->

<svg
   version="1.1"
   id="svg2"
   width="847.97699"
   height="874"
   viewBox="0 0 847.97699 874"
   xmlns="http://www.w3.org/2000/svg"
   xmlns:svg="http://www.w3.org/2000/svg">
  <defs
     id="defs6" />
  <g
     id="g8"
     transform="translate(-74.022985,-95.000001)">
    <path
       style="fill:#000000"
       d="m 405.24286,967.75 c -0.92293,-1.15132 -32.14465,-54.99264 -65.80163,-113.47377 L 325.5,830.05246 245.12032,829.77623 164.74063,829.5 l -21.93611,-38 c -12.06486,-20.9 -32.36676,-56 -45.115319,-78 C 84.360002,690.49801 74.50787,672.43762 74.504997,671 c -0.0029,-1.4756 15.848223,-29.9539 38.684063,-69.5 21.27898,-36.85 38.94786,-67.67866 39.26418,-68.50813 0.34487,-0.90438 -15.24385,-28.9199 -38.93906,-69.97996 C 91.781379,425.35241 74.010346,393.85607 74.022992,393.02005 74.035637,392.18402 94.449262,356.175 119.3866,313 l 45.34062,-78.5 80.38639,-0.27367 80.38639,-0.27367 35,-60.60792 c 19.25,-33.33435 37.25,-64.58826 40,-69.45313 l 5,-8.845209 92.14337,-0.0232 92.14337,-0.0232 4.42857,7.749999 c 6.16146,10.78255 31.77755,55.22008 55.48347,96.25 l 19.93312,34.5 80.06652,0.25592 c 62.39831,0.19945 80.28649,0.53046 81.06336,1.5 0.54826,0.68425 19.56956,33.41908 42.26956,72.74408 22.7,39.325 43.00431,74.35849 45.12069,77.8522 2.11639,3.49372 3.84797,6.71903 3.84797,7.16738 0,0.44834 -2.08526,4.33985 -4.6339,8.64779 -2.54865,4.30795 -20.56111,35.39513 -40.02769,69.08263 l -35.3938,61.25 35.3938,61.25 c 19.46658,33.6875 37.47904,64.77468 40.02769,69.08263 2.54864,4.30794 4.6339,8.19945 4.6339,8.64779 0,0.44835 -1.73158,3.67366 -3.84797,7.16738 -2.11638,3.49371 -22.42069,38.5272 -45.12069,77.8522 -22.7,39.325 -41.7213,72.05983 -42.26956,72.74408 -0.77687,0.96955 -18.66633,1.30055 -81.06971,1.5 L 669.6192,830.5 635.31644,890 c -18.86652,32.725 -36.382,63.02204 -38.92329,67.32676 -2.5413,4.30472 -4.84686,8.69222 -5.12348,9.75 -0.49166,1.88012 -2.57143,1.92324 -92.76386,1.92324 -72.60765,0 -92.47437,-0.26627 -93.26295,-1.25 z M 543.25,967.25026 c -24.8875,-0.14885 -65.6125,-0.14885 -90.5,0 -24.8875,0.14885 -4.525,0.27064 45.25,0.27064 49.775,0 70.1375,-0.12179 45.25,-0.27064 z M 588.45731,964.25 c 0.36921,-0.9625 2.81014,-5.35 5.4243,-9.75 2.61416,-4.4 20.24375,-34.8875 39.17688,-67.75 L 667.48236,827 h 80.17258 80.17257 l 28.74068,-49.75 c 15.80738,-27.3625 36.12026,-62.48821 45.13975,-78.05714 l 16.39906,-28.30715 -3.88014,-6.69285 C 861.77772,573.72326 839,533.69698 839,532 c 0,-1.69698 22.77772,-41.72326 75.22686,-132.19286 l 3.88014,-6.69285 -16.39906,-28.30715 C 892.68845,349.23821 872.37557,314.1125 856.56819,286.75 L 827.82751,237 h -80.17257 -80.17258 l -34.42387,-59.75 c -18.93313,-32.8625 -36.56272,-63.35 -39.17688,-67.75 -2.61416,-4.4 -5.05509,-8.7875 -5.4243,-9.75 C 587.82488,98.10131 582.58776,98 497.99277,98 h -89.79325 l -16.96331,29.25 c -9.32982,16.0875 -27.4209,47.3625 -40.2024,69.5 L 327.79473,237 H 247.613 167.43127 l -44.79991,77.62374 c -24.897555,43.1394 -44.610285,78.3462 -44.37307,79.25 0.23476,0.89444 18.047684,32.14528 39.58427,69.44631 21.53659,37.30102 39.15744,68.20253 39.15744,68.67 0,0.46748 -17.61821,31.37346 -39.15158,68.67996 -21.533366,37.30649 -39.352332,68.58492 -39.5977,69.5076 -0.257159,0.96703 9.67799,19.18053 23.45576,43 13.14604,22.72732 33.31174,57.63489 44.81267,77.57239 L 167.42993,827 h 80.1824 80.1824 l 23.23908,40.25 c 12.7815,22.1375 30.87258,53.4125 40.2024,69.5 L 408.19952,966 h 89.79325 c 84.59499,0 89.83211,-0.10131 90.46454,-1.75 z M 392.02644,870.97502 C 372.65476,837.41128 357.0435,809.39878 357.33476,808.72502 357.62603,808.05126 373.35881,780.725 392.29651,748 l 34.43218,-59.5 70.88565,-0.22603 70.88566,-0.22603 34.75,60.33294 C 622.3625,781.564 638,809.1973 638,809.7882 c 0,0.59091 -14.90242,26.86779 -33.11649,58.39309 -18.21408,31.52529 -33.82242,58.78121 -34.68522,60.56871 l -1.56871,3.25 h -70.69095 -70.69094 z m 140.29673,59.27551 c -18.79725,-0.15214 -49.84725,-0.15222 -69,-1.9e-4 -19.15274,0.15204 -3.77317,0.27651 34.17683,0.27661 37.95,10e-5 53.62043,-0.12429 34.82317,-0.27642 z M 599.57331,870.25 c 18.6514,-32.3125 33.88211,-59.65 33.84603,-60.75 -0.0361,-1.1 -15.18022,-28.1 -33.65363,-60 l -33.58802,-58 -68.36866,-0.25683 -68.36865,-0.25682 -33.84919,58.61414 c -18.61705,32.23777 -33.90363,59.18667 -33.97019,59.88644 -0.0666,0.69977 15.179,27.86349 33.879,60.36382 l 34,59.09152 68.08084,0.0289 68.08083,0.0289 33.91164,-58.75 z M 532.32317,689.25053 c -18.79725,-0.15214 -49.84725,-0.15222 -69,-1.9e-4 -19.15274,0.15204 -3.77317,0.27651 34.17683,0.27661 37.95,10e-5 53.62043,-0.12429 34.82317,-0.27642 z M 151.63683,732.46674 C 127.39339,690.4005 116.93269,671.36538 117.29576,669.977 c 0.28716,-1.0981 15.97456,-28.76715 34.86089,-61.48678 L 186.49543,549 h 70.59727 70.59727 l 34.71035,60.11492 c 22.79157,39.47278 34.6055,60.87613 34.40501,62.33172 -0.16793,1.21924 -15.81528,29.06753 -34.7719,61.88508 L 327.56687,793 257.03343,792.98 186.5,792.96 151.63683,732.46681 Z M 291.25,791.25044 c -18.8375,-0.15218 -49.6625,-0.15218 -68.5,0 -18.8375,0.15218 -3.425,0.2767 34.25,0.2767 37.675,0 53.0875,-0.12452 34.25,-0.2767 z m 68.41952,-61.0498 34.25194,-59.29936 L 359.71073,611.48565 325.5,552.07002 257.07028,552.28501 188.64057,552.5 154.8388,611 c -18.59098,32.175 -33.81011,59.09301 -33.82029,59.8178 -0.0141,1.00694 55.73909,98.67544 66.18286,115.93911 l 1.97029,3.25692 68.12296,-0.25692 L 325.41757,789.5 Z M 292.32317,550.25053 c -18.79725,-0.15214 -49.84725,-0.15222 -69,-1.9e-4 -19.15274,0.15204 -3.77317,0.27651 34.17683,0.27661 37.95,10e-5 53.62043,-0.12429 34.82317,-0.27642 z M 633.5,733.92876 c -18.7,-32.44576 -34.40946,-60.0606 -34.90991,-61.36631 -0.78703,-2.05343 3.80449,-10.55496 34,-62.95348 L 667.5,549.02952 l 70.80036,0.23524 70.80037,0.23524 34.11655,59 c 18.76411,32.45 34.30617,60.16012 34.5379,61.57805 0.32453,1.98565 -7.56202,16.40444 -34.32194,62.75 L 808.68997,793 738.09498,792.9605 667.5,792.921 l -34,-58.99229 z m 139.82317,57.32177 c -18.79725,-0.15214 -49.84725,-0.15222 -69,-1.9e-4 -19.15274,0.15204 -3.77317,0.27651 34.17683,0.27661 37.95,10e-5 53.62043,-0.12429 34.82317,-0.27642 z m 67.44177,-60.83552 34.26494,-59.50406 -34.26494,-59.44336 -34.26494,-59.44337 -68.36498,0.23789 -68.36499,0.23789 -33.51995,58 c -18.43598,31.9 -33.71749,58.71397 -33.95892,59.58659 -0.34186,1.23564 28.63115,52.45648 65.42489,115.66341 l 2.47399,4.25 68.15498,-0.0405 L 806.5,789.919 840.76494,730.41494 Z M 773.32317,550.25053 c -18.79725,-0.15214 -49.84725,-0.15222 -69,-1.9e-4 -19.15274,0.15204 -3.77317,0.27651 34.17683,0.27661 37.95,10e-5 53.62043,-0.12429 34.82317,-0.27642 z M 425.28315,650.75 C 398.77591,605.74974 358.00598,533.70282 358.02453,531.89336 358.03802,530.57701 373.52967,502.725 392.45042,470 l 34.40136,-59.5 70.82411,-0.206 70.82411,-0.20601 34.5,59.99868 c 18.975,32.99928 34.5,60.86027 34.5,61.91333 0,1.05306 -15.525,28.91168 -34.5,61.90805 l -34.5,59.99341 -70.65122,0.0493 -70.65123,0.0493 -1.9144,-3.25 z m 107.04002,1.50053 c -18.79725,-0.15214 -49.84725,-0.15222 -69,-1.9e-4 -19.15274,0.15204 -3.77317,0.27651 34.17683,0.27661 37.95,10e-5 53.62043,-0.12429 34.82317,-0.27642 z m 67.56221,-60.3442 C 618.64842,559.40481 634,532.44697 634,532 c 0,-0.44697 -15.35158,-27.40481 -34.11462,-59.90633 L 565.77076,413 497.63538,413.009 429.5,413.01801 395.167,472.509 360.83399,532 l 34.33301,59.491 34.333,59.49099 68.13538,0.009 68.13538,0.009 34.11462,-59.09367 z m -67.56221,-180.6558 c -18.79725,-0.15214 -49.84725,-0.15222 -69,-1.9e-4 -19.15274,0.15204 -3.77317,0.27651 34.17683,0.27661 37.95,10e-5 53.62043,-0.12429 34.82317,-0.27642 z M 152.15665,455.50978 C 133.27032,422.79015 117.58292,395.1211 117.29576,394.023 c -0.36307,-1.38838 10.09763,-20.4235 34.34107,-62.48974 L 186.5,271.04007 l 70.53343,-0.02 70.53344,-0.02 34.46656,59.66828 c 18.95662,32.81755 34.60397,60.66584 34.7719,61.88508 0.20049,1.45559 -11.61344,22.85894 -34.40501,62.33172 L 327.68997,515 H 257.0927 186.49543 Z m 140.16652,57.74075 c -18.79725,-0.15214 -49.84725,-0.15222 -69,-1.9e-4 -19.15274,0.15204 -3.77317,0.27651 34.17683,0.27661 37.95,10e-5 53.62043,-0.12429 34.82317,-0.27642 z M 359.71073,452.5089 393.92146,393.09872 359.66942,333.79936 325.41738,274.5 H 257.0938 188.77022 l -33.52005,58 c -18.43603,31.9 -33.73486,58.78006 -33.99742,59.73347 -0.29197,1.06023 12.23226,23.7803 32.2476,58.5 17.99873,31.22159 33.35964,57.77903 34.13536,59.01653 l 1.4104,2.25 68.22694,-0.0405 L 325.5,511.919 359.71073,452.50883 Z M 291.25,272.25044 c -18.8375,-0.15218 -49.6625,-0.15218 -68.5,0 -18.8375,0.15218 -3.425,0.2767 34.25,0.2767 37.675,0 53.0875,-0.12452 34.25,-0.2767 z m 341.34009,182.14059 c -30.19551,-52.39852 -34.78703,-60.90005 -34,-62.95348 C 599.09054,390.13184 614.8,362.517 633.5,330.07124 l 34,-58.99229 70.59498,-0.0395 70.59499,-0.0395 34.74327,60.17195 c 26.75992,46.34556 34.64647,60.76435 34.32194,62.75 -0.23173,1.41793 -15.77379,29.12805 -34.5379,61.57805 l -34.11655,59 -70.80037,0.23524 -70.80036,0.23524 -34.90991,-60.57945 z m 140.73308,58.8595 c -18.79725,-0.15214 -49.84725,-0.15222 -69,-1.9e-4 -19.15274,0.15204 -3.77317,0.27651 34.17683,0.27661 37.95,10e-5 53.62043,-0.12429 34.82317,-0.27642 z m 67.44177,-60.72357 34.26494,-59.43791 -34.26494,-59.50952 -34.26494,-59.50951 -68.30719,0.21499 -68.30718,0.21499 -33.54978,58 c -18.45238,31.9 -33.76826,58.74594 -34.0353,59.65766 -0.36964,1.26203 49.41244,89.34267 65.89655,116.59234 l 1.96602,3.25 68.16844,-0.0176 68.16844,-0.0176 34.26494,-59.43791 z M 773.32317,272.25053 c -18.79725,-0.15214 -49.84725,-0.15222 -69,-1.9e-4 -19.15274,0.15204 -3.77317,0.27651 34.17683,0.27661 37.95,10e-5 53.62043,-0.12429 34.82317,-0.27642 z M 425.18607,372.75 c -1.08738,-1.7875 -16.25104,-28 -33.69703,-58.25 -17.44599,-30.25 -32.40986,-56.1864 -33.25304,-57.63644 -1.51035,-2.5974 -1.01065,-3.54157 33.73932,-63.75 L 427.24769,132 h 70.69094 70.69095 l 1.56871,3.25 c 0.8628,1.7875 16.47114,29.04342 34.68522,60.56871 C 623.09758,227.34401 638,253.62089 638,254.2118 c 0,0.5909 -15.6375,28.22182 -34.75,61.40204 l -34.75,60.32767 -70.66844,0.0292 -70.66844,0.0292 -1.97705,-3.25 z m 107.1371,1.50053 c -18.79725,-0.15214 -49.84725,-0.15222 -69,-1.9e-4 -19.15274,0.15204 -3.77317,0.27651 34.17683,0.27661 37.95,10e-5 53.62043,-0.12429 34.82317,-0.27642 z M 599.76571,314.5 c 18.47341,-31.9 33.61754,-58.9 33.65363,-60 0.0361,-1.1 -15.19463,-28.4375 -33.84603,-60.75 L 565.66167,135 l -68.08083,0.0289 -68.08084,0.0289 -34,59.09152 c -18.7,32.50033 -33.94555,59.66405 -33.879,60.36382 0.0666,0.69977 15.35314,27.64867 33.97019,59.88644 l 33.84919,58.61414 68.36865,-0.25682 68.36866,-0.25683 33.58802,-58 z M 532.32317,133.25053 c -18.79725,-0.15214 -49.84725,-0.15222 -69,-1.9e-4 -19.15274,0.15204 -3.77317,0.27651 34.17683,0.27661 37.95,1e-4 53.62043,-0.12429 34.82317,-0.27642 z M 286.82449,828.2504 c -21.82153,-0.15027 -57.82153,-0.15033 -80,-1.4e-4 -22.17847,0.15019 -4.32449,0.27314 39.67551,0.27321 44,8e-5 62.14602,-0.12281 40.32449,-0.27307 z m 501.92551,-7e-5 c -21.8625,-0.1503 -57.6375,-0.1503 -79.5,0 -21.8625,0.1503 -3.975,0.27328 39.75,0.27328 43.725,0 61.6125,-0.12298 39.75,-0.27328 z M 286.82449,235.2504 c -21.82153,-0.15027 -57.82153,-0.15033 -80,-1.4e-4 -22.17847,0.15019 -4.32449,0.27314 39.67551,0.27321 44,8e-5 62.14602,-0.12281 40.32449,-0.27307 z m 501.92551,-7e-5 c -21.8625,-0.1503 -57.6375,-0.1503 -79.5,0 -21.8625,0.1503 -3.975,0.27328 39.75,0.27328 43.725,0 61.6125,-0.12298 39.75,-0.27328 z M 543.25,96.250258 c -24.8875,-0.148851 -65.6125,-0.148851 -90.5,0 -24.8875,0.148851 -4.525,0.270638 45.25,0.270638 49.775,0 70.1375,-0.121787 45.25,-0.270638 z"
       id="path293" />
  </g>
</svg>
