  0
SECTION
  2
HEADER
  9
$ACADVER
  1
AC1014
  9
$HANDSEED
  5
FFFF
  9
$MEASUREMENT
 70
     1
  0
ENDSEC
  0
SECTION
  2
TABLES
  0
TABLE
  2
VPORT
  5
8
330
0
100
AcDbSymbolTable
 70
     4
  0
VPORT
  5
2E
330
8
100
AcDbSymbolTableRecord
100
AcDbViewportTableRecord
  2
*ACTIVE
 70
     0
 10
0.0
 20
0.0
 11
1.0
 21
1.0
 12
210.0
 22
148.5
 13
0.0
 23
0.0
 14
10.0
 24
10.0
 15
10.0
 25
10.0
 16
0.0
 26
0.0
 36
1.0
 17
0.0
 27
0.0
 37
0.0
 40
341.0
 41
1.24
 42
50.0
 43
0.0
 44
0.0
 50
0.0
 51
0.0
 71
     0
 72
   100
 73
     1
 74
     3
 75
     0
 76
     0
 77
     0
 78
     0
  0
ENDTAB
  0
TABLE
  2
LTYPE
  5
5
330
0
100
AcDbSymbolTable
 70
     1
  0
LTYPE
  5
14
330
5
100
AcDbSymbolTableRecord
100
AcDbLinetypeTableRecord
  2
BYBLOCK
 70
     0
  3

 72
    65
 73
     0
 40
0.0
  0
LTYPE
  5
15
330
5
100
AcDbSymbolTableRecord
100
AcDbLinetypeTableRecord
  2
BYLAYER
 70
     0
  3

 72
    65
 73
     0
 40
0.0
  0
LTYPE
  5
16
330
5
100
AcDbSymbolTableRecord
100
AcDbLinetypeTableRecord
  2
CONTINUOUS
 70
     0
  3
Solid line
 72
    65
 73
     0
 40
0.0
  0
ENDTAB
  0
TABLE
  2
LAYER
  5
2
100
AcDbSymbolTable
 70
1
  0
LAYER
  5
50
100
AcDbSymbolTableRecord
100
AcDbLayerTableRecord
  2
0
 70
0
  6
CONTINUOUS
  0
ENDTAB
  0
TABLE
  2
STYLE
  5
3
330
0
100
AcDbSymbolTable
 70
     1
  0
STYLE
  5
11
330
3
100
AcDbSymbolTableRecord
100
AcDbTextStyleTableRecord
  2
STANDARD
 70
     0
 40
0.0
 41
1.0
 50
0.0
 71
     0
 42
2.5
  3
txt
  4

  0
ENDTAB
  0
TABLE
  2
VIEW
  5
6
330
0
100
AcDbSymbolTable
 70
     0
  0
ENDTAB
  0
TABLE
  2
UCS
  5
7
330
0
100
AcDbSymbolTable
 70
     0
  0
ENDTAB
  0
TABLE
  2
APPID
  5
9
330
0
100
AcDbSymbolTable
 70
     2
  0
APPID
  5
12
330
9
100
AcDbSymbolTableRecord
100
AcDbRegAppTableRecord
  2
ACAD
 70
     0
  0
ENDTAB
  0
TABLE
  2
DIMSTYLE
  5
A
330
0
100
AcDbSymbolTable
 70
     1
  0
DIMSTYLE
105
27
330
A
100
AcDbSymbolTableRecord
100
AcDbDimStyleTableRecord
  2
ISO-25
 70
     0
  3

  4

  5

  6

  7

 40
1.0
 41
2.5
 42
0.625
 43
3.75
 44
1.25
 45
0.0
 46
0.0
 47
0.0
 48
0.0
140
2.5
141
2.5
142
0.0
143
0.03937007874016
144
1.0
145
0.0
146
1.0
147
0.625
 71
     0
 72
     0
 73
     0
 74
     0
 75
     0
 76
     0
 77
     1
 78
     8
170
     0
171
     3
172
     1
173
     0
174
     0
175
     0
176
     0
177
     0
178
     0
270
     2
271
     2
272
     2
273
     2
274
     3
340
11
275
     0
280
     0
281
     0
282
     0
283
     0
284
     8
285
     0
286
     0
287
     3
288
     0
  0
ENDTAB
  0
TABLE
  2
BLOCK_RECORD
  5
1
330
0
100
AcDbSymbolTable
 70
     1
  0
BLOCK_RECORD
  5
1F
330
1
100
AcDbSymbolTableRecord
100
AcDbBlockTableRecord
  2
*MODEL_SPACE
  0
BLOCK_RECORD
  5
1B
330
1
100
AcDbSymbolTableRecord
100
AcDbBlockTableRecord
  2
*PAPER_SPACE
  0
ENDTAB
  0
ENDSEC
  0
SECTION
  2
BLOCKS
  0
BLOCK
  5
20
330
1F
100
AcDbEntity
  8
0
100
AcDbBlockBegin
  2
*MODEL_SPACE
 70
     0
 10
0.0
 20
0.0
 30
0.0
  3
*MODEL_SPACE
  1

  0
ENDBLK
  5
21
330
1F
100
AcDbEntity
  8
0
100
AcDbBlockEnd
  0
BLOCK
  5
1C
330
1B
100
AcDbEntity
 67
     1
  8
0
100
AcDbBlockBegin
  2
*PAPER_SPACE
  1

  0
ENDBLK
  5
1D
330
1B
100
AcDbEntity
 67
     1
  8
0
100
AcDbBlockEnd
  0
ENDSEC
  0
SECTION
  2
ENTITIES
  0
LWPOLYLINE
  5
100
100
AcDbEntity
  8
0
 62
7
100
AcDbPolyline
 90
12
 70
1
 10
18.807955
 20
37.350607
 30
0.0
 10
8.211797
 20
26.754979
 30
0.0
 10
5.562894
 20
24.106076
 30
0.0
 10
8.211808
 20
21.456632
 30
0.0
 10
24.105783
 20
5.562656
 30
0.0
 10
26.754689
 20
8.211563
 30
0.0
 10
26.755219
 20
8.211563
 30
0.0
 10
53.244819
 20
34.701693
 30
0.0
 10
50.595916
 20
37.350596
 30
0.0
 10
24.106324
 20
10.861004
 30
0.0
 10
10.861241
 20
24.106086
 30
0.0
 10
21.456858
 20
34.701703
 30
0.0
  0
LWPOLYLINE
  5
101
100
AcDbEntity
  8
0
 62
7
100
AcDbPolyline
 90
11
 70
1
 10
24.105762
 20
74.436910
 30
0.0
 10
21.456858
 20
71.788007
 30
0.0
 10
8.211789
 20
58.542938
 30
0.0
 10
5.562883
 20
55.894031
 30
0.0
 10
34.701927
 20
26.754987
 30
0.0
 10
37.350834
 20
29.403893
 30
0.0
 10
10.860693
 20
55.894034
 30
0.0
 10
24.105762
 20
69.139102
 30
0.0
 10
34.701928
 20
58.542937
 30
0.0
 10
37.350831
 20
61.191840
 30
0.0
 10
26.754666
 20
71.788006
 30
0.0
  0
LWPOLYLINE
  5
102
100
AcDbEntity
  8
0
 62
7
100
AcDbPolyline
 90
8
 70
1
 10
82.383850
 20
37.350607
 30
0.0
 10
55.894258
 20
10.861015
 30
0.0
 10
45.298103
 20
21.456640
 30
0.0
 10
42.649197
 20
18.807733
 30
0.0
 10
53.244822
 20
8.211579
 30
0.0
 10
55.894266
 20
5.562664
 30
0.0
 10
58.543172
 20
8.211571
 30
0.0
 10
85.033310
 20
34.701708
 30
0.0
  0
LWPOLYLINE
  5
103
100
AcDbEntity
  8
0
 62
7
100
AcDbPolyline
 90
4
 70
1
 10
42.649004
 20
50.595893
 30
0.0
 10
45.298008
 20
53.244897
 30
0.0
 10
69.139046
 20
29.403859
 30
0.0
 10
66.490042
 20
26.754855
 30
0.0
  0
LWPOLYLINE
  5
104
100
AcDbEntity
  8
0
 62
7
100
AcDbPolyline
 90
8
 70
1
 10
114.172346
 20
37.350607
 30
0.0
 10
87.682206
 20
10.860466
 30
0.0
 10
77.086040
 20
21.456632
 30
0.0
 10
74.437137
 20
18.807728
 30
0.0
 10
85.033302
 20
8.211563
 30
0.0
 10
87.682208
 20
5.562656
 30
0.0
 10
90.331112
 20
8.211560
 30
0.0
 10
116.821252
 20
34.701701
 30
0.0
  0
LWPOLYLINE
  5
105
100
AcDbEntity
  8
0
 62
7
100
AcDbPolyline
 90
9
 70
1
 10
55.894258
 20
74.436910
 30
0.0
 10
53.244817
 20
71.787998
 30
0.0
 10
53.244817
 20
71.787469
 30
0.0
 10
26.755227
 20
45.297879
 30
0.0
 10
29.404131
 20
42.648976
 30
0.0
 10
55.894269
 20
69.139113
 30
0.0
 10
66.489896
 20
58.542956
 30
0.0
 10
69.138800
 20
61.191860
 30
0.0
 10
58.543172
 20
71.788017
 30
0.0
  0
LWPOLYLINE
  5
106
100
AcDbEntity
  8
0
 62
7
100
AcDbPolyline
 90
4
 70
1
 10
74.437055
 20
50.595893
 30
0.0
 10
77.086059
 20
53.244897
 30
0.0
 10
100.927097
 20
29.403859
 30
0.0
 10
98.278093
 20
26.754855
 30
0.0
  0
LWPOLYLINE
  5
107
100
AcDbEntity
  8
0
 62
7
100
AcDbPolyline
 90
8
 70
1
 10
108.873991
 20
21.456632
 30
0.0
 10
106.225087
 20
18.807728
 30
0.0
 10
116.821252
 20
8.211563
 30
0.0
 10
119.470156
 20
5.562659
 30
0.0
 10
122.119059
 20
8.211563
 30
0.0
 10
132.715225
 20
18.807728
 30
0.0
 10
130.066321
 20
21.456632
 30
0.0
 10
119.470156
 20
10.860466
 30
0.0
  0
LWPOLYLINE
  5
108
100
AcDbEntity
  8
0
 62
7
100
AcDbPolyline
 90
8
 70
1
 10
87.682208
 20
74.436910
 30
0.0
 10
85.033305
 20
71.788006
 30
0.0
 10
58.543164
 20
45.297866
 30
0.0
 10
61.192068
 20
42.648962
 30
0.0
 10
87.682208
 20
69.139103
 30
0.0
 10
98.277833
 20
58.542948
 30
0.0
 10
100.927277
 20
61.191862
 30
0.0
 10
90.331112
 20
71.788028
 30
0.0
  0
LWPOLYLINE
  5
109
100
AcDbEntity
  8
0
 62
7
100
AcDbPolyline
 90
4
 70
1
 10
106.225105
 20
50.595893
 30
0.0
 10
108.874110
 20
53.244897
 30
0.0
 10
138.013156
 20
24.105850
 30
0.0
 10
135.364152
 20
21.456846
 30
0.0
  0
LWPOLYLINE
  5
10a
100
AcDbEntity
  8
0
 62
7
100
AcDbPolyline
 90
12
 70
1
 10
119.470156
 20
74.436913
 30
0.0
 10
116.821250
 20
71.788006
 30
0.0
 10
90.331112
 20
45.297868
 30
0.0
 10
92.980015
 20
42.648965
 30
0.0
 10
119.470153
 20
69.139103
 30
0.0
 10
132.715225
 20
55.894031
 30
0.0
 10
122.119059
 20
45.297866
 30
0.0
 10
124.767963
 20
42.648962
 30
0.0
 10
135.364128
 20
53.245128
 30
0.0
 10
138.013035
 20
55.894034
 30
0.0
 10
135.364131
 20
58.542937
 30
0.0
 10
122.119059
 20
71.788009
 30
0.0
  0
LWPOLYLINE
  5
10b
100
AcDbEntity
  8
0
 62
7
100
AcDbPolyline
 90
4
 70
1
 10
16.158961
 20
24.105850
 30
0.0
 10
24.105974
 20
32.052863
 30
0.0
 10
32.052987
 20
24.105850
 30
0.0
 10
24.105974
 20
16.158838
 30
0.0
  0
LWPOLYLINE
  5
10c
100
AcDbEntity
  8
0
 62
7
100
AcDbPolyline
 90
4
 70
1
 10
16.158961
 20
55.893901
 30
0.0
 10
24.105974
 20
63.840914
 30
0.0
 10
32.052987
 20
55.893901
 30
0.0
 10
24.105974
 20
47.946889
 30
0.0
  0
LWPOLYLINE
  5
10d
100
AcDbEntity
  8
0
 62
7
100
AcDbPolyline
 90
4
 70
1
 10
32.052987
 20
39.999876
 30
0.0
 10
39.999999
 20
47.946889
 30
0.0
 10
47.947012
 20
39.999876
 30
0.0
 10
39.999999
 20
32.052863
 30
0.0
  0
LWPOLYLINE
  5
10e
100
AcDbEntity
  8
0
 62
7
100
AcDbPolyline
 90
4
 70
1
 10
47.947012
 20
24.105850
 30
0.0
 10
55.894025
 20
32.052863
 30
0.0
 10
63.841038
 20
24.105850
 30
0.0
 10
55.894025
 20
16.158838
 30
0.0
  0
LWPOLYLINE
  5
10f
100
AcDbEntity
  8
0
 62
7
100
AcDbPolyline
 90
4
 70
1
 10
47.947012
 20
55.893901
 30
0.0
 10
55.894025
 20
63.840914
 30
0.0
 10
63.841038
 20
55.893901
 30
0.0
 10
55.894025
 20
47.946889
 30
0.0
  0
LWPOLYLINE
  5
110
100
AcDbEntity
  8
0
 62
7
100
AcDbPolyline
 90
4
 70
1
 10
63.841038
 20
39.999876
 30
0.0
 10
71.788050
 20
47.946889
 30
0.0
 10
79.735063
 20
39.999876
 30
0.0
 10
71.788050
 20
32.052863
 30
0.0
  0
LWPOLYLINE
  5
111
100
AcDbEntity
  8
0
 62
7
100
AcDbPolyline
 90
4
 70
1
 10
79.735063
 20
24.105850
 30
0.0
 10
87.682076
 20
32.052863
 30
0.0
 10
95.629089
 20
24.105850
 30
0.0
 10
87.682076
 20
16.158838
 30
0.0
  0
LWPOLYLINE
  5
112
100
AcDbEntity
  8
0
 62
7
100
AcDbPolyline
 90
4
 70
1
 10
79.735063
 20
55.893901
 30
0.0
 10
87.682076
 20
63.840914
 30
0.0
 10
95.629089
 20
55.893901
 30
0.0
 10
87.682076
 20
47.946889
 30
0.0
  0
LWPOLYLINE
  5
113
100
AcDbEntity
  8
0
 62
7
100
AcDbPolyline
 90
4
 70
1
 10
95.629089
 20
39.999876
 30
0.0
 10
103.576101
 20
47.946889
 30
0.0
 10
111.523114
 20
39.999876
 30
0.0
 10
103.576101
 20
32.052863
 30
0.0
  0
LWPOLYLINE
  5
114
100
AcDbEntity
  8
0
 62
7
100
AcDbPolyline
 90
4
 70
1
 10
111.523114
 20
24.105850
 30
0.0
 10
119.470127
 20
32.052863
 30
0.0
 10
127.417139
 20
24.105850
 30
0.0
 10
119.470127
 20
16.158838
 30
0.0
  0
LWPOLYLINE
  5
115
100
AcDbEntity
  8
0
 62
7
100
AcDbPolyline
 90
4
 70
1
 10
111.523114
 20
55.893901
 30
0.0
 10
119.470127
 20
63.840914
 30
0.0
 10
127.417139
 20
55.893901
 30
0.0
 10
119.470127
 20
47.946889
 30
0.0
  0
LWPOLYLINE
  5
116
100
AcDbEntity
  8
0
 62
7
100
AcDbPolyline
 90
20
 70
1
 10
24.105974
 20
0.264812
 30
0.0
 10
0.264936
 20
24.105850
 30
0.0
 10
16.158961
 20
39.999876
 30
0.0
 10
0.264936
 20
55.893901
 30
0.0
 10
24.105974
 20
79.734940
 30
0.0
 10
39.999999
 20
63.840914
 30
0.0
 10
55.894025
 20
79.734940
 30
0.0
 10
71.788050
 20
63.840914
 30
0.0
 10
87.682076
 20
79.734940
 30
0.0
 10
103.576101
 20
63.840914
 30
0.0
 10
119.470127
 20
79.734940
 30
0.0
 10
143.311165
 20
55.893901
 30
0.0
 10
127.417139
 20
39.999876
 30
0.0
 10
143.311165
 20
24.105850
 30
0.0
 10
119.470127
 20
0.264812
 30
0.0
 10
103.576101
 20
16.158838
 30
0.0
 10
87.682076
 20
0.264812
 30
0.0
 10
71.788050
 20
16.158838
 30
0.0
 10
55.894025
 20
0.264812
 30
0.0
 10
39.999999
 20
16.158838
 30
0.0
  0
ENDSEC
  0
SECTION
  2
OBJECTS
  0
DICTIONARY
  5
C
330
0
100
AcDbDictionary
  3
ACAD_GROUP
350
D
  3
ACAD_MLINESTYLE
350
17
  0
DICTIONARY
  5
D
330
C
100
AcDbDictionary
  0
DICTIONARY
  5
1A
330
C
100
AcDbDictionary
  0
DICTIONARY
  5
17
330
C
100
AcDbDictionary
  3
STANDARD
350
18
  0
DICTIONARY
  5
19
330
C
100
AcDbDictionary
  0
ENDSEC
  0
EOF
