<?xml version="1.0" encoding="UTF-8" standalone="no"?>
<svg
   width="406.98755pt"
   height="226.77165pt"
   viewBox="0 0 406.98755 226.77165"
   version="1.1"
   id="svg71"
   sodipodi:docname="twobycorners.svg"
   inkscape:version="1.2.1 (1:1.2.1+202210291244+9c6d41e410)"
   xmlns:inkscape="http://www.inkscape.org/namespaces/inkscape"
   xmlns:sodipodi="http://sodipodi.sourceforge.net/DTD/sodipodi-0.dtd"
   xmlns="http://www.w3.org/2000/svg"
   xmlns:svg="http://www.w3.org/2000/svg">
  <defs
     id="defs75" />
  <sodipodi:namedview
     id="namedview73"
     pagecolor="#ffffff"
     bordercolor="#000000"
     borderopacity="0.25"
     inkscape:showpageshadow="2"
     inkscape:pageopacity="0.0"
     inkscape:pagecheckerboard="0"
     inkscape:deskcolor="#d1d1d1"
     inkscape:document-units="pt"
     showgrid="false"
     inkscape:zoom="1.668772"
     inkscape:cx="355.0515"
     inkscape:cy="112.65769"
     inkscape:window-width="1920"
     inkscape:window-height="1114"
     inkscape:window-x="0"
     inkscape:window-y="28"
     inkscape:window-maximized="1"
     inkscape:current-layer="svg71" />
  <g
     id="surface1"
     transform="matrix(0.75089952,0.75089952,-0.75089952,0.75089952,301.11071,-292.09991)">
    <path
       id="path2"
       style="fill:none;stroke:#000000;stroke-width:10;stroke-linecap:butt;stroke-linejoin:miter;stroke-miterlimit:10;stroke-opacity:1"
       d="m 1100.0048,1599.9948 -0.01,-399.9953 v -99.9962 l 100.0066,-0.01 h 599.9981 v 99.9963 l 0.01,0.01 -0.01,999.9933 h -99.9962 v -999.983 H 1200.001 v 399.9849 z"
       transform="matrix(0.1,0,0,-0.1,0,600)" />
    <path
       id="path4"
       style="fill:none;stroke:#000000;stroke-width:10;stroke-linecap:butt;stroke-linejoin:miter;stroke-miterlimit:10;stroke-opacity:1"
       d="m 499.99639,2399.9956 v -99.9962 -500.0018 -99.9963 H 1599.9963 v 99.9963 H 599.99261 v 500.0018 h 400.00561 v 99.9962 H 599.99261 Z"
       transform="matrix(0.1,0,0,-0.1,0,600)" />
    <path
       id="path6"
       style="fill:none;stroke:#000000;stroke-width:10;stroke-linecap:butt;stroke-linejoin:miter;stroke-miterlimit:10;stroke-opacity:1"
       d="m 2300.0009,2799.9909 v -999.983 l -399.9952,-0.01 v -99.9963 l 399.9952,-0.01 100.0066,0.01 v 99.9963 1000.0036 z"
       transform="matrix(0.1,0,0,-0.1,0,600)" />
    <path
       style="fill:none;stroke:#000000;stroke-width:10;stroke-linecap:butt;stroke-linejoin:miter;stroke-miterlimit:10;stroke-opacity:1"
       d="m 1300,2300 v 100 h 900 v -100 h -900"
       transform="matrix(0.1,0,0,-0.1,0,600)"
       id="path10" />
    <path
       id="path12"
       style="fill:none;stroke:#000000;stroke-width:10;stroke-linecap:butt;stroke-linejoin:miter;stroke-miterlimit:10;stroke-opacity:1"
       d="M 2900.0093,3399.9993 V 2399.9956 h -400.0056 v -99.9962 h 400.0056 99.9963 v 99.9962 1000.0037 z"
       transform="matrix(0.1,0,0,-0.1,0,600)" />
    <path
       id="path14"
       style="fill:none;stroke:#000000;stroke-width:10;stroke-linecap:butt;stroke-linejoin:miter;stroke-miterlimit:10;stroke-opacity:1"
       d="m 1100.0048,3000.004 -0.01,-100.0065 0.01,-0.01 v -999.9829 h 99.9962 v 1000.0036 l 399.9953,-0.01 v 99.9962 l -399.9953,0.01 z"
       transform="matrix(0.1,0,0,-0.1,0,600)" />
    <path
       style="fill:none;stroke:#000000;stroke-width:10;stroke-linecap:butt;stroke-linejoin:miter;stroke-miterlimit:10;stroke-opacity:1"
       d="m 1900,2900 v 100 h 900 v -100 h -900"
       transform="matrix(0.1,0,0,-0.1,0,600)"
       id="path16" />
    <path
       id="path18"
       style="fill:none;stroke:#000000;stroke-width:10;stroke-linecap:butt;stroke-linejoin:miter;stroke-miterlimit:10;stroke-opacity:1"
       d="m 3100.0018,2999.9937 v -99.9962 h 400.0056 99.9962 v 99.9962 400.0056 h -99.9962 v -400.0056 z"
       transform="matrix(0.1,0,0,-0.1,0,600)" />
    <path
       id="path20"
       style="fill:none;stroke:#000000;stroke-width:10;stroke-linecap:butt;stroke-linejoin:miter;stroke-miterlimit:10;stroke-opacity:1"
       d="m 1700.0029,3600.0021 v -99.9962 -1000.0037 h 99.9962 v 1000.0037 l 399.9952,-0.01 0.01,100.0066 h -400.0056 z"
       transform="matrix(0.1,0,0,-0.1,0,600)" />
    <path
       style="fill:none;stroke:#000000;stroke-width:10;stroke-linecap:butt;stroke-linejoin:miter;stroke-miterlimit:10;stroke-opacity:1"
       d="m 2500,3500 v 100 H 3600 V 3500 H 2500"
       transform="matrix(0.1,0,0,-0.1,0,600)"
       id="path22" />
    <path
       id="path24"
       style="fill:none;stroke:#000000;stroke-width:10;stroke-linecap:butt;stroke-linejoin:miter;stroke-miterlimit:10;stroke-opacity:1"
       d="m 2300.0009,4200.0002 v -99.9963 -1000.0036 h 99.9962 v 1000.0036 h 500.0019 v -400.0056 h 99.9962 v 400.0056 99.9963 h -99.9962 -500.0019 z"
       transform="matrix(0.1,0,0,-0.1,0,600)" />
    <path
       style="fill:none;stroke:#000000;stroke-width:10;stroke-linecap:butt;stroke-linejoin:miter;stroke-miterlimit:10;stroke-opacity:1"
       d="m 1300,1300 v 300 h 300 v -300 h -300"
       transform="matrix(0.1,0,0,-0.1,0,600)"
       id="path46" />
    <path
       style="fill:none;stroke:#000000;stroke-width:10;stroke-linecap:butt;stroke-linejoin:miter;stroke-miterlimit:10;stroke-opacity:1"
       d="m 700,1900 v 300 h 300 V 1900 H 700"
       transform="matrix(0.1,0,0,-0.1,0,600)"
       id="path48" />
    <path
       style="fill:none;stroke:#000000;stroke-width:10;stroke-linecap:butt;stroke-linejoin:miter;stroke-miterlimit:10;stroke-opacity:1"
       d="m 1300,1900 v 300 h 300 v -300 h -300"
       transform="matrix(0.1,0,0,-0.1,0,600)"
       id="path50" />
    <path
       style="fill:none;stroke:#000000;stroke-width:10;stroke-linecap:butt;stroke-linejoin:miter;stroke-miterlimit:10;stroke-opacity:1"
       d="m 1900,1900 v 300 h 300 v -300 h -300"
       transform="matrix(0.1,0,0,-0.1,0,600)"
       id="path52" />
    <path
       style="fill:none;stroke:#000000;stroke-width:10;stroke-linecap:butt;stroke-linejoin:miter;stroke-miterlimit:10;stroke-opacity:1"
       d="m 1300,2500 v 300 h 300 v -300 h -300"
       transform="matrix(0.1,0,0,-0.1,0,600)"
       id="path54" />
    <path
       style="fill:none;stroke:#000000;stroke-width:10;stroke-linecap:butt;stroke-linejoin:miter;stroke-miterlimit:10;stroke-opacity:1"
       d="m 1900,2500 v 300 h 300 v -300 h -300"
       transform="matrix(0.1,0,0,-0.1,0,600)"
       id="path56" />
    <path
       style="fill:none;stroke:#000000;stroke-width:10;stroke-linecap:butt;stroke-linejoin:miter;stroke-miterlimit:10;stroke-opacity:1"
       d="m 2500,2500 v 300 h 300 v -300 h -300"
       transform="matrix(0.1,0,0,-0.1,0,600)"
       id="path58" />
    <path
       style="fill:none;stroke:#000000;stroke-width:10;stroke-linecap:butt;stroke-linejoin:miter;stroke-miterlimit:10;stroke-opacity:1"
       d="m 1900,3100 v 300 h 300 v -300 h -300"
       transform="matrix(0.1,0,0,-0.1,0,600)"
       id="path60" />
    <path
       style="fill:none;stroke:#000000;stroke-width:10;stroke-linecap:butt;stroke-linejoin:miter;stroke-miterlimit:10;stroke-opacity:1"
       d="m 2500,3100 v 300 h 300 v -300 h -300"
       transform="matrix(0.1,0,0,-0.1,0,600)"
       id="path62" />
    <path
       style="fill:none;stroke:#000000;stroke-width:10;stroke-linecap:butt;stroke-linejoin:miter;stroke-miterlimit:10;stroke-opacity:1"
       d="m 3100,3100 v 300 h 300 v -300 h -300"
       transform="matrix(0.1,0,0,-0.1,0,600)"
       id="path64" />
    <path
       style="fill:none;stroke:#000000;stroke-width:10;stroke-linecap:butt;stroke-linejoin:miter;stroke-miterlimit:10;stroke-opacity:1"
       d="m 2500,3700 v 300 h 300 v -300 h -300"
       transform="matrix(0.1,0,0,-0.1,0,600)"
       id="path66" />
    <path
       style="fill:none;stroke:#000000;stroke-width:10;stroke-linecap:butt;stroke-linejoin:miter;stroke-miterlimit:10;stroke-opacity:1"
       d="m 1900,1000 h -900 v 600 H 400 v 900 h 600 v 600 h 600 v 600 h 600 v 600 h 900 v -600 h 600 v -900 h -600 v -600 h -600 v -600 h -600 v -600"
       transform="matrix(0.1,0,0,-0.1,0,600)"
       id="path68" />
  </g>
</svg>
