<?xml version="1.0" encoding="UTF-8" standalone="no"?>
<svg
   width="612pt"
   height="792pt"
   viewBox="0 0 612 792"
   version="1.1"
   id="svg163"
   sodipodi:docname="hello.svg"
   inkscape:version="1.2.1 (1:1.2.1+202210291244+9c6d41e410)"
   xmlns:inkscape="http://www.inkscape.org/namespaces/inkscape"
   xmlns:sodipodi="http://sodipodi.sourceforge.net/DTD/sodipodi-0.dtd"
   xmlns="http://www.w3.org/2000/svg"
   xmlns:svg="http://www.w3.org/2000/svg">
  <defs
     id="defs167" />
  <sodipodi:namedview
     id="namedview165"
     pagecolor="#ffffff"
     bordercolor="#000000"
     borderopacity="0.25"
     inkscape:showpageshadow="2"
     inkscape:pageopacity="0.0"
     inkscape:pagecheckerboard="0"
     inkscape:deskcolor="#d1d1d1"
     inkscape:document-units="pt"
     showgrid="false"
     inkscape:zoom="3.5757575"
     inkscape:cx="639.58475"
     inkscape:cy="573.30509"
     inkscape:window-width="1920"
     inkscape:window-height="1114"
     inkscape:window-x="0"
     inkscape:window-y="28"
     inkscape:window-maximized="1"
     inkscape:current-layer="svg163" />
  <g
     id="surface1">
    <path
       style="fill:none;stroke:#000000;stroke-width:2.5;stroke-linecap:butt;stroke-linejoin:miter;stroke-miterlimit:10;stroke-opacity:1"
       d="m 1700,1250 v 77.3315 M 1700,1700 v 742.4176"
       transform="matrix(0.1,0,0,-0.1,0,792)"
       id="path4"
       sodipodi:nodetypes="cccc" />
    <path
       style="fill:none;stroke:#000000;stroke-width:2.5;stroke-linecap:butt;stroke-linejoin:miter;stroke-miterlimit:10;stroke-opacity:1"
       d="m 1250,1800 h 450 m 300,0 h 450"
       transform="matrix(0.1,0,0,-0.1,0,792)"
       id="path6"
       sodipodi:nodetypes="cccc" />
    <path
       style="fill:none;stroke:#000000;stroke-width:2.5;stroke-linecap:butt;stroke-linejoin:miter;stroke-miterlimit:10;stroke-opacity:1"
       d="m 1800,1250 v 16.4966 m 0,358.8374 V 2450"
       transform="matrix(0.1,0,0,-0.1,0,792)"
       id="path8"
       sodipodi:nodetypes="cccc" />
    <path
       style="fill:none;stroke:#000000;stroke-width:2.5;stroke-linecap:butt;stroke-linejoin:miter;stroke-miterlimit:10;stroke-opacity:1"
       d="m 1250,1900 h 450 m 300,0 h 450"
       transform="matrix(0.1,0,0,-0.1,0,792)"
       id="path10"
       sodipodi:nodetypes="cccc" />
    <path
       style="fill:none;stroke:#000000;stroke-width:2.5;stroke-linecap:butt;stroke-linejoin:miter;stroke-miterlimit:10;stroke-opacity:1"
       d="M 1900,1555.408 V 2450"
       transform="matrix(0.1,0,0,-0.1,0,792)"
       id="path12"
       sodipodi:nodetypes="cc" />
    <path
       style="fill:none;stroke:#000000;stroke-width:2.5;stroke-linecap:butt;stroke-linejoin:miter;stroke-miterlimit:10;stroke-opacity:1"
       d="M 2000,1501.0507 V 2000 2450"
       transform="matrix(0.1,0,0,-0.1,0,792)"
       id="path16"
       sodipodi:nodetypes="ccc" />
    <path
       style="fill:none;stroke:#000000;stroke-width:2.5;stroke-linecap:butt;stroke-linejoin:miter;stroke-miterlimit:10;stroke-opacity:1"
       d="M 1410.6342,2300 H 2300 m 300,0 h 3400"
       transform="matrix(0.1,0,0,-0.1,0,792)"
       id="path18"
       sodipodi:nodetypes="cccc" />
    <path
       style="fill:none;stroke:#000000;stroke-width:2.5;stroke-linecap:butt;stroke-linejoin:miter;stroke-miterlimit:10;stroke-opacity:1"
       d="m 2300,1250 v 450.0941 m 0,299.9059 0,300 0,300 v 3400"
       transform="matrix(0.1,0,0,-0.1,0,792)"
       id="path20"
       sodipodi:nodetypes="cccccc" />
    <path
       style="fill:none;stroke:#000000;stroke-width:2.5;stroke-linecap:butt;stroke-linejoin:miter;stroke-miterlimit:10;stroke-opacity:1"
       d="M 1401.1696,2400 H 2300 m 300,0 h 3400"
       transform="matrix(0.1,0,0,-0.1,0,792)"
       id="path22"
       sodipodi:nodetypes="cccc" />
    <path
       style="fill:none;stroke:#000000;stroke-width:2.5;stroke-linecap:butt;stroke-linejoin:miter;stroke-miterlimit:10;stroke-opacity:1"
       d="m 2400,1250 v 450.0596 M 2400,2000 v 897.2532 m 0,301.1066 V 6000"
       transform="matrix(0.1,0,0,-0.1,0,792)"
       id="path24"
       sodipodi:nodetypes="cccccc" />
    <path
       style="fill:none;stroke:#000000;stroke-width:2.5;stroke-linecap:butt;stroke-linejoin:miter;stroke-miterlimit:10;stroke-opacity:1"
       d="M 1401.1696,2500 H 2300 m 300,0 h 3400"
       transform="matrix(0.1,0,0,-0.1,0,792)"
       id="path26"
       sodipodi:nodetypes="cccc" />
    <path
       style="fill:none;stroke:#000000;stroke-width:2.5;stroke-linecap:butt;stroke-linejoin:miter;stroke-miterlimit:10;stroke-opacity:1"
       d="m 2500,1250 v 151.1696 300.4706 m 0,301.1066 v 894.5064 m 0,301.1066 V 6000"
       transform="matrix(0.1,0,0,-0.1,0,792)"
       id="path28"
       sodipodi:nodetypes="ccccccc" />
    <path
       style="fill:none;stroke:#000000;stroke-width:2.5;stroke-linecap:butt;stroke-linejoin:miter;stroke-miterlimit:10;stroke-opacity:1"
       d="M 1410.6342,2600 H 2300 m 300,0 h 3400"
       transform="matrix(0.1,0,0,-0.1,0,792)"
       id="path30"
       sodipodi:nodetypes="cccc" />
    <path
       style="fill:none;stroke:#000000;stroke-width:2.5;stroke-linecap:butt;stroke-linejoin:miter;stroke-miterlimit:10;stroke-opacity:1"
       d="m 2600,1250 v 465.0022 m 0,310.6067 V 2300 2600 l 0,274.3911 m 0,310.6067 0,2815.0022"
       transform="matrix(0.1,0,0,-0.1,0,792)"
       id="path32"
       sodipodi:nodetypes="cccccccc" />
    <path
       style="fill:none;stroke:#000000;stroke-width:2.5;stroke-linecap:butt;stroke-linejoin:miter;stroke-miterlimit:10;stroke-opacity:1"
       d="M 2450,3500 H 4850"
       transform="matrix(0.1,0,0,-0.1,0,792)"
       id="path34"
       sodipodi:nodetypes="cc" />
    <path
       style="fill:none;stroke-width:2.5;stroke-linecap:butt;stroke-linejoin:miter;stroke:rgb(0%,0%,0%);stroke-opacity:1;stroke-miterlimit:10;"
       d="M 3500 100 L 3500 6000 "
       transform="matrix(0.1,0,0,-0.1,0,792)"
       id="path36" />
    <path
       style="fill:none;stroke:#000000;stroke-width:2.5;stroke-linecap:butt;stroke-linejoin:miter;stroke-miterlimit:10;stroke-opacity:1"
       d="M 2450,3600 H 4850"
       transform="matrix(0.1,0,0,-0.1,0,792)"
       id="path38"
       sodipodi:nodetypes="cc" />
    <path
       style="fill:none;stroke-width:2.5;stroke-linecap:butt;stroke-linejoin:miter;stroke:rgb(0%,0%,0%);stroke-opacity:1;stroke-miterlimit:10;"
       d="M 3600 100 L 3600 6000 "
       transform="matrix(0.1,0,0,-0.1,0,792)"
       id="path40" />
    <path
       style="fill:none;stroke:#000000;stroke-width:2.5;stroke-linecap:butt;stroke-linejoin:miter;stroke-miterlimit:10;stroke-opacity:1"
       d="M 2450,3700 H 4850"
       transform="matrix(0.1,0,0,-0.1,0,792)"
       id="path42"
       sodipodi:nodetypes="cc" />
    <path
       style="fill:none;stroke-width:2.5;stroke-linecap:butt;stroke-linejoin:miter;stroke:rgb(0%,0%,0%);stroke-opacity:1;stroke-miterlimit:10;"
       d="M 3700 100 L 3700 6000 "
       transform="matrix(0.1,0,0,-0.1,0,792)"
       id="path44" />
    <path
       style="fill:none;stroke:#000000;stroke-width:2.5;stroke-linecap:butt;stroke-linejoin:miter;stroke-miterlimit:10;stroke-opacity:1"
       d="M 2450,3800 H 4850"
       transform="matrix(0.1,0,0,-0.1,0,792)"
       id="path46"
       sodipodi:nodetypes="cc" />
    <path
       style="fill:none;stroke-width:2.5;stroke-linecap:butt;stroke-linejoin:miter;stroke:rgb(0%,0%,0%);stroke-opacity:1;stroke-miterlimit:10;"
       d="M 3800 100 L 3800 6000 "
       transform="matrix(0.1,0,0,-0.1,0,792)"
       id="path48" />
    <path
       style="fill:none;stroke-width:2.5;stroke-linecap:butt;stroke-linejoin:miter;stroke:rgb(0%,0%,0%);stroke-opacity:1;stroke-miterlimit:10;"
       d="M 100 4100 L 6000 4100 "
       transform="matrix(0.1,0,0,-0.1,0,792)"
       id="path50" />
    <path
       style="fill:none;stroke-width:2.5;stroke-linecap:butt;stroke-linejoin:miter;stroke:rgb(0%,0%,0%);stroke-opacity:1;stroke-miterlimit:10;"
       d="M 4100 100 L 4100 6000 "
       transform="matrix(0.1,0,0,-0.1,0,792)"
       id="path52" />
    <path
       style="fill:none;stroke-width:2.5;stroke-linecap:butt;stroke-linejoin:miter;stroke:rgb(0%,0%,0%);stroke-opacity:1;stroke-miterlimit:10;"
       d="M 100 4200 L 6000 4200 "
       transform="matrix(0.1,0,0,-0.1,0,792)"
       id="path54" />
    <path
       style="fill:none;stroke-width:2.5;stroke-linecap:butt;stroke-linejoin:miter;stroke:rgb(0%,0%,0%);stroke-opacity:1;stroke-miterlimit:10;"
       d="M 4200 100 L 4200 6000 "
       transform="matrix(0.1,0,0,-0.1,0,792)"
       id="path56" />
    <path
       style="fill:none;stroke-width:2.5;stroke-linecap:butt;stroke-linejoin:miter;stroke:rgb(0%,0%,0%);stroke-opacity:1;stroke-miterlimit:10;"
       d="M 100 4300 L 6000 4300 "
       transform="matrix(0.1,0,0,-0.1,0,792)"
       id="path58" />
    <path
       style="fill:none;stroke-width:2.5;stroke-linecap:butt;stroke-linejoin:miter;stroke:rgb(0%,0%,0%);stroke-opacity:1;stroke-miterlimit:10;"
       d="M 4300 100 L 4300 6000 "
       transform="matrix(0.1,0,0,-0.1,0,792)"
       id="path60" />
    <path
       style="fill:none;stroke-width:2.5;stroke-linecap:butt;stroke-linejoin:miter;stroke:rgb(0%,0%,0%);stroke-opacity:1;stroke-miterlimit:10;"
       d="M 100 4400 L 6000 4400 "
       transform="matrix(0.1,0,0,-0.1,0,792)"
       id="path62" />
    <path
       style="fill:none;stroke-width:2.5;stroke-linecap:butt;stroke-linejoin:miter;stroke:rgb(0%,0%,0%);stroke-opacity:1;stroke-miterlimit:10;"
       d="M 4400 100 L 4400 6000 "
       transform="matrix(0.1,0,0,-0.1,0,792)"
       id="path64" />
    <path
       style="fill:none;stroke:#000000;stroke-width:2.5;stroke-linecap:butt;stroke-linejoin:miter;stroke-miterlimit:10;stroke-opacity:1"
       d="m 2450,1900 c 52.0009,0 102.3166,7.2171 150,20.7044 230.8471,65.295 400,277.5465 400,529.2956 0,251.7491 -169.1529,464.0006 -400,529.2956 -47.6834,13.4873 -97.9991,20.7044 -150,20.7044 -16.8545,0 -33.5319,-0.7582 -50,-2.2423 C 2119.6804,2972.4952 1900,2736.8955 1900,2450"
       transform="matrix(0.1,0,0,-0.1,0,792)"
       id="path66"
       sodipodi:nodetypes="csssssc" />
    <path
       style="fill:none;stroke:#000000;stroke-width:2.5;stroke-linecap:butt;stroke-linejoin:miter;stroke-miterlimit:10;stroke-opacity:1"
       d="m 2450,1800 c 358.9844,0 650,291.0156 650,650 0,307.3575 -213.3304,564.8901 -500,632.6067 -32.4607,7.6678 -65.8618,12.9019 -100,15.4988 -16.5021,1.2553 -33.1764,1.8945 -50,1.8945 -358.9844,0 -650,-291.0156 -650,-650"
       transform="matrix(0.1,0,0,-0.1,0,792)"
       id="path68"
       sodipodi:nodetypes="cssssc" />
    <path
       style="fill:none;stroke-width:2.5;stroke-linecap:butt;stroke-linejoin:miter;stroke:rgb(0%,0%,0%);stroke-opacity:1;stroke-miterlimit:10;"
       d="m 1250,1700 h 77.3315 387.8333"
       transform="matrix(0.1,0,0,-0.1,0,792)"
       id="path1575" />
    <path
       style="fill:none;stroke:#000000;stroke-width:2.5;stroke-linecap:butt;stroke-linejoin:miter;stroke-miterlimit:10;stroke-opacity:1"
       d="m 2000,1700 c 200,-0.1643 250,0.2853 450,0"
       transform="matrix(0.1,0,0,-0.1,0,792)"
       id="path1588"
       sodipodi:nodetypes="cc" />
    <path
       style="fill:none;stroke:#000000;stroke-width:2.5;stroke-linecap:butt;stroke-linejoin:miter;stroke-miterlimit:10;stroke-opacity:1"
       d="m 2450,1700 c 414.2188,0 750,335.7813 750,750 0,414.2188 -335.7812,750 -750,750 -414.2187,0 -750,-335.7812 -750,-750"
       transform="matrix(0.1,0,0,-0.1,0,792)"
       id="path70" />
    <path
       style="fill:none;stroke:#000000;stroke-width:2.5;stroke-linecap:butt;stroke-linejoin:miter;stroke-miterlimit:10;stroke-opacity:1"
       d="m 2000,2000 h 450"
       transform="matrix(0.1,0,0,-0.1,0,792)"
       id="path1570"
       sodipodi:nodetypes="cc" />
    <path
       style="fill:none;stroke:#000000;stroke-width:2.5;stroke-linecap:butt;stroke-linejoin:miter;stroke-miterlimit:10;stroke-opacity:1"
       d="m 1250,2000 h 450"
       transform="matrix(0.1,0,0,-0.1,0,792)"
       id="path1568" />
    <path
       style="fill:none;stroke:#000000;stroke-width:2.5;stroke-linecap:butt;stroke-linejoin:miter;stroke-miterlimit:10;stroke-opacity:1"
       d="m 2450,2000 c 52.5945,0 103.0825,9.0243 150,25.6089 174.7734,61.7797 300,228.47 300,424.3911 0,195.9211 -125.2266,362.6114 -300,424.3911 -46.9175,16.5846 -97.4055,25.6089 -150,25.6089 -248.5156,0 -450,-201.4844 -450,-450"
       transform="matrix(0.1,0,0,-0.1,0,792)"
       id="path72"
       sodipodi:nodetypes="cssssc" />
    <path
       style="fill:none;stroke:#000000;stroke-width:2.5;stroke-linecap:butt;stroke-linejoin:miter;stroke-miterlimit:10;stroke-opacity:1"
       d="m 2450,3600 c -584.2794,0 -1066.8023,-435.7544 -1140.3056,-1000 -4.2879,-32.9164 -7.1839,-66.2701 -8.6269,-100 -0.7093,-16.5782 -1.0675,-33.2473 -1.0675,-50 0,-16.7527 0.3582,-33.4218 1.0675,-50 6.0514,-141.4504 37.6555,-276.2834 90.3133,-400 m 186.8204,-300 c 37.5124,-43.5645 78.2343,-84.2864 121.7988,-121.7988 61.3682,-52.8428 128.3769,-99.3166 200,-138.3952 121.6905,-66.3961 256.7015,-111.4443 400,-130.1116 m 300,0 C 3164.2456,1383.1977 3600,1865.7206 3600,2450"
       transform="matrix(0.1,0,0,-0.1,0,792)"
       id="path74"
       sodipodi:nodetypes="cssssccssccc" />
    <path
       style="fill:none;stroke:#000000;stroke-width:2.5;stroke-linecap:butt;stroke-linejoin:miter;stroke-miterlimit:10;stroke-opacity:1"
       d="M 2450,3700 C 1810.1964,3700 1282.6563,3219.3068 1208.8329,2599.3733 1203.0004,2550.3952 1200,2500.548 1200,2450 c 0,-158.6366 29.5516,-310.3715 83.4501,-450 m 166.4611,-300 c 71.1288,-94.6952 155.3935,-178.96 250.0888,-250.0888 32.1652,-24.1604 65.5339,-46.8053 100,-67.8285 63.1952,-38.547 130.0797,-71.6424 200,-98.6326 94.7054,-36.5576 194.9803,-61.9144 299.2006,-74.4466 m 300.1727,-0.1706 C 3219.3068,1282.6563 3700,1810.1964 3700,2450"
       transform="matrix(0.1,0,0,-0.1,0,792)"
       id="path76"
       sodipodi:nodetypes="cssccsssccc" />
    <path
       style="fill:none;stroke:#000000;stroke-width:2.5;stroke-linecap:butt;stroke-linejoin:miter;stroke-miterlimit:10;stroke-opacity:1"
       d="m 2450,3800 c -745.5859,0 -1350,-604.4141 -1350,-1350 0,-156.8094 26.7352,-307.3743 75.896,-447.3851 M 1327.3315,1700 c 98.5869,-147.2815 225.387,-274.0816 372.6685,-372.6685 172.8123,-115.6766 373.8223,-192.5109 590.5399,-218.0128 m 301.9177,-1.8918 C 3271.0787,1178.5979 3800,1752.5294 3800,2450"
       transform="matrix(0.1,0,0,-0.1,0,792)"
       id="path78"
       sodipodi:nodetypes="csccsccc" />
    <path
       style="fill:none;stroke:#000000;stroke-width:2.5;stroke-linecap:butt;stroke-linejoin:miter;stroke-miterlimit:10;stroke-opacity:1"
       d="m 2450,3500 c -579.8828,0 -1050,-470.1172 -1050,-1050 0,-161.0379 36.2562,-313.6104 101.0507,-450 M 1700,1715.1648 c 157.5442,-160.7748 366.3691,-271.1099 600,-304.5306 m 300,0 c 508.8325,72.7882 900,510.411 900,1039.3658"
       transform="matrix(0.1,0,0,-0.1,0,792)"
       id="path80"
       sodipodi:nodetypes="csccccc" />
    <path
       style="fill:none;stroke-width:2.5;stroke-linecap:butt;stroke-linejoin:miter;stroke:rgb(0%,0%,0%);stroke-opacity:1;stroke-miterlimit:10;"
       d="M 3650 4200 C 3346.25 4200 3100 3953.75 3100 3650 C 3100 3346.25 3346.25 3100 3650 3100 C 3953.75 3100 4200 3346.25 4200 3650 "
       transform="matrix(0.1,0,0,-0.1,0,792)"
       id="path82" />
    <path
       style="fill:none;stroke-width:2.5;stroke-linecap:butt;stroke-linejoin:miter;stroke:rgb(0%,0%,0%);stroke-opacity:1;stroke-miterlimit:10;"
       d="M 3650 4300 C 3291.015625 4300 3000 4008.984375 3000 3650 C 3000 3291.015625 3291.015625 3000 3650 3000 C 4008.984375 3000 4300 3291.015625 4300 3650 "
       transform="matrix(0.1,0,0,-0.1,0,792)"
       id="path84" />
    <path
       style="fill:none;stroke-width:2.5;stroke-linecap:butt;stroke-linejoin:miter;stroke:rgb(0%,0%,0%);stroke-opacity:1;stroke-miterlimit:10;"
       d="M 3650 4400 C 3235.78125 4400 2900 4064.21875 2900 3650 C 2900 3235.78125 3235.78125 2900 3650 2900 C 4064.21875 2900 4400 3235.78125 4400 3650 "
       transform="matrix(0.1,0,0,-0.1,0,792)"
       id="path86" />
    <path
       style="fill:none;stroke-width:2.5;stroke-linecap:butt;stroke-linejoin:miter;stroke:rgb(0%,0%,0%);stroke-opacity:1;stroke-miterlimit:10;"
       d="M 3650 4100 C 3401.484375 4100 3200 3898.515625 3200 3650 C 3200 3401.484375 3401.484375 3200 3650 3200 C 3898.515625 3200 4100 3401.484375 4100 3650 "
       transform="matrix(0.1,0,0,-0.1,0,792)"
       id="path88" />
    <path
       style="fill:none;stroke-width:2.5;stroke-linecap:butt;stroke-linejoin:miter;stroke:rgb(0%,0%,0%);stroke-opacity:1;stroke-miterlimit:10;"
       d="M 3650 2500 C 4285.117188 2500 4800 3014.882812 4800 3650 C 4800 4285.117188 4285.117188 4800 3650 4800 C 3014.882812 4800 2500 4285.117188 2500 3650 "
       transform="matrix(0.1,0,0,-0.1,0,792)"
       id="path90" />
    <path
       style="fill:none;stroke:#000000;stroke-width:2.5;stroke-linecap:butt;stroke-linejoin:miter;stroke-miterlimit:10;stroke-opacity:1"
       d="m 3650,2400 c 690.3516,0 1250,559.6484 1250,1250 0,690.3516 -559.6484,1250 -1250,1250 -690.3516,0 -1250,-559.6484 -1250,-1250"
       transform="matrix(0.1,0,0,-0.1,0,792)"
       id="path92"
       sodipodi:nodetypes="cssc" />
    <path
       style="fill:none;stroke-width:2.5;stroke-linecap:butt;stroke-linejoin:miter;stroke:rgb(0%,0%,0%);stroke-opacity:1;stroke-miterlimit:10;"
       d="M 3650 2300 C 4395.585938 2300 5000 2904.414062 5000 3650 C 5000 4395.585938 4395.585938 5000 3650 5000 C 2904.414062 5000 2300 4395.585938 2300 3650 "
       transform="matrix(0.1,0,0,-0.1,0,792)"
       id="path94" />
    <path
       style="fill:none;stroke-width:2.5;stroke-linecap:butt;stroke-linejoin:miter;stroke:rgb(0%,0%,0%);stroke-opacity:1;stroke-miterlimit:10;"
       d="M 3650 2600 C 4229.882812 2600 4700 3070.117188 4700 3650 C 4700 4229.882812 4229.882812 4700 3650 4700 C 3070.117188 4700 2600 4229.882812 2600 3650 "
       transform="matrix(0.1,0,0,-0.1,0,792)"
       id="path96" />
    <path
       style="fill:none;stroke-width:2.5;stroke-linecap:butt;stroke-linejoin:miter;stroke:rgb(0%,0%,0%);stroke-opacity:1;stroke-miterlimit:10;"
       d="M 4175.078125 5654.335938 C 3937.304688 5454.84375 3800 5160.351562 3800 4850 "
       transform="matrix(0.1,0,0,-0.1,0,792)"
       id="path98" />
    <path
       style="fill:none;stroke-width:2.5;stroke-linecap:butt;stroke-linejoin:miter;stroke:rgb(0%,0%,0%);stroke-opacity:1;stroke-miterlimit:10;"
       d="M 4110.78125 5730.9375 C 3850.390625 5512.460938 3700 5189.921875 3700 4850 "
       transform="matrix(0.1,0,0,-0.1,0,792)"
       id="path100" />
    <path
       style="fill:none;stroke-width:2.5;stroke-linecap:butt;stroke-linejoin:miter;stroke:rgb(0%,0%,0%);stroke-opacity:1;stroke-miterlimit:10;"
       d="M 4046.523438 5807.539062 C 3763.476562 5570.039062 3600 5219.492188 3600 4850 "
       transform="matrix(0.1,0,0,-0.1,0,792)"
       id="path102" />
    <path
       style="fill:none;stroke-width:2.5;stroke-linecap:butt;stroke-linejoin:miter;stroke:rgb(0%,0%,0%);stroke-opacity:1;stroke-miterlimit:10;"
       d="M 3982.226562 5884.140625 C 3676.5625 5627.65625 3500 5249.0625 3500 4850 "
       transform="matrix(0.1,0,0,-0.1,0,792)"
       id="path104" />
    <path
       style="fill:none;stroke-width:2.5;stroke-linecap:butt;stroke-linejoin:miter;stroke:rgb(0%,0%,0%);stroke-opacity:1;stroke-miterlimit:10;"
       d="M 4850 3800 C 5160.351562 3800 5454.84375 3937.304688 5654.335938 4175.078125 "
       transform="matrix(0.1,0,0,-0.1,0,792)"
       id="path106" />
    <path
       style="fill:none;stroke-width:2.5;stroke-linecap:butt;stroke-linejoin:miter;stroke:rgb(0%,0%,0%);stroke-opacity:1;stroke-miterlimit:10;"
       d="M 4850 3700 C 5189.921875 3700 5512.460938 3850.390625 5730.9375 4110.78125 "
       transform="matrix(0.1,0,0,-0.1,0,792)"
       id="path108" />
    <path
       style="fill:none;stroke-width:2.5;stroke-linecap:butt;stroke-linejoin:miter;stroke:rgb(0%,0%,0%);stroke-opacity:1;stroke-miterlimit:10;"
       d="M 4850 3600 C 5219.492188 3600 5570.039062 3763.476562 5807.539062 4046.523438 "
       transform="matrix(0.1,0,0,-0.1,0,792)"
       id="path110" />
    <path
       style="fill:none;stroke-width:2.5;stroke-linecap:butt;stroke-linejoin:miter;stroke:rgb(0%,0%,0%);stroke-opacity:1;stroke-miterlimit:10;"
       d="M 4850 3500 C 5249.0625 3500 5627.65625 3676.5625 5884.140625 3982.226562 "
       transform="matrix(0.1,0,0,-0.1,0,792)"
       id="path112" />
    <path
       style="fill:none;stroke-width:2.5;stroke-linecap:butt;stroke-linejoin:miter;stroke:rgb(0%,0%,0%);stroke-opacity:1;stroke-miterlimit:10;"
       d="M 4100 4850 C 4100 5160.351562 3962.695312 5454.84375 3724.921875 5654.335938 "
       transform="matrix(0.1,0,0,-0.1,0,792)"
       id="path114" />
    <path
       style="fill:none;stroke-width:2.5;stroke-linecap:butt;stroke-linejoin:miter;stroke:rgb(0%,0%,0%);stroke-opacity:1;stroke-miterlimit:10;"
       d="M 4200 4850 C 4200 5189.921875 4049.609375 5512.460938 3789.21875 5730.9375 "
       transform="matrix(0.1,0,0,-0.1,0,792)"
       id="path116" />
    <path
       style="fill:none;stroke-width:2.5;stroke-linecap:butt;stroke-linejoin:miter;stroke:rgb(0%,0%,0%);stroke-opacity:1;stroke-miterlimit:10;"
       d="M 4300 4850 C 4300 5219.492188 4136.523438 5570.039062 3853.476562 5807.539062 "
       transform="matrix(0.1,0,0,-0.1,0,792)"
       id="path118" />
    <path
       style="fill:none;stroke-width:2.5;stroke-linecap:butt;stroke-linejoin:miter;stroke:rgb(0%,0%,0%);stroke-opacity:1;stroke-miterlimit:10;"
       d="M 4400 4850 C 4400 5249.0625 4223.4375 5627.65625 3917.773438 5884.140625 "
       transform="matrix(0.1,0,0,-0.1,0,792)"
       id="path120" />
    <path
       style="fill:none;stroke-width:2.5;stroke-linecap:butt;stroke-linejoin:miter;stroke:rgb(0%,0%,0%);stroke-opacity:1;stroke-miterlimit:10;"
       d="M 5654.335938 3724.921875 C 5454.84375 3962.695312 5160.351562 4100 4850 4100 "
       transform="matrix(0.1,0,0,-0.1,0,792)"
       id="path122" />
    <path
       style="fill:none;stroke-width:2.5;stroke-linecap:butt;stroke-linejoin:miter;stroke:rgb(0%,0%,0%);stroke-opacity:1;stroke-miterlimit:10;"
       d="M 5730.9375 3789.21875 C 5512.460938 4049.609375 5189.921875 4200 4850 4200 "
       transform="matrix(0.1,0,0,-0.1,0,792)"
       id="path124" />
    <path
       style="fill:none;stroke-width:2.5;stroke-linecap:butt;stroke-linejoin:miter;stroke:rgb(0%,0%,0%);stroke-opacity:1;stroke-miterlimit:10;"
       d="M 5807.539062 3853.476562 C 5570.039062 4136.523438 5219.492188 4300 4850 4300 "
       transform="matrix(0.1,0,0,-0.1,0,792)"
       id="path126" />
    <path
       style="fill:none;stroke-width:2.5;stroke-linecap:butt;stroke-linejoin:miter;stroke:rgb(0%,0%,0%);stroke-opacity:1;stroke-miterlimit:10;"
       d="M 5884.140625 3917.773438 C 5627.65625 4223.4375 5249.0625 4400 4850 4400 "
       transform="matrix(0.1,0,0,-0.1,0,792)"
       id="path128" />
    <path
       style="fill:none;stroke:#000000;stroke-width:2.5;stroke-linecap:butt;stroke-linejoin:miter;stroke-miterlimit:10;stroke-opacity:1"
       d="M 1109.3187,2290.5399 C 967.0964,2271.3166 831.00171,2223.2085 709.16483,2150"
       transform="matrix(0.1,0,0,-0.1,0,792)"
       id="path130"
       sodipodi:nodetypes="cc" />
    <path
       style="fill:none;stroke:#000000;stroke-width:2.5;stroke-linecap:butt;stroke-linejoin:miter;stroke-miterlimit:10;stroke-opacity:1"
       d="M 1101.2941,2390.3525 C 893.44686,2363.2573 697.34777,2279.8638 534.08829,2150"
       transform="matrix(0.1,0,0,-0.1,0,792)"
       id="path132"
       sodipodi:nodetypes="cc" />
    <path
       style="fill:none;stroke:#000000;stroke-width:2.5;stroke-linecap:butt;stroke-linejoin:miter;stroke-miterlimit:10;stroke-opacity:1"
       d="M 1100.6122,2491.0487 C 830.74689,2458.5764 578.46043,2338.8603 382.5449,2150"
       transform="matrix(0.1,0,0,-0.1,0,792)"
       id="path134"
       sodipodi:nodetypes="cc" />
    <path
       style="fill:none;stroke:#000000;stroke-width:2.5;stroke-linecap:butt;stroke-linejoin:miter;stroke-miterlimit:10;stroke-opacity:1"
       d="M 1107.4269,2592.4576 C 809.0128,2560.7816 529.46126,2430.4311 313.37715,2222.2342 289.37402,2199.1072 266.15403,2175.0196 243.77833,2150"
       transform="matrix(0.1,0,0,-0.1,0,792)"
       id="path136"
       sodipodi:nodetypes="csc" />
    <path
       style="fill:none;stroke:#000000;stroke-width:2.5;stroke-linecap:butt;stroke-linejoin:miter;stroke-miterlimit:10;stroke-opacity:1"
       d="m 2150,709.1649 c 73.2085,121.83687 121.3165,257.93153 140.5399,400.1538 4.4514,32.9334 7.354,66.1953 8.6607,99.6848 0.5319,13.6301 0.7994,27.2978 0.7994,40.9965"
       transform="matrix(0.1,0,0,-0.1,0,792)"
       id="path138"
       sodipodi:nodetypes="cssc" />
    <path
       style="fill:none;stroke:#000000;stroke-width:2.5;stroke-linecap:butt;stroke-linejoin:miter;stroke-miterlimit:10;stroke-opacity:1"
       d="m 2150,534.08827 c 129.8638,163.25948 213.2573,359.35858 240.3525,567.20583 4.2988,32.9754 7.1804,66.2465 8.6058,99.7291 0.6929,16.2788 1.0417,32.6076 1.0417,48.9768 v 0"
       transform="matrix(0.1,0,0,-0.1,0,792)"
       id="path140"
       sodipodi:nodetypes="csssc" />
    <path
       style="fill:none;stroke:#000000;stroke-width:2.5;stroke-linecap:butt;stroke-linejoin:miter;stroke-miterlimit:10;stroke-opacity:1"
       d="m 2150,382.54491 c 212.0961,220.01938 336.9876,511.13382 349.0386,818.39939 0.6397,16.3091 0.9614,32.6638 0.9614,49.0557"
       transform="matrix(0.1,0,0,-0.1,0,792)"
       id="path142"
       sodipodi:nodetypes="csc" />
    <path
       style="fill:none;stroke:#000000;stroke-width:2.5;stroke-linecap:butt;stroke-linejoin:miter;stroke-miterlimit:10;stroke-opacity:1"
       d="M 2150,243.77834 C 2435.8136,499.38925 2600,865.17762 2600,1250"
       transform="matrix(0.1,0,0,-0.1,0,792)"
       id="path144"
       sodipodi:nodetypes="cc" />
    <path
       style="fill:none;stroke:#000000;stroke-width:2.5;stroke-linecap:butt;stroke-linejoin:miter;stroke-miterlimit:10;stroke-opacity:1"
       d="M 2002.6149,1175.896 C 2014.3664,1009.6492 2065.4387,849.89566 2150,709.1649"
       transform="matrix(0.1,0,0,-0.1,0,792)"
       id="path146"
       sodipodi:nodetypes="cc" />
    <path
       style="fill:none;stroke:#000000;stroke-width:2.5;stroke-linecap:butt;stroke-linejoin:miter;stroke-miterlimit:10;stroke-opacity:1"
       d="M 1900.49,1216.4019 C 1907.789,966.28615 1996.3816,727.21101 2150,534.08827"
       transform="matrix(0.1,0,0,-0.1,0,792)"
       id="path148"
       sodipodi:nodetypes="cc" />
    <path
       style="fill:none;stroke:#000000;stroke-width:2.5;stroke-linecap:butt;stroke-linejoin:miter;stroke-miterlimit:10;stroke-opacity:1"
       d="m 1800,1250 c 0,-325.21724 126.6462,-635.75744 350,-867.45509"
       transform="matrix(0.1,0,0,-0.1,0,792)"
       id="path150"
       sodipodi:nodetypes="cc" />
    <path
       style="fill:none;stroke:#000000;stroke-width:2.5;stroke-linecap:butt;stroke-linejoin:miter;stroke-miterlimit:10;stroke-opacity:1"
       d="m 1700,1250 c 0,-351.13574 136.6994,-686.42403 377.7658,-936.62284 23.127,-24.00313 47.2146,-47.22311 72.2342,-69.59881"
       transform="matrix(0.1,0,0,-0.1,0,792)"
       id="path152"
       sodipodi:nodetypes="csc" />
    <path
       style="fill:none;stroke:#000000;stroke-width:2.5;stroke-linecap:butt;stroke-linejoin:miter;stroke-miterlimit:10;stroke-opacity:1"
       d="M 709.16486,2150 C 849.89563,2065.4387 1009.6492,2014.3664 1175.896,2002.6149 1200.469,2000.8779 1225.1838,2000 1250,2000"
       transform="matrix(0.1,0,0,-0.1,0,792)"
       id="path154"
       sodipodi:nodetypes="csc" />
    <path
       style="fill:none;stroke:#000000;stroke-width:2.5;stroke-linecap:butt;stroke-linejoin:miter;stroke-miterlimit:10;stroke-opacity:1"
       d="M 534.0883,2150 C 735.84221,1989.5161 987.74777,1900 1250,1900"
       transform="matrix(0.1,0,0,-0.1,0,792)"
       id="path156"
       sodipodi:nodetypes="cc" />
    <path
       style="fill:none;stroke:#000000;stroke-width:2.5;stroke-linecap:butt;stroke-linejoin:miter;stroke-miterlimit:10;stroke-opacity:1"
       d="M 382.5449,2150 C 614.24256,1926.6462 924.78276,1800 1250,1800"
       transform="matrix(0.1,0,0,-0.1,0,792)"
       id="path158"
       sodipodi:nodetypes="cc" />
    <path
       style="fill:none;stroke:#000000;stroke-width:2.5;stroke-linecap:butt;stroke-linejoin:miter;stroke-miterlimit:10;stroke-opacity:1"
       d="m 243.77833,2150 c 22.37572,-25.0196 45.59569,-49.1072 69.59882,-72.2342 24.07394,-23.1952 48.93569,-45.4242 74.52351,-66.6581 C 628.2451,1811.6588 932.6503,1700 1250,1700"
       transform="matrix(0.1,0,0,-0.1,0,792)"
       id="path160"
       sodipodi:nodetypes="cssc" />
  </g>
</svg>
