  0
SECTION
  2
HEADER
  9
$ACADVER
  1
AC1014
  9
$HANDSEED
  5
FFFF
  9
$MEASUREMENT
 70
     1
  0
ENDSEC
  0
SECTION
  2
TABLES
  0
TABLE
  2
VPORT
  5
8
330
0
100
AcDbSymbolTable
 70
     4
  0
VPORT
  5
2E
330
8
100
AcDbSymbolTableRecord
100
AcDbViewportTableRecord
  2
*ACTIVE
 70
     0
 10
0.0
 20
0.0
 11
1.0
 21
1.0
 12
210.0
 22
148.5
 13
0.0
 23
0.0
 14
10.0
 24
10.0
 15
10.0
 25
10.0
 16
0.0
 26
0.0
 36
1.0
 17
0.0
 27
0.0
 37
0.0
 40
341.0
 41
1.24
 42
50.0
 43
0.0
 44
0.0
 50
0.0
 51
0.0
 71
     0
 72
   100
 73
     1
 74
     3
 75
     0
 76
     0
 77
     0
 78
     0
  0
ENDTAB
  0
TABLE
  2
LTYPE
  5
5
330
0
100
AcDbSymbolTable
 70
     1
  0
LTYPE
  5
14
330
5
100
AcDbSymbolTableRecord
100
AcDbLinetypeTableRecord
  2
BYBLOCK
 70
     0
  3

 72
    65
 73
     0
 40
0.0
  0
LTYPE
  5
15
330
5
100
AcDbSymbolTableRecord
100
AcDbLinetypeTableRecord
  2
BYLAYER
 70
     0
  3

 72
    65
 73
     0
 40
0.0
  0
LTYPE
  5
16
330
5
100
AcDbSymbolTableRecord
100
AcDbLinetypeTableRecord
  2
CONTINUOUS
 70
     0
  3
Solid line
 72
    65
 73
     0
 40
0.0
  0
ENDTAB
  0
TABLE
  2
LAYER
  5
2
100
AcDbSymbolTable
 70
1
  0
LAYER
  5
50
100
AcDbSymbolTableRecord
100
AcDbLayerTableRecord
  2
0
 70
0
  6
CONTINUOUS
  0
ENDTAB
  0
TABLE
  2
STYLE
  5
3
330
0
100
AcDbSymbolTable
 70
     1
  0
STYLE
  5
11
330
3
100
AcDbSymbolTableRecord
100
AcDbTextStyleTableRecord
  2
STANDARD
 70
     0
 40
0.0
 41
1.0
 50
0.0
 71
     0
 42
2.5
  3
txt
  4

  0
ENDTAB
  0
TABLE
  2
VIEW
  5
6
330
0
100
AcDbSymbolTable
 70
     0
  0
ENDTAB
  0
TABLE
  2
UCS
  5
7
330
0
100
AcDbSymbolTable
 70
     0
  0
ENDTAB
  0
TABLE
  2
APPID
  5
9
330
0
100
AcDbSymbolTable
 70
     2
  0
APPID
  5
12
330
9
100
AcDbSymbolTableRecord
100
AcDbRegAppTableRecord
  2
ACAD
 70
     0
  0
ENDTAB
  0
TABLE
  2
DIMSTYLE
  5
A
330
0
100
AcDbSymbolTable
 70
     1
  0
DIMSTYLE
105
27
330
A
100
AcDbSymbolTableRecord
100
AcDbDimStyleTableRecord
  2
ISO-25
 70
     0
  3

  4

  5

  6

  7

 40
1.0
 41
2.5
 42
0.625
 43
3.75
 44
1.25
 45
0.0
 46
0.0
 47
0.0
 48
0.0
140
2.5
141
2.5
142
0.0
143
0.03937007874016
144
1.0
145
0.0
146
1.0
147
0.625
 71
     0
 72
     0
 73
     0
 74
     0
 75
     0
 76
     0
 77
     1
 78
     8
170
     0
171
     3
172
     1
173
     0
174
     0
175
     0
176
     0
177
     0
178
     0
270
     2
271
     2
272
     2
273
     2
274
     3
340
11
275
     0
280
     0
281
     0
282
     0
283
     0
284
     8
285
     0
286
     0
287
     3
288
     0
  0
ENDTAB
  0
TABLE
  2
BLOCK_RECORD
  5
1
330
0
100
AcDbSymbolTable
 70
     1
  0
BLOCK_RECORD
  5
1F
330
1
100
AcDbSymbolTableRecord
100
AcDbBlockTableRecord
  2
*MODEL_SPACE
  0
BLOCK_RECORD
  5
1B
330
1
100
AcDbSymbolTableRecord
100
AcDbBlockTableRecord
  2
*PAPER_SPACE
  0
ENDTAB
  0
ENDSEC
  0
SECTION
  2
BLOCKS
  0
BLOCK
  5
20
330
1F
100
AcDbEntity
  8
0
100
AcDbBlockBegin
  2
*MODEL_SPACE
 70
     0
 10
0.0
 20
0.0
 30
0.0
  3
*MODEL_SPACE
  1

  0
ENDBLK
  5
21
330
1F
100
AcDbEntity
  8
0
100
AcDbBlockEnd
  0
BLOCK
  5
1C
330
1B
100
AcDbEntity
 67
     1
  8
0
100
AcDbBlockBegin
  2
*PAPER_SPACE
  1

  0
ENDBLK
  5
1D
330
1B
100
AcDbEntity
 67
     1
  8
0
100
AcDbBlockEnd
  0
ENDSEC
  0
SECTION
  2
ENTITIES
  0
SPLINE
  5
100
100
AcDbEntity
  8
0
 62
7
100
AcDbSpline
 70
8
 71
3
 72
8
 73
4
 74
0
 40
0
 40
0
 40
0
 40
0
 40
1
 40
1
 40
1
 40
1
 10
33.670195
 20
9.747002
 30
0.0
 10
34.123309
 20
9.293888
 30
0.0
 10
34.378186
 20
8.679036
 30
0.0
 10
34.378186
 20
8.038383
 30
0.0
  0
SPLINE
  5
101
100
AcDbEntity
  8
0
 62
7
100
AcDbSpline
 70
8
 71
3
 72
8
 73
4
 74
0
 40
0
 40
0
 40
0
 40
0
 40
1
 40
1
 40
1
 40
1
 10
34.378186
 20
8.038383
 30
0.0
 10
34.378186
 20
6.703583
 30
0.0
 10
33.296376
 20
5.621772
 30
0.0
 10
31.961575
 20
5.621772
 30
0.0
  0
SPLINE
  5
102
100
AcDbEntity
  8
0
 62
7
100
AcDbSpline
 70
8
 71
3
 72
8
 73
4
 74
0
 40
0
 40
0
 40
0
 40
0
 40
1
 40
1
 40
1
 40
1
 10
31.961575
 20
5.621772
 30
0.0
 10
31.320922
 20
5.621772
 30
0.0
 10
30.706072
 20
5.876649
 30
0.0
 10
30.252958
 20
6.329764
 30
0.0
  0
LWPOLYLINE
  5
103
100
AcDbEntity
  8
0
 62
7
100
AcDbPolyline
 90
2
 70
0
 10
30.252958
 20
6.329764
 30
0.0
 10
33.670195
 20
9.747002
 30
0.0
  0
SPLINE
  5
104
100
AcDbEntity
  8
0
 62
7
100
AcDbSpline
 70
8
 71
3
 72
8
 73
4
 74
0
 40
0
 40
0
 40
0
 40
0
 40
1
 40
1
 40
1
 40
1
 10
23.417850
 20
6.329764
 30
0.0
 10
22.511621
 20
5.423535
 30
0.0
 10
21.281919
 20
4.913781
 30
0.0
 10
19.999983
 20
4.913781
 30
0.0
  0
SPLINE
  5
105
100
AcDbEntity
  8
0
 62
7
100
AcDbSpline
 70
8
 71
3
 72
8
 73
4
 74
0
 40
0
 40
0
 40
0
 40
0
 40
1
 40
1
 40
1
 40
1
 10
19.999983
 20
4.913781
 30
0.0
 10
18.718047
 20
4.913781
 30
0.0
 10
17.488973
 20
5.423535
 30
0.0
 10
16.582116
 20
6.329764
 30
0.0
  0
SPLINE
  5
106
100
AcDbEntity
  8
0
 62
7
100
AcDbSpline
 70
8
 71
3
 72
8
 73
4
 74
0
 40
0
 40
0
 40
0
 40
0
 40
1
 40
1
 40
1
 40
1
 10
33.670195
 20
16.582109
 30
0.0
 10
32.763966
 20
17.488966
 30
0.0
 10
32.254842
 20
18.718040
 30
0.0
 10
32.254842
 20
19.999976
 30
0.0
  0
SPLINE
  5
107
100
AcDbEntity
  8
0
 62
7
100
AcDbSpline
 70
8
 71
3
 72
8
 73
4
 74
0
 40
0
 40
0
 40
0
 40
0
 40
1
 40
1
 40
1
 40
1
 10
32.254842
 20
19.999976
 30
0.0
 10
32.254842
 20
21.281912
 30
0.0
 10
32.763966
 20
22.511614
 30
0.0
 10
33.670195
 20
23.417843
 30
0.0
  0
SPLINE
  5
108
100
AcDbEntity
  8
0
 62
7
100
AcDbSpline
 70
8
 71
3
 72
8
 73
4
 74
0
 40
0
 40
0
 40
0
 40
0
 40
1
 40
1
 40
1
 40
1
 10
33.670195
 20
23.417843
 30
0.0
 10
34.577054
 20
22.511614
 30
0.0
 10
35.086179
 20
21.281912
 30
0.0
 10
35.086179
 20
19.999976
 30
0.0
  0
SPLINE
  5
109
100
AcDbEntity
  8
0
 62
7
100
AcDbSpline
 70
8
 71
3
 72
8
 73
4
 74
0
 40
0
 40
0
 40
0
 40
0
 40
1
 40
1
 40
1
 40
1
 10
35.086179
 20
19.999976
 30
0.0
 10
35.086179
 20
18.718040
 30
0.0
 10
34.577054
 20
17.488966
 30
0.0
 10
33.670195
 20
16.582109
 30
0.0
  0
LWPOLYLINE
  5
10a
100
AcDbEntity
  8
0
 62
7
100
AcDbPolyline
 90
3
 70
0
 10
16.582116
 20
6.329764
 30
0.0
 10
19.999983
 20
9.747002
 30
0.0
 10
23.417850
 20
6.329764
 30
0.0
  0
SPLINE
  5
10b
100
AcDbEntity
  8
0
 62
7
100
AcDbSpline
 70
8
 71
3
 72
8
 73
4
 74
0
 40
0
 40
0
 40
0
 40
0
 40
1
 40
1
 40
1
 40
1
 10
6.329771
 20
9.747002
 30
0.0
 10
5.876656
 20
9.293888
 30
0.0
 10
5.621779
 20
8.679036
 30
0.0
 10
5.621779
 20
8.038383
 30
0.0
  0
SPLINE
  5
10c
100
AcDbEntity
  8
0
 62
7
100
AcDbSpline
 70
8
 71
3
 72
8
 73
4
 74
0
 40
0
 40
0
 40
0
 40
0
 40
1
 40
1
 40
1
 40
1
 10
5.621779
 20
8.038383
 30
0.0
 10
5.621779
 20
6.703583
 30
0.0
 10
6.703590
 20
5.621772
 30
0.0
 10
8.038390
 20
5.621772
 30
0.0
  0
SPLINE
  5
10d
100
AcDbEntity
  8
0
 62
7
100
AcDbSpline
 70
8
 71
3
 72
8
 73
4
 74
0
 40
0
 40
0
 40
0
 40
0
 40
1
 40
1
 40
1
 40
1
 10
8.038390
 20
5.621772
 30
0.0
 10
8.679043
 20
5.621772
 30
0.0
 10
9.293895
 20
5.876649
 30
0.0
 10
9.747009
 20
6.329764
 30
0.0
  0
SPLINE
  5
10e
100
AcDbEntity
  8
0
 62
7
100
AcDbSpline
 70
8
 71
3
 72
8
 73
4
 74
0
 40
0
 40
0
 40
0
 40
0
 40
1
 40
1
 40
1
 40
1
 10
19.999983
 20
16.582109
 30
0.0
 10
19.093754
 20
17.488966
 30
0.0
 10
18.584629
 20
18.718040
 30
0.0
 10
18.584629
 20
19.999976
 30
0.0
  0
SPLINE
  5
10f
100
AcDbEntity
  8
0
 62
7
100
AcDbSpline
 70
8
 71
3
 72
8
 73
4
 74
0
 40
0
 40
0
 40
0
 40
0
 40
1
 40
1
 40
1
 40
1
 10
18.584629
 20
19.999976
 30
0.0
 10
18.584629
 20
21.281912
 30
0.0
 10
19.093754
 20
22.511614
 30
0.0
 10
19.999983
 20
23.417843
 30
0.0
  0
SPLINE
  5
110
100
AcDbEntity
  8
0
 62
7
100
AcDbSpline
 70
8
 71
3
 72
8
 73
4
 74
0
 40
0
 40
0
 40
0
 40
0
 40
1
 40
1
 40
1
 40
1
 10
19.999983
 20
23.417843
 30
0.0
 10
20.906212
 20
22.511614
 30
0.0
 10
21.415337
 20
21.281912
 30
0.0
 10
21.415337
 20
19.999976
 30
0.0
  0
SPLINE
  5
111
100
AcDbEntity
  8
0
 62
7
100
AcDbSpline
 70
8
 71
3
 72
8
 73
4
 74
0
 40
0
 40
0
 40
0
 40
0
 40
1
 40
1
 40
1
 40
1
 10
21.415337
 20
19.999976
 30
0.0
 10
21.415337
 20
18.718040
 30
0.0
 10
20.906212
 20
17.488966
 30
0.0
 10
19.999983
 20
16.582109
 30
0.0
  0
LWPOLYLINE
  5
112
100
AcDbEntity
  8
0
 62
7
100
AcDbPolyline
 90
2
 70
0
 10
9.747009
 20
6.329764
 30
0.0
 10
6.329771
 20
9.747002
 30
0.0
  0
SPLINE
  5
113
100
AcDbEntity
  8
0
 62
7
100
AcDbSpline
 70
8
 71
3
 72
8
 73
4
 74
0
 40
0
 40
0
 40
0
 40
0
 40
1
 40
1
 40
1
 40
1
 10
33.670195
 20
30.252951
 30
0.0
 10
34.123309
 20
30.706065
 30
0.0
 10
34.378186
 20
31.320915
 30
0.0
 10
34.378186
 20
31.961568
 30
0.0
  0
SPLINE
  5
114
100
AcDbEntity
  8
0
 62
7
100
AcDbSpline
 70
8
 71
3
 72
8
 73
4
 74
0
 40
0
 40
0
 40
0
 40
0
 40
1
 40
1
 40
1
 40
1
 10
34.378186
 20
31.961568
 30
0.0
 10
34.378186
 20
33.296369
 30
0.0
 10
33.296376
 20
34.378179
 30
0.0
 10
31.961575
 20
34.378179
 30
0.0
  0
SPLINE
  5
115
100
AcDbEntity
  8
0
 62
7
100
AcDbSpline
 70
8
 71
3
 72
8
 73
4
 74
0
 40
0
 40
0
 40
0
 40
0
 40
1
 40
1
 40
1
 40
1
 10
31.961575
 20
34.378179
 30
0.0
 10
31.320922
 20
34.378179
 30
0.0
 10
30.706072
 20
34.123302
 30
0.0
 10
30.252958
 20
33.670188
 30
0.0
  0
SPLINE
  5
116
100
AcDbEntity
  8
0
 62
7
100
AcDbSpline
 70
8
 71
3
 72
8
 73
4
 74
0
 40
0
 40
0
 40
0
 40
0
 40
1
 40
1
 40
1
 40
1
 10
6.329771
 20
16.582109
 30
0.0
 10
5.423542
 20
17.488966
 30
0.0
 10
4.913788
 20
18.718040
 30
0.0
 10
4.913788
 20
19.999976
 30
0.0
  0
SPLINE
  5
117
100
AcDbEntity
  8
0
 62
7
100
AcDbSpline
 70
8
 71
3
 72
8
 73
4
 74
0
 40
0
 40
0
 40
0
 40
0
 40
1
 40
1
 40
1
 40
1
 10
4.913788
 20
19.999976
 30
0.0
 10
4.913788
 20
21.281912
 30
0.0
 10
5.423542
 20
22.511614
 30
0.0
 10
6.329771
 20
23.417843
 30
0.0
  0
SPLINE
  5
118
100
AcDbEntity
  8
0
 62
7
100
AcDbSpline
 70
8
 71
3
 72
8
 73
4
 74
0
 40
0
 40
0
 40
0
 40
0
 40
1
 40
1
 40
1
 40
1
 10
6.329771
 20
23.417843
 30
0.0
 10
7.236000
 20
22.511614
 30
0.0
 10
7.745124
 20
21.281912
 30
0.0
 10
7.745124
 20
19.999976
 30
0.0
  0
SPLINE
  5
119
100
AcDbEntity
  8
0
 62
7
100
AcDbSpline
 70
8
 71
3
 72
8
 73
4
 74
0
 40
0
 40
0
 40
0
 40
0
 40
1
 40
1
 40
1
 40
1
 10
7.745124
 20
19.999976
 30
0.0
 10
7.745124
 20
18.718040
 30
0.0
 10
7.236000
 20
17.488966
 30
0.0
 10
6.329771
 20
16.582109
 30
0.0
  0
LWPOLYLINE
  5
11a
100
AcDbEntity
  8
0
 62
7
100
AcDbPolyline
 90
2
 70
1
 10
33.670195
 20
30.252951
 30
0.0
 10
30.252958
 20
33.670188
 30
0.0
  0
SPLINE
  5
11b
100
AcDbEntity
  8
0
 62
7
100
AcDbSpline
 70
8
 71
3
 72
8
 73
4
 74
0
 40
0
 40
0
 40
0
 40
0
 40
1
 40
1
 40
1
 40
1
 10
16.582116
 20
33.670188
 30
0.0
 10
17.488973
 20
34.577047
 30
0.0
 10
18.718047
 20
35.086172
 30
0.0
 10
19.999983
 20
35.086172
 30
0.0
  0
SPLINE
  5
11c
100
AcDbEntity
  8
0
 62
7
100
AcDbSpline
 70
8
 71
3
 72
8
 73
4
 74
0
 40
0
 40
0
 40
0
 40
0
 40
1
 40
1
 40
1
 40
1
 10
19.999983
 20
35.086172
 30
0.0
 10
21.281919
 20
35.086172
 30
0.0
 10
22.511621
 20
34.577047
 30
0.0
 10
23.417850
 20
33.670188
 30
0.0
  0
LWPOLYLINE
  5
11d
100
AcDbEntity
  8
0
 62
7
100
AcDbPolyline
 90
3
 70
0
 10
23.417850
 20
33.670188
 30
0.0
 10
19.999983
 20
30.252951
 30
0.0
 10
16.582116
 20
33.670188
 30
0.0
  0
SPLINE
  5
11e
100
AcDbEntity
  8
0
 62
7
100
AcDbSpline
 70
8
 71
3
 72
8
 73
4
 74
0
 40
0
 40
0
 40
0
 40
0
 40
1
 40
1
 40
1
 40
1
 10
6.329771
 20
30.252951
 30
0.0
 10
5.876656
 20
30.706065
 30
0.0
 10
5.621779
 20
31.320915
 30
0.0
 10
5.621779
 20
31.961568
 30
0.0
  0
SPLINE
  5
11f
100
AcDbEntity
  8
0
 62
7
100
AcDbSpline
 70
8
 71
3
 72
8
 73
4
 74
0
 40
0
 40
0
 40
0
 40
0
 40
1
 40
1
 40
1
 40
1
 10
5.621779
 20
31.961568
 30
0.0
 10
5.621779
 20
33.296369
 30
0.0
 10
6.703590
 20
34.378179
 30
0.0
 10
8.038390
 20
34.378179
 30
0.0
  0
SPLINE
  5
120
100
AcDbEntity
  8
0
 62
7
100
AcDbSpline
 70
8
 71
3
 72
8
 73
4
 74
0
 40
0
 40
0
 40
0
 40
0
 40
1
 40
1
 40
1
 40
1
 10
8.038390
 20
34.378179
 30
0.0
 10
8.679043
 20
34.378179
 30
0.0
 10
9.293895
 20
34.123302
 30
0.0
 10
9.747009
 20
33.670188
 30
0.0
  0
LWPOLYLINE
  5
121
100
AcDbEntity
  8
0
 62
7
100
AcDbPolyline
 90
2
 70
0
 10
9.747009
 20
33.670188
 30
0.0
 10
6.329771
 20
30.252951
 30
0.0
  0
SPLINE
  5
122
100
AcDbEntity
  8
0
 62
7
100
AcDbSpline
 70
8
 71
3
 72
8
 73
4
 74
0
 40
0
 40
0
 40
0
 40
0
 40
1
 40
1
 40
1
 40
1
 10
15.443035
 20
5.190684
 30
0.0
 10
16.651970
 20
3.981750
 30
0.0
 10
18.290735
 20
3.302707
 30
0.0
 10
19.999983
 20
3.302707
 30
0.0
  0
SPLINE
  5
123
100
AcDbEntity
  8
0
 62
7
100
AcDbSpline
 70
8
 71
3
 72
8
 73
4
 74
0
 40
0
 40
0
 40
0
 40
0
 40
1
 40
1
 40
1
 40
1
 10
19.999983
 20
3.302707
 30
0.0
 10
21.709232
 20
3.302707
 30
0.0
 10
23.347996
 20
3.981750
 30
0.0
 10
24.556931
 20
5.190684
 30
0.0
  0
LWPOLYLINE
  5
124
100
AcDbEntity
  8
0
 62
7
100
AcDbPolyline
 90
2
 70
0
 10
14.303956
 20
4.050975
 30
0.0
 10
15.443035
 20
5.190684
 30
0.0
  0
SPLINE
  5
125
100
AcDbEntity
  8
0
 62
7
100
AcDbSpline
 70
8
 71
3
 72
8
 73
4
 74
0
 40
0
 40
0
 40
0
 40
0
 40
1
 40
1
 40
1
 40
1
 10
25.696010
 20
4.050975
 30
0.0
 10
24.185628
 20
2.540594
 30
0.0
 10
22.136544
 20
1.691633
 30
0.0
 10
19.999983
 20
1.691633
 30
0.0
  0
SPLINE
  5
126
100
AcDbEntity
  8
0
 62
7
100
AcDbSpline
 70
8
 71
3
 72
8
 73
4
 74
0
 40
0
 40
0
 40
0
 40
0
 40
1
 40
1
 40
1
 40
1
 10
19.999983
 20
1.691633
 30
0.0
 10
17.863422
 20
1.691633
 30
0.0
 10
15.814338
 20
2.540594
 30
0.0
 10
14.303956
 20
4.050975
 30
0.0
  0
LWPOLYLINE
  5
127
100
AcDbEntity
  8
0
 62
7
100
AcDbPolyline
 90
4
 70
0
 10
24.556931
 20
5.190684
 30
0.0
 10
31.392037
 20
12.025791
 30
0.0
 10
32.531116
 20
10.886081
 30
0.0
 10
25.696010
 20
4.050975
 30
0.0
  0
SPLINE
  5
128
100
AcDbEntity
  8
0
 62
7
100
AcDbSpline
 70
8
 71
3
 72
8
 73
4
 74
0
 40
0
 40
0
 40
0
 40
0
 40
1
 40
1
 40
1
 40
1
 10
34.809904
 20
15.443028
 30
0.0
 10
36.018209
 20
16.651963
 30
0.0
 10
36.697252
 20
18.290728
 30
0.0
 10
36.697252
 20
19.999976
 30
0.0
  0
SPLINE
  5
129
100
AcDbEntity
  8
0
 62
7
100
AcDbSpline
 70
8
 71
3
 72
8
 73
4
 74
0
 40
0
 40
0
 40
0
 40
0
 40
1
 40
1
 40
1
 40
1
 10
36.697252
 20
19.999976
 30
0.0
 10
36.697252
 20
21.709225
 30
0.0
 10
36.018209
 20
23.347988
 30
0.0
 10
34.809904
 20
24.556924
 30
0.0
  0
LWPOLYLINE
  5
12a
100
AcDbEntity
  8
0
 62
7
100
AcDbPolyline
 90
2
 70
0
 10
35.948983
 20
14.303949
 30
0.0
 10
34.809904
 20
15.443028
 30
0.0
  0
SPLINE
  5
12b
100
AcDbEntity
  8
0
 62
7
100
AcDbSpline
 70
8
 71
3
 72
8
 73
4
 74
0
 40
0
 40
0
 40
0
 40
0
 40
1
 40
1
 40
1
 40
1
 10
35.948983
 20
25.696003
 30
0.0
 10
37.459364
 20
24.185621
 30
0.0
 10
38.308326
 20
22.136537
 30
0.0
 10
38.308326
 20
19.999976
 30
0.0
  0
SPLINE
  5
12c
100
AcDbEntity
  8
0
 62
7
100
AcDbSpline
 70
8
 71
3
 72
8
 73
4
 74
0
 40
0
 40
0
 40
0
 40
0
 40
1
 40
1
 40
1
 40
1
 10
38.308326
 20
19.999976
 30
0.0
 10
38.308326
 20
17.863415
 30
0.0
 10
37.459364
 20
15.814331
 30
0.0
 10
35.948983
 20
14.303949
 30
0.0
  0
LWPOLYLINE
  5
12d
100
AcDbEntity
  8
0
 62
7
100
AcDbPolyline
 90
4
 70
0
 10
34.809904
 20
24.556924
 30
0.0
 10
27.974168
 20
31.392030
 30
0.0
 10
29.113877
 20
32.531109
 30
0.0
 10
35.948983
 20
25.696003
 30
0.0
  0
SPLINE
  5
12e
100
AcDbEntity
  8
0
 62
7
100
AcDbSpline
 70
8
 71
3
 72
8
 73
4
 74
0
 40
0
 40
0
 40
0
 40
0
 40
1
 40
1
 40
1
 40
1
 10
5.190691
 20
24.556924
 30
0.0
 10
3.981757
 20
23.347988
 30
0.0
 10
3.302714
 20
21.709225
 30
0.0
 10
3.302714
 20
19.999976
 30
0.0
  0
SPLINE
  5
12f
100
AcDbEntity
  8
0
 62
7
100
AcDbSpline
 70
8
 71
3
 72
8
 73
4
 74
0
 40
0
 40
0
 40
0
 40
0
 40
1
 40
1
 40
1
 40
1
 10
3.302714
 20
19.999976
 30
0.0
 10
3.302714
 20
18.290728
 30
0.0
 10
3.981757
 20
16.651963
 30
0.0
 10
5.190691
 20
15.443028
 30
0.0
  0
LWPOLYLINE
  5
130
100
AcDbEntity
  8
0
 62
7
100
AcDbPolyline
 90
2
 70
0
 10
4.050982
 20
25.696003
 30
0.0
 10
5.190691
 20
24.556924
 30
0.0
  0
SPLINE
  5
131
100
AcDbEntity
  8
0
 62
7
100
AcDbSpline
 70
8
 71
3
 72
8
 73
4
 74
0
 40
0
 40
0
 40
0
 40
0
 40
1
 40
1
 40
1
 40
1
 10
4.050982
 20
14.303949
 30
0.0
 10
2.540601
 20
15.814331
 30
0.0
 10
1.691640
 20
17.863415
 30
0.0
 10
1.691640
 20
19.999976
 30
0.0
  0
SPLINE
  5
132
100
AcDbEntity
  8
0
 62
7
100
AcDbSpline
 70
8
 71
3
 72
8
 73
4
 74
0
 40
0
 40
0
 40
0
 40
0
 40
1
 40
1
 40
1
 40
1
 10
1.691640
 20
19.999976
 30
0.0
 10
1.691640
 20
22.136537
 30
0.0
 10
2.540601
 20
24.185621
 30
0.0
 10
4.050982
 20
25.696003
 30
0.0
  0
LWPOLYLINE
  5
133
100
AcDbEntity
  8
0
 62
7
100
AcDbPolyline
 90
4
 70
0
 10
5.190691
 20
15.443028
 30
0.0
 10
12.025798
 20
8.607922
 30
0.0
 10
10.886088
 20
7.468843
 30
0.0
 10
4.050982
 20
14.303949
 30
0.0
  0
SPLINE
  5
134
100
AcDbEntity
  8
0
 62
7
100
AcDbSpline
 70
8
 71
3
 72
8
 73
4
 74
0
 40
0
 40
0
 40
0
 40
0
 40
1
 40
1
 40
1
 40
1
 10
25.696010
 20
35.948976
 30
0.0
 10
24.185628
 20
37.459357
 30
0.0
 10
22.136544
 20
38.308319
 30
0.0
 10
19.999983
 20
38.308319
 30
0.0
  0
SPLINE
  5
135
100
AcDbEntity
  8
0
 62
7
100
AcDbSpline
 70
8
 71
3
 72
8
 73
4
 74
0
 40
0
 40
0
 40
0
 40
0
 40
1
 40
1
 40
1
 40
1
 10
19.999983
 20
38.308319
 30
0.0
 10
17.863422
 20
38.308319
 30
0.0
 10
15.814338
 20
37.459357
 30
0.0
 10
14.303956
 20
35.948976
 30
0.0
  0
LWPOLYLINE
  5
136
100
AcDbEntity
  8
0
 62
7
100
AcDbPolyline
 90
2
 70
0
 10
24.556931
 20
34.809897
 30
0.0
 10
25.696010
 20
35.948976
 30
0.0
  0
SPLINE
  5
137
100
AcDbEntity
  8
0
 62
7
100
AcDbSpline
 70
8
 71
3
 72
8
 73
4
 74
0
 40
0
 40
0
 40
0
 40
0
 40
1
 40
1
 40
1
 40
1
 10
15.443035
 20
34.809897
 30
0.0
 10
16.651970
 20
36.018202
 30
0.0
 10
18.290735
 20
36.697245
 30
0.0
 10
19.999983
 20
36.697245
 30
0.0
  0
SPLINE
  5
138
100
AcDbEntity
  8
0
 62
7
100
AcDbSpline
 70
8
 71
3
 72
8
 73
4
 74
0
 40
0
 40
0
 40
0
 40
0
 40
1
 40
1
 40
1
 40
1
 10
19.999983
 20
36.697245
 30
0.0
 10
21.709232
 20
36.697245
 30
0.0
 10
23.347996
 20
36.018202
 30
0.0
 10
24.556931
 20
34.809897
 30
0.0
  0
LWPOLYLINE
  5
139
100
AcDbEntity
  8
0
 62
7
100
AcDbPolyline
 90
4
 70
0
 10
14.303956
 20
35.948976
 30
0.0
 10
7.468850
 20
29.113870
 30
0.0
 10
8.607930
 20
27.974161
 30
0.0
 10
15.443035
 20
34.809897
 30
0.0
  0
SPLINE
  5
13a
100
AcDbEntity
  8
0
 62
7
100
AcDbSpline
 70
8
 71
3
 72
8
 73
4
 74
0
 40
0
 40
0
 40
0
 40
0
 40
1
 40
1
 40
1
 40
1
 10
21.139062
 20
15.443028
 30
0.0
 10
22.347367
 20
16.651963
 30
0.0
 10
23.026411
 20
18.290728
 30
0.0
 10
23.026411
 20
19.999976
 30
0.0
  0
SPLINE
  5
13b
100
AcDbEntity
  8
0
 62
7
100
AcDbSpline
 70
8
 71
3
 72
8
 73
4
 74
0
 40
0
 40
0
 40
0
 40
0
 40
1
 40
1
 40
1
 40
1
 10
23.026411
 20
19.999976
 30
0.0
 10
23.026411
 20
21.709225
 30
0.0
 10
22.347367
 20
23.347988
 30
0.0
 10
21.139062
 20
24.556924
 30
0.0
  0
LWPOLYLINE
  5
13c
100
AcDbEntity
  8
0
 62
7
100
AcDbPolyline
 90
2
 70
0
 10
22.278143
 20
14.303949
 30
0.0
 10
21.139062
 20
15.443028
 30
0.0
  0
SPLINE
  5
13d
100
AcDbEntity
  8
0
 62
7
100
AcDbSpline
 70
8
 71
3
 72
8
 73
4
 74
0
 40
0
 40
0
 40
0
 40
0
 40
1
 40
1
 40
1
 40
1
 10
22.278143
 20
25.696003
 30
0.0
 10
23.789153
 20
24.185621
 30
0.0
 10
24.637484
 20
22.136537
 30
0.0
 10
24.637484
 20
19.999976
 30
0.0
  0
SPLINE
  5
13e
100
AcDbEntity
  8
0
 62
7
100
AcDbSpline
 70
8
 71
3
 72
8
 73
4
 74
0
 40
0
 40
0
 40
0
 40
0
 40
1
 40
1
 40
1
 40
1
 10
24.637484
 20
19.999976
 30
0.0
 10
24.637484
 20
17.863415
 30
0.0
 10
23.789153
 20
15.814331
 30
0.0
 10
22.278143
 20
14.303949
 30
0.0
  0
LWPOLYLINE
  5
13f
100
AcDbEntity
  8
0
 62
7
100
AcDbPolyline
 90
4
 70
0
 10
21.139062
 20
24.556924
 30
0.0
 10
14.303956
 20
31.392030
 30
0.0
 10
15.443035
 20
32.531109
 30
0.0
 10
22.278143
 20
25.696003
 30
0.0
  0
SPLINE
  5
140
100
AcDbEntity
  8
0
 62
7
100
AcDbSpline
 70
8
 71
3
 72
8
 73
4
 74
0
 40
0
 40
0
 40
0
 40
0
 40
1
 40
1
 40
1
 40
1
 10
18.860904
 20
24.556924
 30
0.0
 10
17.652599
 20
23.347988
 30
0.0
 10
16.973555
 20
21.709225
 30
0.0
 10
16.973555
 20
19.999976
 30
0.0
  0
SPLINE
  5
141
100
AcDbEntity
  8
0
 62
7
100
AcDbSpline
 70
8
 71
3
 72
8
 73
4
 74
0
 40
0
 40
0
 40
0
 40
0
 40
1
 40
1
 40
1
 40
1
 10
16.973555
 20
19.999976
 30
0.0
 10
16.973555
 20
18.290728
 30
0.0
 10
17.652599
 20
16.651963
 30
0.0
 10
18.860904
 20
15.443028
 30
0.0
  0
LWPOLYLINE
  5
142
100
AcDbEntity
  8
0
 62
7
100
AcDbPolyline
 90
2
 70
0
 10
17.721825
 20
25.696003
 30
0.0
 10
18.860904
 20
24.556924
 30
0.0
  0
SPLINE
  5
143
100
AcDbEntity
  8
0
 62
7
100
AcDbSpline
 70
8
 71
3
 72
8
 73
4
 74
0
 40
0
 40
0
 40
0
 40
0
 40
1
 40
1
 40
1
 40
1
 10
17.721825
 20
14.303949
 30
0.0
 10
16.210813
 20
15.814331
 30
0.0
 10
15.362481
 20
17.863415
 30
0.0
 10
15.362481
 20
19.999976
 30
0.0
  0
SPLINE
  5
144
100
AcDbEntity
  8
0
 62
7
100
AcDbSpline
 70
8
 71
3
 72
8
 73
4
 74
0
 40
0
 40
0
 40
0
 40
0
 40
1
 40
1
 40
1
 40
1
 10
15.362481
 20
19.999976
 30
0.0
 10
15.362481
 20
22.136537
 30
0.0
 10
16.210813
 20
24.185621
 30
0.0
 10
17.721825
 20
25.696003
 30
0.0
  0
SPLINE
  5
145
100
AcDbEntity
  8
0
 62
7
100
AcDbSpline
 70
8
 71
3
 72
8
 73
4
 74
0
 40
0
 40
0
 40
0
 40
0
 40
1
 40
1
 40
1
 40
1
 10
32.531116
 20
24.556924
 30
0.0
 10
31.322810
 20
23.347988
 30
0.0
 10
30.643769
 20
21.709225
 30
0.0
 10
30.643769
 20
19.999976
 30
0.0
  0
SPLINE
  5
146
100
AcDbEntity
  8
0
 62
7
100
AcDbSpline
 70
8
 71
3
 72
8
 73
4
 74
0
 40
0
 40
0
 40
0
 40
0
 40
1
 40
1
 40
1
 40
1
 10
30.643769
 20
19.999976
 30
0.0
 10
30.643769
 20
18.290728
 30
0.0
 10
31.322810
 20
16.651963
 30
0.0
 10
32.531116
 20
15.443028
 30
0.0
  0
LWPOLYLINE
  5
147
100
AcDbEntity
  8
0
 62
7
100
AcDbPolyline
 90
4
 70
0
 10
18.860904
 20
15.443028
 30
0.0
 10
25.696010
 20
8.607922
 30
0.0
 10
24.556931
 20
7.468843
 30
0.0
 10
17.721825
 20
14.303949
 30
0.0
  0
SPLINE
  5
148
100
AcDbEntity
  8
0
 62
7
100
AcDbSpline
 70
8
 71
3
 72
8
 73
4
 74
0
 40
0
 40
0
 40
0
 40
0
 40
1
 40
1
 40
1
 40
1
 10
35.948983
 20
12.025791
 30
0.0
 10
37.006250
 20
10.967894
 30
0.0
 10
37.600333
 20
9.533661
 30
0.0
 10
37.600333
 20
8.038383
 30
0.0
  0
SPLINE
  5
149
100
AcDbEntity
  8
0
 62
7
100
AcDbSpline
 70
8
 71
3
 72
8
 73
4
 74
0
 40
0
 40
0
 40
0
 40
0
 40
1
 40
1
 40
1
 40
1
 10
37.600333
 20
8.038383
 30
0.0
 10
37.600333
 20
4.924479
 30
0.0
 10
35.075480
 20
2.399625
 30
0.0
 10
31.961575
 20
2.399625
 30
0.0
  0
SPLINE
  5
14a
100
AcDbEntity
  8
0
 62
7
100
AcDbSpline
 70
8
 71
3
 72
8
 73
4
 74
0
 40
0
 40
0
 40
0
 40
0
 40
1
 40
1
 40
1
 40
1
 10
31.961575
 20
2.399625
 30
0.0
 10
30.466298
 20
2.399625
 30
0.0
 10
29.032065
 20
2.993708
 30
0.0
 10
27.974168
 20
4.050975
 30
0.0
  0
LWPOLYLINE
  5
14b
100
AcDbEntity
  8
0
 62
7
100
AcDbPolyline
 90
2
 70
0
 10
32.531116
 20
15.443028
 30
0.0
 10
35.948983
 20
12.025791
 30
0.0
  0
SPLINE
  5
14c
100
AcDbEntity
  8
0
 62
7
100
AcDbSpline
 70
8
 71
3
 72
8
 73
4
 74
0
 40
0
 40
0
 40
0
 40
0
 40
1
 40
1
 40
1
 40
1
 10
29.113877
 20
5.190684
 30
0.0
 10
29.869068
 20
4.434864
 30
0.0
 10
30.893611
 20
4.010698
 30
0.0
 10
31.961575
 20
4.010698
 30
0.0
  0
SPLINE
  5
14d
100
AcDbEntity
  8
0
 62
7
100
AcDbSpline
 70
8
 71
3
 72
8
 73
4
 74
0
 40
0
 40
0
 40
0
 40
0
 40
1
 40
1
 40
1
 40
1
 10
31.961575
 20
4.010698
 30
0.0
 10
34.186243
 20
4.010698
 30
0.0
 10
35.989260
 20
5.813716
 30
0.0
 10
35.989260
 20
8.038383
 30
0.0
  0
SPLINE
  5
14e
100
AcDbEntity
  8
0
 62
7
100
AcDbSpline
 70
8
 71
3
 72
8
 73
4
 74
0
 40
0
 40
0
 40
0
 40
0
 40
1
 40
1
 40
1
 40
1
 10
35.989260
 20
8.038383
 30
0.0
 10
35.989260
 20
9.106348
 30
0.0
 10
35.565095
 20
10.130891
 30
0.0
 10
34.809904
 20
10.886081
 30
0.0
  0
LWPOLYLINE
  5
14f
100
AcDbEntity
  8
0
 62
7
100
AcDbPolyline
 90
2
 70
0
 10
27.974168
 20
4.050975
 30
0.0
 10
29.113877
 20
5.190684
 30
0.0
  0
SPLINE
  5
150
100
AcDbEntity
  8
0
 62
7
100
AcDbSpline
 70
8
 71
3
 72
8
 73
4
 74
0
 40
0
 40
0
 40
0
 40
0
 40
1
 40
1
 40
1
 40
1
 10
31.392037
 20
14.303949
 30
0.0
 10
29.881655
 20
15.814331
 30
0.0
 10
29.032695
 20
17.863415
 30
0.0
 10
29.032695
 20
19.999976
 30
0.0
  0
SPLINE
  5
151
100
AcDbEntity
  8
0
 62
7
100
AcDbSpline
 70
8
 71
3
 72
8
 73
4
 74
0
 40
0
 40
0
 40
0
 40
0
 40
1
 40
1
 40
1
 40
1
 10
29.032695
 20
19.999976
 30
0.0
 10
29.032695
 20
22.136537
 30
0.0
 10
29.881655
 20
24.185621
 30
0.0
 10
31.392037
 20
25.696003
 30
0.0
  0
LWPOLYLINE
  5
152
100
AcDbEntity
  8
0
 62
7
100
AcDbPolyline
 90
2
 70
0
 10
34.809904
 20
10.886081
 30
0.0
 10
31.392037
 20
14.303949
 30
0.0
  0
SPLINE
  5
153
100
AcDbEntity
  8
0
 62
7
100
AcDbSpline
 70
8
 71
3
 72
8
 73
4
 74
0
 40
0
 40
0
 40
0
 40
0
 40
1
 40
1
 40
1
 40
1
 10
8.607930
 20
14.303949
 30
0.0
 10
10.118311
 20
15.814331
 30
0.0
 10
10.967272
 20
17.863415
 30
0.0
 10
10.967272
 20
19.999976
 30
0.0
  0
SPLINE
  5
154
100
AcDbEntity
  8
0
 62
7
100
AcDbSpline
 70
8
 71
3
 72
8
 73
4
 74
0
 40
0
 40
0
 40
0
 40
0
 40
1
 40
1
 40
1
 40
1
 10
10.967272
 20
19.999976
 30
0.0
 10
10.967272
 20
22.136537
 30
0.0
 10
10.118311
 20
24.185621
 30
0.0
 10
8.607930
 20
25.696003
 30
0.0
  0
LWPOLYLINE
  5
155
100
AcDbEntity
  8
0
 62
7
100
AcDbPolyline
 90
2
 70
0
 10
31.392037
 20
25.696003
 30
0.0
 10
32.531116
 20
24.556924
 30
0.0
  0
SPLINE
  5
156
100
AcDbEntity
  8
0
 62
7
100
AcDbSpline
 70
8
 71
3
 72
8
 73
4
 74
0
 40
0
 40
0
 40
0
 40
0
 40
1
 40
1
 40
1
 40
1
 10
5.190691
 20
29.113870
 30
0.0
 10
4.434871
 20
29.869061
 30
0.0
 10
4.010706
 20
30.893604
 30
0.0
 10
4.010706
 20
31.961568
 30
0.0
  0
SPLINE
  5
157
100
AcDbEntity
  8
0
 62
7
100
AcDbSpline
 70
8
 71
3
 72
8
 73
4
 74
0
 40
0
 40
0
 40
0
 40
0
 40
1
 40
1
 40
1
 40
1
 10
4.010706
 20
31.961568
 30
0.0
 10
4.010706
 20
34.186236
 30
0.0
 10
5.813724
 20
35.989253
 30
0.0
 10
8.038390
 20
35.989253
 30
0.0
  0
SPLINE
  5
158
100
AcDbEntity
  8
0
 62
7
100
AcDbSpline
 70
8
 71
3
 72
8
 73
4
 74
0
 40
0
 40
0
 40
0
 40
0
 40
1
 40
1
 40
1
 40
1
 10
8.038390
 20
35.989253
 30
0.0
 10
9.106355
 20
35.989253
 30
0.0
 10
10.130898
 20
35.565088
 30
0.0
 10
10.886088
 20
34.809897
 30
0.0
  0
LWPOLYLINE
  5
159
100
AcDbEntity
  8
0
 62
7
100
AcDbPolyline
 90
2
 70
0
 10
8.607930
 20
25.696003
 30
0.0
 10
5.190691
 20
29.113870
 30
0.0
  0
SPLINE
  5
15a
100
AcDbEntity
  8
0
 62
7
100
AcDbSpline
 70
8
 71
3
 72
8
 73
4
 74
0
 40
0
 40
0
 40
0
 40
0
 40
1
 40
1
 40
1
 40
1
 10
12.025798
 20
35.948976
 30
0.0
 10
10.967901
 20
37.006243
 30
0.0
 10
9.533668
 20
37.600326
 30
0.0
 10
8.038390
 20
37.600326
 30
0.0
  0
SPLINE
  5
15b
100
AcDbEntity
  8
0
 62
7
100
AcDbSpline
 70
8
 71
3
 72
8
 73
4
 74
0
 40
0
 40
0
 40
0
 40
0
 40
1
 40
1
 40
1
 40
1
 10
8.038390
 20
37.600326
 30
0.0
 10
4.924486
 20
37.600326
 30
0.0
 10
2.399632
 20
35.075473
 30
0.0
 10
2.399632
 20
31.961568
 30
0.0
  0
SPLINE
  5
15c
100
AcDbEntity
  8
0
 62
7
100
AcDbSpline
 70
8
 71
3
 72
8
 73
4
 74
0
 40
0
 40
0
 40
0
 40
0
 40
1
 40
1
 40
1
 40
1
 10
2.399632
 20
31.961568
 30
0.0
 10
2.399632
 20
30.466291
 30
0.0
 10
2.993715
 20
29.032058
 30
0.0
 10
4.050982
 20
27.974161
 30
0.0
  0
LWPOLYLINE
  5
15d
100
AcDbEntity
  8
0
 62
7
100
AcDbPolyline
 90
2
 70
0
 10
10.886088
 20
34.809897
 30
0.0
 10
12.025798
 20
35.948976
 30
0.0
  0
SPLINE
  5
15e
100
AcDbEntity
  8
0
 62
7
100
AcDbSpline
 70
8
 71
3
 72
8
 73
4
 74
0
 40
0
 40
0
 40
0
 40
0
 40
1
 40
1
 40
1
 40
1
 10
7.468850
 20
24.556924
 30
0.0
 10
8.677155
 20
23.347988
 30
0.0
 10
9.356198
 20
21.709225
 30
0.0
 10
9.356198
 20
19.999976
 30
0.0
  0
SPLINE
  5
15f
100
AcDbEntity
  8
0
 62
7
100
AcDbSpline
 70
8
 71
3
 72
8
 73
4
 74
0
 40
0
 40
0
 40
0
 40
0
 40
1
 40
1
 40
1
 40
1
 10
9.356198
 20
19.999976
 30
0.0
 10
9.356198
 20
18.290728
 30
0.0
 10
8.677155
 20
16.651963
 30
0.0
 10
7.468850
 20
15.443028
 30
0.0
  0
LWPOLYLINE
  5
160
100
AcDbEntity
  8
0
 62
7
100
AcDbPolyline
 90
2
 70
0
 10
4.050982
 20
27.974161
 30
0.0
 10
7.468850
 20
24.556924
 30
0.0
  0
LWPOLYLINE
  5
161
100
AcDbEntity
  8
0
 62
7
100
AcDbPolyline
 90
2
 70
0
 10
7.468850
 20
15.443028
 30
0.0
 10
8.607930
 20
14.303949
 30
0.0
  0
SPLINE
  5
162
100
AcDbEntity
  8
0
 62
7
100
AcDbSpline
 70
8
 71
3
 72
8
 73
4
 74
0
 40
0
 40
0
 40
0
 40
0
 40
1
 40
1
 40
1
 40
1
 10
12.025798
 20
4.050975
 30
0.0
 10
10.967901
 20
2.993708
 30
0.0
 10
9.533668
 20
2.399625
 30
0.0
 10
8.038390
 20
2.399625
 30
0.0
  0
SPLINE
  5
163
100
AcDbEntity
  8
0
 62
7
100
AcDbSpline
 70
8
 71
3
 72
8
 73
4
 74
0
 40
0
 40
0
 40
0
 40
0
 40
1
 40
1
 40
1
 40
1
 10
8.038390
 20
2.399625
 30
0.0
 10
4.924486
 20
2.399625
 30
0.0
 10
2.399632
 20
4.924479
 30
0.0
 10
2.399632
 20
8.038383
 30
0.0
  0
SPLINE
  5
164
100
AcDbEntity
  8
0
 62
7
100
AcDbSpline
 70
8
 71
3
 72
8
 73
4
 74
0
 40
0
 40
0
 40
0
 40
0
 40
1
 40
1
 40
1
 40
1
 10
2.399632
 20
8.038383
 30
0.0
 10
2.399632
 20
9.533661
 30
0.0
 10
2.993715
 20
10.967894
 30
0.0
 10
4.050982
 20
12.025791
 30
0.0
  0
LWPOLYLINE
  5
165
100
AcDbEntity
  8
0
 62
7
100
AcDbPolyline
 90
2
 70
0
 10
18.860904
 20
10.886081
 30
0.0
 10
12.025798
 20
4.050975
 30
0.0
  0
SPLINE
  5
166
100
AcDbEntity
  8
0
 62
7
100
AcDbSpline
 70
8
 71
3
 72
8
 73
4
 74
0
 40
0
 40
0
 40
0
 40
0
 40
1
 40
1
 40
1
 40
1
 10
5.190691
 20
10.886081
 30
0.0
 10
4.434871
 20
10.130891
 30
0.0
 10
4.010706
 20
9.106348
 30
0.0
 10
4.010706
 20
8.038383
 30
0.0
  0
SPLINE
  5
167
100
AcDbEntity
  8
0
 62
7
100
AcDbSpline
 70
8
 71
3
 72
8
 73
4
 74
0
 40
0
 40
0
 40
0
 40
0
 40
1
 40
1
 40
1
 40
1
 10
4.010706
 20
8.038383
 30
0.0
 10
4.010706
 20
5.813716
 30
0.0
 10
5.813724
 20
4.010698
 30
0.0
 10
8.038390
 20
4.010698
 30
0.0
  0
SPLINE
  5
168
100
AcDbEntity
  8
0
 62
7
100
AcDbSpline
 70
8
 71
3
 72
8
 73
4
 74
0
 40
0
 40
0
 40
0
 40
0
 40
1
 40
1
 40
1
 40
1
 10
8.038390
 20
4.010698
 30
0.0
 10
9.106355
 20
4.010698
 30
0.0
 10
10.130898
 20
4.434864
 30
0.0
 10
10.886088
 20
5.190684
 30
0.0
  0
LWPOLYLINE
  5
169
100
AcDbEntity
  8
0
 62
7
100
AcDbPolyline
 90
2
 70
0
 10
4.050982
 20
12.025791
 30
0.0
 10
5.190691
 20
10.886081
 30
0.0
  0
LWPOLYLINE
  5
16a
100
AcDbEntity
  8
0
 62
7
100
AcDbPolyline
 90
3
 70
0
 10
10.886088
 20
5.190684
 30
0.0
 10
17.721825
 20
12.025791
 30
0.0
 10
18.860904
 20
10.886081
 30
0.0
  0
SPLINE
  5
16b
100
AcDbEntity
  8
0
 62
7
100
AcDbSpline
 70
8
 71
3
 72
8
 73
4
 74
0
 40
0
 40
0
 40
0
 40
0
 40
1
 40
1
 40
1
 40
1
 10
29.113877
 20
34.809897
 30
0.0
 10
29.869068
 20
35.565088
 30
0.0
 10
30.893611
 20
35.989253
 30
0.0
 10
31.961575
 20
35.989253
 30
0.0
  0
SPLINE
  5
16c
100
AcDbEntity
  8
0
 62
7
100
AcDbSpline
 70
8
 71
3
 72
8
 73
4
 74
0
 40
0
 40
0
 40
0
 40
0
 40
1
 40
1
 40
1
 40
1
 10
31.961575
 20
35.989253
 30
0.0
 10
34.186243
 20
35.989253
 30
0.0
 10
35.989260
 20
34.186236
 30
0.0
 10
35.989260
 20
31.961568
 30
0.0
  0
SPLINE
  5
16d
100
AcDbEntity
  8
0
 62
7
100
AcDbSpline
 70
8
 71
3
 72
8
 73
4
 74
0
 40
0
 40
0
 40
0
 40
0
 40
1
 40
1
 40
1
 40
1
 10
35.989260
 20
31.961568
 30
0.0
 10
35.989260
 20
30.893604
 30
0.0
 10
35.565095
 20
29.869061
 30
0.0
 10
34.809904
 20
29.113870
 30
0.0
  0
LWPOLYLINE
  5
16e
100
AcDbEntity
  8
0
 62
7
100
AcDbPolyline
 90
2
 70
0
 10
22.278143
 20
27.974161
 30
0.0
 10
29.113877
 20
34.809897
 30
0.0
  0
SPLINE
  5
16f
100
AcDbEntity
  8
0
 62
7
100
AcDbSpline
 70
8
 71
3
 72
8
 73
4
 74
0
 40
0
 40
0
 40
0
 40
0
 40
1
 40
1
 40
1
 40
1
 10
35.948983
 20
27.974161
 30
0.0
 10
37.006250
 20
29.032058
 30
0.0
 10
37.600333
 20
30.466291
 30
0.0
 10
37.600333
 20
31.961568
 30
0.0
  0
SPLINE
  5
170
100
AcDbEntity
  8
0
 62
7
100
AcDbSpline
 70
8
 71
3
 72
8
 73
4
 74
0
 40
0
 40
0
 40
0
 40
0
 40
1
 40
1
 40
1
 40
1
 10
37.600333
 20
31.961568
 30
0.0
 10
37.600333
 20
35.075473
 30
0.0
 10
35.075480
 20
37.600326
 30
0.0
 10
31.961575
 20
37.600326
 30
0.0
  0
SPLINE
  5
171
100
AcDbEntity
  8
0
 62
7
100
AcDbSpline
 70
8
 71
3
 72
8
 73
4
 74
0
 40
0
 40
0
 40
0
 40
0
 40
1
 40
1
 40
1
 40
1
 10
31.961575
 20
37.600326
 30
0.0
 10
30.466298
 20
37.600326
 30
0.0
 10
29.032065
 20
37.006243
 30
0.0
 10
27.974168
 20
35.948976
 30
0.0
  0
LWPOLYLINE
  5
172
100
AcDbEntity
  8
0
 62
7
100
AcDbPolyline
 90
2
 70
0
 10
34.809904
 20
29.113870
 30
0.0
 10
35.948983
 20
27.974161
 30
0.0
  0
SPLINE
  5
173
100
AcDbEntity
  8
0
 62
7
100
AcDbSpline
 70
8
 71
3
 72
8
 73
4
 74
0
 40
0
 40
0
 40
0
 40
0
 40
1
 40
1
 40
1
 40
1
 10
26.835089
 20
2.911896
 30
0.0
 10
25.022631
 20
1.099438
 30
0.0
 10
22.563855
 20
0.080560
 30
0.0
 10
19.999983
 20
0.080560
 30
0.0
  0
SPLINE
  5
174
100
AcDbEntity
  8
0
 62
7
100
AcDbSpline
 70
8
 71
3
 72
8
 73
4
 74
0
 40
0
 40
0
 40
0
 40
0
 40
1
 40
1
 40
1
 40
1
 10
19.999983
 20
0.080560
 30
0.0
 10
17.436111
 20
0.080560
 30
0.0
 10
14.977335
 20
1.099438
 30
0.0
 10
13.164877
 20
2.911896
 30
0.0
  0
SPLINE
  5
175
100
AcDbEntity
  8
0
 62
7
100
AcDbSpline
 70
8
 71
3
 72
8
 73
4
 74
0
 40
0
 40
0
 40
0
 40
0
 40
1
 40
1
 40
1
 40
1
 10
13.164877
 20
2.911896
 30
0.0
 10
11.805533
 20
1.552552
 30
0.0
 10
9.960980
 20
0.788551
 30
0.0
 10
8.038390
 20
0.788551
 30
0.0
  0
SPLINE
  5
176
100
AcDbEntity
  8
0
 62
7
100
AcDbSpline
 70
8
 71
3
 72
8
 73
4
 74
0
 40
0
 40
0
 40
0
 40
0
 40
1
 40
1
 40
1
 40
1
 10
8.038390
 20
0.788551
 30
0.0
 10
4.034620
 20
0.788551
 30
0.0
 10
0.788558
 20
4.034613
 30
0.0
 10
0.788558
 20
8.038383
 30
0.0
  0
SPLINE
  5
177
100
AcDbEntity
  8
0
 62
7
100
AcDbSpline
 70
8
 71
3
 72
8
 73
4
 74
0
 40
0
 40
0
 40
0
 40
0
 40
1
 40
1
 40
1
 40
1
 10
0.788558
 20
8.038383
 30
0.0
 10
0.788558
 20
9.960973
 30
0.0
 10
1.552560
 20
11.805526
 30
0.0
 10
2.911903
 20
13.164870
 30
0.0
  0
SPLINE
  5
178
100
AcDbEntity
  8
0
 62
7
100
AcDbSpline
 70
8
 71
3
 72
8
 73
4
 74
0
 40
0
 40
0
 40
0
 40
0
 40
1
 40
1
 40
1
 40
1
 10
2.911903
 20
13.164870
 30
0.0
 10
1.099445
 20
14.977328
 30
0.0
 10
0.080567
 20
17.436103
 30
0.0
 10
0.080567
 20
19.999976
 30
0.0
  0
SPLINE
  5
179
100
AcDbEntity
  8
0
 62
7
100
AcDbSpline
 70
8
 71
3
 72
8
 73
4
 74
0
 40
0
 40
0
 40
0
 40
0
 40
1
 40
1
 40
1
 40
1
 10
0.080567
 20
19.999976
 30
0.0
 10
0.080567
 20
22.563848
 30
0.0
 10
1.099445
 20
25.022624
 30
0.0
 10
2.911903
 20
26.835082
 30
0.0
  0
SPLINE
  5
17a
100
AcDbEntity
  8
0
 62
7
100
AcDbSpline
 70
8
 71
3
 72
8
 73
4
 74
0
 40
0
 40
0
 40
0
 40
0
 40
1
 40
1
 40
1
 40
1
 10
2.911903
 20
26.835082
 30
0.0
 10
1.552560
 20
28.194425
 30
0.0
 10
0.788558
 20
30.038979
 30
0.0
 10
0.788558
 20
31.961568
 30
0.0
  0
SPLINE
  5
17b
100
AcDbEntity
  8
0
 62
7
100
AcDbSpline
 70
8
 71
3
 72
8
 73
4
 74
0
 40
0
 40
0
 40
0
 40
0
 40
1
 40
1
 40
1
 40
1
 10
0.788558
 20
31.961568
 30
0.0
 10
0.788558
 20
35.965339
 30
0.0
 10
4.034620
 20
39.211400
 30
0.0
 10
8.038390
 20
39.211400
 30
0.0
  0
SPLINE
  5
17c
100
AcDbEntity
  8
0
 62
7
100
AcDbSpline
 70
8
 71
3
 72
8
 73
4
 74
0
 40
0
 40
0
 40
0
 40
0
 40
1
 40
1
 40
1
 40
1
 10
8.038390
 20
39.211400
 30
0.0
 10
9.960980
 20
39.211400
 30
0.0
 10
11.805533
 20
38.447400
 30
0.0
 10
13.164877
 20
37.088056
 30
0.0
  0
SPLINE
  5
17d
100
AcDbEntity
  8
0
 62
7
100
AcDbSpline
 70
8
 71
3
 72
8
 73
4
 74
0
 40
0
 40
0
 40
0
 40
0
 40
1
 40
1
 40
1
 40
1
 10
13.164877
 20
37.088056
 30
0.0
 10
14.977335
 20
38.900514
 30
0.0
 10
17.436111
 20
39.919393
 30
0.0
 10
19.999983
 20
39.919393
 30
0.0
  0
SPLINE
  5
17e
100
AcDbEntity
  8
0
 62
7
100
AcDbSpline
 70
8
 71
3
 72
8
 73
4
 74
0
 40
0
 40
0
 40
0
 40
0
 40
1
 40
1
 40
1
 40
1
 10
19.999983
 20
39.919393
 30
0.0
 10
22.563855
 20
39.919393
 30
0.0
 10
25.022631
 20
38.900514
 30
0.0
 10
26.835089
 20
37.088056
 30
0.0
  0
SPLINE
  5
17f
100
AcDbEntity
  8
0
 62
7
100
AcDbSpline
 70
8
 71
3
 72
8
 73
4
 74
0
 40
0
 40
0
 40
0
 40
0
 40
1
 40
1
 40
1
 40
1
 10
26.835089
 20
37.088056
 30
0.0
 10
28.194432
 20
38.447400
 30
0.0
 10
30.038986
 20
39.211400
 30
0.0
 10
31.961575
 20
39.211400
 30
0.0
  0
SPLINE
  5
180
100
AcDbEntity
  8
0
 62
7
100
AcDbSpline
 70
8
 71
3
 72
8
 73
4
 74
0
 40
0
 40
0
 40
0
 40
0
 40
1
 40
1
 40
1
 40
1
 10
31.961575
 20
39.211400
 30
0.0
 10
35.965347
 20
39.211400
 30
0.0
 10
39.211407
 20
35.965339
 30
0.0
 10
39.211407
 20
31.961568
 30
0.0
  0
SPLINE
  5
181
100
AcDbEntity
  8
0
 62
7
100
AcDbSpline
 70
8
 71
3
 72
8
 73
4
 74
0
 40
0
 40
0
 40
0
 40
0
 40
1
 40
1
 40
1
 40
1
 10
39.211407
 20
31.961568
 30
0.0
 10
39.211407
 20
30.038979
 30
0.0
 10
38.447407
 20
28.194425
 30
0.0
 10
37.088064
 20
26.835082
 30
0.0
  0
SPLINE
  5
182
100
AcDbEntity
  8
0
 62
7
100
AcDbSpline
 70
8
 71
3
 72
8
 73
4
 74
0
 40
0
 40
0
 40
0
 40
0
 40
1
 40
1
 40
1
 40
1
 10
37.088064
 20
26.835082
 30
0.0
 10
38.900521
 20
25.022624
 30
0.0
 10
39.919400
 20
22.563848
 30
0.0
 10
39.919400
 20
19.999976
 30
0.0
  0
SPLINE
  5
183
100
AcDbEntity
  8
0
 62
7
100
AcDbSpline
 70
8
 71
3
 72
8
 73
4
 74
0
 40
0
 40
0
 40
0
 40
0
 40
1
 40
1
 40
1
 40
1
 10
39.919400
 20
19.999976
 30
0.0
 10
39.919400
 20
17.436103
 30
0.0
 10
38.900521
 20
14.977328
 30
0.0
 10
37.088064
 20
13.164870
 30
0.0
  0
SPLINE
  5
184
100
AcDbEntity
  8
0
 62
7
100
AcDbSpline
 70
8
 71
3
 72
8
 73
4
 74
0
 40
0
 40
0
 40
0
 40
0
 40
1
 40
1
 40
1
 40
1
 10
37.088064
 20
13.164870
 30
0.0
 10
38.447407
 20
11.805526
 30
0.0
 10
39.211407
 20
9.960973
 30
0.0
 10
39.211407
 20
8.038383
 30
0.0
  0
SPLINE
  5
185
100
AcDbEntity
  8
0
 62
7
100
AcDbSpline
 70
8
 71
3
 72
8
 73
4
 74
0
 40
0
 40
0
 40
0
 40
0
 40
1
 40
1
 40
1
 40
1
 10
39.211407
 20
8.038383
 30
0.0
 10
39.211407
 20
4.034613
 30
0.0
 10
35.965347
 20
0.788551
 30
0.0
 10
31.961575
 20
0.788551
 30
0.0
  0
SPLINE
  5
186
100
AcDbEntity
  8
0
 62
7
100
AcDbSpline
 70
8
 71
3
 72
8
 73
4
 74
0
 40
0
 40
0
 40
0
 40
0
 40
1
 40
1
 40
1
 40
1
 10
31.961575
 20
0.788551
 30
0.0
 10
30.038986
 20
0.788551
 30
0.0
 10
28.194432
 20
1.552552
 30
0.0
 10
26.835089
 20
2.911896
 30
0.0
  0
LWPOLYLINE
  5
187
100
AcDbEntity
  8
0
 62
7
100
AcDbPolyline
 90
3
 70
0
 10
27.974168
 20
35.948976
 30
0.0
 10
21.139062
 20
29.113870
 30
0.0
 10
22.278143
 20
27.974161
 30
0.0
  0
SPLINE
  5
188
100
AcDbEntity
  8
0
 62
7
100
AcDbSpline
 70
8
 71
3
 72
8
 73
4
 74
0
 40
0
 40
0
 40
0
 40
0
 40
1
 40
1
 40
1
 40
1
 10
9.747009
 20
13.164870
 30
0.0
 10
11.560096
 20
14.977328
 30
0.0
 10
12.578345
 20
17.436103
 30
0.0
 10
12.578345
 20
19.999976
 30
0.0
  0
SPLINE
  5
189
100
AcDbEntity
  8
0
 62
7
100
AcDbSpline
 70
8
 71
3
 72
8
 73
4
 74
0
 40
0
 40
0
 40
0
 40
0
 40
1
 40
1
 40
1
 40
1
 10
12.578345
 20
19.999976
 30
0.0
 10
12.578345
 20
22.563848
 30
0.0
 10
11.560096
 20
25.022624
 30
0.0
 10
9.747009
 20
26.835082
 30
0.0
  0
LWPOLYLINE
  5
18a
100
AcDbEntity
  8
0
 62
7
100
AcDbPolyline
 90
2
 70
0
 10
13.164877
 20
9.747002
 30
0.0
 10
9.747009
 20
13.164870
 30
0.0
  0
SPLINE
  5
18b
100
AcDbEntity
  8
0
 62
7
100
AcDbSpline
 70
8
 71
3
 72
8
 73
4
 74
0
 40
0
 40
0
 40
0
 40
0
 40
1
 40
1
 40
1
 40
1
 10
16.582116
 20
26.835082
 30
0.0
 10
14.769658
 20
25.022624
 30
0.0
 10
13.751408
 20
22.563848
 30
0.0
 10
13.751408
 20
19.999976
 30
0.0
  0
SPLINE
  5
18c
100
AcDbEntity
  8
0
 62
7
100
AcDbSpline
 70
8
 71
3
 72
8
 73
4
 74
0
 40
0
 40
0
 40
0
 40
0
 40
1
 40
1
 40
1
 40
1
 10
13.751408
 20
19.999976
 30
0.0
 10
13.751408
 20
17.436103
 30
0.0
 10
14.769658
 20
14.977328
 30
0.0
 10
16.582116
 20
13.164870
 30
0.0
  0
LWPOLYLINE
  5
18d
100
AcDbEntity
  8
0
 62
7
100
AcDbPolyline
 90
3
 70
0
 10
9.747009
 20
26.835082
 30
0.0
 10
13.164877
 20
30.252951
 30
0.0
 10
16.582116
 20
26.835082
 30
0.0
  0
LWPOLYLINE
  5
18e
100
AcDbEntity
  8
0
 62
7
100
AcDbPolyline
 90
2
 70
0
 10
16.582116
 20
13.164870
 30
0.0
 10
13.164877
 20
9.747002
 30
0.0
  0
SPLINE
  5
18f
100
AcDbEntity
  8
0
 62
7
100
AcDbSpline
 70
8
 71
3
 72
8
 73
4
 74
0
 40
0
 40
0
 40
0
 40
0
 40
1
 40
1
 40
1
 40
1
 10
23.417850
 20
13.164870
 30
0.0
 10
25.230308
 20
14.977328
 30
0.0
 10
26.248558
 20
17.436103
 30
0.0
 10
26.248558
 20
19.999976
 30
0.0
  0
SPLINE
  5
190
100
AcDbEntity
  8
0
 62
7
100
AcDbSpline
 70
8
 71
3
 72
8
 73
4
 74
0
 40
0
 40
0
 40
0
 40
0
 40
1
 40
1
 40
1
 40
1
 10
26.248558
 20
19.999976
 30
0.0
 10
26.248558
 20
22.563848
 30
0.0
 10
25.230308
 20
25.022624
 30
0.0
 10
23.417850
 20
26.835082
 30
0.0
  0
LWPOLYLINE
  5
191
100
AcDbEntity
  8
0
 62
7
100
AcDbPolyline
 90
2
 70
0
 10
26.835089
 20
9.747002
 30
0.0
 10
23.417850
 20
13.164870
 30
0.0
  0
SPLINE
  5
192
100
AcDbEntity
  8
0
 62
7
100
AcDbSpline
 70
8
 71
3
 72
8
 73
4
 74
0
 40
0
 40
0
 40
0
 40
0
 40
1
 40
1
 40
1
 40
1
 10
30.252958
 20
26.835082
 30
0.0
 10
28.439870
 20
25.022624
 30
0.0
 10
27.421621
 20
22.563848
 30
0.0
 10
27.421621
 20
19.999976
 30
0.0
  0
SPLINE
  5
193
100
AcDbEntity
  8
0
 62
7
100
AcDbSpline
 70
8
 71
3
 72
8
 73
4
 74
0
 40
0
 40
0
 40
0
 40
0
 40
1
 40
1
 40
1
 40
1
 10
27.421621
 20
19.999976
 30
0.0
 10
27.421621
 20
17.436103
 30
0.0
 10
28.439870
 20
14.977328
 30
0.0
 10
30.252958
 20
13.164870
 30
0.0
  0
LWPOLYLINE
  5
194
100
AcDbEntity
  8
0
 62
7
100
AcDbPolyline
 90
3
 70
0
 10
23.417850
 20
26.835082
 30
0.0
 10
26.835089
 20
30.252951
 30
0.0
 10
30.252958
 20
26.835082
 30
0.0
  0
LWPOLYLINE
  5
195
100
AcDbEntity
  8
0
 62
7
100
AcDbPolyline
 90
2
 70
0
 10
30.252958
 20
13.164870
 30
0.0
 10
26.835089
 20
9.747002
 30
0.0
  0
ENDSEC
  0
SECTION
  2
OBJECTS
  0
DICTIONARY
  5
C
330
0
100
AcDbDictionary
  3
ACAD_GROUP
350
D
  3
ACAD_MLINESTYLE
350
17
  0
DICTIONARY
  5
D
330
C
100
AcDbDictionary
  0
DICTIONARY
  5
1A
330
C
100
AcDbDictionary
  0
DICTIONARY
  5
17
330
C
100
AcDbDictionary
  3
STANDARD
350
18
  0
DICTIONARY
  5
19
330
C
100
AcDbDictionary
  0
ENDSEC
  0
EOF
