<?xml version="1.0" encoding="UTF-8"?>
<svg xmlns="http://www.w3.org/2000/svg" xmlns:xlink="http://www.w3.org/1999/xlink" width="300pt" height="300pt" viewBox="0 0 300 300" version="1.1">
<g id="surface1">
<path style="fill:none;stroke-width:10;stroke-linecap:butt;stroke-linejoin:miter;stroke:rgb(0%,0%,0%);stroke-opacity:1;stroke-miterlimit:10;" d="M 2136.40625 651.484375 L 2348.515625 863.59375 C 2376.640625 835.46875 2392.460938 797.304688 2392.460938 757.539062 C 2392.460938 674.6875 2325.3125 607.539062 2242.460938 607.539062 C 2202.695312 607.539062 2164.53125 623.359375 2136.40625 651.484375 " transform="matrix(0.1,0,0,-0.1,0,300)"/>
<path style="fill:none;stroke-width:10;stroke-linecap:butt;stroke-linejoin:miter;stroke:rgb(0%,0%,0%);stroke-opacity:1;stroke-miterlimit:10;" d="M 1287.851562 651.484375 L 1500 863.59375 L 1712.148438 651.484375 C 1655.898438 595.234375 1579.570312 563.59375 1500 563.59375 C 1420.429688 563.59375 1344.140625 595.234375 1287.851562 651.484375 " transform="matrix(0.1,0,0,-0.1,0,300)"/>
<path style="fill:none;stroke-width:10;stroke-linecap:butt;stroke-linejoin:miter;stroke:rgb(0%,0%,0%);stroke-opacity:1;stroke-miterlimit:10;" d="M 2348.515625 1287.851562 C 2292.265625 1344.140625 2260.664062 1420.429688 2260.664062 1500 C 2260.664062 1579.570312 2292.265625 1655.898438 2348.515625 1712.148438 C 2404.804688 1655.898438 2436.40625 1579.570312 2436.40625 1500 C 2436.40625 1420.429688 2404.804688 1344.140625 2348.515625 1287.851562 " transform="matrix(0.1,0,0,-0.1,0,300)"/>
<path style="fill:none;stroke-width:10;stroke-linecap:butt;stroke-linejoin:miter;stroke:rgb(0%,0%,0%);stroke-opacity:1;stroke-miterlimit:10;" d="M 863.59375 651.484375 L 651.484375 863.59375 C 623.359375 835.46875 607.539062 797.304688 607.539062 757.539062 C 607.539062 674.6875 674.6875 607.539062 757.539062 607.539062 C 797.304688 607.539062 835.46875 623.359375 863.59375 651.484375 " transform="matrix(0.1,0,0,-0.1,0,300)"/>
<path style="fill:none;stroke-width:10;stroke-linecap:butt;stroke-linejoin:miter;stroke:rgb(0%,0%,0%);stroke-opacity:1;stroke-miterlimit:10;" d="M 1500 1287.851562 C 1443.75 1344.140625 1412.148438 1420.429688 1412.148438 1500 C 1412.148438 1579.570312 1443.75 1655.898438 1500 1712.148438 C 1556.25 1655.898438 1587.851562 1579.570312 1587.851562 1500 C 1587.851562 1420.429688 1556.25 1344.140625 1500 1287.851562 " transform="matrix(0.1,0,0,-0.1,0,300)"/>
<path style="fill:none;stroke-width:10;stroke-linecap:butt;stroke-linejoin:miter;stroke:rgb(0%,0%,0%);stroke-opacity:1;stroke-miterlimit:10;" d="M 2348.515625 2136.40625 L 2136.40625 2348.515625 L 2348.515625 2136.40625 C 2376.640625 2164.53125 2392.460938 2202.695312 2392.460938 2242.460938 C 2392.460938 2325.3125 2325.3125 2392.460938 2242.460938 2392.460938 C 2202.695312 2392.460938 2164.53125 2376.640625 2136.40625 2348.515625 " transform="matrix(0.1,0,0,-0.1,0,300)"/>
<path style="fill:none;stroke-width:10;stroke-linecap:butt;stroke-linejoin:miter;stroke:rgb(0%,0%,0%);stroke-opacity:1;stroke-miterlimit:10;" d="M 651.484375 1287.851562 C 595.234375 1344.140625 563.59375 1420.429688 563.59375 1500 C 563.59375 1579.570312 595.234375 1655.898438 651.484375 1712.148438 C 707.734375 1655.898438 739.335938 1579.570312 739.335938 1500 C 739.335938 1420.429688 707.734375 1344.140625 651.484375 1287.851562 " transform="matrix(0.1,0,0,-0.1,0,300)"/>
<path style="fill:none;stroke-width:10;stroke-linecap:butt;stroke-linejoin:miter;stroke:rgb(0%,0%,0%);stroke-opacity:1;stroke-miterlimit:10;" d="M 1712.148438 2348.515625 L 1500 2136.40625 L 1287.851562 2348.515625 C 1344.140625 2404.804688 1420.429688 2436.40625 1500 2436.40625 C 1579.570312 2436.40625 1655.898438 2404.804688 1712.148438 2348.515625 " transform="matrix(0.1,0,0,-0.1,0,300)"/>
<path style="fill:none;stroke-width:10;stroke-linecap:butt;stroke-linejoin:miter;stroke:rgb(0%,0%,0%);stroke-opacity:1;stroke-miterlimit:10;" d="M 863.59375 2348.515625 L 651.484375 2136.40625 C 623.359375 2164.53125 607.539062 2202.695312 607.539062 2242.460938 C 607.539062 2325.3125 674.6875 2392.460938 757.539062 2392.460938 C 797.304688 2392.460938 835.46875 2376.640625 863.59375 2348.515625 " transform="matrix(0.1,0,0,-0.1,0,300)"/>
<path style="fill:none;stroke-width:10;stroke-linecap:butt;stroke-linejoin:miter;stroke:rgb(0%,0%,0%);stroke-opacity:1;stroke-miterlimit:10;" d="M 1146.445312 510.039062 L 1217.148438 580.78125 C 1292.1875 505.742188 1393.90625 463.59375 1500 463.59375 C 1606.09375 463.59375 1707.8125 505.742188 1782.851562 580.78125 L 2207.109375 1005.039062 L 2277.8125 934.296875 L 1853.554688 510.039062 C 1759.804688 416.289062 1632.617188 363.59375 1500 363.59375 C 1367.382812 363.59375 1240.195312 416.289062 1146.445312 510.039062 " transform="matrix(0.1,0,0,-0.1,0,300)"/>
<path style="fill:none;stroke-width:10;stroke-linecap:butt;stroke-linejoin:miter;stroke:rgb(0%,0%,0%);stroke-opacity:1;stroke-miterlimit:10;" d="M 2489.960938 1146.445312 L 2419.257812 1217.148438 C 2494.257812 1292.1875 2536.40625 1393.90625 2536.40625 1500 C 2536.40625 1606.09375 2494.257812 1707.8125 2419.257812 1782.851562 L 1994.960938 2207.109375 L 2065.703125 2277.8125 L 2489.960938 1853.554688 C 2583.710938 1759.804688 2636.40625 1632.617188 2636.40625 1500 C 2636.40625 1367.382812 2583.710938 1240.195312 2489.960938 1146.445312 " transform="matrix(0.1,0,0,-0.1,0,300)"/>
<path style="fill:none;stroke-width:10;stroke-linecap:butt;stroke-linejoin:miter;stroke:rgb(0%,0%,0%);stroke-opacity:1;stroke-miterlimit:10;" d="M 510.039062 1853.554688 L 580.78125 1782.851562 C 505.742188 1707.8125 463.59375 1606.09375 463.59375 1500 C 463.59375 1393.90625 505.742188 1292.1875 580.78125 1217.148438 L 1005.039062 792.890625 L 934.296875 722.1875 L 510.039062 1146.445312 C 416.289062 1240.195312 363.59375 1367.382812 363.59375 1500 C 363.59375 1632.617188 416.289062 1759.804688 510.039062 1853.554688 " transform="matrix(0.1,0,0,-0.1,0,300)"/>
<path style="fill:none;stroke-width:10;stroke-linecap:butt;stroke-linejoin:miter;stroke:rgb(0%,0%,0%);stroke-opacity:1;stroke-miterlimit:10;" d="M 1782.851562 2419.257812 L 1853.554688 2489.960938 C 1759.804688 2583.710938 1632.617188 2636.40625 1500 2636.40625 C 1367.382812 2636.40625 1240.195312 2583.710938 1146.445312 2489.960938 L 722.1875 2065.703125 L 792.890625 1994.960938 L 1217.148438 2419.257812 C 1292.1875 2494.257812 1393.90625 2536.40625 1500 2536.40625 C 1606.09375 2536.40625 1707.8125 2494.257812 1782.851562 2419.257812 " transform="matrix(0.1,0,0,-0.1,0,300)"/>
<path style="fill:none;stroke-width:10;stroke-linecap:butt;stroke-linejoin:miter;stroke:rgb(0%,0%,0%);stroke-opacity:1;stroke-miterlimit:10;" d="M 1641.40625 1146.445312 L 1570.703125 1217.148438 C 1645.703125 1292.1875 1687.851562 1393.90625 1687.851562 1500 C 1687.851562 1606.09375 1645.703125 1707.8125 1570.703125 1782.851562 L 1146.445312 2207.109375 L 1217.148438 2277.8125 L 1641.40625 1853.554688 C 1735.195312 1759.804688 1787.851562 1632.617188 1787.851562 1500 C 1787.851562 1367.382812 1735.195312 1240.195312 1641.40625 1146.445312 " transform="matrix(0.1,0,0,-0.1,0,300)"/>
<path style="fill:none;stroke-width:10;stroke-linecap:butt;stroke-linejoin:miter;stroke:rgb(0%,0%,0%);stroke-opacity:1;stroke-miterlimit:10;" d="M 1358.59375 1853.554688 L 1429.296875 1782.851562 C 1354.296875 1707.8125 1312.148438 1606.09375 1312.148438 1500 C 1312.148438 1393.90625 1354.296875 1292.1875 1429.296875 1217.148438 L 1853.554688 792.890625 L 1782.851562 722.1875 L 1358.59375 1146.445312 C 1264.804688 1240.195312 1212.148438 1367.382812 1212.148438 1500 C 1212.148438 1632.617188 1264.804688 1759.804688 1358.59375 1853.554688 " transform="matrix(0.1,0,0,-0.1,0,300)"/>
<path style="fill:none;stroke-width:10;stroke-linecap:butt;stroke-linejoin:miter;stroke:rgb(0%,0%,0%);stroke-opacity:1;stroke-miterlimit:10;" d="M 2277.8125 1782.851562 C 2202.8125 1707.8125 2160.664062 1606.09375 2160.664062 1500 C 2160.664062 1393.90625 2202.8125 1292.1875 2277.8125 1217.148438 L 2489.960938 1005.039062 C 2555.585938 939.375 2592.460938 850.351562 2592.460938 757.539062 C 2592.460938 564.257812 2435.742188 407.539062 2242.460938 407.539062 C 2149.648438 407.539062 2060.625 444.414062 1994.960938 510.039062 L 2065.703125 580.78125 C 2112.578125 533.867188 2176.171875 507.539062 2242.460938 507.539062 C 2380.546875 507.539062 2492.460938 619.453125 2492.460938 757.539062 C 2492.460938 823.828125 2466.132812 887.421875 2419.257812 934.296875 L 2207.109375 1146.445312 C 2113.359375 1240.195312 2060.664062 1367.382812 2060.664062 1500 C 2060.664062 1632.617188 2113.359375 1759.804688 2207.109375 1853.554688 L 2277.8125 1782.851562 " transform="matrix(0.1,0,0,-0.1,0,300)"/>
<path style="fill:none;stroke-width:10;stroke-linecap:butt;stroke-linejoin:miter;stroke:rgb(0%,0%,0%);stroke-opacity:1;stroke-miterlimit:10;" d="M 792.890625 1146.445312 C 886.640625 1240.195312 939.335938 1367.382812 939.335938 1500 C 939.335938 1632.617188 886.640625 1759.804688 792.890625 1853.554688 L 580.78125 2065.703125 C 533.867188 2112.578125 507.539062 2176.171875 507.539062 2242.460938 C 507.539062 2380.546875 619.453125 2492.460938 757.539062 2492.460938 C 823.828125 2492.460938 887.421875 2466.132812 934.296875 2419.257812 L 1005.039062 2489.960938 C 939.375 2555.585938 850.351562 2592.460938 757.539062 2592.460938 C 564.257812 2592.460938 407.539062 2435.742188 407.539062 2242.460938 C 407.539062 2149.648438 444.414062 2060.625 510.039062 1994.960938 L 722.1875 1782.851562 C 797.1875 1707.8125 839.335938 1606.09375 839.335938 1500 C 839.335938 1393.90625 797.1875 1292.1875 722.1875 1217.148438 L 792.890625 1146.445312 " transform="matrix(0.1,0,0,-0.1,0,300)"/>
<path style="fill:none;stroke-width:10;stroke-linecap:butt;stroke-linejoin:miter;stroke:rgb(0%,0%,0%);stroke-opacity:1;stroke-miterlimit:10;" d="M 1429.296875 934.296875 L 1005.039062 510.039062 C 939.375 444.414062 850.351562 407.539062 757.539062 407.539062 C 564.257812 407.539062 407.539062 564.257812 407.539062 757.539062 C 407.539062 850.351562 444.414062 939.375 510.039062 1005.039062 L 580.78125 934.296875 C 533.867188 887.421875 507.539062 823.828125 507.539062 757.539062 C 507.539062 619.453125 619.453125 507.539062 757.539062 507.539062 C 823.828125 507.539062 887.421875 533.867188 934.296875 580.78125 L 1358.59375 1005.039062 L 1429.296875 934.296875 " transform="matrix(0.1,0,0,-0.1,0,300)"/>
<path style="fill:none;stroke-width:10;stroke-linecap:butt;stroke-linejoin:miter;stroke:rgb(0%,0%,0%);stroke-opacity:1;stroke-miterlimit:10;" d="M 1641.40625 1994.960938 L 2065.703125 2419.257812 C 2112.578125 2466.132812 2176.171875 2492.460938 2242.460938 2492.460938 C 2380.546875 2492.460938 2492.460938 2380.546875 2492.460938 2242.460938 C 2492.460938 2176.171875 2466.132812 2112.578125 2419.257812 2065.703125 L 2489.960938 1994.960938 C 2555.585938 2060.625 2592.460938 2149.648438 2592.460938 2242.460938 C 2592.460938 2435.742188 2435.742188 2592.460938 2242.460938 2592.460938 C 2149.648438 2592.460938 2060.625 2555.585938 1994.960938 2489.960938 L 1570.703125 2065.703125 L 1641.40625 1994.960938 " transform="matrix(0.1,0,0,-0.1,0,300)"/>
<path style="fill:none;stroke-width:10;stroke-linecap:butt;stroke-linejoin:miter;stroke:rgb(0%,0%,0%);stroke-opacity:1;stroke-miterlimit:10;" d="M 1075.742188 863.59375 L 863.59375 1075.742188 C 976.132812 1188.242188 1039.335938 1340.859375 1039.335938 1500 C 1039.335938 1659.140625 976.132812 1811.757812 863.59375 1924.257812 M 863.59375 1924.257812 L 1075.742188 2136.40625 L 1287.851562 1924.257812 C 1175.351562 1811.757812 1112.148438 1659.140625 1112.148438 1500 C 1112.148438 1340.859375 1175.351562 1188.242188 1287.851562 1075.742188 M 1287.851562 1075.742188 L 1075.742188 863.59375 " transform="matrix(0.1,0,0,-0.1,0,300)"/>
<path style="fill:none;stroke-width:10;stroke-linecap:butt;stroke-linejoin:miter;stroke:rgb(0%,0%,0%);stroke-opacity:1;stroke-miterlimit:10;" d="M 1924.257812 863.59375 L 1712.148438 1075.742188 C 1824.648438 1188.242188 1887.851562 1340.859375 1887.851562 1500 C 1887.851562 1659.140625 1824.648438 1811.757812 1712.148438 1924.257812 M 1712.148438 1924.257812 L 1924.257812 2136.40625 L 2136.40625 1924.257812 C 2023.867188 1811.757812 1960.664062 1659.140625 1960.664062 1500 C 1960.664062 1340.859375 2023.867188 1188.242188 2136.40625 1075.742188 M 2136.40625 1075.742188 L 1924.257812 863.59375 " transform="matrix(0.1,0,0,-0.1,0,300)"/>
<path style="fill:none;stroke-width:10;stroke-linecap:butt;stroke-linejoin:miter;stroke:rgb(0%,0%,0%);stroke-opacity:1;stroke-miterlimit:10;" d="M 1924.257812 439.335938 C 1811.757812 326.835938 1659.140625 263.59375 1500 263.59375 C 1340.859375 263.59375 1188.242188 326.835938 1075.742188 439.335938 C 991.367188 354.960938 876.875 307.539062 757.539062 307.539062 C 509.023438 307.539062 307.539062 509.023438 307.539062 757.539062 C 307.539062 876.875 354.960938 991.367188 439.335938 1075.742188 C 326.835938 1188.242188 263.59375 1340.859375 263.59375 1500 C 263.59375 1659.140625 326.835938 1811.757812 439.335938 1924.257812 C 354.960938 2008.632812 307.539062 2123.125 307.539062 2242.460938 C 307.539062 2490.976562 509.023438 2692.460938 757.539062 2692.460938 C 876.875 2692.460938 991.367188 2645.039062 1075.742188 2560.664062 C 1188.242188 2673.164062 1340.859375 2736.40625 1500 2736.40625 C 1659.140625 2736.40625 1811.757812 2673.164062 1924.257812 2560.664062 C 2008.632812 2645.039062 2123.125 2692.460938 2242.460938 2692.460938 C 2490.976562 2692.460938 2692.460938 2490.976562 2692.460938 2242.460938 C 2692.460938 2123.125 2645.039062 2008.632812 2560.664062 1924.257812 C 2673.164062 1811.757812 2736.40625 1659.140625 2736.40625 1500 C 2736.40625 1340.859375 2673.164062 1188.242188 2560.664062 1075.742188 C 2645.039062 991.367188 2692.460938 876.875 2692.460938 757.539062 C 2692.460938 509.023438 2490.976562 307.539062 2242.460938 307.539062 C 2123.125 307.539062 2008.632812 354.960938 1924.257812 439.335938 " transform="matrix(0.1,0,0,-0.1,0,300)"/>
</g>
</svg>
