<?xml version="1.0" encoding="UTF-8" standalone="no"?>
<svg
   width="173.349pt"
   height="85.039368pt"
   viewBox="0 0 173.349 85.039368"
   version="1.1"
   id="svg71"
   sodipodi:docname="twobycurves.svg"
   inkscape:version="1.2.1 (1:1.2.1+202210291244+9c6d41e410)"
   xmlns:inkscape="http://www.inkscape.org/namespaces/inkscape"
   xmlns:sodipodi="http://sodipodi.sourceforge.net/DTD/sodipodi-0.dtd"
   xmlns="http://www.w3.org/2000/svg"
   xmlns:svg="http://www.w3.org/2000/svg">
  <defs
     id="defs75" />
  <sodipodi:namedview
     id="namedview73"
     pagecolor="#ffffff"
     bordercolor="#000000"
     borderopacity="0.25"
     inkscape:showpageshadow="2"
     inkscape:pageopacity="0.0"
     inkscape:pagecheckerboard="0"
     inkscape:deskcolor="#d1d1d1"
     inkscape:document-units="pt"
     showgrid="false"
     inkscape:zoom="1.668772"
     inkscape:cx="385.91251"
     inkscape:cy="118.05088"
     inkscape:window-width="1920"
     inkscape:window-height="1114"
     inkscape:window-x="0"
     inkscape:window-y="28"
     inkscape:window-maximized="1"
     inkscape:current-layer="svg71" />
  <g
     id="surface1"
     transform="matrix(0.36795681,0.36795681,-0.36795681,0.36795681,134.50889,-156.17699)">
    <path
       id="path2"
       style="fill:none;stroke:#000000;stroke-width:10;stroke-linecap:butt;stroke-linejoin:miter;stroke-miterlimit:10;stroke-opacity:1"
       d="m 690.36624,2297.4824 c -63.33978,-63.3398 -102.51322,-150.8434 -102.51322,-247.4839 0,-193.281 156.71609,-349.9972 349.99714,-349.9972 h 662.14614 v 99.9963 H 937.85016 c -138.04673,0 -250.00091,111.9151 -250.00091,250.0009 0,138.0858 111.95418,250.0009 250.00091,250.0009 h 62.14806 v 99.9962 h -62.14806 c -96.64053,0 -184.14414,-39.1734 -247.48392,-102.5132 z"
       transform="matrix(0.1,0,0,-0.1,0,600)" />
    <path
       style="fill:none;stroke:#000000;stroke-width:10;stroke-linecap:butt;stroke-linejoin:miter;stroke-miterlimit:10;stroke-opacity:1"
       d="m 1300,2300 v 100 h 900 v -100 h -900"
       transform="matrix(0.1,0,0,-0.1,0,600)"
       id="path6" />
    <path
       style="fill:none;stroke:#000000;stroke-width:10;stroke-linecap:butt;stroke-linejoin:miter;stroke-miterlimit:10;stroke-opacity:1"
       d="m 1900,2900 v 100 h 900 v -100 h -900"
       transform="matrix(0.1,0,0,-0.1,0,600)"
       id="path8" />
    <path
       id="path10"
       style="fill:none;stroke:#000000;stroke-width:10;stroke-linecap:butt;stroke-linejoin:miter;stroke-miterlimit:10;stroke-opacity:1"
       d="m 2499.9934,3600.0021 0.01,-100.0066 h 662.1461 c 138.0468,0 250.001,-111.9151 250.001,-250.0009 0,-138.0858 -111.9542,-250.0009 -250.001,-250.0009 h -62.148 v -99.9962 h 62.148 c 193.2811,0 349.9972,156.7161 349.9972,349.9971 0,193.2811 -156.7161,349.9971 -349.9972,349.9971 z"
       transform="matrix(0.1,0,0,-0.1,0,600)" />
    <path
       id="path14"
       style="fill:none;stroke:#000000;stroke-width:10;stroke-linecap:butt;stroke-linejoin:miter;stroke-miterlimit:10;stroke-opacity:1"
       d="m 1100.0048,1599.9948 v -62.1481 c 0,-193.2811 156.7161,-349.9971 349.9971,-349.9971 193.2811,0 349.9972,156.716 349.9972,349.9971 v 662.1461 h -99.9962 v -662.1461 c 0,-138.0468 -111.9152,-250.0009 -250.001,-250.0009 -138.0857,0 -250.0009,111.9541 -250.0009,250.0009 v 62.1481 z"
       transform="matrix(0.1,0,0,-0.1,0,600)" />
    <path
       id="path16"
       style="fill:none;stroke:#000000;stroke-width:10;stroke-linecap:butt;stroke-linejoin:miter;stroke-miterlimit:10;stroke-opacity:1"
       d="m 1246.4567,2853.5521 c -90.4833,-90.4833 -146.4519,-215.4836 -146.4519,-353.5499 v -599.998 h 99.9962 v 599.998 c 0,220.8982 179.0971,399.9953 399.9953,399.9953 v 99.9962 c -138.0663,0 -263.0563,-55.9582 -353.5396,-146.4416 z"
       transform="matrix(0.1,0,0,-0.1,0,600)" />
    <path
       id="path20"
       style="fill:none;stroke:#000000;stroke-width:10;stroke-linecap:butt;stroke-linejoin:miter;stroke-miterlimit:10;stroke-opacity:1"
       d="m 1846.4548,3453.5502 c -90.4834,-90.4833 -146.4519,-215.4837 -146.4519,-353.5499 v -599.9981 h 99.9962 v 599.9981 c 0,220.8981 179.0971,399.9952 399.9952,399.9952 l 0.01,100.0066 c -138.0663,0 -263.0666,-55.9686 -353.5499,-146.4519 z"
       transform="matrix(0.1,0,0,-0.1,0,600)" />
    <path
       id="path22"
       style="fill:none;stroke:#000000;stroke-width:10;stroke-linecap:butt;stroke-linejoin:miter;stroke-miterlimit:10;stroke-opacity:1"
       d="m 2300.0009,2799.9909 v -599.9981 c 0,-220.8982 -179.0971,-399.9952 -399.9952,-399.9952 v -99.9963 c 276.1325,0 499.9914,223.859 499.9914,499.9915 l 0.01,600.0084 z"
       transform="matrix(0.1,0,0,-0.1,0,600)" />
    <path
       id="path24"
       style="fill:none;stroke:#000000;stroke-width:10;stroke-linecap:butt;stroke-linejoin:miter;stroke-miterlimit:10;stroke-opacity:1"
       d="m 2402.5141,4009.6303 c -63.3397,-63.3398 -102.5132,-150.8434 -102.5132,-247.4839 v -662.1461 h 99.9962 v 662.1461 c 0,138.0467 111.9152,250.0009 250.001,250.0009 138.0857,0 250.0009,-111.9542 250.0009,-250.0009 v -62.1481 h 99.9962 v 62.1481 c 0,193.2811 -156.716,349.9971 -349.9971,349.9971 -96.6405,0 -184.1442,-39.1734 -247.484,-102.5132 z"
       transform="matrix(0.1,0,0,-0.1,0,600)" />
    <path
       id="path26"
       style="fill:none;stroke:#000000;stroke-width:10;stroke-linecap:butt;stroke-linejoin:miter;stroke-miterlimit:10;stroke-opacity:1"
       d="m 2900.0093,3399.9993 -0.01,-600.0084 c 0,-220.8982 -179.0971,-399.9953 -399.9953,-399.9953 v -99.9962 c 276.1325,0 500.0019,223.8693 500.0019,500.0018 v 599.9981 z"
       transform="matrix(0.1,0,0,-0.1,0,600)" />
    <path
       style="fill:none;stroke:#000000;stroke-width:10;stroke-linecap:butt;stroke-linejoin:miter;stroke-miterlimit:10;stroke-opacity:1"
       d="m 1300,1900 v 300 h 300 v -300 h -300"
       transform="matrix(0.1,0,0,-0.1,0,600)"
       id="path30" />
    <path
       style="fill:none;stroke:#000000;stroke-width:10;stroke-linecap:butt;stroke-linejoin:miter;stroke-miterlimit:10;stroke-opacity:1"
       d="m 1900,2500 v 300 h 300 v -300 h -300"
       transform="matrix(0.1,0,0,-0.1,0,600)"
       id="path32" />
    <path
       style="fill:none;stroke:#000000;stroke-width:10;stroke-linecap:butt;stroke-linejoin:miter;stroke-miterlimit:10;stroke-opacity:1"
       d="m 2500,3100 v 300 h 300 v -300 h -300"
       transform="matrix(0.1,0,0,-0.1,0,600)"
       id="path34" />
    <path
       style="fill:none;stroke:#000000;stroke-width:10;stroke-linecap:butt;stroke-linejoin:miter;stroke-miterlimit:10;stroke-opacity:1"
       d="m 1000,1900 h -62.14844 c -82.8125,0 -150,67.1484 -150,150 0,82.8516 67.1875,150 150,150 H 1000 v -300"
       transform="matrix(0.1,0,0,-0.1,0,600)"
       id="path52" />
    <path
       style="fill:none;stroke:#000000;stroke-width:10;stroke-linecap:butt;stroke-linejoin:miter;stroke-miterlimit:10;stroke-opacity:1"
       d="m 1600,1600 v -62.1484 c 0,-82.8125 -67.1484,-150 -150,-150 -82.8516,0 -150,67.1875 -150,150 V 1600 h 300"
       transform="matrix(0.1,0,0,-0.1,0,600)"
       id="path54" />
    <path
       style="fill:none;stroke:#000000;stroke-width:10;stroke-linecap:butt;stroke-linejoin:miter;stroke-miterlimit:10;stroke-opacity:1"
       d="m 2500,3700 v 62.1484 c 0,82.8125 67.1484,150 150,150 82.8516,0 150,-67.1875 150,-150 V 3700 h -300"
       transform="matrix(0.1,0,0,-0.1,0,600)"
       id="path56" />
    <path
       style="fill:none;stroke:#000000;stroke-width:10;stroke-linecap:butt;stroke-linejoin:miter;stroke-miterlimit:10;stroke-opacity:1"
       d="m 3100,3400 h 62.1484 c 82.8125,0 150,-67.1484 150,-150 0,-82.8516 -67.1875,-150 -150,-150 H 3100 v 300"
       transform="matrix(0.1,0,0,-0.1,0,600)"
       id="path58" />
    <path
       style="fill:none;stroke:#000000;stroke-width:10;stroke-linecap:butt;stroke-linejoin:miter;stroke-miterlimit:10;stroke-opacity:1"
       d="m 1300,2500 h 300 v 300 c -165.6641,0 -300,-134.3359 -300,-300"
       transform="matrix(0.1,0,0,-0.1,0,600)"
       id="path60" />
    <path
       style="fill:none;stroke:#000000;stroke-width:10;stroke-linecap:butt;stroke-linejoin:miter;stroke-miterlimit:10;stroke-opacity:1"
       d="m 1900,3100 h 300 v 300 c -165.6641,0 -300,-134.3359 -300,-300"
       transform="matrix(0.1,0,0,-0.1,0,600)"
       id="path62" />
    <path
       style="fill:none;stroke:#000000;stroke-width:10;stroke-linecap:butt;stroke-linejoin:miter;stroke-miterlimit:10;stroke-opacity:1"
       d="m 2200,2200 h -300 v -300 c 165.6641,0 300,134.3359 300,300"
       transform="matrix(0.1,0,0,-0.1,0,600)"
       id="path64" />
    <path
       style="fill:none;stroke:#000000;stroke-width:10;stroke-linecap:butt;stroke-linejoin:miter;stroke-miterlimit:10;stroke-opacity:1"
       d="m 2800,2800 h -300 v -300 c 165.6641,0 300,134.3359 300,300"
       transform="matrix(0.1,0,0,-0.1,0,600)"
       id="path66" />
    <path
       style="fill:none;stroke:#000000;stroke-width:10;stroke-linecap:butt;stroke-linejoin:miter;stroke-miterlimit:10;stroke-opacity:1"
       d="m 1000,1600 h -62.14844 c -248.51562,0 -450,201.4844 -450,450 0,248.5156 201.48438,450 450,450 H 1000 c 0,331.3672 268.6328,600 600,600 0,331.3672 268.6328,600 600,600 v 62.1484 c 0,248.5157 201.4844,450 450,450 248.5156,0 450,-201.4843 450,-450 V 3700 h 62.1484 c 248.5157,0 450,-201.4844 450,-450 0,-248.5156 -201.4843,-450 -450,-450 H 3100 c 0,-331.3672 -268.6328,-600 -600,-600 0,-331.3672 -268.6328,-600 -600,-600 v -62.1484 c 0,-248.5157 -201.4844,-450 -450,-450 -248.5156,0 -450,201.4843 -450,450 V 1600"
       transform="matrix(0.1,0,0,-0.1,0,600)"
       id="path68" />
  </g>
</svg>
