  0
SECTION
  2
HEADER
  9
$ACADVER
  1
AC1014
  9
$HANDSEED
  5
FFFF
  9
$MEASUREMENT
 70
     1
  0
ENDSEC
  0
SECTION
  2
TABLES
  0
TABLE
  2
VPORT
  5
8
330
0
100
AcDbSymbolTable
 70
     4
  0
VPORT
  5
2E
330
8
100
AcDbSymbolTableRecord
100
AcDbViewportTableRecord
  2
*ACTIVE
 70
     0
 10
0.0
 20
0.0
 11
1.0
 21
1.0
 12
210.0
 22
148.5
 13
0.0
 23
0.0
 14
10.0
 24
10.0
 15
10.0
 25
10.0
 16
0.0
 26
0.0
 36
1.0
 17
0.0
 27
0.0
 37
0.0
 40
341.0
 41
1.24
 42
50.0
 43
0.0
 44
0.0
 50
0.0
 51
0.0
 71
     0
 72
   100
 73
     1
 74
     3
 75
     0
 76
     0
 77
     0
 78
     0
  0
ENDTAB
  0
TABLE
  2
LTYPE
  5
5
330
0
100
AcDbSymbolTable
 70
     1
  0
LTYPE
  5
14
330
5
100
AcDbSymbolTableRecord
100
AcDbLinetypeTableRecord
  2
BYBLOCK
 70
     0
  3

 72
    65
 73
     0
 40
0.0
  0
LTYPE
  5
15
330
5
100
AcDbSymbolTableRecord
100
AcDbLinetypeTableRecord
  2
BYLAYER
 70
     0
  3

 72
    65
 73
     0
 40
0.0
  0
LTYPE
  5
16
330
5
100
AcDbSymbolTableRecord
100
AcDbLinetypeTableRecord
  2
CONTINUOUS
 70
     0
  3
Solid line
 72
    65
 73
     0
 40
0.0
  0
ENDTAB
  0
TABLE
  2
LAYER
  5
2
100
AcDbSymbolTable
 70
1
  0
LAYER
  5
50
100
AcDbSymbolTableRecord
100
AcDbLayerTableRecord
  2
0
 70
0
  6
CONTINUOUS
  0
ENDTAB
  0
TABLE
  2
STYLE
  5
3
330
0
100
AcDbSymbolTable
 70
     1
  0
STYLE
  5
11
330
3
100
AcDbSymbolTableRecord
100
AcDbTextStyleTableRecord
  2
STANDARD
 70
     0
 40
0.0
 41
1.0
 50
0.0
 71
     0
 42
2.5
  3
txt
  4

  0
ENDTAB
  0
TABLE
  2
VIEW
  5
6
330
0
100
AcDbSymbolTable
 70
     0
  0
ENDTAB
  0
TABLE
  2
UCS
  5
7
330
0
100
AcDbSymbolTable
 70
     0
  0
ENDTAB
  0
TABLE
  2
APPID
  5
9
330
0
100
AcDbSymbolTable
 70
     2
  0
APPID
  5
12
330
9
100
AcDbSymbolTableRecord
100
AcDbRegAppTableRecord
  2
ACAD
 70
     0
  0
ENDTAB
  0
TABLE
  2
DIMSTYLE
  5
A
330
0
100
AcDbSymbolTable
 70
     1
  0
DIMSTYLE
105
27
330
A
100
AcDbSymbolTableRecord
100
AcDbDimStyleTableRecord
  2
ISO-25
 70
     0
  3

  4

  5

  6

  7

 40
1.0
 41
2.5
 42
0.625
 43
3.75
 44
1.25
 45
0.0
 46
0.0
 47
0.0
 48
0.0
140
2.5
141
2.5
142
0.0
143
0.03937007874016
144
1.0
145
0.0
146
1.0
147
0.625
 71
     0
 72
     0
 73
     0
 74
     0
 75
     0
 76
     0
 77
     1
 78
     8
170
     0
171
     3
172
     1
173
     0
174
     0
175
     0
176
     0
177
     0
178
     0
270
     2
271
     2
272
     2
273
     2
274
     3
340
11
275
     0
280
     0
281
     0
282
     0
283
     0
284
     8
285
     0
286
     0
287
     3
288
     0
  0
ENDTAB
  0
TABLE
  2
BLOCK_RECORD
  5
1
330
0
100
AcDbSymbolTable
 70
     1
  0
BLOCK_RECORD
  5
1F
330
1
100
AcDbSymbolTableRecord
100
AcDbBlockTableRecord
  2
*MODEL_SPACE
  0
BLOCK_RECORD
  5
1B
330
1
100
AcDbSymbolTableRecord
100
AcDbBlockTableRecord
  2
*PAPER_SPACE
  0
ENDTAB
  0
ENDSEC
  0
SECTION
  2
BLOCKS
  0
BLOCK
  5
20
330
1F
100
AcDbEntity
  8
0
100
AcDbBlockBegin
  2
*MODEL_SPACE
 70
     0
 10
0.0
 20
0.0
 30
0.0
  3
*MODEL_SPACE
  1

  0
ENDBLK
  5
21
330
1F
100
AcDbEntity
  8
0
100
AcDbBlockEnd
  0
BLOCK
  5
1C
330
1B
100
AcDbEntity
 67
     1
  8
0
100
AcDbBlockBegin
  2
*PAPER_SPACE
  1

  0
ENDBLK
  5
1D
330
1B
100
AcDbEntity
 67
     1
  8
0
100
AcDbBlockEnd
  0
ENDSEC
  0
SECTION
  2
ENTITIES
  0
SPLINE
  5
100
100
AcDbEntity
  8
0
 62
7
100
AcDbSpline
 70
8
 71
3
 72
8
 73
4
 74
0
 40
0
 40
0
 40
0
 40
0
 40
1
 40
1
 40
1
 40
1
 10
8.351934
 20
28.073033
 30
0.0
 10
6.707544
 20
28.073033
 30
0.0
 10
5.063188
 20
27.445674
 30
0.0
 10
3.808726
 20
26.191212
 30
0.0
  0
SPLINE
  5
101
100
AcDbEntity
  8
0
 62
7
100
AcDbSpline
 70
8
 71
3
 72
8
 73
4
 74
0
 40
0
 40
0
 40
0
 40
0
 40
1
 40
1
 40
1
 40
1
 10
3.808726
 20
26.191212
 30
0.0
 10
1.299803
 20
23.682290
 30
0.0
 10
1.299802
 20
19.613719
 30
0.0
 10
3.808725
 20
17.104795
 30
0.0
  0
SPLINE
  5
102
100
AcDbEntity
  8
0
 62
7
100
AcDbSpline
 70
8
 71
3
 72
8
 73
4
 74
0
 40
0
 40
0
 40
0
 40
0
 40
1
 40
1
 40
1
 40
1
 10
5.106747
 20
18.402817
 30
0.0
 10
3.314804
 20
20.194761
 30
0.0
 10
3.314297
 20
23.100741
 30
0.0
 10
5.106747
 20
24.893191
 30
0.0
  0
SPLINE
  5
103
100
AcDbEntity
  8
0
 62
7
100
AcDbSpline
 70
8
 71
3
 72
8
 73
4
 74
0
 40
0
 40
0
 40
0
 40
0
 40
1
 40
1
 40
1
 40
1
 10
5.106747
 20
24.893191
 30
0.0
 10
6.899198
 20
26.685642
 30
0.0
 10
9.805178
 20
26.685134
 30
0.0
 10
11.597121
 20
24.893191
 30
0.0
  0
LWPOLYLINE
  5
104
100
AcDbEntity
  8
0
 62
7
100
AcDbPolyline
 90
4
 70
0
 10
3.808725
 20
17.104795
 30
0.0
 10
12.403846
 20
8.509675
 30
0.0
 10
13.701868
 20
9.807697
 30
0.0
 10
5.106747
 20
18.402817
 30
0.0
  0
SPLINE
  5
105
100
AcDbEntity
  8
0
 62
7
100
AcDbSpline
 70
8
 71
3
 72
8
 73
4
 74
0
 40
0
 40
0
 40
0
 40
0
 40
1
 40
1
 40
1
 40
1
 10
12.895142
 20
26.191212
 30
0.0
 10
11.640680
 20
27.445674
 30
0.0
 10
9.996324
 20
28.073034
 30
0.0
 10
8.351934
 20
28.073033
 30
0.0
  0
LWPOLYLINE
  5
106
100
AcDbEntity
  8
0
 62
7
100
AcDbPolyline
 90
4
 70
0
 10
11.597121
 20
24.893191
 30
0.0
 10
12.403846
 20
24.086466
 30
0.0
 10
13.701867
 20
25.384486
 30
0.0
 10
12.895142
 20
26.191212
 30
0.0
  0
LWPOLYLINE
  5
107
100
AcDbEntity
  8
0
 62
7
100
AcDbPolyline
 90
1
 70
1
 10
8.351934
 20
28.073033
 30
0.0
  0
LWPOLYLINE
  5
108
100
AcDbEntity
  8
0
 62
7
100
AcDbPolyline
 90
4
 70
1
 10
16.298087
 20
20.192240
 30
0.0
 10
17.596157
 20
21.490310
 30
0.0
 10
29.278788
 20
9.807680
 30
0.0
 10
27.980718
 20
8.509610
 30
0.0
  0
LWPOLYLINE
  5
109
100
AcDbEntity
  8
0
 62
7
100
AcDbPolyline
 90
4
 70
1
 10
31.874928
 20
20.192240
 30
0.0
 10
33.172998
 20
21.490310
 30
0.0
 10
44.855628
 20
9.807680
 30
0.0
 10
43.557558
 20
8.509610
 30
0.0
  0
SPLINE
  5
10a
100
AcDbEntity
  8
0
 62
7
100
AcDbSpline
 70
8
 71
3
 72
8
 73
4
 74
0
 40
0
 40
0
 40
0
 40
0
 40
1
 40
1
 40
1
 40
1
 10
56.046874
 20
11.597018
 30
0.0
 10
57.838818
 20
9.805073
 30
0.0
 10
57.839326
 20
6.899093
 30
0.0
 10
56.046875
 20
5.106643
 30
0.0
  0
SPLINE
  5
10b
100
AcDbEntity
  8
0
 62
7
100
AcDbSpline
 70
8
 71
3
 72
8
 73
4
 74
0
 40
0
 40
0
 40
0
 40
0
 40
1
 40
1
 40
1
 40
1
 10
56.046875
 20
5.106643
 30
0.0
 10
54.254425
 20
3.314192
 30
0.0
 10
51.348445
 20
3.314700
 30
0.0
 10
49.556501
 20
5.106644
 30
0.0
  0
LWPOLYLINE
  5
10c
100
AcDbEntity
  8
0
 62
7
100
AcDbPolyline
 90
3
 70
0
 10
48.749780
 20
21.490423
 30
0.0
 10
47.451754
 20
20.192138
 30
0.0
 10
56.046874
 20
11.597018
 30
0.0
  0
SPLINE
  5
10d
100
AcDbEntity
  8
0
 62
7
100
AcDbSpline
 70
8
 71
3
 72
8
 73
4
 74
0
 40
0
 40
0
 40
0
 40
0
 40
1
 40
1
 40
1
 40
1
 10
48.258480
 20
3.808623
 30
0.0
 10
50.767404
 20
1.299699
 30
0.0
 10
54.835973
 20
1.299699
 30
0.0
 10
57.344896
 20
3.808622
 30
0.0
  0
SPLINE
  5
10e
100
AcDbEntity
  8
0
 62
7
100
AcDbSpline
 70
8
 71
3
 72
8
 73
4
 74
0
 40
0
 40
0
 40
0
 40
0
 40
1
 40
1
 40
1
 40
1
 10
57.344896
 20
3.808622
 30
0.0
 10
59.853820
 20
6.317546
 30
0.0
 10
59.853819
 20
10.386114
 30
0.0
 10
57.344895
 20
12.895038
 30
0.0
  0
LWPOLYLINE
  5
10f
100
AcDbEntity
  8
0
 62
7
100
AcDbPolyline
 90
4
 70
0
 10
49.556501
 20
5.106644
 30
0.0
 10
48.749776
 20
5.913369
 30
0.0
 10
47.451755
 20
4.615348
 30
0.0
 10
48.258480
 20
3.808623
 30
0.0
  0
LWPOLYLINE
  5
110
100
AcDbEntity
  8
0
 62
7
100
AcDbPolyline
 90
2
 70
0
 10
57.344895
 20
12.895038
 30
0.0
 10
48.749780
 20
21.490423
 30
0.0
  0
SPLINE
  5
111
100
AcDbEntity
  8
0
 62
7
100
AcDbSpline
 70
8
 71
3
 72
8
 73
4
 74
0
 40
0
 40
0
 40
0
 40
0
 40
1
 40
1
 40
1
 40
1
 10
3.808726
 20
12.895034
 30
0.0
 10
1.299802
 20
10.386110
 30
0.0
 10
1.299803
 20
6.317542
 30
0.0
 10
3.808726
 20
3.808619
 30
0.0
  0
SPLINE
  5
112
100
AcDbEntity
  8
0
 62
7
100
AcDbSpline
 70
8
 71
3
 72
8
 73
4
 74
0
 40
0
 40
0
 40
0
 40
0
 40
1
 40
1
 40
1
 40
1
 10
3.808726
 20
3.808619
 30
0.0
 10
6.317650
 20
1.299695
 30
0.0
 10
10.386218
 20
1.299694
 30
0.0
 10
12.895142
 20
3.808618
 30
0.0
  0
LWPOLYLINE
  5
113
100
AcDbEntity
  8
0
 62
7
100
AcDbPolyline
 90
2
 70
0
 10
4.615452
 20
13.701760
 30
0.0
 10
3.808726
 20
12.895034
 30
0.0
  0
SPLINE
  5
114
100
AcDbEntity
  8
0
 62
7
100
AcDbSpline
 70
8
 71
3
 72
8
 73
4
 74
0
 40
0
 40
0
 40
0
 40
0
 40
1
 40
1
 40
1
 40
1
 10
11.597121
 20
5.106639
 30
0.0
 10
9.805177
 20
3.314695
 30
0.0
 10
6.899197
 20
3.314190
 30
0.0
 10
5.106747
 20
5.106640
 30
0.0
  0
SPLINE
  5
115
100
AcDbEntity
  8
0
 62
7
100
AcDbSpline
 70
8
 71
3
 72
8
 73
4
 74
0
 40
0
 40
0
 40
0
 40
0
 40
1
 40
1
 40
1
 40
1
 10
5.106747
 20
5.106640
 30
0.0
 10
3.314298
 20
6.899089
 30
0.0
 10
3.314802
 20
9.805070
 30
0.0
 10
5.106747
 20
11.597014
 30
0.0
  0
LWPOLYLINE
  5
116
100
AcDbEntity
  8
0
 62
7
100
AcDbPolyline
 90
4
 70
0
 10
12.895142
 20
3.808618
 30
0.0
 10
21.490262
 20
12.403738
 30
0.0
 10
20.192242
 20
13.701759
 30
0.0
 10
11.597121
 20
5.106639
 30
0.0
  0
SPLINE
  5
117
100
AcDbEntity
  8
0
 62
7
100
AcDbSpline
 70
8
 71
3
 72
8
 73
4
 74
0
 40
0
 40
0
 40
0
 40
0
 40
1
 40
1
 40
1
 40
1
 10
22.788552
 20
28.072764
 30
0.0
 10
20.439479
 20
28.072764
 30
0.0
 10
18.090375
 20
27.176684
 30
0.0
 10
16.298178
 20
25.384487
 30
0.0
  0
LWPOLYLINE
  5
118
100
AcDbEntity
  8
0
 62
7
100
AcDbPolyline
 90
3
 70
0
 10
5.106747
 20
11.597014
 30
0.0
 10
5.913472
 20
12.403740
 30
0.0
 10
4.615452
 20
13.701760
 30
0.0
  0
SPLINE
  5
119
100
AcDbEntity
  8
0
 62
7
100
AcDbSpline
 70
8
 71
3
 72
8
 73
4
 74
0
 40
0
 40
0
 40
0
 40
0
 40
1
 40
1
 40
1
 40
1
 10
17.596199
 20
24.086466
 30
0.0
 10
20.463612
 20
26.953879
 30
0.0
 10
25.113224
 20
26.953879
 30
0.0
 10
27.980637
 20
24.086466
 30
0.0
  0
LWPOLYLINE
  5
11a
100
AcDbEntity
  8
0
 62
7
100
AcDbPolyline
 90
4
 70
0
 10
16.298178
 20
25.384487
 30
0.0
 10
8.509784
 20
17.596092
 30
0.0
 10
9.807805
 20
16.298072
 30
0.0
 10
17.596199
 20
24.086466
 30
0.0
  0
SPLINE
  5
11b
100
AcDbEntity
  8
0
 62
7
100
AcDbSpline
 70
8
 71
3
 72
8
 73
4
 74
0
 40
0
 40
0
 40
0
 40
0
 40
1
 40
1
 40
1
 40
1
 10
29.278658
 20
25.384487
 30
0.0
 10
27.486461
 20
27.176684
 30
0.0
 10
25.137626
 20
28.072765
 30
0.0
 10
22.788552
 20
28.072764
 30
0.0
  0
LWPOLYLINE
  5
11c
100
AcDbEntity
  8
0
 62
7
100
AcDbPolyline
 90
2
 70
0
 10
27.980637
 20
24.086466
 30
0.0
 10
29.278658
 20
25.384487
 30
0.0
  0
SPLINE
  5
11d
100
AcDbEntity
  8
0
 62
7
100
AcDbSpline
 70
8
 71
3
 72
8
 73
4
 74
0
 40
0
 40
0
 40
0
 40
0
 40
1
 40
1
 40
1
 40
1
 10
38.365343
 20
28.072764
 30
0.0
 10
36.016268
 20
28.072765
 30
0.0
 10
33.667165
 20
27.176683
 30
0.0
 10
31.874969
 20
25.384487
 30
0.0
  0
LWPOLYLINE
  5
11e
100
AcDbEntity
  8
0
 62
7
100
AcDbPolyline
 90
1
 70
1
 10
22.788552
 20
28.072764
 30
0.0
  0
SPLINE
  5
11f
100
AcDbEntity
  8
0
 62
7
100
AcDbSpline
 70
8
 71
3
 72
8
 73
4
 74
0
 40
0
 40
0
 40
0
 40
0
 40
1
 40
1
 40
1
 40
1
 10
33.172990
 20
24.086466
 30
0.0
 10
36.040402
 20
26.953878
 30
0.0
 10
40.690014
 20
26.953878
 30
0.0
 10
43.557426
 20
24.086466
 30
0.0
  0
LWPOLYLINE
  5
120
100
AcDbEntity
  8
0
 62
7
100
AcDbPolyline
 90
4
 70
0
 10
31.874969
 20
25.384487
 30
0.0
 10
24.086574
 20
17.596091
 30
0.0
 10
25.384594
 20
16.298070
 30
0.0
 10
33.172990
 20
24.086466
 30
0.0
  0
SPLINE
  5
121
100
AcDbEntity
  8
0
 62
7
100
AcDbSpline
 70
8
 71
3
 72
8
 73
4
 74
0
 40
0
 40
0
 40
0
 40
0
 40
1
 40
1
 40
1
 40
1
 10
44.855711
 20
25.384492
 30
0.0
 10
43.063514
 20
27.176689
 30
0.0
 10
40.714411
 20
28.072769
 30
0.0
 10
38.365338
 20
28.072769
 30
0.0
  0
LWPOLYLINE
  5
122
100
AcDbEntity
  8
0
 62
7
100
AcDbPolyline
 90
2
 70
0
 10
43.557426
 20
24.086466
 30
0.0
 10
44.855711
 20
25.384492
 30
0.0
  0
LWPOLYLINE
  5
123
100
AcDbEntity
  8
0
 62
7
100
AcDbPolyline
 90
1
 70
1
 10
38.365338
 20
28.072769
 30
0.0
  0
SPLINE
  5
124
100
AcDbEntity
  8
0
 62
7
100
AcDbSpline
 70
8
 71
3
 72
8
 73
4
 74
0
 40
0
 40
0
 40
0
 40
0
 40
1
 40
1
 40
1
 40
1
 10
27.980636
 20
5.913365
 30
0.0
 10
25.113223
 20
3.045951
 30
0.0
 10
20.463612
 20
3.045953
 30
0.0
 10
17.596200
 20
5.913365
 30
0.0
  0
LWPOLYLINE
  5
125
100
AcDbEntity
  8
0
 62
7
100
AcDbPolyline
 90
2
 70
0
 10
35.769031
 20
13.701760
 30
0.0
 10
27.980636
 20
5.913365
 30
0.0
  0
SPLINE
  5
126
100
AcDbEntity
  8
0
 62
7
100
AcDbSpline
 70
8
 71
3
 72
8
 73
4
 74
0
 40
0
 40
0
 40
0
 40
0
 40
1
 40
1
 40
1
 40
1
 10
16.298178
 20
4.615343
 30
0.0
 10
19.882571
 20
1.030949
 30
0.0
 10
25.694263
 20
1.030951
 30
0.0
 10
29.278657
 20
4.615344
 30
0.0
  0
LWPOLYLINE
  5
127
100
AcDbEntity
  8
0
 62
7
100
AcDbPolyline
 90
2
 70
0
 10
17.596200
 20
5.913365
 30
0.0
 10
16.298178
 20
4.615343
 30
0.0
  0
SPLINE
  5
128
100
AcDbEntity
  8
0
 62
7
100
AcDbSpline
 70
8
 71
3
 72
8
 73
4
 74
0
 40
0
 40
0
 40
0
 40
0
 40
1
 40
1
 40
1
 40
1
 10
52.801691
 20
28.073034
 30
0.0
 10
51.157303
 20
28.073032
 30
0.0
 10
49.512945
 20
27.445674
 30
0.0
 10
48.258484
 20
26.191213
 30
0.0
  0
LWPOLYLINE
  5
129
100
AcDbEntity
  8
0
 62
7
100
AcDbPolyline
 90
3
 70
0
 10
29.278657
 20
4.615344
 30
0.0
 10
37.067316
 20
12.403743
 30
0.0
 10
35.769031
 20
13.701760
 30
0.0
  0
SPLINE
  5
12a
100
AcDbEntity
  8
0
 62
7
100
AcDbSpline
 70
8
 71
3
 72
8
 73
4
 74
0
 40
0
 40
0
 40
0
 40
0
 40
1
 40
1
 40
1
 40
1
 10
49.556504
 20
24.893192
 30
0.0
 10
51.348447
 20
26.685135
 30
0.0
 10
54.254429
 20
26.685641
 30
0.0
 10
56.046879
 20
24.893191
 30
0.0
  0
SPLINE
  5
12b
100
AcDbEntity
  8
0
 62
7
100
AcDbSpline
 70
8
 71
3
 72
8
 73
4
 74
0
 40
0
 40
0
 40
0
 40
0
 40
1
 40
1
 40
1
 40
1
 10
56.046879
 20
24.893191
 30
0.0
 10
57.839328
 20
23.100741
 30
0.0
 10
57.838822
 20
20.194760
 30
0.0
 10
56.046879
 20
18.402817
 30
0.0
  0
LWPOLYLINE
  5
12c
100
AcDbEntity
  8
0
 62
7
100
AcDbPolyline
 90
4
 70
0
 10
48.258484
 20
26.191213
 30
0.0
 10
39.663364
 20
17.596092
 30
0.0
 10
40.961384
 20
16.298072
 30
0.0
 10
49.556504
 20
24.893192
 30
0.0
  0
SPLINE
  5
12d
100
AcDbEntity
  8
0
 62
7
100
AcDbSpline
 70
8
 71
3
 72
8
 73
4
 74
0
 40
0
 40
0
 40
0
 40
0
 40
1
 40
1
 40
1
 40
1
 10
57.344900
 20
17.104796
 30
0.0
 10
59.853824
 20
19.613720
 30
0.0
 10
59.853824
 20
23.682287
 30
0.0
 10
57.344900
 20
26.191211
 30
0.0
  0
SPLINE
  5
12e
100
AcDbEntity
  8
0
 62
7
100
AcDbSpline
 70
8
 71
3
 72
8
 73
4
 74
0
 40
0
 40
0
 40
0
 40
0
 40
1
 40
1
 40
1
 40
1
 10
57.344900
 20
26.191211
 30
0.0
 10
56.090439
 20
27.445673
 30
0.0
 10
54.446081
 20
28.073034
 30
0.0
 10
52.801691
 20
28.073034
 30
0.0
  0
LWPOLYLINE
  5
12f
100
AcDbEntity
  8
0
 62
7
100
AcDbPolyline
 90
4
 70
0
 10
56.046879
 20
18.402817
 30
0.0
 10
55.240153
 20
17.596091
 30
0.0
 10
56.538174
 20
16.298070
 30
0.0
 10
57.344900
 20
17.104796
 30
0.0
  0
LWPOLYLINE
  5
130
100
AcDbEntity
  8
0
 62
7
100
AcDbPolyline
 90
1
 70
1
 10
52.801691
 20
28.073034
 30
0.0
  0
SPLINE
  5
131
100
AcDbEntity
  8
0
 62
7
100
AcDbSpline
 70
8
 71
3
 72
8
 73
4
 74
0
 40
0
 40
0
 40
0
 40
0
 40
1
 40
1
 40
1
 40
1
 10
43.557431
 20
5.913361
 30
0.0
 10
40.690018
 20
3.045947
 30
0.0
 10
36.040406
 20
3.045947
 30
0.0
 10
33.172993
 20
5.913361
 30
0.0
  0
LWPOLYLINE
  5
132
100
AcDbEntity
  8
0
 62
7
100
AcDbPolyline
 90
2
 70
0
 10
51.346090
 20
13.701760
 30
0.0
 10
43.557431
 20
5.913361
 30
0.0
  0
SPLINE
  5
133
100
AcDbEntity
  8
0
 62
7
100
AcDbSpline
 70
8
 71
3
 72
8
 73
4
 74
0
 40
0
 40
0
 40
0
 40
0
 40
1
 40
1
 40
1
 40
1
 10
31.874972
 20
4.615340
 30
0.0
 10
35.459365
 20
1.030947
 30
0.0
 10
41.271327
 20
1.030946
 30
0.0
 10
44.855720
 20
4.615339
 30
0.0
  0
LWPOLYLINE
  5
134
100
AcDbEntity
  8
0
 62
7
100
AcDbPolyline
 90
2
 70
0
 10
33.172993
 20
5.913361
 30
0.0
 10
31.874972
 20
4.615340
 30
0.0
  0
LWPOLYLINE
  5
135
100
AcDbEntity
  8
0
 62
7
100
AcDbPolyline
 90
3
 70
0
 10
44.855720
 20
4.615339
 30
0.0
 10
52.644116
 20
12.403734
 30
0.0
 10
51.346090
 20
13.701760
 30
0.0
  0
LWPOLYLINE
  5
136
100
AcDbEntity
  8
0
 62
7
100
AcDbPolyline
 90
4
 70
1
 10
11.105807
 20
14.999960
 30
0.0
 10
15.000017
 20
18.894170
 30
0.0
 10
18.894227
 20
14.999960
 30
0.0
 10
15.000017
 20
11.105750
 30
0.0
  0
LWPOLYLINE
  5
137
100
AcDbEntity
  8
0
 62
7
100
AcDbPolyline
 90
4
 70
1
 10
26.682648
 20
14.999960
 30
0.0
 10
30.576858
 20
18.894170
 30
0.0
 10
34.471068
 20
14.999960
 30
0.0
 10
30.576858
 20
11.105750
 30
0.0
  0
LWPOLYLINE
  5
138
100
AcDbEntity
  8
0
 62
7
100
AcDbPolyline
 90
4
 70
1
 10
42.259488
 20
14.999960
 30
0.0
 10
46.153698
 20
18.894170
 30
0.0
 10
50.047908
 20
14.999960
 30
0.0
 10
46.153698
 20
11.105750
 30
0.0
  0
SPLINE
  5
139
100
AcDbEntity
  8
0
 62
7
100
AcDbSpline
 70
8
 71
3
 72
8
 73
4
 74
0
 40
0
 40
0
 40
0
 40
0
 40
1
 40
1
 40
1
 40
1
 10
6.404867
 20
19.700901
 30
0.0
 10
5.329903
 20
20.775865
 30
0.0
 10
5.329395
 20
22.519639
 30
0.0
 10
6.404867
 20
23.595111
 30
0.0
  0
SPLINE
  5
13a
100
AcDbEntity
  8
0
 62
7
100
AcDbSpline
 70
8
 71
3
 72
8
 73
4
 74
0
 40
0
 40
0
 40
0
 40
0
 40
1
 40
1
 40
1
 40
1
 10
6.404867
 20
23.595111
 30
0.0
 10
7.480339
 20
24.670582
 30
0.0
 10
9.224113
 20
24.670075
 30
0.0
 10
10.299077
 20
23.595111
 30
0.0
  0
LWPOLYLINE
  5
13b
100
AcDbEntity
  8
0
 62
7
100
AcDbPolyline
 90
2
 70
0
 10
7.211597
 20
18.894170
 30
0.0
 10
6.404867
 20
19.700901
 30
0.0
  0
LWPOLYLINE
  5
13c
100
AcDbEntity
  8
0
 62
7
100
AcDbPolyline
 90
3
 70
0
 10
10.299077
 20
23.595111
 30
0.0
 10
11.105807
 20
22.788380
 30
0.0
 10
7.211597
 20
18.894170
 30
0.0
  0
SPLINE
  5
13d
100
AcDbEntity
  8
0
 62
7
100
AcDbSpline
 70
8
 71
3
 72
8
 73
4
 74
0
 40
0
 40
0
 40
0
 40
0
 40
1
 40
1
 40
1
 40
1
 10
10.299077
 20
6.404810
 30
0.0
 10
9.224113
 20
5.329846
 30
0.0
 10
7.480339
 20
5.329338
 30
0.0
 10
6.404867
 20
6.404810
 30
0.0
  0
SPLINE
  5
13e
100
AcDbEntity
  8
0
 62
7
100
AcDbSpline
 70
8
 71
3
 72
8
 73
4
 74
0
 40
0
 40
0
 40
0
 40
0
 40
1
 40
1
 40
1
 40
1
 10
6.404867
 20
6.404810
 30
0.0
 10
5.329395
 20
7.480282
 30
0.0
 10
5.329903
 20
9.224056
 30
0.0
 10
6.404867
 20
10.299020
 30
0.0
  0
LWPOLYLINE
  5
13f
100
AcDbEntity
  8
0
 62
7
100
AcDbPolyline
 90
2
 70
0
 10
11.105807
 20
7.211540
 30
0.0
 10
10.299077
 20
6.404810
 30
0.0
  0
LWPOLYLINE
  5
140
100
AcDbEntity
  8
0
 62
7
100
AcDbPolyline
 90
3
 70
0
 10
6.404867
 20
10.299020
 30
0.0
 10
7.211597
 20
11.105750
 30
0.0
 10
11.105807
 20
7.211540
 30
0.0
  0
SPLINE
  5
141
100
AcDbEntity
  8
0
 62
7
100
AcDbSpline
 70
8
 71
3
 72
8
 73
4
 74
0
 40
0
 40
0
 40
0
 40
0
 40
1
 40
1
 40
1
 40
1
 10
50.854638
 20
23.595110
 30
0.0
 10
51.929602
 20
24.670074
 30
0.0
 10
53.673376
 20
24.670582
 30
0.0
 10
54.748848
 20
23.595110
 30
0.0
  0
SPLINE
  5
142
100
AcDbEntity
  8
0
 62
7
100
AcDbSpline
 70
8
 71
3
 72
8
 73
4
 74
0
 40
0
 40
0
 40
0
 40
0
 40
1
 40
1
 40
1
 40
1
 10
54.748848
 20
23.595110
 30
0.0
 10
55.824320
 20
22.519638
 30
0.0
 10
55.823812
 20
20.775864
 30
0.0
 10
54.748848
 20
19.700900
 30
0.0
  0
LWPOLYLINE
  5
143
100
AcDbEntity
  8
0
 62
7
100
AcDbPolyline
 90
2
 70
0
 10
50.047908
 20
22.788380
 30
0.0
 10
50.854638
 20
23.595110
 30
0.0
  0
LWPOLYLINE
  5
144
100
AcDbEntity
  8
0
 62
7
100
AcDbPolyline
 90
3
 70
0
 10
54.748848
 20
19.700900
 30
0.0
 10
53.942118
 20
18.894170
 30
0.0
 10
50.047908
 20
22.788380
 30
0.0
  0
SPLINE
  5
145
100
AcDbEntity
  8
0
 62
7
100
AcDbSpline
 70
8
 71
3
 72
8
 73
4
 74
0
 40
0
 40
0
 40
0
 40
0
 40
1
 40
1
 40
1
 40
1
 10
54.748848
 20
10.299020
 30
0.0
 10
55.823812
 20
9.224056
 30
0.0
 10
55.824320
 20
7.480282
 30
0.0
 10
54.748848
 20
6.404810
 30
0.0
  0
SPLINE
  5
146
100
AcDbEntity
  8
0
 62
7
100
AcDbSpline
 70
8
 71
3
 72
8
 73
4
 74
0
 40
0
 40
0
 40
0
 40
0
 40
1
 40
1
 40
1
 40
1
 10
54.748848
 20
6.404810
 30
0.0
 10
53.673376
 20
5.329338
 30
0.0
 10
51.929602
 20
5.329846
 30
0.0
 10
50.854638
 20
6.404810
 30
0.0
  0
LWPOLYLINE
  5
147
100
AcDbEntity
  8
0
 62
7
100
AcDbPolyline
 90
2
 70
0
 10
53.942118
 20
11.105750
 30
0.0
 10
54.748848
 20
10.299020
 30
0.0
  0
LWPOLYLINE
  5
148
100
AcDbEntity
  8
0
 62
7
100
AcDbPolyline
 90
3
 70
0
 10
50.854638
 20
6.404810
 30
0.0
 10
50.047908
 20
7.211540
 30
0.0
 10
53.942118
 20
11.105750
 30
0.0
  0
SPLINE
  5
149
100
AcDbEntity
  8
0
 62
7
100
AcDbSpline
 70
8
 71
3
 72
8
 73
4
 74
0
 40
0
 40
0
 40
0
 40
0
 40
1
 40
1
 40
1
 40
1
 10
26.682648
 20
22.788380
 30
0.0
 10
24.532212
 20
24.938816
 30
0.0
 10
21.044663
 20
24.938816
 30
0.0
 10
18.894227
 20
22.788380
 30
0.0
  0
LWPOLYLINE
  5
14a
100
AcDbEntity
  8
0
 62
7
100
AcDbPolyline
 90
3
 70
0
 10
18.894227
 20
22.788380
 30
0.0
 10
22.788438
 20
18.894170
 30
0.0
 10
26.682648
 20
22.788380
 30
0.0
  0
SPLINE
  5
14b
100
AcDbEntity
  8
0
 62
7
100
AcDbSpline
 70
8
 71
3
 72
8
 73
4
 74
0
 40
0
 40
0
 40
0
 40
0
 40
1
 40
1
 40
1
 40
1
 10
42.259488
 20
22.788380
 30
0.0
 10
40.109052
 20
24.938816
 30
0.0
 10
36.621504
 20
24.938816
 30
0.0
 10
34.471068
 20
22.788380
 30
0.0
  0
LWPOLYLINE
  5
14c
100
AcDbEntity
  8
0
 62
7
100
AcDbPolyline
 90
3
 70
0
 10
34.471068
 20
22.788380
 30
0.0
 10
38.365278
 20
18.894170
 30
0.0
 10
42.259488
 20
22.788380
 30
0.0
  0
SPLINE
  5
14d
100
AcDbEntity
  8
0
 62
7
100
AcDbSpline
 70
8
 71
3
 72
8
 73
4
 74
0
 40
0
 40
0
 40
0
 40
0
 40
1
 40
1
 40
1
 40
1
 10
18.894227
 20
7.211540
 30
0.0
 10
21.044663
 20
5.061104
 30
0.0
 10
24.532212
 20
5.061104
 30
0.0
 10
26.682648
 20
7.211540
 30
0.0
  0
LWPOLYLINE
  5
14e
100
AcDbEntity
  8
0
 62
7
100
AcDbPolyline
 90
3
 70
0
 10
26.682648
 20
7.211540
 30
0.0
 10
22.788438
 20
11.105750
 30
0.0
 10
18.894227
 20
7.211540
 30
0.0
  0
SPLINE
  5
14f
100
AcDbEntity
  8
0
 62
7
100
AcDbSpline
 70
8
 71
3
 72
8
 73
4
 74
0
 40
0
 40
0
 40
0
 40
0
 40
1
 40
1
 40
1
 40
1
 10
34.471068
 20
7.211540
 30
0.0
 10
36.621504
 20
5.061104
 30
0.0
 10
40.109052
 20
5.061104
 30
0.0
 10
42.259488
 20
7.211540
 30
0.0
  0
LWPOLYLINE
  5
150
100
AcDbEntity
  8
0
 62
7
100
AcDbPolyline
 90
3
 70
0
 10
42.259488
 20
7.211540
 30
0.0
 10
38.365278
 20
11.105750
 30
0.0
 10
34.471068
 20
7.211540
 30
0.0
  0
SPLINE
  5
151
100
AcDbEntity
  8
0
 62
7
100
AcDbSpline
 70
8
 71
3
 72
8
 73
4
 74
0
 40
0
 40
0
 40
0
 40
0
 40
1
 40
1
 40
1
 40
1
 10
2.510657
 20
15.806690
 30
0.0
 10
-0.715250
 20
19.032597
 30
0.0
 10
-0.715250
 20
24.263414
 30
0.0
 10
2.510657
 20
27.489321
 30
0.0
  0
SPLINE
  5
152
100
AcDbEntity
  8
0
 62
7
100
AcDbSpline
 70
8
 71
3
 72
8
 73
4
 74
0
 40
0
 40
0
 40
0
 40
0
 40
1
 40
1
 40
1
 40
1
 10
2.510657
 20
27.489321
 30
0.0
 10
5.736563
 20
30.715227
 30
0.0
 10
10.967380
 20
30.715228
 30
0.0
 10
14.193287
 20
27.489321
 30
0.0
  0
LWPOLYLINE
  5
153
100
AcDbEntity
  8
0
 62
7
100
AcDbPolyline
 90
2
 70
0
 10
3.317387
 20
14.999960
 30
0.0
 10
2.510657
 20
15.806690
 30
0.0
  0
SPLINE
  5
154
100
AcDbEntity
  8
0
 62
7
100
AcDbSpline
 70
8
 71
3
 72
8
 73
4
 74
0
 40
0
 40
0
 40
0
 40
0
 40
1
 40
1
 40
1
 40
1
 10
15.000017
 20
26.682590
 30
0.0
 10
19.301396
 20
30.983969
 30
0.0
 10
26.275479
 20
30.983969
 30
0.0
 10
30.576858
 20
26.682590
 30
0.0
  0
SPLINE
  5
155
100
AcDbEntity
  8
0
 62
7
100
AcDbSpline
 70
8
 71
3
 72
8
 73
4
 74
0
 40
0
 40
0
 40
0
 40
0
 40
1
 40
1
 40
1
 40
1
 10
30.576858
 20
26.682590
 30
0.0
 10
34.878236
 20
30.983969
 30
0.0
 10
41.852320
 20
30.983969
 30
0.0
 10
46.153698
 20
26.682590
 30
0.0
  0
LWPOLYLINE
  5
156
100
AcDbEntity
  8
0
 62
7
100
AcDbPolyline
 90
2
 70
0
 10
14.193287
 20
27.489321
 30
0.0
 10
15.000017
 20
26.682590
 30
0.0
  0
SPLINE
  5
157
100
AcDbEntity
  8
0
 62
7
100
AcDbSpline
 70
8
 71
3
 72
8
 73
4
 74
0
 40
0
 40
0
 40
0
 40
0
 40
1
 40
1
 40
1
 40
1
 10
46.960428
 20
27.489320
 30
0.0
 10
50.186336
 20
30.715228
 30
0.0
 10
55.417152
 20
30.715227
 30
0.0
 10
58.643058
 20
27.489320
 30
0.0
  0
SPLINE
  5
158
100
AcDbEntity
  8
0
 62
7
100
AcDbSpline
 70
8
 71
3
 72
8
 73
4
 74
0
 40
0
 40
0
 40
0
 40
0
 40
1
 40
1
 40
1
 40
1
 10
58.643058
 20
27.489320
 30
0.0
 10
61.868965
 20
24.263414
 30
0.0
 10
61.868966
 20
19.032598
 30
0.0
 10
58.643058
 20
15.806690
 30
0.0
  0
LWPOLYLINE
  5
159
100
AcDbEntity
  8
0
 62
7
100
AcDbPolyline
 90
2
 70
0
 10
46.153698
 20
26.682590
 30
0.0
 10
46.960428
 20
27.489320
 30
0.0
  0
SPLINE
  5
15a
100
AcDbEntity
  8
0
 62
7
100
AcDbSpline
 70
8
 71
3
 72
8
 73
4
 74
0
 40
0
 40
0
 40
0
 40
0
 40
1
 40
1
 40
1
 40
1
 10
58.643058
 20
14.193230
 30
0.0
 10
61.868966
 20
10.967323
 30
0.0
 10
61.868965
 20
5.736507
 30
0.0
 10
58.643058
 20
2.510600
 30
0.0
  0
SPLINE
  5
15b
100
AcDbEntity
  8
0
 62
7
100
AcDbSpline
 70
8
 71
3
 72
8
 73
4
 74
0
 40
0
 40
0
 40
0
 40
0
 40
1
 40
1
 40
1
 40
1
 10
58.643058
 20
2.510600
 30
0.0
 10
55.417152
 20
-0.715307
 30
0.0
 10
50.186336
 20
-0.715308
 30
0.0
 10
46.960428
 20
2.510600
 30
0.0
  0
LWPOLYLINE
  5
15c
100
AcDbEntity
  8
0
 62
7
100
AcDbPolyline
 90
3
 70
0
 10
58.643058
 20
15.806690
 30
0.0
 10
57.836329
 20
14.999960
 30
0.0
 10
58.643058
 20
14.193230
 30
0.0
  0
SPLINE
  5
15d
100
AcDbEntity
  8
0
 62
7
100
AcDbSpline
 70
8
 71
3
 72
8
 73
4
 74
0
 40
0
 40
0
 40
0
 40
0
 40
1
 40
1
 40
1
 40
1
 10
46.153698
 20
3.317330
 30
0.0
 10
41.852320
 20
-0.984049
 30
0.0
 10
34.878236
 20
-0.984049
 30
0.0
 10
30.576858
 20
3.317330
 30
0.0
  0
SPLINE
  5
15e
100
AcDbEntity
  8
0
 62
7
100
AcDbSpline
 70
8
 71
3
 72
8
 73
4
 74
0
 40
0
 40
0
 40
0
 40
0
 40
1
 40
1
 40
1
 40
1
 10
30.576858
 20
3.317330
 30
0.0
 10
26.275479
 20
-0.984049
 30
0.0
 10
19.301396
 20
-0.984049
 30
0.0
 10
15.000017
 20
3.317330
 30
0.0
  0
LWPOLYLINE
  5
15f
100
AcDbEntity
  8
0
 62
7
100
AcDbPolyline
 90
2
 70
0
 10
46.960428
 20
2.510600
 30
0.0
 10
46.153698
 20
3.317330
 30
0.0
  0
SPLINE
  5
160
100
AcDbEntity
  8
0
 62
7
100
AcDbSpline
 70
8
 71
3
 72
8
 73
4
 74
0
 40
0
 40
0
 40
0
 40
0
 40
1
 40
1
 40
1
 40
1
 10
14.193288
 20
2.510600
 30
0.0
 10
10.967380
 20
-0.715308
 30
0.0
 10
5.736564
 20
-0.715307
 30
0.0
 10
2.510657
 20
2.510600
 30
0.0
  0
SPLINE
  5
161
100
AcDbEntity
  8
0
 62
7
100
AcDbSpline
 70
8
 71
3
 72
8
 73
4
 74
0
 40
0
 40
0
 40
0
 40
0
 40
1
 40
1
 40
1
 40
1
 10
2.510657
 20
2.510600
 30
0.0
 10
-0.715249
 20
5.736507
 30
0.0
 10
-0.715251
 20
10.967323
 30
0.0
 10
2.510657
 20
14.193230
 30
0.0
  0
LWPOLYLINE
  5
162
100
AcDbEntity
  8
0
 62
7
100
AcDbPolyline
 90
2
 70
0
 10
15.000017
 20
3.317330
 30
0.0
 10
14.193288
 20
2.510600
 30
0.0
  0
LWPOLYLINE
  5
163
100
AcDbEntity
  8
0
 62
7
100
AcDbPolyline
 90
2
 70
0
 10
2.510657
 20
14.193230
 30
0.0
 10
3.317387
 20
14.999960
 30
0.0
  0
ENDSEC
  0
SECTION
  2
OBJECTS
  0
DICTIONARY
  5
C
330
0
100
AcDbDictionary
  3
ACAD_GROUP
350
D
  3
ACAD_MLINESTYLE
350
17
  0
DICTIONARY
  5
D
330
C
100
AcDbDictionary
  0
DICTIONARY
  5
1A
330
C
100
AcDbDictionary
  0
DICTIONARY
  5
17
330
C
100
AcDbDictionary
  3
STANDARD
350
18
  0
DICTIONARY
  5
19
330
C
100
AcDbDictionary
  0
ENDSEC
  0
EOF
