<?xml version="1.0" encoding="UTF-8"?>
<svg xmlns="http://www.w3.org/2000/svg" xmlns:xlink="http://www.w3.org/1999/xlink" width="600pt" height="600pt" viewBox="0 0 600 600" version="1.1">
<g id="surface1">
<path style="fill:none;stroke-width:10;stroke-linecap:butt;stroke-linejoin:miter;stroke:rgb(0%,0%,0%);stroke-opacity:1;stroke-miterlimit:10;" d="M 937.851562 1700 L 937.851562 1800 L 1600 1800 L 1600 1700 L 937.851562 1700 " transform="matrix(0.1,0,0,-0.1,0,600)"/>
<path style="fill:none;stroke-width:10;stroke-linecap:butt;stroke-linejoin:miter;stroke:rgb(0%,0%,0%);stroke-opacity:1;stroke-miterlimit:10;" d="M 937.851562 2300 L 937.851562 2400 L 1000 2400 L 1000 2300 L 937.851562 2300 " transform="matrix(0.1,0,0,-0.1,0,600)"/>
<path style="fill:none;stroke-width:10;stroke-linecap:butt;stroke-linejoin:miter;stroke:rgb(0%,0%,0%);stroke-opacity:1;stroke-miterlimit:10;" d="M 1300 2300 L 1300 2400 L 2200 2400 L 2200 2300 L 1300 2300 " transform="matrix(0.1,0,0,-0.1,0,600)"/>
<path style="fill:none;stroke-width:10;stroke-linecap:butt;stroke-linejoin:miter;stroke:rgb(0%,0%,0%);stroke-opacity:1;stroke-miterlimit:10;" d="M 1900 2900 L 1900 3000 L 2800 3000 L 2800 2900 L 1900 2900 " transform="matrix(0.1,0,0,-0.1,0,600)"/>
<path style="fill:none;stroke-width:10;stroke-linecap:butt;stroke-linejoin:miter;stroke:rgb(0%,0%,0%);stroke-opacity:1;stroke-miterlimit:10;" d="M 3100 2900 L 3100 3000 L 3162.148438 3000 L 3162.148438 2900 L 3100 2900 " transform="matrix(0.1,0,0,-0.1,0,600)"/>
<path style="fill:none;stroke-width:10;stroke-linecap:butt;stroke-linejoin:miter;stroke:rgb(0%,0%,0%);stroke-opacity:1;stroke-miterlimit:10;" d="M 2500 3500 L 2500 3600 L 3162.148438 3600 L 3162.148438 3500 L 2500 3500 " transform="matrix(0.1,0,0,-0.1,0,600)"/>
<path style="fill:none;stroke-width:10;stroke-linecap:butt;stroke-linejoin:miter;stroke:rgb(0%,0%,0%);stroke-opacity:1;stroke-miterlimit:10;" d="M 1100 1537.851562 L 1100 1600 L 1200 1600 L 1200 1537.851562 L 1100 1537.851562 " transform="matrix(0.1,0,0,-0.1,0,600)"/>
<path style="fill:none;stroke-width:10;stroke-linecap:butt;stroke-linejoin:miter;stroke:rgb(0%,0%,0%);stroke-opacity:1;stroke-miterlimit:10;" d="M 1100 1900 L 1100 2500 L 1200 2500 L 1200 1900 L 1100 1900 " transform="matrix(0.1,0,0,-0.1,0,600)"/>
<path style="fill:none;stroke-width:10;stroke-linecap:butt;stroke-linejoin:miter;stroke:rgb(0%,0%,0%);stroke-opacity:1;stroke-miterlimit:10;" d="M 1700 1537.851562 L 1700 2200 L 1800 2200 L 1800 1537.851562 L 1700 1537.851562 " transform="matrix(0.1,0,0,-0.1,0,600)"/>
<path style="fill:none;stroke-width:10;stroke-linecap:butt;stroke-linejoin:miter;stroke:rgb(0%,0%,0%);stroke-opacity:1;stroke-miterlimit:10;" d="M 1700 2500 L 1700 3100 L 1800 3100 L 1800 2500 L 1700 2500 " transform="matrix(0.1,0,0,-0.1,0,600)"/>
<path style="fill:none;stroke-width:10;stroke-linecap:butt;stroke-linejoin:miter;stroke:rgb(0%,0%,0%);stroke-opacity:1;stroke-miterlimit:10;" d="M 2300 2200 L 2300 2800 L 2400 2800 L 2400 2200 L 2300 2200 " transform="matrix(0.1,0,0,-0.1,0,600)"/>
<path style="fill:none;stroke-width:10;stroke-linecap:butt;stroke-linejoin:miter;stroke:rgb(0%,0%,0%);stroke-opacity:1;stroke-miterlimit:10;" d="M 2300 3100 L 2300 3762.148438 L 2400 3762.148438 L 2400 3100 L 2300 3100 " transform="matrix(0.1,0,0,-0.1,0,600)"/>
<path style="fill:none;stroke-width:10;stroke-linecap:butt;stroke-linejoin:miter;stroke:rgb(0%,0%,0%);stroke-opacity:1;stroke-miterlimit:10;" d="M 2900 2800 L 2900 3400 L 3000 3400 L 3000 2800 L 2900 2800 " transform="matrix(0.1,0,0,-0.1,0,600)"/>
<path style="fill:none;stroke-width:10;stroke-linecap:butt;stroke-linejoin:miter;stroke:rgb(0%,0%,0%);stroke-opacity:1;stroke-miterlimit:10;" d="M 2900 3700 L 2900 3762.148438 L 3000 3762.148438 L 3000 3700 L 2900 3700 " transform="matrix(0.1,0,0,-0.1,0,600)"/>
<path style="fill:none;stroke-width:10;stroke-linecap:butt;stroke-linejoin:miter;stroke:rgb(0%,0%,0%);stroke-opacity:1;stroke-miterlimit:10;" d="M 1300 1900 L 1300 2200 L 1600 2200 L 1600 1900 L 1300 1900 " transform="matrix(0.1,0,0,-0.1,0,600)"/>
<path style="fill:none;stroke-width:10;stroke-linecap:butt;stroke-linejoin:miter;stroke:rgb(0%,0%,0%);stroke-opacity:1;stroke-miterlimit:10;" d="M 1900 2500 L 1900 2800 L 2200 2800 L 2200 2500 L 1900 2500 " transform="matrix(0.1,0,0,-0.1,0,600)"/>
<path style="fill:none;stroke-width:10;stroke-linecap:butt;stroke-linejoin:miter;stroke:rgb(0%,0%,0%);stroke-opacity:1;stroke-miterlimit:10;" d="M 2500 3100 L 2500 3400 L 2800 3400 L 2800 3100 L 2500 3100 " transform="matrix(0.1,0,0,-0.1,0,600)"/>
<path style="fill:none;stroke-width:10;stroke-linecap:butt;stroke-linejoin:miter;stroke:rgb(0%,0%,0%);stroke-opacity:1;stroke-miterlimit:10;" d="M 1600 2900 C 1379.101562 2900 1200 2720.898438 1200 2500 L 1100 2500 C 1100 2776.132812 1323.867188 3000 1600 3000 L 1600 2900 " transform="matrix(0.1,0,0,-0.1,0,600)"/>
<path style="fill:none;stroke-width:10;stroke-linecap:butt;stroke-linejoin:miter;stroke:rgb(0%,0%,0%);stroke-opacity:1;stroke-miterlimit:10;" d="M 2200 3500 C 1979.101562 3500 1800 3320.898438 1800 3100 L 1700 3100 C 1700 3376.132812 1923.867188 3600 2200 3600 L 2200 3500 " transform="matrix(0.1,0,0,-0.1,0,600)"/>
<path style="fill:none;stroke-width:10;stroke-linecap:butt;stroke-linejoin:miter;stroke:rgb(0%,0%,0%);stroke-opacity:1;stroke-miterlimit:10;" d="M 1900 1800 C 2120.898438 1800 2300 1979.101562 2300 2200 L 2400 2200 C 2400 1923.867188 2176.132812 1700 1900 1700 L 1900 1800 " transform="matrix(0.1,0,0,-0.1,0,600)"/>
<path style="fill:none;stroke-width:10;stroke-linecap:butt;stroke-linejoin:miter;stroke:rgb(0%,0%,0%);stroke-opacity:1;stroke-miterlimit:10;" d="M 2500 2400 C 2720.898438 2400 2900 2579.101562 2900 2800 L 3000 2800 C 3000 2523.867188 2776.132812 2300 2500 2300 L 2500 2400 " transform="matrix(0.1,0,0,-0.1,0,600)"/>
<path style="fill:none;stroke-width:10;stroke-linecap:butt;stroke-linejoin:miter;stroke:rgb(0%,0%,0%);stroke-opacity:1;stroke-miterlimit:10;" d="M 937.851562 2300 C 799.804688 2300 687.851562 2188.085938 687.851562 2050 C 687.851562 1911.914062 799.804688 1800 937.851562 1800 L 937.851562 1700 C 744.570312 1700 587.851562 1856.71875 587.851562 2050 C 587.851562 2243.28125 744.570312 2400 937.851562 2400 L 937.851562 2300 " transform="matrix(0.1,0,0,-0.1,0,600)"/>
<path style="fill:none;stroke-width:10;stroke-linecap:butt;stroke-linejoin:miter;stroke:rgb(0%,0%,0%);stroke-opacity:1;stroke-miterlimit:10;" d="M 1200 1537.851562 C 1200 1399.804688 1311.914062 1287.851562 1450 1287.851562 C 1588.085938 1287.851562 1700 1399.804688 1700 1537.851562 L 1800 1537.851562 C 1800 1344.570312 1643.28125 1187.851562 1450 1187.851562 C 1256.71875 1187.851562 1100 1344.570312 1100 1537.851562 L 1200 1537.851562 " transform="matrix(0.1,0,0,-0.1,0,600)"/>
<path style="fill:none;stroke-width:10;stroke-linecap:butt;stroke-linejoin:miter;stroke:rgb(0%,0%,0%);stroke-opacity:1;stroke-miterlimit:10;" d="M 2900 3762.148438 C 2900 3900.195312 2788.085938 4012.148438 2650 4012.148438 C 2511.914062 4012.148438 2400 3900.195312 2400 3762.148438 L 2300 3762.148438 C 2300 3955.429688 2456.71875 4112.148438 2650 4112.148438 C 2843.28125 4112.148438 3000 3955.429688 3000 3762.148438 L 2900 3762.148438 " transform="matrix(0.1,0,0,-0.1,0,600)"/>
<path style="fill:none;stroke-width:10;stroke-linecap:butt;stroke-linejoin:miter;stroke:rgb(0%,0%,0%);stroke-opacity:1;stroke-miterlimit:10;" d="M 3162.148438 3000 C 3300.195312 3000 3412.148438 3111.914062 3412.148438 3250 C 3412.148438 3388.085938 3300.195312 3500 3162.148438 3500 L 3162.148438 3600 C 3355.429688 3600 3512.148438 3443.28125 3512.148438 3250 C 3512.148438 3056.71875 3355.429688 2900 3162.148438 2900 L 3162.148438 3000 " transform="matrix(0.1,0,0,-0.1,0,600)"/>
<path style="fill:none;stroke-width:10;stroke-linecap:butt;stroke-linejoin:miter;stroke:rgb(0%,0%,0%);stroke-opacity:1;stroke-miterlimit:10;" d="M 1000 1900 L 937.851562 1900 C 855.039062 1900 787.851562 1967.148438 787.851562 2050 C 787.851562 2132.851562 855.039062 2200 937.851562 2200 L 1000 2200 L 1000 1900 " transform="matrix(0.1,0,0,-0.1,0,600)"/>
<path style="fill:none;stroke-width:10;stroke-linecap:butt;stroke-linejoin:miter;stroke:rgb(0%,0%,0%);stroke-opacity:1;stroke-miterlimit:10;" d="M 1600 1600 L 1600 1537.851562 C 1600 1455.039062 1532.851562 1387.851562 1450 1387.851562 C 1367.148438 1387.851562 1300 1455.039062 1300 1537.851562 L 1300 1600 L 1600 1600 " transform="matrix(0.1,0,0,-0.1,0,600)"/>
<path style="fill:none;stroke-width:10;stroke-linecap:butt;stroke-linejoin:miter;stroke:rgb(0%,0%,0%);stroke-opacity:1;stroke-miterlimit:10;" d="M 2500 3700 L 2500 3762.148438 C 2500 3844.960938 2567.148438 3912.148438 2650 3912.148438 C 2732.851562 3912.148438 2800 3844.960938 2800 3762.148438 L 2800 3700 L 2500 3700 " transform="matrix(0.1,0,0,-0.1,0,600)"/>
<path style="fill:none;stroke-width:10;stroke-linecap:butt;stroke-linejoin:miter;stroke:rgb(0%,0%,0%);stroke-opacity:1;stroke-miterlimit:10;" d="M 3100 3400 L 3162.148438 3400 C 3244.960938 3400 3312.148438 3332.851562 3312.148438 3250 C 3312.148438 3167.148438 3244.960938 3100 3162.148438 3100 L 3100 3100 L 3100 3400 " transform="matrix(0.1,0,0,-0.1,0,600)"/>
<path style="fill:none;stroke-width:10;stroke-linecap:butt;stroke-linejoin:miter;stroke:rgb(0%,0%,0%);stroke-opacity:1;stroke-miterlimit:10;" d="M 1300 2500 L 1600 2500 L 1600 2800 C 1434.335938 2800 1300 2665.664062 1300 2500 " transform="matrix(0.1,0,0,-0.1,0,600)"/>
<path style="fill:none;stroke-width:10;stroke-linecap:butt;stroke-linejoin:miter;stroke:rgb(0%,0%,0%);stroke-opacity:1;stroke-miterlimit:10;" d="M 1900 3100 L 2200 3100 L 2200 3400 C 2034.335938 3400 1900 3265.664062 1900 3100 " transform="matrix(0.1,0,0,-0.1,0,600)"/>
<path style="fill:none;stroke-width:10;stroke-linecap:butt;stroke-linejoin:miter;stroke:rgb(0%,0%,0%);stroke-opacity:1;stroke-miterlimit:10;" d="M 2200 2200 L 1900 2200 L 1900 1900 C 2065.664062 1900 2200 2034.335938 2200 2200 " transform="matrix(0.1,0,0,-0.1,0,600)"/>
<path style="fill:none;stroke-width:10;stroke-linecap:butt;stroke-linejoin:miter;stroke:rgb(0%,0%,0%);stroke-opacity:1;stroke-miterlimit:10;" d="M 2800 2800 L 2500 2800 L 2500 2500 C 2665.664062 2500 2800 2634.335938 2800 2800 " transform="matrix(0.1,0,0,-0.1,0,600)"/>
<path style="fill:none;stroke-width:10;stroke-linecap:butt;stroke-linejoin:miter;stroke:rgb(0%,0%,0%);stroke-opacity:1;stroke-miterlimit:10;" d="M 1000 1600 L 937.851562 1600 C 689.335938 1600 487.851562 1801.484375 487.851562 2050 C 487.851562 2298.515625 689.335938 2500 937.851562 2500 L 1000 2500 C 1000 2831.367188 1268.632812 3100 1600 3100 C 1600 3431.367188 1868.632812 3700 2200 3700 L 2200 3762.148438 C 2200 4010.664062 2401.484375 4212.148438 2650 4212.148438 C 2898.515625 4212.148438 3100 4010.664062 3100 3762.148438 L 3100 3700 L 3162.148438 3700 C 3410.664062 3700 3612.148438 3498.515625 3612.148438 3250 C 3612.148438 3001.484375 3410.664062 2800 3162.148438 2800 L 3100 2800 C 3100 2468.632812 2831.367188 2200 2500 2200 C 2500 1868.632812 2231.367188 1600 1900 1600 L 1900 1537.851562 C 1900 1289.335938 1698.515625 1087.851562 1450 1087.851562 C 1201.484375 1087.851562 1000 1289.335938 1000 1537.851562 L 1000 1600 " transform="matrix(0.1,0,0,-0.1,0,600)"/>
</g>
</svg>
