<?xml version="1.0" encoding="UTF-8" standalone="no"?>
<!-- Created with Inkscape (http://www.inkscape.org/) -->

<svg
   version="1.1"
   id="svg2"
   width="1204.5906"
   height="1043.9205"
   viewBox="0 0 1204.5906 1043.9205"
   xmlns="http://www.w3.org/2000/svg"
   xmlns:svg="http://www.w3.org/2000/svg">
  <defs
     id="defs6" />
  <g
     id="g8"
     transform="translate(2775.3037,-339.57027)">
    <path
       style="fill:#000000"
       d="m -2474.7664,1209.8081 -0.2528,-173.6827 -130.1873,-75.06725 c -71.603,-41.287 -139.2296,-80.2279 -150.2813,-86.5353 -12.758,-7.2812 -19.9914,-11.9761 -19.8127,-12.8596 0.2519,-1.2458 21.5275,-14.1106 37.2813,-22.5429 3.3,-1.7664 63.9375,-36.6662 134.75,-77.5551 l 128.75,-74.3436 v -173.8654 c 0,-138.468 0.2545,-173.8492 1.25,-173.7859 0.6875,0.044 10.25,5.3848 21.25,11.8692 42.1816,24.8657 278.2562,161.0513 279.1787,161.0513 0.8284,0 226.4987,-130.0673 279.9824,-161.3706 9.9885,-5.8462 18.876,-10.6294 19.75,-10.6294 1.4458,0 1.5889,15.6084 1.5889,173.2742 v 173.2742 l 130.672,75.4758 c 71.8697,41.5117 131.0476,75.6268 131.5066,75.8113 4.6834,1.883 38.3952,22.3747 38.6228,23.4769 0.201,0.9738 -6.0497,5.0758 -18.7791,12.3236 -10.4942,5.9752 -78.1298,44.9147 -150.3013,86.5323 l -131.221,75.66825 -0.2528,173.5817 c -0.2139,146.8828 -0.4653,173.5817 -1.6342,173.5817 -0.7598,0 -10.321,-5.2423 -21.2472,-11.6495 -10.9262,-6.4072 -78.1156,-45.3149 -149.3097,-86.4617 l -129.4439,-74.8123 -3.0561,1.8404 c -1.6809,1.0121 -60.2061,34.8142 -130.0561,75.1156 -69.85,40.3014 -128.575,74.2911 -130.5,75.5327 -8.4662,5.4606 -35.2555,20.4348 -36.5584,20.4348 -1.2415,0 -1.4702,-23.5229 -1.6888,-173.6827 z m 20.7472,160.3769 c 7.7,-4.417 15.125,-8.795 16.5,-9.7289 8.1788,-5.5551 263.186,-151.9648 264.679,-151.9628 1.4654,0 199.9667,114.0923 279.821,160.8295 l 19,11.1203 0.5,-173.0579 0.5,-173.0579 131.2174,-75.66815 c 72.1696,-41.6176 139.522,-80.3909 149.672,-86.163 10.15,-5.7721 18.3771,-10.557 18.2825,-10.6332 -0.4,-0.3219 -34.3511,-19.8392 -36.1975,-20.8086 -1.1141,-0.5849 -60.8516,-35.0276 -132.75,-76.5393 l -130.7244,-75.4758 v -172.7742 c 0,-95.0258 -0.206,-172.7742 -0.4578,-172.7742 -0.2519,0 -8.2394,4.5587 -17.75,10.1304 -96.1015,56.3 -280.4496,161.931 -281.9283,161.5443 -1.5829,-0.414 -229.7213,-131.9518 -278.8639,-160.7847 -10.175,-5.9698 -18.8375,-10.8623 -19.25,-10.8721 -0.4125,-0.01 -0.75,77.7715 -0.75,172.8475 v 172.8654 l -128.75,74.3433 c -70.8125,40.8888 -130.775,75.4159 -133.25,76.7268 -8.7565,4.6381 -34.5186,19.5355 -35.8174,20.712 -1.0504,0.9514 2.563,3.403 17.82,12.0903 10.5256,5.9932 77.7185,44.6771 149.3174,85.9641 l 130.18,75.06725 0.2528,173.2164 0.2529,173.2163 2.2471,-1.1711 c 1.236,-0.6441 8.5472,-4.7851 16.2472,-9.202 z m 398.75,-144.4979 -96.25,-55.6665 v -111.8382 c 0,-98.75205 0.175,-111.80035 1.4959,-111.51485 1.3917,0.3008 193.5041,331.76835 193.5041,333.86885 0,0.5249 -0.5625,0.9235 -1.25,0.8857 -0.6875,-0.038 -44.5625,-25.1185 -97.5,-55.735 z m 92.8031,48.5537 c -1.5981,-2.3375 -44.1691,-75.8 -94.6022,-163.25 -50.4331,-87.45 -91.8663,-159.18745 -92.0737,-159.41665 -0.2075,-0.2291 -0.3772,48.3796 -0.3772,108.01945 v 108.4361 l 92.6779,53.4806 c 50.9728,29.4143 93.6103,54.253 94.75,55.1972 1.1396,0.9442 2.1753,1.7317 2.3015,1.75 0.1262,0.018 -1.0782,-1.8792 -2.6763,-4.2167 z m -425.8764,4.7669 c 0.699,-3.2064 191.4013,-332.46735 192.5733,-332.49125 0.9927,-0.02 1.25,23.0002 1.25,111.83835 v 111.8639 l -95.4906,55.1361 c -52.5198,30.3248 -96.2028,55.136 -97.0733,55.136 -0.8776,0 -1.4387,-0.6608 -1.2594,-1.4831 z m 98.9268,-57.1518 92.8965,-53.6349 v -108.0651 c 0,-59.4357 -0.3763,-107.63755 -0.8362,-107.11505 -0.4599,0.5225 -41.7196,71.82495 -91.6882,158.44995 -49.9687,86.625 -91.7118,158.9625 -92.7626,160.75 -1.0508,1.7875 -1.5945,3.25 -1.2083,3.25 0.3863,0 42.5058,-24.1357 93.5988,-53.6349 z m 274.6465,-129.2577 c -52.6625,-91.2314 -95.75,-166.43005 -95.75,-167.10795 0,-0.7489 0.8828,-1.0506 2.25,-0.7688 1.2375,0.2551 44.775,25.0353 96.75,55.0673 l 94.5,54.60345 0.2543,112.0493 c 0.2027,89.3169 -2e-4,112.0476 -1,112.0408 -0.6899,0 -44.3418,-74.6526 -97.0043,-165.8841 z m 95.5045,-56.1834 c -0.7233,-0.6567 -180.4769,-104.44445 -184.9063,-106.76295 -1.3987,-0.732 15.1757,28.8839 47.3495,84.60625 27.2257,47.153 69.3691,120.1537 93.6518,162.2238 l 44.1505,76.491 0.2545,-107.9365 c 0.14,-59.3651 -0.085,-108.2448 -0.5,-108.6216 z m -509.0088,109.3374 0.2543,-111.7386 95.5,-55.21065 c 52.525,-30.3658 96.0955,-55.2334 96.8233,-55.2613 0.7279,-0.028 1.1779,0.6247 1,1.4503 -0.692,3.2129 -191.3965,332.45545 -192.5776,332.47655 -0.9999,0.018 -1.2028,-22.6418 -1,-111.7163 z m 94.2515,-53.2614 c 49.9476,-86.6249 92.1437,-159.50895 93.7692,-161.96445 1.6255,-2.4555 2.1745,-3.8055 1.22,-3 -0.9546,0.8055 -43.417,25.5448 -94.361,54.9763 l -92.6254,53.51165 -0.2545,107.9428 c -0.14,59.3685 0.1263,107.5132 0.5917,106.9882 0.4654,-0.525 41.7124,-71.8295 91.66,-158.4545 z m -213.7734,-151.24995 c -52.6446,-30.3875 -95.7189,-55.8125 -95.7206,-56.5 0,-0.9957 39.2618,-1.25 192.9968,-1.25 153.7463,0 192.995,0.2542 192.9756,1.25 -0.027,1.3741 -190.7314,111.75 -193.0788,111.75 -0.8005,0 -44.5283,-24.8625 -97.173,-55.25 z m 191.4678,-1.5 93.0969,-53.75 -93.6442,-0.2551 c -51.5044,-0.1403 -135.8318,-0.1403 -187.3943,0 l -93.75,0.2551 93,53.7249 c 51.15,29.5487 93.5838,53.7362 94.2973,53.75 0.7135,0.014 43.1909,-24.1624 94.3943,-53.7249 z m 364.3084,1.7074 c -52.25,-30.211 -95.1455,-55.6105 -95.3233,-56.4433 -0.2879,-1.348 20.807,-1.5141 192.3233,-1.5141 170.328,0 192.6092,0.173 192.3233,1.4932 -0.3805,1.7571 -190.1025,111.5335 -192.6146,111.45 -0.9398,-0.031 -44.4587,-24.7748 -96.7087,-54.9858 z m 194.6806,-3.69 89.6806,-51.7674 -93.3511,-0.2551 c -51.3432,-0.1403 -135.6696,-0.1403 -187.3922,0 l -94.0409,0.2551 93.7115,54.1375 93.7115,54.1375 4,-2.3701 c 2.2,-1.3036 44.3563,-25.6655 93.6806,-54.1375 z m -847.137,-98.5174 c 0.053,-1.538 189.9637,-111.13 193.3113,-111.5547 2.9141,-0.3697 192.9631,108.9724 193.4684,111.3094 0.2861,1.323 -21.9755,1.4953 -193.25,1.4953 -154.2152,0 -193.5644,-0.2542 -193.5297,-1.25 z m 381.8731,-1.125 c -0.2292,-0.2062 -42.6261,-24.7381 -94.2153,-54.5152 l -93.7987,-54.1402 -91.2013,52.6182 c -50.1608,28.94 -92.5514,53.4642 -94.2014,54.4983 -2.9426,1.8443 0.6024,1.8805 185.4167,1.8971 103.6291,0.01 188.2291,-0.1519 188,-0.3582 z m 174.0838,1.125 c 5e-4,-1.2553 191.2925,-112.25 193.4555,-112.25 2.1563,0 193.5209,110.9926 193.5325,112.25 0.01,0.9957 -39.349,1.25 -193.4885,1.25 -154.1336,0 -193.4999,-0.2543 -193.4995,-1.25 z m 380.4495,-1.6116 c -0.7595,-0.6889 -167.7448,-97.2391 -183.0165,-105.8195 l -4.0664,-2.2847 -94.3784,54.4829 -94.3783,54.4829 h 188.3948 c 105.491,0 187.9767,-0.3792 187.4448,-0.8616 z m -403.45,-37.9765 c 0,-2.1021 192.1259,-333.6804 193.5206,-333.9852 1.299,-0.2839 1.4791,13.3122 1.4766,111.5 v 111.8233 l -96.1125,55.5 c -52.8619,30.525 -96.7356,55.6455 -97.4972,55.8233 -0.7616,0.1779 -1.3847,-0.1198 -1.3847,-0.6614 z m 107.2461,-63.201 85.7461,-49.4609 -0.01,-108.5 -0.01,-108.5 -2.3696,4 c -1.3032,2.2 -42.7371,73.975 -92.0752,159.5 -49.3381,85.525 -90.7653,157.1366 -92.0604,159.137 l -2.3547,3.6369 8.6894,-5.176 c 4.7792,-2.8468 47.2752,-27.4335 94.4355,-54.637 z m -328.7461,8.076 -95,-54.9 -0.2543,-111.5685 c -0.2062,-90.4587 -0.011,-111.5684 1.0333,-111.5684 1.436,0 191.721,328.9464 191.721,331.4288 0,0.8642 -0.5625,1.557 -1.25,1.5396 -0.6875,-0.017 -44,-24.7365 -96.25,-54.9315 z m 90.4508,45.2131 c -1.7821,-3.1625 -43.3723,-75.275 -92.4227,-160.25 -49.0504,-84.975 -89.6978,-155.4 -90.3275,-156.5 -0.8641,-1.5095 -1.0904,24.5632 -0.9227,106.3193 l 0.2221,108.3192 93,53.8321 c 51.15,29.6077 93.1555,53.8765 93.3455,53.9308 0.19,0.054 -1.1126,-2.4889 -2.8947,-5.6514 z m 91.2949,-124.3237 0.2543,-112.0737 95,-54.897 c 52.25,-30.1933 95.7875,-54.9102 96.75,-54.9263 0.9625,-0.016 1.75,0.4859 1.75,1.1156 0,2.1657 -191.4993,332.8551 -192.7535,332.8551 -1.0009,0 -1.2036,-22.7025 -1.0008,-112.0737 z m 164.2642,-173.9263 c 13.8459,-23.925 25.0905,-43.6174 24.988,-43.7609 -0.1025,-0.1435 -42.219,24.0108 -93.5921,53.6762 l -93.4058,53.9372 -0.2545,108.7816 -0.2544,108.7816 68.6722,-118.9578 c 37.7697,-65.4269 80.0007,-138.5329 93.8466,-162.4579 z m -305.6282,119.826 c -52.4599,-90.8457 -95.5255,-165.9957 -95.7013,-167 -0.1757,-1.0043 0.1291,-1.826 0.6774,-1.826 0.5482,0 44.117,24.8957 96.8195,55.3238 l 95.8227,55.3238 0.2543,111.6762 c 0.2144,94.1188 0.039,111.6762 -1.1183,111.6762 -0.773,0 -43.0406,-72.1571 -96.7543,-165.174 z m 95.3375,-56.0068 c -1.1944,-1.1944 -185.6745,-107.6409 -186.014,-107.3315 -0.1622,0.1477 41.6878,72.9842 93,161.8589 l 93.2948,161.5903 0.2545,-107.664 c 0.14,-59.2151 -0.1009,-108.0193 -0.5353,-108.4537 z"
       id="path293" />
  </g>
</svg>
