<?xml version="1.0" encoding="UTF-8"?>
<svg xmlns="http://www.w3.org/2000/svg" xmlns:xlink="http://www.w3.org/1999/xlink" width="612pt" height="792pt" viewBox="0 0 612 792" version="1.1">
<g id="surface1">
<path style="fill:none;stroke-width:1;stroke-linecap:butt;stroke-linejoin:miter;stroke:rgb(0%,0%,0%);stroke-opacity:1;stroke-miterlimit:10;" d="M 900 800 L 900 1400 L 1000 1400 L 1000 800 L 900 800 " transform="matrix(0.1,0,0,-0.1,0,792)"/>
<path style="fill:none;stroke-width:1;stroke-linecap:butt;stroke-linejoin:miter;stroke:rgb(0%,0%,0%);stroke-opacity:1;stroke-miterlimit:10;" d="M 900 1700 L 900 2600 L 1000 2600 L 1000 1700 L 900 1700 " transform="matrix(0.1,0,0,-0.1,0,792)"/>
<path style="fill:none;stroke-width:1;stroke-linecap:butt;stroke-linejoin:miter;stroke:rgb(0%,0%,0%);stroke-opacity:1;stroke-miterlimit:10;" d="M 2100 800 L 2100 1400 L 2200 1400 L 2200 800 L 2100 800 " transform="matrix(0.1,0,0,-0.1,0,792)"/>
<path style="fill:none;stroke-width:1;stroke-linecap:butt;stroke-linejoin:miter;stroke:rgb(0%,0%,0%);stroke-opacity:1;stroke-miterlimit:10;" d="M 2100 1700 L 2100 2600 L 2200 2600 L 2200 1700 L 2100 1700 " transform="matrix(0.1,0,0,-0.1,0,792)"/>
<path style="fill:none;stroke-width:1;stroke-linecap:butt;stroke-linejoin:miter;stroke:rgb(0%,0%,0%);stroke-opacity:1;stroke-miterlimit:10;" d="M 1500 1100 L 1500 2000 L 1600 2000 L 1600 1100 L 1500 1100 " transform="matrix(0.1,0,0,-0.1,0,792)"/>
<path style="fill:none;stroke-width:1;stroke-linecap:butt;stroke-linejoin:miter;stroke:rgb(0%,0%,0%);stroke-opacity:1;stroke-miterlimit:10;" d="M 1500 2300 L 1500 2900 L 1600 2900 L 1600 2300 L 1500 2300 " transform="matrix(0.1,0,0,-0.1,0,792)"/>
<path style="fill:none;stroke-width:1;stroke-linecap:butt;stroke-linejoin:miter;stroke:rgb(0%,0%,0%);stroke-opacity:1;stroke-miterlimit:10;" d="M 2700 1100 L 2700 2000 L 2800 2000 L 2800 1100 L 2700 1100 " transform="matrix(0.1,0,0,-0.1,0,792)"/>
<path style="fill:none;stroke-width:1;stroke-linecap:butt;stroke-linejoin:miter;stroke:rgb(0%,0%,0%);stroke-opacity:1;stroke-miterlimit:10;" d="M 2700 2300 L 2700 2900 L 2800 2900 L 2800 2300 L 2700 2300 " transform="matrix(0.1,0,0,-0.1,0,792)"/>
<path style="fill:none;stroke-width:1;stroke-linecap:butt;stroke-linejoin:miter;stroke:rgb(0%,0%,0%);stroke-opacity:1;stroke-miterlimit:10;" d="M 1100 900 L 1100 1000 L 2000 1000 L 2000 900 L 1100 900 " transform="matrix(0.1,0,0,-0.1,0,792)"/>
<path style="fill:none;stroke-width:1;stroke-linecap:butt;stroke-linejoin:miter;stroke:rgb(0%,0%,0%);stroke-opacity:1;stroke-miterlimit:10;" d="M 2300 900 L 2300 1000 L 2900 1000 L 2900 900 L 2300 900 " transform="matrix(0.1,0,0,-0.1,0,792)"/>
<path style="fill:none;stroke-width:1;stroke-linecap:butt;stroke-linejoin:miter;stroke:rgb(0%,0%,0%);stroke-opacity:1;stroke-miterlimit:10;" d="M 1100 2100 L 1100 2200 L 2000 2200 L 2000 2100 L 1100 2100 " transform="matrix(0.1,0,0,-0.1,0,792)"/>
<path style="fill:none;stroke-width:1;stroke-linecap:butt;stroke-linejoin:miter;stroke:rgb(0%,0%,0%);stroke-opacity:1;stroke-miterlimit:10;" d="M 2300 2100 L 2300 2200 L 2900 2200 L 2900 2100 L 2300 2100 " transform="matrix(0.1,0,0,-0.1,0,792)"/>
<path style="fill:none;stroke-width:1;stroke-linecap:butt;stroke-linejoin:miter;stroke:rgb(0%,0%,0%);stroke-opacity:1;stroke-miterlimit:10;" d="M 800 1500 L 800 1600 L 1400 1600 L 1400 1500 L 800 1500 " transform="matrix(0.1,0,0,-0.1,0,792)"/>
<path style="fill:none;stroke-width:1;stroke-linecap:butt;stroke-linejoin:miter;stroke:rgb(0%,0%,0%);stroke-opacity:1;stroke-miterlimit:10;" d="M 1700 1500 L 1700 1600 L 2600 1600 L 2600 1500 L 1700 1500 " transform="matrix(0.1,0,0,-0.1,0,792)"/>
<path style="fill:none;stroke-width:1;stroke-linecap:butt;stroke-linejoin:miter;stroke:rgb(0%,0%,0%);stroke-opacity:1;stroke-miterlimit:10;" d="M 800 2700 L 800 2800 L 1400 2800 L 1400 2700 L 800 2700 " transform="matrix(0.1,0,0,-0.1,0,792)"/>
<path style="fill:none;stroke-width:1;stroke-linecap:butt;stroke-linejoin:miter;stroke:rgb(0%,0%,0%);stroke-opacity:1;stroke-miterlimit:10;" d="M 1700 2700 L 1700 2800 L 2600 2800 L 2600 2700 L 1700 2700 " transform="matrix(0.1,0,0,-0.1,0,792)"/>
<path style="fill:none;stroke-width:1;stroke-linecap:butt;stroke-linejoin:miter;stroke:rgb(0%,0%,0%);stroke-opacity:1;stroke-miterlimit:10;" d="M 1100 1100 L 1100 1400 L 1400 1400 L 1400 1100 L 1100 1100 " transform="matrix(0.1,0,0,-0.1,0,792)"/>
<path style="fill:none;stroke-width:1;stroke-linecap:butt;stroke-linejoin:miter;stroke:rgb(0%,0%,0%);stroke-opacity:1;stroke-miterlimit:10;" d="M 1700 1100 L 1700 1400 L 2000 1400 L 2000 1100 L 1700 1100 " transform="matrix(0.1,0,0,-0.1,0,792)"/>
<path style="fill:none;stroke-width:1;stroke-linecap:butt;stroke-linejoin:miter;stroke:rgb(0%,0%,0%);stroke-opacity:1;stroke-miterlimit:10;" d="M 2300 1100 L 2300 1400 L 2600 1400 L 2600 1100 L 2300 1100 " transform="matrix(0.1,0,0,-0.1,0,792)"/>
<path style="fill:none;stroke-width:1;stroke-linecap:butt;stroke-linejoin:miter;stroke:rgb(0%,0%,0%);stroke-opacity:1;stroke-miterlimit:10;" d="M 1100 1700 L 1100 2000 L 1400 2000 L 1400 1700 L 1100 1700 " transform="matrix(0.1,0,0,-0.1,0,792)"/>
<path style="fill:none;stroke-width:1;stroke-linecap:butt;stroke-linejoin:miter;stroke:rgb(0%,0%,0%);stroke-opacity:1;stroke-miterlimit:10;" d="M 1700 1700 L 1700 2000 L 2000 2000 L 2000 1700 L 1700 1700 " transform="matrix(0.1,0,0,-0.1,0,792)"/>
<path style="fill:none;stroke-width:1;stroke-linecap:butt;stroke-linejoin:miter;stroke:rgb(0%,0%,0%);stroke-opacity:1;stroke-miterlimit:10;" d="M 2300 1700 L 2300 2000 L 2600 2000 L 2600 1700 L 2300 1700 " transform="matrix(0.1,0,0,-0.1,0,792)"/>
<path style="fill:none;stroke-width:1;stroke-linecap:butt;stroke-linejoin:miter;stroke:rgb(0%,0%,0%);stroke-opacity:1;stroke-miterlimit:10;" d="M 1100 2300 L 1100 2600 L 1400 2600 L 1400 2300 L 1100 2300 " transform="matrix(0.1,0,0,-0.1,0,792)"/>
<path style="fill:none;stroke-width:1;stroke-linecap:butt;stroke-linejoin:miter;stroke:rgb(0%,0%,0%);stroke-opacity:1;stroke-miterlimit:10;" d="M 1700 2300 L 1700 2600 L 2000 2600 L 2000 2300 L 1700 2300 " transform="matrix(0.1,0,0,-0.1,0,792)"/>
<path style="fill:none;stroke-width:1;stroke-linecap:butt;stroke-linejoin:miter;stroke:rgb(0%,0%,0%);stroke-opacity:1;stroke-miterlimit:10;" d="M 2300 2300 L 2300 2600 L 2600 2600 L 2600 2300 L 2300 2300 " transform="matrix(0.1,0,0,-0.1,0,792)"/>
<path style="fill:none;stroke-width:1;stroke-linecap:butt;stroke-linejoin:miter;stroke:rgb(0%,0%,0%);stroke-opacity:1;stroke-miterlimit:10;" d="M 800 1500 C 661.914062 1500 550 1388.085938 550 1250 C 550 1111.914062 661.914062 1000 800 1000 L 800 900 C 606.71875 900 450 1056.71875 450 1250 C 450 1443.28125 606.71875 1600 800 1600 L 800 1500 " transform="matrix(0.1,0,0,-0.1,0,792)"/>
<path style="fill:none;stroke-width:1;stroke-linecap:butt;stroke-linejoin:miter;stroke:rgb(0%,0%,0%);stroke-opacity:1;stroke-miterlimit:10;" d="M 800 2700 C 661.914062 2700 550 2588.085938 550 2450 C 550 2311.914062 661.914062 2200 800 2200 L 800 2100 C 606.71875 2100 450 2256.71875 450 2450 C 450 2643.28125 606.71875 2800 800 2800 L 800 2700 " transform="matrix(0.1,0,0,-0.1,0,792)"/>
<path style="fill:none;stroke-width:1;stroke-linecap:butt;stroke-linejoin:miter;stroke:rgb(0%,0%,0%);stroke-opacity:1;stroke-miterlimit:10;" d="M 1500 2900 C 1500 3038.085938 1388.085938 3150 1250 3150 C 1111.914062 3150 1000 3038.085938 1000 2900 L 900 2900 C 900 3093.28125 1056.71875 3250 1250 3250 C 1443.28125 3250 1600 3093.28125 1600 2900 L 1500 2900 " transform="matrix(0.1,0,0,-0.1,0,792)"/>
<path style="fill:none;stroke-width:1;stroke-linecap:butt;stroke-linejoin:miter;stroke:rgb(0%,0%,0%);stroke-opacity:1;stroke-miterlimit:10;" d="M 2700 2900 C 2700 3038.085938 2588.085938 3150 2450 3150 C 2311.914062 3150 2200 3038.085938 2200 2900 L 2100 2900 C 2100 3093.28125 2256.71875 3250 2450 3250 C 2643.28125 3250 2800 3093.28125 2800 2900 L 2700 2900 " transform="matrix(0.1,0,0,-0.1,0,792)"/>
<path style="fill:none;stroke-width:1;stroke-linecap:butt;stroke-linejoin:miter;stroke:rgb(0%,0%,0%);stroke-opacity:1;stroke-miterlimit:10;" d="M 2900 1000 C 3038.085938 1000 3150 1111.914062 3150 1250 C 3150 1388.085938 3038.085938 1500 2900 1500 L 2900 1600 C 3093.28125 1600 3250 1443.28125 3250 1250 C 3250 1056.71875 3093.28125 900 2900 900 L 2900 1000 " transform="matrix(0.1,0,0,-0.1,0,792)"/>
<path style="fill:none;stroke-width:1;stroke-linecap:butt;stroke-linejoin:miter;stroke:rgb(0%,0%,0%);stroke-opacity:1;stroke-miterlimit:10;" d="M 2900 2200 C 3038.085938 2200 3150 2311.914062 3150 2450 C 3150 2588.085938 3038.085938 2700 2900 2700 L 2900 2800 C 3093.28125 2800 3250 2643.28125 3250 2450 C 3250 2256.71875 3093.28125 2100 2900 2100 L 2900 2200 " transform="matrix(0.1,0,0,-0.1,0,792)"/>
<path style="fill:none;stroke-width:1;stroke-linecap:butt;stroke-linejoin:miter;stroke:rgb(0%,0%,0%);stroke-opacity:1;stroke-miterlimit:10;" d="M 1000 800 C 1000 661.914062 1111.914062 550 1250 550 C 1388.085938 550 1500 661.914062 1500 800 L 1600 800 C 1600 606.71875 1443.28125 450 1250 450 C 1056.71875 450 900 606.71875 900 800 L 1000 800 " transform="matrix(0.1,0,0,-0.1,0,792)"/>
<path style="fill:none;stroke-width:1;stroke-linecap:butt;stroke-linejoin:miter;stroke:rgb(0%,0%,0%);stroke-opacity:1;stroke-miterlimit:10;" d="M 2200 800 C 2200 661.914062 2311.914062 550 2450 550 C 2588.085938 550 2700 661.914062 2700 800 L 2800 800 C 2800 606.71875 2643.28125 450 2450 450 C 2256.71875 450 2100 606.71875 2100 800 L 2200 800 " transform="matrix(0.1,0,0,-0.1,0,792)"/>
<path style="fill:none;stroke-width:1;stroke-linecap:butt;stroke-linejoin:miter;stroke:rgb(0%,0%,0%);stroke-opacity:1;stroke-miterlimit:10;" d="M 800 1100 C 717.148438 1100 650 1167.148438 650 1250 C 650 1332.851562 717.148438 1400 800 1400 Z M 800 1100 " transform="matrix(0.1,0,0,-0.1,0,792)"/>
<path style="fill:none;stroke-width:1;stroke-linecap:butt;stroke-linejoin:miter;stroke:rgb(0%,0%,0%);stroke-opacity:1;stroke-miterlimit:10;" d="M 800 2300 C 717.148438 2300 650 2367.148438 650 2450 C 650 2532.851562 717.148438 2600 800 2600 Z M 800 2300 " transform="matrix(0.1,0,0,-0.1,0,792)"/>
<path style="fill:none;stroke-width:1;stroke-linecap:butt;stroke-linejoin:miter;stroke:rgb(0%,0%,0%);stroke-opacity:1;stroke-miterlimit:10;" d="M 1100 2900 C 1100 2982.851562 1167.148438 3050 1250 3050 C 1332.851562 3050 1400 2982.851562 1400 2900 Z M 1100 2900 " transform="matrix(0.1,0,0,-0.1,0,792)"/>
<path style="fill:none;stroke-width:1;stroke-linecap:butt;stroke-linejoin:miter;stroke:rgb(0%,0%,0%);stroke-opacity:1;stroke-miterlimit:10;" d="M 2300 2900 C 2300 2982.851562 2367.148438 3050 2450 3050 C 2532.851562 3050 2600 2982.851562 2600 2900 Z M 2300 2900 " transform="matrix(0.1,0,0,-0.1,0,792)"/>
<path style="fill:none;stroke-width:1;stroke-linecap:butt;stroke-linejoin:miter;stroke:rgb(0%,0%,0%);stroke-opacity:1;stroke-miterlimit:10;" d="M 2900 1100 C 2982.851562 1100 3050 1167.148438 3050 1250 C 3050 1332.851562 2982.851562 1400 2900 1400 Z M 2900 1100 " transform="matrix(0.1,0,0,-0.1,0,792)"/>
<path style="fill:none;stroke-width:1;stroke-linecap:butt;stroke-linejoin:miter;stroke:rgb(0%,0%,0%);stroke-opacity:1;stroke-miterlimit:10;" d="M 2900 2300 C 2982.851562 2300 3050 2367.148438 3050 2450 C 3050 2532.851562 2982.851562 2600 2900 2600 Z M 2900 2300 " transform="matrix(0.1,0,0,-0.1,0,792)"/>
<path style="fill:none;stroke-width:1;stroke-linecap:butt;stroke-linejoin:miter;stroke:rgb(0%,0%,0%);stroke-opacity:1;stroke-miterlimit:10;" d="M 1100 800 C 1100 717.148438 1167.148438 650 1250 650 C 1332.851562 650 1400 717.148438 1400 800 Z M 1100 800 " transform="matrix(0.1,0,0,-0.1,0,792)"/>
<path style="fill:none;stroke-width:1;stroke-linecap:butt;stroke-linejoin:miter;stroke:rgb(0%,0%,0%);stroke-opacity:1;stroke-miterlimit:10;" d="M 2300 800 C 2300 717.148438 2367.148438 650 2450 650 C 2532.851562 650 2600 717.148438 2600 800 Z M 2300 800 " transform="matrix(0.1,0,0,-0.1,0,792)"/>
<path style="fill:none;stroke-width:1;stroke-linecap:butt;stroke-linejoin:miter;stroke:rgb(0%,0%,0%);stroke-opacity:1;stroke-miterlimit:10;" d="M 800 800 C 551.484375 800 350 1001.484375 350 1250 C 350 1498.515625 551.484375 1700 800 1700 L 800 2000 C 551.484375 2000 350 2201.484375 350 2450 C 350 2698.515625 551.484375 2900 800 2900 C 800 3148.515625 1001.484375 3350 1250 3350 C 1498.515625 3350 1700 3148.515625 1700 2900 L 2000 2900 C 2000 3148.515625 2201.484375 3350 2450 3350 C 2698.515625 3350 2900 3148.515625 2900 2900 C 3148.515625 2900 3350 2698.515625 3350 2450 C 3350 2201.484375 3148.515625 2000 2900 2000 L 2900 1700 C 3148.515625 1700 3350 1498.515625 3350 1250 C 3350 1001.484375 3148.515625 800 2900 800 C 2900 551.484375 2698.515625 350 2450 350 C 2201.484375 350 2000 551.484375 2000 800 L 1700 800 C 1700 551.484375 1498.515625 350 1250 350 C 1001.484375 350 800 551.484375 800 800 " transform="matrix(0.1,0,0,-0.1,0,792)"/>
</g>
</svg>
