<?xml version="1.0" encoding="UTF-8"?>
<svg xmlns="http://www.w3.org/2000/svg" xmlns:xlink="http://www.w3.org/1999/xlink" width="612pt" height="792pt" viewBox="0 0 612 792" version="1.1">
<g id="surface1">
<path style="fill:none;stroke-width:1;stroke-linecap:butt;stroke-linejoin:miter;stroke:rgb(0%,0%,0%);stroke-opacity:1;stroke-miterlimit:10;" d="M 3100 3050 C 3100 3491.835938 2741.835938 3850 2300 3850 C 1858.164062 3850 1500 3491.835938 1500 3050 C 1500 2608.164062 1858.164062 2250 2300 2250 C 2741.835938 2250 3100 2608.164062 3100 3050 " transform="matrix(0.1,0,0,-0.1,0,792)"/>
<path style="fill:none;stroke-width:1;stroke-linecap:butt;stroke-linejoin:miter;stroke:rgb(0%,0%,0%);stroke-opacity:1;stroke-miterlimit:10;" d="M 3200 3050 C 3200 3547.03125 2797.03125 3950 2300 3950 C 1802.96875 3950 1400 3547.03125 1400 3050 C 1400 2552.96875 1802.96875 2150 2300 2150 C 2797.03125 2150 3200 2552.96875 3200 3050 " transform="matrix(0.1,0,0,-0.1,0,792)"/>
<path style="fill:none;stroke-width:1;stroke-linecap:butt;stroke-linejoin:miter;stroke:rgb(0%,0%,0%);stroke-opacity:1;stroke-miterlimit:10;" d="M 3300 3050 C 3300 3602.265625 2852.265625 4050 2300 4050 C 1747.734375 4050 1300 3602.265625 1300 3050 C 1300 2497.734375 1747.734375 2050 2300 2050 C 2852.265625 2050 3300 2497.734375 3300 3050 " transform="matrix(0.1,0,0,-0.1,0,792)"/>
<path style="fill:none;stroke-width:1;stroke-linecap:butt;stroke-linejoin:miter;stroke:rgb(0%,0%,0%);stroke-opacity:1;stroke-miterlimit:10;" d="M 3400 3050 C 3400 3657.5 2907.5 4150 2300 4150 C 1692.5 4150 1200 3657.5 1200 3050 C 1200 2442.5 1692.5 1950 2300 1950 C 2907.5 1950 3400 2442.5 3400 3050 " transform="matrix(0.1,0,0,-0.1,0,792)"/>
<path style="fill:none;stroke-width:1;stroke-linecap:butt;stroke-linejoin:miter;stroke:rgb(0%,0%,0%);stroke-opacity:1;stroke-miterlimit:10;" d="M 4600 3050 C 4600 3491.835938 4241.835938 3850 3800 3850 C 3358.164062 3850 3000 3491.835938 3000 3050 C 3000 2608.164062 3358.164062 2250 3800 2250 C 4241.835938 2250 4600 2608.164062 4600 3050 " transform="matrix(0.1,0,0,-0.1,0,792)"/>
<path style="fill:none;stroke-width:1;stroke-linecap:butt;stroke-linejoin:miter;stroke:rgb(0%,0%,0%);stroke-opacity:1;stroke-miterlimit:10;" d="M 4700 3050 C 4700 3547.03125 4297.03125 3950 3800 3950 C 3302.96875 3950 2900 3547.03125 2900 3050 C 2900 2552.96875 3302.96875 2150 3800 2150 C 4297.03125 2150 4700 2552.96875 4700 3050 " transform="matrix(0.1,0,0,-0.1,0,792)"/>
<path style="fill:none;stroke-width:1;stroke-linecap:butt;stroke-linejoin:miter;stroke:rgb(0%,0%,0%);stroke-opacity:1;stroke-miterlimit:10;" d="M 4800 3050 C 4800 3602.265625 4352.265625 4050 3800 4050 C 3247.734375 4050 2800 3602.265625 2800 3050 C 2800 2497.734375 3247.734375 2050 3800 2050 C 4352.265625 2050 4800 2497.734375 4800 3050 " transform="matrix(0.1,0,0,-0.1,0,792)"/>
<path style="fill:none;stroke-width:1;stroke-linecap:butt;stroke-linejoin:miter;stroke:rgb(0%,0%,0%);stroke-opacity:1;stroke-miterlimit:10;" d="M 4900 3050 C 4900 3657.5 4407.5 4150 3800 4150 C 3192.5 4150 2700 3657.5 2700 3050 C 2700 2442.5 3192.5 1950 3800 1950 C 4407.5 1950 4900 2442.5 4900 3050 " transform="matrix(0.1,0,0,-0.1,0,792)"/>
<path style="fill:none;stroke-width:1;stroke-linecap:butt;stroke-linejoin:miter;stroke:rgb(0%,0%,0%);stroke-opacity:1;stroke-miterlimit:10;" d="M 3850 2300 C 3850 2741.835938 3491.835938 3100 3050 3100 C 2608.164062 3100 2250 2741.835938 2250 2300 C 2250 1858.164062 2608.164062 1500 3050 1500 C 3491.835938 1500 3850 1858.164062 3850 2300 " transform="matrix(0.1,0,0,-0.1,0,792)"/>
<path style="fill:none;stroke-width:1;stroke-linecap:butt;stroke-linejoin:miter;stroke:rgb(0%,0%,0%);stroke-opacity:1;stroke-miterlimit:10;" d="M 3950 2300 C 3950 2797.03125 3547.03125 3200 3050 3200 C 2552.96875 3200 2150 2797.03125 2150 2300 C 2150 1802.96875 2552.96875 1400 3050 1400 C 3547.03125 1400 3950 1802.96875 3950 2300 " transform="matrix(0.1,0,0,-0.1,0,792)"/>
<path style="fill:none;stroke-width:1;stroke-linecap:butt;stroke-linejoin:miter;stroke:rgb(0%,0%,0%);stroke-opacity:1;stroke-miterlimit:10;" d="M 4050 2300 C 4050 2852.265625 3602.265625 3300 3050 3300 C 2497.734375 3300 2050 2852.265625 2050 2300 C 2050 1747.734375 2497.734375 1300 3050 1300 C 3602.265625 1300 4050 1747.734375 4050 2300 " transform="matrix(0.1,0,0,-0.1,0,792)"/>
<path style="fill:none;stroke-width:1;stroke-linecap:butt;stroke-linejoin:miter;stroke:rgb(0%,0%,0%);stroke-opacity:1;stroke-miterlimit:10;" d="M 4150 2300 C 4150 2907.5 3657.5 3400 3050 3400 C 2442.5 3400 1950 2907.5 1950 2300 C 1950 1692.5 2442.5 1200 3050 1200 C 3657.5 1200 4150 1692.5 4150 2300 " transform="matrix(0.1,0,0,-0.1,0,792)"/>
<path style="fill:none;stroke-width:1;stroke-linecap:butt;stroke-linejoin:miter;stroke:rgb(0%,0%,0%);stroke-opacity:1;stroke-miterlimit:10;" d="M 3850 3800 C 3850 4241.835938 3491.835938 4600 3050 4600 C 2608.164062 4600 2250 4241.835938 2250 3800 C 2250 3358.164062 2608.164062 3000 3050 3000 C 3491.835938 3000 3850 3358.164062 3850 3800 " transform="matrix(0.1,0,0,-0.1,0,792)"/>
<path style="fill:none;stroke-width:1;stroke-linecap:butt;stroke-linejoin:miter;stroke:rgb(0%,0%,0%);stroke-opacity:1;stroke-miterlimit:10;" d="M 3950 3800 C 3950 4297.03125 3547.03125 4700 3050 4700 C 2552.96875 4700 2150 4297.03125 2150 3800 C 2150 3302.96875 2552.96875 2900 3050 2900 C 3547.03125 2900 3950 3302.96875 3950 3800 " transform="matrix(0.1,0,0,-0.1,0,792)"/>
<path style="fill:none;stroke-width:1;stroke-linecap:butt;stroke-linejoin:miter;stroke:rgb(0%,0%,0%);stroke-opacity:1;stroke-miterlimit:10;" d="M 4050 3800 C 4050 4352.265625 3602.265625 4800 3050 4800 C 2497.734375 4800 2050 4352.265625 2050 3800 C 2050 3247.734375 2497.734375 2800 3050 2800 C 3602.265625 2800 4050 3247.734375 4050 3800 " transform="matrix(0.1,0,0,-0.1,0,792)"/>
<path style="fill:none;stroke-width:1;stroke-linecap:butt;stroke-linejoin:miter;stroke:rgb(0%,0%,0%);stroke-opacity:1;stroke-miterlimit:10;" d="M 4150 3800 C 4150 4407.5 3657.5 4900 3050 4900 C 2442.5 4900 1950 4407.5 1950 3800 C 1950 3192.5 2442.5 2700 3050 2700 C 3657.5 2700 4150 3192.5 4150 3800 " transform="matrix(0.1,0,0,-0.1,0,792)"/>
<path style="fill:none;stroke-width:1;stroke-linecap:butt;stroke-linejoin:miter;stroke:rgb(0%,0%,0%);stroke-opacity:1;stroke-miterlimit:10;" d="M 3800 3050 C 3800 3464.21875 3464.21875 3800 3050 3800 C 2635.78125 3800 2300 3464.21875 2300 3050 C 2300 2635.78125 2635.78125 2300 3050 2300 C 3464.21875 2300 3800 2635.78125 3800 3050 " transform="matrix(0.1,0,0,-0.1,0,792)"/>
<path style="fill:none;stroke-width:1;stroke-linecap:butt;stroke-linejoin:miter;stroke:rgb(0%,0%,0%);stroke-opacity:1;stroke-miterlimit:10;" d="M 3900 3050 C 3900 3519.453125 3519.453125 3900 3050 3900 C 2580.546875 3900 2200 3519.453125 2200 3050 C 2200 2580.546875 2580.546875 2200 3050 2200 C 3519.453125 2200 3900 2580.546875 3900 3050 " transform="matrix(0.1,0,0,-0.1,0,792)"/>
<path style="fill:none;stroke-width:1;stroke-linecap:butt;stroke-linejoin:miter;stroke:rgb(0%,0%,0%);stroke-opacity:1;stroke-miterlimit:10;" d="M 4000 3050 C 4000 3574.6875 3574.6875 4000 3050 4000 C 2525.3125 4000 2100 3574.6875 2100 3050 C 2100 2525.3125 2525.3125 2100 3050 2100 C 3574.6875 2100 4000 2525.3125 4000 3050 " transform="matrix(0.1,0,0,-0.1,0,792)"/>
<path style="fill:none;stroke-width:1;stroke-linecap:butt;stroke-linejoin:miter;stroke:rgb(0%,0%,0%);stroke-opacity:1;stroke-miterlimit:10;" d="M 4100 3050 C 4100 3629.882812 3629.882812 4100 3050 4100 C 2470.117188 4100 2000 3629.882812 2000 3050 C 2000 2470.117188 2470.117188 2000 3050 2000 C 3629.882812 2000 4100 2470.117188 4100 3050 " transform="matrix(0.1,0,0,-0.1,0,792)"/>
</g>
</svg>
