<?xml version="1.0" encoding="UTF-8" standalone="no"?>
<svg
   width="612pt"
   height="792pt"
   viewBox="0 0 612 792"
   version="1.1"
   id="svg103"
   sodipodi:docname="basket.svg"
   inkscape:version="1.2.1 (1:1.2.1+202210291244+9c6d41e410)"
   xmlns:inkscape="http://www.inkscape.org/namespaces/inkscape"
   xmlns:sodipodi="http://sodipodi.sourceforge.net/DTD/sodipodi-0.dtd"
   xmlns="http://www.w3.org/2000/svg"
   xmlns:svg="http://www.w3.org/2000/svg">
  <defs
     id="defs107" />
  <sodipodi:namedview
     id="namedview105"
     pagecolor="#ffffff"
     bordercolor="#000000"
     borderopacity="0.25"
     inkscape:showpageshadow="2"
     inkscape:pageopacity="0.0"
     inkscape:pagecheckerboard="0"
     inkscape:deskcolor="#d1d1d1"
     inkscape:document-units="pt"
     showgrid="false"
     inkscape:zoom="1.7878788"
     inkscape:cx="485.21187"
     inkscape:cy="685.72881"
     inkscape:window-width="1920"
     inkscape:window-height="1114"
     inkscape:window-x="0"
     inkscape:window-y="28"
     inkscape:window-maximized="1"
     inkscape:current-layer="svg103" />
  <g
     id="surface1"
     transform="rotate(45,325,497)">
    <path
       style="fill:none;stroke:#000000;stroke-width:1;stroke-linecap:butt;stroke-linejoin:miter;stroke-miterlimit:10;stroke-opacity:1"
       d="m 2300,2200 v 900 h 100 v -900 h -100"
       transform="matrix(0.1,0,0,-0.1,0,792)"
       id="path2" />
    <path
       id="path4"
       style="fill:none;stroke:#000000;stroke-width:1;stroke-linecap:butt;stroke-linejoin:miter;stroke-miterlimit:10;stroke-opacity:1"
       d="m 2950.0049,4650 c -358.984,0 -650.0098,-291.0111 -650.0098,-649.9951 v -600 H 2400 v 600 c 0,303.7497 246.2552,549.9902 550.0049,549.9902 27.8906,0 55.7422,-2.0996 83.3203,-6.3574 31.0156,29.4922 64.4434,56.2012 99.9902,79.9512 C 3073.7842,4641.0888 3012.0361,4650 2950.0049,4650 Z"
       transform="matrix(0.1,0,0,-0.1,0,792)" />
    <path
       style="fill:none;stroke:#000000;stroke-width:1;stroke-linecap:butt;stroke-linejoin:miter;stroke-miterlimit:10;stroke-opacity:1"
       d="m 3500,2200 v 900 h 100 v -900 h -100"
       transform="matrix(0.1,0,0,-0.1,0,792)"
       id="path6" />
    <path
       id="path8"
       style="fill:none;stroke:#000000;stroke-width:1;stroke-linecap:butt;stroke-linejoin:miter;stroke-miterlimit:10;stroke-opacity:1"
       d="m 3433.3154,4434.6094 c -34.8046,-9.336 -68.3887,-22.8516 -99.9902,-40.1953 106.5624,-103.5546 166.6699,-245.8156 166.6699,-394.4092 v -600 H 3600 v 600 c 0,160.4686 -59.38,315.2687 -166.6846,434.6045 z"
       transform="matrix(0.1,0,0,-0.1,0,792)" />
    <path
       id="path10"
       style="fill:none;stroke:#000000;stroke-width:1;stroke-linecap:butt;stroke-linejoin:miter;stroke-miterlimit:10;stroke-opacity:1"
       d="m 2899.9951,2500.0049 v -600 c 0,-160.4686 59.38,-315.2833 166.6846,-434.6192 34.8046,9.336 68.4033,22.8516 100.0049,40.1954 l -11.1035,11.1035 C 3055.8155,1619.3407 3000,1756.841 3000,1900.0049 v 600 z"
       transform="matrix(0.1,0,0,-0.1,0,792)" />
    <path
       style="fill:none;stroke:#000000;stroke-width:1;stroke-linecap:butt;stroke-linejoin:miter;stroke-miterlimit:10;stroke-opacity:1"
       d="m 2900,2800 v 900 h 100 v -900 h -100"
       transform="matrix(0.1,0,0,-0.1,0,792)"
       id="path12" />
    <path
       id="path14"
       style="fill:none;stroke:#000000;stroke-width:1;stroke-linecap:butt;stroke-linejoin:miter;stroke-miterlimit:10;stroke-opacity:1"
       d="m 4099.9951,2500.0049 v -600 c 0,-303.7497 -246.2405,-550.0049 -549.9902,-550.0049 -27.8906,0 -55.7422,2.1533 -83.3203,6.3721 -31.0156,-29.4531 -64.4581,-56.2159 -100.0049,-79.9659 59.5312,-17.4999 121.294,-26.4111 183.3252,-26.4111 358.984,0 649.9951,291.0258 649.9951,650.0098 v 600 z"
       transform="matrix(0.1,0,0,-0.1,0,792)" />
    <path
       style="fill:none;stroke:#000000;stroke-width:1;stroke-linecap:butt;stroke-linejoin:miter;stroke-miterlimit:10;stroke-opacity:1"
       d="m 4100,2800 v 900 h 100 v -900 h -100"
       transform="matrix(0.1,0,0,-0.1,0,792)"
       id="path16" />
    <path
       id="path18"
       style="fill:none;stroke:#000000;stroke-width:1;stroke-linecap:butt;stroke-linejoin:miter;stroke-miterlimit:10;stroke-opacity:1"
       d="m 1576.4063,2833.3154 c -17.5,-59.5312 -26.4112,-121.2793 -26.4112,-183.3105 0,-358.984 291.0258,-650.0098 650.0098,-650.0098 h 600 V 2100 h -600 C 1896.2552,2100 1650,2346.2552 1650,2650.0049 c 0,27.8906 2.1533,55.7422 6.3721,83.3203 -29.4531,31.0156 -56.2159,64.4434 -79.9658,99.9902 z"
       transform="matrix(0.1,0,0,-0.1,0,792)" />
    <path
       style="fill:none;stroke:#000000;stroke-width:1;stroke-linecap:butt;stroke-linejoin:miter;stroke-miterlimit:10;stroke-opacity:1"
       d="m 3100,2000 v 100 h 900 v -100 h -900"
       transform="matrix(0.1,0,0,-0.1,0,792)"
       id="path20" />
    <path
       id="path22"
       style="fill:none;stroke:#000000;stroke-width:1;stroke-linecap:butt;stroke-linejoin:miter;stroke-miterlimit:10;stroke-opacity:1"
       d="m 2200.0049,3300 c -160.4686,0 -315.2833,-59.38 -434.6192,-166.6846 9.336,-34.8046 22.8516,-68.3887 40.1954,-99.9902 l 11.1035,11.0889 c 102.6561,99.7655 240.1564,155.581 383.3203,155.581 h 600 V 3300 Z"
       transform="matrix(0.1,0,0,-0.1,0,792)" />
    <path
       style="fill:none;stroke:#000000;stroke-width:1;stroke-linecap:butt;stroke-linejoin:miter;stroke-miterlimit:10;stroke-opacity:1"
       d="m 3100,3200 v 100 h 900 v -100 h -900"
       transform="matrix(0.1,0,0,-0.1,0,792)"
       id="path24" />
    <path
       style="fill:none;stroke:#000000;stroke-width:1;stroke-linecap:butt;stroke-linejoin:miter;stroke-miterlimit:10;stroke-opacity:1"
       d="m 2500,2600 v 100 h 900 v -100 h -900"
       transform="matrix(0.1,0,0,-0.1,0,792)"
       id="path26" />
    <path
       id="path28"
       style="fill:none;stroke:#000000;stroke-width:1;stroke-linecap:butt;stroke-linejoin:miter;stroke-miterlimit:10;stroke-opacity:1"
       d="m 4694.4141,2866.6846 -11.0889,-11.1035 C 4580.669,2755.8155 4443.1688,2700 4300.0049,2700 h -600 v -100.0049 h 600 c 160.4686,0 315.2687,59.38 434.6045,166.6846 -9.336,34.8046 -22.8516,68.4033 -40.1953,100.0049 z"
       transform="matrix(0.1,0,0,-0.1,0,792)" />
    <path
       style="fill:none;stroke:#000000;stroke-width:1;stroke-linecap:butt;stroke-linejoin:miter;stroke-miterlimit:10;stroke-opacity:1"
       d="m 2500,3800 v 100 h 900 v -100 h -900"
       transform="matrix(0.1,0,0,-0.1,0,792)"
       id="path30" />
    <path
       id="path32"
       style="fill:none;stroke:#000000;stroke-width:1;stroke-linecap:butt;stroke-linejoin:miter;stroke-miterlimit:10;stroke-opacity:1"
       d="m 3700.0049,3900 v -100.0049 h 600 c 303.7497,0 549.9902,-246.2405 549.9902,-549.9902 0,-27.8906 -2.0996,-55.7422 -6.3574,-83.3203 29.4922,-31.0156 56.2012,-64.4581 79.9512,-100.0049 17.4999,59.5312 26.4111,121.294 26.4111,183.3252 C 4950,3608.9889 4658.9889,3900 4300.0049,3900 Z"
       transform="matrix(0.1,0,0,-0.1,0,792)" />
    <path
       style="fill:none;stroke:#000000;stroke-width:1;stroke-linecap:butt;stroke-linejoin:miter;stroke-miterlimit:10;stroke-opacity:1"
       d="m 2500,2200 v 300 h 300 v -300 h -300"
       transform="matrix(0.1,0,0,-0.1,0,792)"
       id="path34" />
    <path
       style="fill:none;stroke:#000000;stroke-width:1;stroke-linecap:butt;stroke-linejoin:miter;stroke-miterlimit:10;stroke-opacity:1"
       d="m 2500,2800 v 300 h 300 v -300 h -300"
       transform="matrix(0.1,0,0,-0.1,0,792)"
       id="path36" />
    <path
       style="fill:none;stroke:#000000;stroke-width:1;stroke-linecap:butt;stroke-linejoin:miter;stroke-miterlimit:10;stroke-opacity:1"
       d="m 2500,3400 v 300 h 300 v -300 h -300"
       transform="matrix(0.1,0,0,-0.1,0,792)"
       id="path38" />
    <path
       style="fill:none;stroke:#000000;stroke-width:1;stroke-linecap:butt;stroke-linejoin:miter;stroke-miterlimit:10;stroke-opacity:1"
       d="m 3100,2200 v 300 h 300 v -300 h -300"
       transform="matrix(0.1,0,0,-0.1,0,792)"
       id="path40" />
    <path
       style="fill:none;stroke:#000000;stroke-width:1;stroke-linecap:butt;stroke-linejoin:miter;stroke-miterlimit:10;stroke-opacity:1"
       d="m 3100,2800 v 300 h 300 v -300 h -300"
       transform="matrix(0.1,0,0,-0.1,0,792)"
       id="path42" />
    <path
       style="fill:none;stroke:#000000;stroke-width:1;stroke-linecap:butt;stroke-linejoin:miter;stroke-miterlimit:10;stroke-opacity:1"
       d="m 3100,3400 v 300 h 300 v -300 h -300"
       transform="matrix(0.1,0,0,-0.1,0,792)"
       id="path44" />
    <path
       style="fill:none;stroke:#000000;stroke-width:1;stroke-linecap:butt;stroke-linejoin:miter;stroke-miterlimit:10;stroke-opacity:1"
       d="m 3700,2200 v 300 h 300 v -300 h -300"
       transform="matrix(0.1,0,0,-0.1,0,792)"
       id="path46" />
    <path
       style="fill:none;stroke:#000000;stroke-width:1;stroke-linecap:butt;stroke-linejoin:miter;stroke-miterlimit:10;stroke-opacity:1"
       d="m 3700,2800 v 300 h 300 v -300 h -300"
       transform="matrix(0.1,0,0,-0.1,0,792)"
       id="path48" />
    <path
       style="fill:none;stroke:#000000;stroke-width:1;stroke-linecap:butt;stroke-linejoin:miter;stroke-miterlimit:10;stroke-opacity:1"
       d="m 3700,3400 v 300 h 300 v -300 h -300"
       transform="matrix(0.1,0,0,-0.1,0,792)"
       id="path50" />
    <path
       style="fill:none;stroke:#000000;stroke-width:1;stroke-linecap:butt;stroke-linejoin:miter;stroke-miterlimit:10;stroke-opacity:1"
       d="m 2200,3800 c -303.75,0 -550,-246.25 -550,-550 0,-303.75 246.25,-550 550,-550 v -100 c -358.9844,0 -650,291.0156 -650,650 0,358.9844 291.0156,650 650,650 v -100"
       transform="matrix(0.1,0,0,-0.1,0,792)"
       id="path52" />
    <path
       style="fill:none;stroke:#000000;stroke-width:1;stroke-linecap:butt;stroke-linejoin:miter;stroke-miterlimit:10;stroke-opacity:1"
       d="m 4100,4000 c 0,303.75 -246.25,550 -550,550 -303.75,0 -550,-246.25 -550,-550 h -100 c 0,358.9844 291.0156,650 650,650 358.9844,0 650,-291.0156 650,-650 h -100"
       transform="matrix(0.1,0,0,-0.1,0,792)"
       id="path54" />
    <path
       style="fill:none;stroke:#000000;stroke-width:1;stroke-linecap:butt;stroke-linejoin:miter;stroke-miterlimit:10;stroke-opacity:1"
       d="m 4300,2100 c 303.75,0 550,246.25 550,550 0,303.75 -246.25,550 -550,550 v 100 c 358.9844,0 650,-291.0156 650,-650 0,-358.9844 -291.0156,-650 -650,-650 v 100"
       transform="matrix(0.1,0,0,-0.1,0,792)"
       id="path56" />
    <path
       style="fill:none;stroke:#000000;stroke-width:1;stroke-linecap:butt;stroke-linejoin:miter;stroke-miterlimit:10;stroke-opacity:1"
       d="m 2400,1900 c 0,-303.75 246.25,-550 550,-550 303.75,0 550,246.25 550,550 h 100 c 0,-358.9844 -291.0156,-650 -650,-650 -358.9844,0 -650,291.0156 -650,650 h 100"
       transform="matrix(0.1,0,0,-0.1,0,792)"
       id="path58" />
    <path
       style="fill:none;stroke:#000000;stroke-width:1;stroke-linecap:butt;stroke-linejoin:miter;stroke-miterlimit:10;stroke-opacity:1"
       d="m 2200,3100 v -300 300 c -128.0469,0 -250.0391,-54.5703 -335.3906,-150 85.3515,-95.4297 207.3437,-150 335.3906,-150"
       transform="matrix(0.1,0,0,-0.1,0,792)"
       id="path60" />
    <path
       style="fill:none;stroke:#000000;stroke-width:1;stroke-linecap:butt;stroke-linejoin:miter;stroke-miterlimit:10;stroke-opacity:1"
       d="m 3400,4000 h -300 300 c 0,128.0469 -54.5703,250.0391 -150,335.3906 C 3154.5703,4250.0391 3100,4128.0469 3100,4000"
       transform="matrix(0.1,0,0,-0.1,0,792)"
       id="path62" />
    <path
       style="fill:none;stroke:#000000;stroke-width:1;stroke-linecap:butt;stroke-linejoin:miter;stroke-miterlimit:10;stroke-opacity:1"
       d="m 4300,2800 v 300 -300 c 128.0469,0 250.0391,54.5703 335.3906,150 -85.3515,95.4297 -207.3437,150 -335.3906,150"
       transform="matrix(0.1,0,0,-0.1,0,792)"
       id="path64" />
    <path
       style="fill:none;stroke:#000000;stroke-width:1;stroke-linecap:butt;stroke-linejoin:miter;stroke-miterlimit:10;stroke-opacity:1"
       d="m 3100,1900 h 300 -300 c 0,-128.0469 54.5703,-250.0391 150,-335.3906 95.4297,85.3515 150,207.3437 150,335.3906"
       transform="matrix(0.1,0,0,-0.1,0,792)"
       id="path66" />
    <path
       style="fill:none;stroke:#000000;stroke-width:1;stroke-linecap:butt;stroke-linejoin:miter;stroke-miterlimit:10;stroke-opacity:1"
       d="m 2200,2500 c -162.2656,0 -320.1953,52.6563 -450,150 0,-248.5156 201.4844,-450 450,-450 z m 0,0"
       transform="matrix(0.1,0,0,-0.1,0,792)"
       id="path68" />
    <path
       style="fill:none;stroke:#000000;stroke-width:1;stroke-linecap:butt;stroke-linejoin:miter;stroke-miterlimit:10;stroke-opacity:1"
       d="m 2200,3400 c -162.2656,0 -320.1953,-52.6562 -450,-150 0,248.5156 201.4844,450 450,450 z m 0,0"
       transform="matrix(0.1,0,0,-0.1,0,792)"
       id="path70" />
    <path
       style="fill:none;stroke:#000000;stroke-width:1;stroke-linecap:butt;stroke-linejoin:miter;stroke-miterlimit:10;stroke-opacity:1"
       d="m 2800,4000 c 0,162.2656 52.6563,320.1953 150,450 -248.5156,0 -450,-201.4844 -450,-450 z m 0,0"
       transform="matrix(0.1,0,0,-0.1,0,792)"
       id="path72" />
    <path
       style="fill:none;stroke:#000000;stroke-width:1;stroke-linecap:butt;stroke-linejoin:miter;stroke-miterlimit:10;stroke-opacity:1"
       d="m 3700,4000 c 0,162.2656 -52.6562,320.1953 -150,450 248.5156,0 450,-201.4844 450,-450 z m 0,0"
       transform="matrix(0.1,0,0,-0.1,0,792)"
       id="path74" />
    <path
       style="fill:none;stroke:#000000;stroke-width:1;stroke-linecap:butt;stroke-linejoin:miter;stroke-miterlimit:10;stroke-opacity:1"
       d="m 4300,3400 c 162.2656,0 320.1953,-52.6562 450,-150 0,248.5156 -201.4844,450 -450,450 z m 0,0"
       transform="matrix(0.1,0,0,-0.1,0,792)"
       id="path76" />
    <path
       style="fill:none;stroke:#000000;stroke-width:1;stroke-linecap:butt;stroke-linejoin:miter;stroke-miterlimit:10;stroke-opacity:1"
       d="m 4300,2500 c 162.2656,0 320.1953,52.6563 450,150 0,-248.5156 -201.4844,-450 -450,-450 z m 0,0"
       transform="matrix(0.1,0,0,-0.1,0,792)"
       id="path78" />
    <path
       style="fill:none;stroke:#000000;stroke-width:1;stroke-linecap:butt;stroke-linejoin:miter;stroke-miterlimit:10;stroke-opacity:1"
       d="m 3700,1900 c 0,-162.2656 -52.6562,-320.1953 -150,-450 248.5156,0 450,201.4844 450,450 z m 0,0"
       transform="matrix(0.1,0,0,-0.1,0,792)"
       id="path80" />
    <path
       style="fill:none;stroke:#000000;stroke-width:1;stroke-linecap:butt;stroke-linejoin:miter;stroke-miterlimit:10;stroke-opacity:1"
       d="m 2800,1900 c 0,-162.2656 52.6563,-320.1953 150,-450 -248.5156,0 -450,201.4844 -450,450 z m 0,0"
       transform="matrix(0.1,0,0,-0.1,0,792)"
       id="path82" />
    <path
       style="fill:none;stroke:#000000;stroke-width:1;stroke-linecap:butt;stroke-linejoin:miter;stroke-miterlimit:10;stroke-opacity:1"
       d="m 2200,1900 c -414.2187,0 -750,335.7813 -750,750 0,103.2422 21.3281,205.3906 62.6172,300 -41.2891,94.6094 -62.6172,196.7578 -62.6172,300 0,414.2188 335.7813,750 750,750 0,414.2187 335.7813,750 750,750 103.2422,0 205.3906,-21.3281 300,-62.6172 94.6094,41.2891 196.7578,62.6172 300,62.6172 414.2188,0 750,-335.7813 750,-750 414.2187,0 750,-335.7812 750,-750 0,-103.2422 -21.3281,-205.3906 -62.6172,-300 41.2891,-94.6094 62.6172,-196.7578 62.6172,-300 0,-414.2187 -335.7813,-750 -750,-750 0,-414.2187 -335.7812,-750 -750,-750 -103.2422,0 -205.3906,21.3281 -300,62.6172 C 3155.3906,1171.3281 3053.2422,1150 2950,1150 c -414.2187,0 -750,335.7813 -750,750"
       transform="matrix(0.1,0,0,-0.1,0,792)"
       id="path100" />
  </g>
</svg>
