<?xml version="1.0" encoding="UTF-8"?>
<svg xmlns="http://www.w3.org/2000/svg" xmlns:xlink="http://www.w3.org/1999/xlink" width="612pt" height="792pt" viewBox="0 0 612 792" version="1.1">
<g id="surface1">
<path style="fill:none;stroke-width:1;stroke-linecap:butt;stroke-linejoin:miter;stroke:rgb(0%,0%,0%);stroke-opacity:1;stroke-miterlimit:10;" d="M 2300 2200 L 2300 3100 L 2400 3100 L 2400 2200 L 2300 2200 " transform="matrix(0.1,0,0,-0.1,0,792)"/>
<path style="fill:none;stroke-width:1;stroke-linecap:butt;stroke-linejoin:miter;stroke:rgb(0%,0%,0%);stroke-opacity:1;stroke-miterlimit:10;" d="M 2300 3400 L 2300 4000 L 2400 4000 L 2400 3400 L 2300 3400 " transform="matrix(0.1,0,0,-0.1,0,792)"/>
<path style="fill:none;stroke-width:1;stroke-linecap:butt;stroke-linejoin:miter;stroke:rgb(0%,0%,0%);stroke-opacity:1;stroke-miterlimit:10;" d="M 3500 2200 L 3500 3100 L 3600 3100 L 3600 2200 L 3500 2200 " transform="matrix(0.1,0,0,-0.1,0,792)"/>
<path style="fill:none;stroke-width:1;stroke-linecap:butt;stroke-linejoin:miter;stroke:rgb(0%,0%,0%);stroke-opacity:1;stroke-miterlimit:10;" d="M 3500 3400 L 3500 4000 L 3600 4000 L 3600 3400 L 3500 3400 " transform="matrix(0.1,0,0,-0.1,0,792)"/>
<path style="fill:none;stroke-width:1;stroke-linecap:butt;stroke-linejoin:miter;stroke:rgb(0%,0%,0%);stroke-opacity:1;stroke-miterlimit:10;" d="M 2900 1900 L 2900 2500 L 3000 2500 L 3000 1900 L 2900 1900 " transform="matrix(0.1,0,0,-0.1,0,792)"/>
<path style="fill:none;stroke-width:1;stroke-linecap:butt;stroke-linejoin:miter;stroke:rgb(0%,0%,0%);stroke-opacity:1;stroke-miterlimit:10;" d="M 2900 2800 L 2900 3700 L 3000 3700 L 3000 2800 L 2900 2800 " transform="matrix(0.1,0,0,-0.1,0,792)"/>
<path style="fill:none;stroke-width:1;stroke-linecap:butt;stroke-linejoin:miter;stroke:rgb(0%,0%,0%);stroke-opacity:1;stroke-miterlimit:10;" d="M 4100 1900 L 4100 2500 L 4200 2500 L 4200 1900 L 4100 1900 " transform="matrix(0.1,0,0,-0.1,0,792)"/>
<path style="fill:none;stroke-width:1;stroke-linecap:butt;stroke-linejoin:miter;stroke:rgb(0%,0%,0%);stroke-opacity:1;stroke-miterlimit:10;" d="M 4100 2800 L 4100 3700 L 4200 3700 L 4200 2800 L 4100 2800 " transform="matrix(0.1,0,0,-0.1,0,792)"/>
<path style="fill:none;stroke-width:1;stroke-linecap:butt;stroke-linejoin:miter;stroke:rgb(0%,0%,0%);stroke-opacity:1;stroke-miterlimit:10;" d="M 2200 2000 L 2200 2100 L 2800 2100 L 2800 2000 L 2200 2000 " transform="matrix(0.1,0,0,-0.1,0,792)"/>
<path style="fill:none;stroke-width:1;stroke-linecap:butt;stroke-linejoin:miter;stroke:rgb(0%,0%,0%);stroke-opacity:1;stroke-miterlimit:10;" d="M 3100 2000 L 3100 2100 L 4000 2100 L 4000 2000 L 3100 2000 " transform="matrix(0.1,0,0,-0.1,0,792)"/>
<path style="fill:none;stroke-width:1;stroke-linecap:butt;stroke-linejoin:miter;stroke:rgb(0%,0%,0%);stroke-opacity:1;stroke-miterlimit:10;" d="M 2200 3200 L 2200 3300 L 2800 3300 L 2800 3200 L 2200 3200 " transform="matrix(0.1,0,0,-0.1,0,792)"/>
<path style="fill:none;stroke-width:1;stroke-linecap:butt;stroke-linejoin:miter;stroke:rgb(0%,0%,0%);stroke-opacity:1;stroke-miterlimit:10;" d="M 3100 3200 L 3100 3300 L 4000 3300 L 4000 3200 L 3100 3200 " transform="matrix(0.1,0,0,-0.1,0,792)"/>
<path style="fill:none;stroke-width:1;stroke-linecap:butt;stroke-linejoin:miter;stroke:rgb(0%,0%,0%);stroke-opacity:1;stroke-miterlimit:10;" d="M 2500 2600 L 2500 2700 L 3400 2700 L 3400 2600 L 2500 2600 " transform="matrix(0.1,0,0,-0.1,0,792)"/>
<path style="fill:none;stroke-width:1;stroke-linecap:butt;stroke-linejoin:miter;stroke:rgb(0%,0%,0%);stroke-opacity:1;stroke-miterlimit:10;" d="M 3700 2600 L 3700 2700 L 4300 2700 L 4300 2600 L 3700 2600 " transform="matrix(0.1,0,0,-0.1,0,792)"/>
<path style="fill:none;stroke-width:1;stroke-linecap:butt;stroke-linejoin:miter;stroke:rgb(0%,0%,0%);stroke-opacity:1;stroke-miterlimit:10;" d="M 2500 3800 L 2500 3900 L 3400 3900 L 3400 3800 L 2500 3800 " transform="matrix(0.1,0,0,-0.1,0,792)"/>
<path style="fill:none;stroke-width:1;stroke-linecap:butt;stroke-linejoin:miter;stroke:rgb(0%,0%,0%);stroke-opacity:1;stroke-miterlimit:10;" d="M 3700 3800 L 3700 3900 L 4300 3900 L 4300 3800 L 3700 3800 " transform="matrix(0.1,0,0,-0.1,0,792)"/>
<path style="fill:none;stroke-width:1;stroke-linecap:butt;stroke-linejoin:miter;stroke:rgb(0%,0%,0%);stroke-opacity:1;stroke-miterlimit:10;" d="M 2500 2200 L 2500 2500 L 2800 2500 L 2800 2200 L 2500 2200 " transform="matrix(0.1,0,0,-0.1,0,792)"/>
<path style="fill:none;stroke-width:1;stroke-linecap:butt;stroke-linejoin:miter;stroke:rgb(0%,0%,0%);stroke-opacity:1;stroke-miterlimit:10;" d="M 2500 2800 L 2500 3100 L 2800 3100 L 2800 2800 L 2500 2800 " transform="matrix(0.1,0,0,-0.1,0,792)"/>
<path style="fill:none;stroke-width:1;stroke-linecap:butt;stroke-linejoin:miter;stroke:rgb(0%,0%,0%);stroke-opacity:1;stroke-miterlimit:10;" d="M 2500 3400 L 2500 3700 L 2800 3700 L 2800 3400 L 2500 3400 " transform="matrix(0.1,0,0,-0.1,0,792)"/>
<path style="fill:none;stroke-width:1;stroke-linecap:butt;stroke-linejoin:miter;stroke:rgb(0%,0%,0%);stroke-opacity:1;stroke-miterlimit:10;" d="M 3100 2200 L 3100 2500 L 3400 2500 L 3400 2200 L 3100 2200 " transform="matrix(0.1,0,0,-0.1,0,792)"/>
<path style="fill:none;stroke-width:1;stroke-linecap:butt;stroke-linejoin:miter;stroke:rgb(0%,0%,0%);stroke-opacity:1;stroke-miterlimit:10;" d="M 3100 2800 L 3100 3100 L 3400 3100 L 3400 2800 L 3100 2800 " transform="matrix(0.1,0,0,-0.1,0,792)"/>
<path style="fill:none;stroke-width:1;stroke-linecap:butt;stroke-linejoin:miter;stroke:rgb(0%,0%,0%);stroke-opacity:1;stroke-miterlimit:10;" d="M 3100 3400 L 3100 3700 L 3400 3700 L 3400 3400 L 3100 3400 " transform="matrix(0.1,0,0,-0.1,0,792)"/>
<path style="fill:none;stroke-width:1;stroke-linecap:butt;stroke-linejoin:miter;stroke:rgb(0%,0%,0%);stroke-opacity:1;stroke-miterlimit:10;" d="M 3700 2200 L 3700 2500 L 4000 2500 L 4000 2200 L 3700 2200 " transform="matrix(0.1,0,0,-0.1,0,792)"/>
<path style="fill:none;stroke-width:1;stroke-linecap:butt;stroke-linejoin:miter;stroke:rgb(0%,0%,0%);stroke-opacity:1;stroke-miterlimit:10;" d="M 3700 2800 L 3700 3100 L 4000 3100 L 4000 2800 L 3700 2800 " transform="matrix(0.1,0,0,-0.1,0,792)"/>
<path style="fill:none;stroke-width:1;stroke-linecap:butt;stroke-linejoin:miter;stroke:rgb(0%,0%,0%);stroke-opacity:1;stroke-miterlimit:10;" d="M 3700 3400 L 3700 3700 L 4000 3700 L 4000 3400 L 3700 3400 " transform="matrix(0.1,0,0,-0.1,0,792)"/>
<path style="fill:none;stroke-width:1;stroke-linecap:butt;stroke-linejoin:miter;stroke:rgb(0%,0%,0%);stroke-opacity:1;stroke-miterlimit:10;" d="M 2200 3800 C 1896.25 3800 1650 3553.75 1650 3250 C 1650 2946.25 1896.25 2700 2200 2700 L 2200 2600 C 1841.015625 2600 1550 2891.015625 1550 3250 C 1550 3608.984375 1841.015625 3900 2200 3900 L 2200 3800 " transform="matrix(0.1,0,0,-0.1,0,792)"/>
<path style="fill:none;stroke-width:1;stroke-linecap:butt;stroke-linejoin:miter;stroke:rgb(0%,0%,0%);stroke-opacity:1;stroke-miterlimit:10;" d="M 4100 4000 C 4100 4303.75 3853.75 4550 3550 4550 C 3246.25 4550 3000 4303.75 3000 4000 L 2900 4000 C 2900 4358.984375 3191.015625 4650 3550 4650 C 3908.984375 4650 4200 4358.984375 4200 4000 L 4100 4000 " transform="matrix(0.1,0,0,-0.1,0,792)"/>
<path style="fill:none;stroke-width:1;stroke-linecap:butt;stroke-linejoin:miter;stroke:rgb(0%,0%,0%);stroke-opacity:1;stroke-miterlimit:10;" d="M 4300 2100 C 4603.75 2100 4850 2346.25 4850 2650 C 4850 2953.75 4603.75 3200 4300 3200 L 4300 3300 C 4658.984375 3300 4950 3008.984375 4950 2650 C 4950 2291.015625 4658.984375 2000 4300 2000 L 4300 2100 " transform="matrix(0.1,0,0,-0.1,0,792)"/>
<path style="fill:none;stroke-width:1;stroke-linecap:butt;stroke-linejoin:miter;stroke:rgb(0%,0%,0%);stroke-opacity:1;stroke-miterlimit:10;" d="M 2400 1900 C 2400 1596.25 2646.25 1350 2950 1350 C 3253.75 1350 3500 1596.25 3500 1900 L 3600 1900 C 3600 1541.015625 3308.984375 1250 2950 1250 C 2591.015625 1250 2300 1541.015625 2300 1900 L 2400 1900 " transform="matrix(0.1,0,0,-0.1,0,792)"/>
<path style="fill:none;stroke-width:1;stroke-linecap:butt;stroke-linejoin:miter;stroke:rgb(0%,0%,0%);stroke-opacity:1;stroke-miterlimit:10;" d="M 2200 3100 L 2200 2800 L 2200 3100 C 2071.953125 3100 1949.960938 3045.429688 1864.609375 2950 C 1949.960938 2854.570312 2071.953125 2800 2200 2800 " transform="matrix(0.1,0,0,-0.1,0,792)"/>
<path style="fill:none;stroke-width:1;stroke-linecap:butt;stroke-linejoin:miter;stroke:rgb(0%,0%,0%);stroke-opacity:1;stroke-miterlimit:10;" d="M 3400 4000 L 3100 4000 L 3400 4000 C 3400 4128.046875 3345.429688 4250.039062 3250 4335.390625 C 3154.570312 4250.039062 3100 4128.046875 3100 4000 " transform="matrix(0.1,0,0,-0.1,0,792)"/>
<path style="fill:none;stroke-width:1;stroke-linecap:butt;stroke-linejoin:miter;stroke:rgb(0%,0%,0%);stroke-opacity:1;stroke-miterlimit:10;" d="M 4300 2800 L 4300 3100 L 4300 2800 C 4428.046875 2800 4550.039062 2854.570312 4635.390625 2950 C 4550.039062 3045.429688 4428.046875 3100 4300 3100 " transform="matrix(0.1,0,0,-0.1,0,792)"/>
<path style="fill:none;stroke-width:1;stroke-linecap:butt;stroke-linejoin:miter;stroke:rgb(0%,0%,0%);stroke-opacity:1;stroke-miterlimit:10;" d="M 3100 1900 L 3400 1900 L 3100 1900 C 3100 1771.953125 3154.570312 1649.960938 3250 1564.609375 C 3345.429688 1649.960938 3400 1771.953125 3400 1900 " transform="matrix(0.1,0,0,-0.1,0,792)"/>
<path style="fill:none;stroke-width:1;stroke-linecap:butt;stroke-linejoin:miter;stroke:rgb(0%,0%,0%);stroke-opacity:1;stroke-miterlimit:10;" d="M 2200 2500 C 2037.734375 2500 1879.804688 2552.65625 1750 2650 C 1750 2401.484375 1951.484375 2200 2200 2200 Z M 2200 2500 " transform="matrix(0.1,0,0,-0.1,0,792)"/>
<path style="fill:none;stroke-width:1;stroke-linecap:butt;stroke-linejoin:miter;stroke:rgb(0%,0%,0%);stroke-opacity:1;stroke-miterlimit:10;" d="M 2200 3400 C 2037.734375 3400 1879.804688 3347.34375 1750 3250 C 1750 3498.515625 1951.484375 3700 2200 3700 Z M 2200 3400 " transform="matrix(0.1,0,0,-0.1,0,792)"/>
<path style="fill:none;stroke-width:1;stroke-linecap:butt;stroke-linejoin:miter;stroke:rgb(0%,0%,0%);stroke-opacity:1;stroke-miterlimit:10;" d="M 2800 4000 C 2800 4162.265625 2852.65625 4320.195312 2950 4450 C 2701.484375 4450 2500 4248.515625 2500 4000 Z M 2800 4000 " transform="matrix(0.1,0,0,-0.1,0,792)"/>
<path style="fill:none;stroke-width:1;stroke-linecap:butt;stroke-linejoin:miter;stroke:rgb(0%,0%,0%);stroke-opacity:1;stroke-miterlimit:10;" d="M 3700 4000 C 3700 4162.265625 3647.34375 4320.195312 3550 4450 C 3798.515625 4450 4000 4248.515625 4000 4000 Z M 3700 4000 " transform="matrix(0.1,0,0,-0.1,0,792)"/>
<path style="fill:none;stroke-width:1;stroke-linecap:butt;stroke-linejoin:miter;stroke:rgb(0%,0%,0%);stroke-opacity:1;stroke-miterlimit:10;" d="M 4300 3400 C 4462.265625 3400 4620.195312 3347.34375 4750 3250 C 4750 3498.515625 4548.515625 3700 4300 3700 Z M 4300 3400 " transform="matrix(0.1,0,0,-0.1,0,792)"/>
<path style="fill:none;stroke-width:1;stroke-linecap:butt;stroke-linejoin:miter;stroke:rgb(0%,0%,0%);stroke-opacity:1;stroke-miterlimit:10;" d="M 4300 2500 C 4462.265625 2500 4620.195312 2552.65625 4750 2650 C 4750 2401.484375 4548.515625 2200 4300 2200 Z M 4300 2500 " transform="matrix(0.1,0,0,-0.1,0,792)"/>
<path style="fill:none;stroke-width:1;stroke-linecap:butt;stroke-linejoin:miter;stroke:rgb(0%,0%,0%);stroke-opacity:1;stroke-miterlimit:10;" d="M 3700 1900 C 3700 1737.734375 3647.34375 1579.804688 3550 1450 C 3798.515625 1450 4000 1651.484375 4000 1900 Z M 3700 1900 " transform="matrix(0.1,0,0,-0.1,0,792)"/>
<path style="fill:none;stroke-width:1;stroke-linecap:butt;stroke-linejoin:miter;stroke:rgb(0%,0%,0%);stroke-opacity:1;stroke-miterlimit:10;" d="M 2800 1900 C 2800 1737.734375 2852.65625 1579.804688 2950 1450 C 2701.484375 1450 2500 1651.484375 2500 1900 Z M 2800 1900 " transform="matrix(0.1,0,0,-0.1,0,792)"/>
<path style="fill:none;stroke-width:1;stroke-linecap:butt;stroke-linejoin:miter;stroke:rgb(0%,0%,0%);stroke-opacity:1;stroke-miterlimit:10;" d="M 2200 3200 C 2056.835938 3200 1919.335938 3144.179688 1816.679688 3044.414062 L 1805.585938 3033.320312 C 1788.242188 3064.921875 1774.726562 3098.515625 1765.390625 3133.320312 C 1884.726562 3240.625 2039.53125 3300 2200 3300 Z M 2200 3200 " transform="matrix(0.1,0,0,-0.1,0,792)"/>
<path style="fill:none;stroke-width:1;stroke-linecap:butt;stroke-linejoin:miter;stroke:rgb(0%,0%,0%);stroke-opacity:1;stroke-miterlimit:10;" d="M 2200 2100 C 1896.25 2100 1650 2346.25 1650 2650 C 1650 2677.890625 1652.148438 2705.742188 1656.367188 2733.320312 C 1626.914062 2764.335938 1600.15625 2797.773438 1576.40625 2833.320312 C 1558.90625 2773.789062 1550 2712.03125 1550 2650 C 1550 2291.015625 1841.015625 2000 2200 2000 Z M 2200 2100 " transform="matrix(0.1,0,0,-0.1,0,792)"/>
<path style="fill:none;stroke-width:1;stroke-linecap:butt;stroke-linejoin:miter;stroke:rgb(0%,0%,0%);stroke-opacity:1;stroke-miterlimit:10;" d="M 3500 4000 C 3500 4148.59375 3439.882812 4290.859375 3333.320312 4394.414062 C 3364.921875 4411.757812 3398.515625 4425.273438 3433.320312 4434.609375 C 3540.625 4315.273438 3600 4160.46875 3600 4000 Z M 3500 4000 " transform="matrix(0.1,0,0,-0.1,0,792)"/>
<path style="fill:none;stroke-width:1;stroke-linecap:butt;stroke-linejoin:miter;stroke:rgb(0%,0%,0%);stroke-opacity:1;stroke-miterlimit:10;" d="M 2400 4000 C 2400 4303.75 2646.25 4550 2950 4550 C 2977.890625 4550 3005.742188 4547.890625 3033.320312 4543.632812 C 3064.335938 4573.125 3097.773438 4599.84375 3133.320312 4623.59375 C 3073.789062 4641.09375 3012.03125 4650 2950 4650 C 2591.015625 4650 2300 4358.984375 2300 4000 Z M 2400 4000 " transform="matrix(0.1,0,0,-0.1,0,792)"/>
<path style="fill:none;stroke-width:1;stroke-linecap:butt;stroke-linejoin:miter;stroke:rgb(0%,0%,0%);stroke-opacity:1;stroke-miterlimit:10;" d="M 4300 2700 C 4443.164062 2700 4580.664062 2755.820312 4683.320312 2855.585938 L 4694.414062 2866.679688 C 4711.757812 2835.078125 4725.273438 2801.484375 4734.609375 2766.679688 C 4615.273438 2659.375 4460.46875 2600 4300 2600 Z M 4300 2700 " transform="matrix(0.1,0,0,-0.1,0,792)"/>
<path style="fill:none;stroke-width:1;stroke-linecap:butt;stroke-linejoin:miter;stroke:rgb(0%,0%,0%);stroke-opacity:1;stroke-miterlimit:10;" d="M 4300 3800 C 4603.75 3800 4850 3553.75 4850 3250 C 4850 3222.109375 4847.890625 3194.257812 4843.632812 3166.679688 C 4873.125 3135.664062 4899.84375 3102.226562 4923.59375 3066.679688 C 4941.09375 3126.210938 4950 3187.96875 4950 3250 C 4950 3608.984375 4658.984375 3900 4300 3900 Z M 4300 3800 " transform="matrix(0.1,0,0,-0.1,0,792)"/>
<path style="fill:none;stroke-width:1;stroke-linecap:butt;stroke-linejoin:miter;stroke:rgb(0%,0%,0%);stroke-opacity:1;stroke-miterlimit:10;" d="M 3000 1900 C 3000 1756.835938 3055.820312 1619.335938 3155.585938 1516.679688 L 3166.679688 1505.585938 C 3135.078125 1488.242188 3101.484375 1474.726562 3066.679688 1465.390625 C 2959.375 1584.726562 2900 1739.53125 2900 1900 Z M 3000 1900 " transform="matrix(0.1,0,0,-0.1,0,792)"/>
<path style="fill:none;stroke-width:1;stroke-linecap:butt;stroke-linejoin:miter;stroke:rgb(0%,0%,0%);stroke-opacity:1;stroke-miterlimit:10;" d="M 4100 1900 C 4100 1596.25 3853.75 1350 3550 1350 C 3522.109375 1350 3494.257812 1352.148438 3466.679688 1356.367188 C 3435.664062 1326.914062 3402.226562 1300.15625 3366.679688 1276.40625 C 3426.210938 1258.90625 3487.96875 1250 3550 1250 C 3908.984375 1250 4200 1541.015625 4200 1900 Z M 4100 1900 " transform="matrix(0.1,0,0,-0.1,0,792)"/>
<path style="fill:none;stroke-width:1;stroke-linecap:butt;stroke-linejoin:miter;stroke:rgb(0%,0%,0%);stroke-opacity:1;stroke-miterlimit:10;" d="M 2200 1900 C 1785.78125 1900 1450 2235.78125 1450 2650 C 1450 2753.242188 1471.328125 2855.390625 1512.617188 2950 C 1471.328125 3044.609375 1450 3146.757812 1450 3250 C 1450 3664.21875 1785.78125 4000 2200 4000 C 2200 4414.21875 2535.78125 4750 2950 4750 C 3053.242188 4750 3155.390625 4728.671875 3250 4687.382812 C 3344.609375 4728.671875 3446.757812 4750 3550 4750 C 3964.21875 4750 4300 4414.21875 4300 4000 C 4714.21875 4000 5050 3664.21875 5050 3250 C 5050 3146.757812 5028.671875 3044.609375 4987.382812 2950 C 5028.671875 2855.390625 5050 2753.242188 5050 2650 C 5050 2235.78125 4714.21875 1900 4300 1900 C 4300 1485.78125 3964.21875 1150 3550 1150 C 3446.757812 1150 3344.609375 1171.328125 3250 1212.617188 C 3155.390625 1171.328125 3053.242188 1150 2950 1150 C 2535.78125 1150 2200 1485.78125 2200 1900 " transform="matrix(0.1,0,0,-0.1,0,792)"/>
</g>
</svg>
