<?xml version="1.0" encoding="UTF-8" standalone="no"?>
<svg
   width="104pt"
   height="104pt"
   viewBox="0 0 104 104"
   version="1.1"
   id="svg25"
   xmlns="http://www.w3.org/2000/svg"
   xmlns:svg="http://www.w3.org/2000/svg">
  <defs
     id="defs29" />
  <g
     id="surface1"
     transform="translate(-98,-640)">
    <path
       style="color:#000000;fill:#000000;stroke-miterlimit:10;-inkscape-stroke:none"
       d="m 980,480 v 20 500 520 h 263.332 264.5528 306.9765 H 2000 2020 V 1000 480 H 1756.668 1492.1152 1185.1387 1000 Z m 137.9355,40 h 63.3672 c 3.5283,0.65896 7.0076,1.43763 10.5059,2.16992 -8.702,7.88839 -17.1878,15.97522 -25.4082,24.28711 C 1150.788,536.84775 1134.6232,528.01011 1117.9355,520 Z m 194.3047,0 h 125.2637 c -18.6587,12.38629 -36.5125,25.74086 -53.4316,40.05664 C 1361.3591,544.93868 1337.357,531.54334 1312.2402,520 Z m 250.2559,0 h 125.2637 c -25.1168,11.54334 -49.1189,24.93868 -71.8321,40.05664 C 1599.0086,545.74086 1581.1548,532.38629 1562.4961,520 Z m 256.2012,0 h 63.3672 c -16.6877,8.01011 -32.8525,16.84775 -48.4649,26.45703 -8.2204,-8.31189 -16.7062,-16.39872 -25.4082,-24.28711 3.4983,-0.73229 6.9776,-1.51096 10.5059,-2.16992 z M 1500,529.00586 c 29.4125,15.99315 56.9329,34.53406 82.3789,55.25586 -30.3879,23.85981 -57.9793,50.96005 -82.3789,80.69336 -24.3996,-29.73331 -51.991,-56.83355 -82.3789,-80.69336 25.446,-20.7218 52.9664,-39.26271 82.3789,-55.25586 z m -261.2324,5.39648 c 41.0252,12.92528 79.5061,31.0038 114.7949,53.43164 -21.7179,21.22753 -41.6235,44.10654 -59.6406,68.3418 -27.5046,-32.52036 -58.908,-61.75123 -93.6133,-86.98242 12.2684,-12.09256 25.0912,-23.70318 38.459,-34.79102 z m 522.4648,0 c 13.3678,11.08784 26.1906,22.69846 38.459,34.79102 -34.7053,25.23119 -66.1087,54.46206 -93.6133,86.98242 -18.0171,-24.23526 -37.9227,-47.11427 -59.6406,-68.3418 35.2888,-22.42784 73.7697,-40.50636 114.7949,-53.43164 z m -701.2793,4.29883 c 27.5935,10.29238 53.8845,22.95936 78.7188,37.67969 -9.8704,11.3327 -19.3088,22.99512 -28.3321,34.94531 -15.3415,-25.0793 -32.0588,-49.38666 -50.3867,-72.625 z m 880.0938,0 c -18.3279,23.23834 -35.0452,47.5457 -50.3867,72.625 -9.0233,-11.95019 -18.4617,-23.61261 -28.3321,-34.94531 24.8343,-14.72033 51.1253,-27.38731 78.7188,-37.67969 z M 1020,553.09375 c 24.3104,29.64282 46.1841,60.98152 65.209,93.86523 -26.5449,40.59315 -48.4012,84.06893 -65.209,129.55664 z m 960,0 v 223.42187 c -16.8078,-45.48771 -38.6641,-88.96349 -65.209,-129.55664 19.0249,-32.88371 40.8986,-64.22241 65.209,-93.86523 z m -807.4492,45.29102 c 36.8071,26.13248 69.7142,57.07541 97.8652,91.8789 -29.5645,46.3767 -52.5353,96.93466 -67.8984,150.24219 -14.6306,-66.73092 -38.3227,-131.05646 -70.4297,-191.2168 12.542,-17.62876 26.0226,-34.63701 40.4629,-50.90429 z m 654.8984,0 c 14.4403,16.26728 27.9209,33.27553 40.4629,50.90429 -32.107,60.16034 -55.7991,124.48588 -70.4297,191.2168 -15.3631,-53.30753 -38.3339,-103.86549 -67.8984,-150.24219 28.151,-34.80349 61.0581,-65.74642 97.8652,-91.8789 z m -440.4082,12.76171 c 32.9855,25.07093 62.5534,54.18003 88.0723,86.54102 -33.3596,47.76274 -58.8575,101.18833 -75.0449,158.26562 -17.0106,-60.48913 -44.4505,-116.94244 -80.5547,-167.05664 19.8926,-27.93074 42.4895,-53.97545 67.5273,-77.75 z m 225.918,0 c 25.0378,23.77455 47.6347,49.81926 67.5273,77.75 -36.1042,50.1142 -63.5441,106.56751 -80.5547,167.05664 -16.1874,-57.07729 -41.6853,-110.50288 -75.0449,-158.26562 25.5189,-32.36099 55.0868,-61.47009 88.0723,-86.54102 z m -506.082,76.57227 C 1154.4642,784.01344 1180,890.69904 1180,1000 c 0,109.301 -25.5358,215.9866 -73.123,312.2813 C 1050.79,1219.2183 1020,1111.5359 1020,1000 c 0,-111.53588 30.79,-219.21827 86.877,-312.28125 z m 786.246,0 C 1949.21,780.78173 1980,888.46412 1980,1000 c 0,111.5359 -30.79,219.2183 -86.877,312.2813 C 1845.5358,1215.9866 1820,1109.301 1820,1000 c 0,-109.30096 25.5358,-215.98656 73.123,-312.28125 z m -597.0898,37.13867 C 1349.3636,804.01337 1380,899.02922 1380,1000 c 0,100.9708 -30.6364,195.9866 -83.9668,275.1426 C 1247.2338,1193.5193 1220,1098.8752 1220,1000 c 0,-98.8752 27.2338,-193.51931 76.0332,-275.14258 z m 407.9336,0 C 1752.7662,806.48069 1780,901.1248 1780,1000 c 0,98.8752 -27.2338,193.5193 -76.0332,275.1426 C 1650.6364,1195.9866 1620,1100.9708 1620,1000 c 0,-100.97078 30.6364,-195.98663 83.9668,-275.14258 z M 1500,732.22656 c 50.767,77.36628 80,169.60222 80,267.77344 0,98.1712 -29.233,190.4072 -80,267.7734 -50.767,-77.3662 -80,-169.6022 -80,-267.7734 0,-98.17122 29.233,-190.40716 80,-267.77344 z m -99.9316,411.82034 c 16.1874,57.0773 41.6853,110.5029 75.0449,158.2656 -25.5189,32.361 -55.0868,61.4701 -88.0723,86.541 -25.0378,-23.7745 -47.6347,-49.8192 -67.5273,-77.75 36.1042,-50.1142 63.5441,-106.5675 80.5547,-167.0566 z m 199.8632,0 c 17.0106,60.4891 44.4505,116.9424 80.5547,167.0566 -19.8926,27.9308 -42.4895,53.9755 -67.5273,77.75 -32.9855,-25.0709 -62.5534,-54.18 -88.0723,-86.541 33.3596,-47.7627 58.8575,-101.1883 75.0449,-158.2656 z m -397.414,15.4472 c 15.3631,53.3076 38.3339,103.8655 67.8984,150.2422 -28.151,34.8035 -61.0581,65.7465 -97.8652,91.8789 -14.4403,-16.2672 -27.9209,-33.2755 -40.4629,-50.9043 32.107,-60.1603 55.7991,-124.4858 70.4297,-191.2168 z m 594.9648,0 c 14.6306,66.731 38.3227,131.0565 70.4297,191.2168 -12.542,17.6288 -26.0226,34.6371 -40.4629,50.9043 -36.8071,-26.1324 -69.7142,-57.0754 -97.8652,-91.8789 29.5645,-46.3767 52.5353,-96.9346 67.8984,-150.2422 z M 1020,1223.4844 c 16.8078,45.4877 38.6641,88.9635 65.209,129.5566 -19.0249,32.8837 -40.8986,64.2224 -65.209,93.8653 z m 960,0 v 223.4219 c -24.3104,-29.6429 -46.1841,-60.9816 -65.209,-93.8653 26.5449,-40.5931 48.4012,-84.0689 65.209,-129.5566 z m -480,111.5605 c 24.3996,29.7333 51.991,56.8336 82.3789,80.6934 -25.446,20.7218 -52.9664,39.2627 -82.3789,55.2558 -29.4125,-15.9931 -56.9329,-34.534 -82.3789,-55.2558 30.3879,-23.8598 57.9793,-50.9601 82.3789,-80.6934 z m -206.0781,8.7793 c 18.0171,24.2353 37.9227,47.1143 59.6406,68.3418 -35.2888,22.4279 -73.7697,40.5064 -114.7949,53.4317 -13.3678,-11.0879 -26.1906,-22.6985 -38.459,-34.7911 34.7053,-25.2311 66.1087,-54.462 93.6133,-86.9824 z m 412.1562,0 c 27.5046,32.5204 58.908,61.7513 93.6133,86.9824 -12.2684,12.0926 -25.0912,23.7032 -38.459,34.7911 -41.0252,-12.9253 -79.5061,-31.0038 -114.7949,-53.4317 21.7179,-21.2275 41.6235,-44.1065 59.6406,-68.3418 z m -595.7383,44.8496 c 9.0233,11.9502 18.4617,23.6126 28.3321,34.9453 -24.8343,14.7204 -51.1253,27.3873 -78.7188,37.6797 18.3279,-23.2383 35.0452,-47.5457 50.3867,-72.625 z m 779.3204,0 c 15.3415,25.0793 32.0588,49.3867 50.3867,72.625 -27.5935,-10.2924 -53.8845,-22.9593 -78.7188,-37.6797 9.8704,-11.3327 19.3088,-22.9951 28.3321,-34.9453 z m -505.5879,51.2696 c 16.9191,14.3157 34.7729,27.6703 53.4316,40.0566 h -125.2637 c 25.1168,-11.5433 49.1189,-24.9387 71.8321,-40.0566 z m 231.8554,0 c 22.7132,15.1179 46.7153,28.5133 71.8321,40.0566 h -125.2637 c 18.6587,-12.3863 36.5125,-25.7409 53.4316,-40.0566 z m -449.5273,13.5996 c 8.2204,8.3119 16.7062,16.3987 25.4082,24.2871 -3.4983,0.7323 -6.9776,1.5109 -10.5059,2.1699 h -63.3672 c 16.6877,-8.0101 32.8525,-16.8478 48.4649,-26.457 z m 667.1992,0 c 15.6124,9.6092 31.7772,18.4469 48.4649,26.457 h -63.3672 c -3.5283,-0.659 -7.0076,-1.4376 -10.5059,-2.1699 8.702,-7.8884 17.1878,-15.9752 25.4082,-24.2871 z"
       id="path22"
       transform="matrix(0.1,0,0,-0.1,0,792)" />
  </g>
</svg>
