<?xml version="1.0" encoding="UTF-8"?>
<svg xmlns="http://www.w3.org/2000/svg" xmlns:xlink="http://www.w3.org/1999/xlink" width="240pt" height="240pt" viewBox="0 0 240 240" version="1.1">
<g id="surface1">
<path style="fill:none;stroke-width:10;stroke-linecap:butt;stroke-linejoin:miter;stroke:rgb(0%,0%,0%);stroke-opacity:1;stroke-miterlimit:10;" d="M 1412.148438 775.742188 L 1624.257812 987.851562 C 1652.382812 959.726562 1668.203125 921.5625 1668.203125 881.796875 C 1668.203125 798.945312 1601.054688 731.796875 1518.203125 731.796875 C 1478.4375 731.796875 1440.273438 747.617188 1412.148438 775.742188 " transform="matrix(0.1,0,0,-0.1,0,240)"/>
<path style="fill:none;stroke-width:10;stroke-linecap:butt;stroke-linejoin:miter;stroke:rgb(0%,0%,0%);stroke-opacity:1;stroke-miterlimit:10;" d="M 987.851562 775.742188 L 775.742188 987.851562 C 747.617188 959.726562 731.796875 921.5625 731.796875 881.796875 C 731.796875 798.945312 798.945312 731.796875 881.796875 731.796875 C 921.5625 731.796875 959.726562 747.617188 987.851562 775.742188 " transform="matrix(0.1,0,0,-0.1,0,240)"/>
<path style="fill:none;stroke-width:10;stroke-linecap:butt;stroke-linejoin:miter;stroke:rgb(0%,0%,0%);stroke-opacity:1;stroke-miterlimit:10;" d="M 1200 987.851562 L 1412.148438 1200 L 1200 1412.148438 L 987.851562 1200 L 1200 987.851562 " transform="matrix(0.1,0,0,-0.1,0,240)"/>
<path style="fill:none;stroke-width:10;stroke-linecap:butt;stroke-linejoin:miter;stroke:rgb(0%,0%,0%);stroke-opacity:1;stroke-miterlimit:10;" d="M 1624.257812 1412.148438 L 1412.148438 1624.257812 L 1624.257812 1412.148438 C 1652.382812 1440.273438 1668.203125 1478.4375 1668.203125 1518.203125 C 1668.203125 1601.054688 1601.054688 1668.203125 1518.203125 1668.203125 C 1478.4375 1668.203125 1440.273438 1652.382812 1412.148438 1624.257812 " transform="matrix(0.1,0,0,-0.1,0,240)"/>
<path style="fill:none;stroke-width:10;stroke-linecap:butt;stroke-linejoin:miter;stroke:rgb(0%,0%,0%);stroke-opacity:1;stroke-miterlimit:10;" d="M 987.851562 1624.257812 L 775.742188 1412.148438 C 747.617188 1440.273438 731.796875 1478.4375 731.796875 1518.203125 C 731.796875 1601.054688 798.945312 1668.203125 881.796875 1668.203125 C 921.5625 1668.203125 959.726562 1652.382812 987.851562 1624.257812 " transform="matrix(0.1,0,0,-0.1,0,240)"/>
<path style="fill:none;stroke-width:10;stroke-linecap:butt;stroke-linejoin:miter;stroke:rgb(0%,0%,0%);stroke-opacity:1;stroke-miterlimit:10;" d="M 1553.554688 1058.59375 L 1129.296875 634.296875 C 1063.632812 568.671875 974.609375 531.796875 881.796875 531.796875 C 688.515625 531.796875 531.796875 688.515625 531.796875 881.796875 C 531.796875 974.609375 568.671875 1063.632812 634.296875 1129.296875 L 705.039062 1058.59375 C 658.125 1011.71875 631.796875 948.085938 631.796875 881.796875 C 631.796875 743.710938 743.710938 631.796875 881.796875 631.796875 C 948.085938 631.796875 1011.71875 658.125 1058.59375 705.039062 L 1482.851562 1129.296875 L 1553.554688 1058.59375 " transform="matrix(0.1,0,0,-0.1,0,240)"/>
<path style="fill:none;stroke-width:10;stroke-linecap:butt;stroke-linejoin:miter;stroke:rgb(0%,0%,0%);stroke-opacity:1;stroke-miterlimit:10;" d="M 917.148438 1270.703125 L 1341.40625 1694.960938 C 1388.28125 1741.875 1451.875 1768.203125 1518.203125 1768.203125 C 1656.289062 1768.203125 1768.203125 1656.289062 1768.203125 1518.203125 C 1768.203125 1451.875 1741.875 1388.28125 1694.960938 1341.40625 L 1765.664062 1270.703125 C 1831.328125 1336.367188 1868.203125 1425.390625 1868.203125 1518.203125 C 1868.203125 1711.484375 1711.484375 1868.203125 1518.203125 1868.203125 C 1425.390625 1868.203125 1336.367188 1831.328125 1270.703125 1765.664062 L 846.445312 1341.40625 L 917.148438 1270.703125 " transform="matrix(0.1,0,0,-0.1,0,240)"/>
<path style="fill:none;stroke-width:10;stroke-linecap:butt;stroke-linejoin:miter;stroke:rgb(0%,0%,0%);stroke-opacity:1;stroke-miterlimit:10;" d="M 1270.703125 1482.851562 L 1341.40625 1553.554688 L 1765.664062 1129.296875 C 1831.328125 1063.632812 1868.203125 974.609375 1868.203125 881.796875 C 1868.203125 688.515625 1711.484375 531.796875 1518.203125 531.796875 C 1425.390625 531.796875 1336.367188 568.671875 1270.703125 634.296875 L 1341.40625 705.039062 C 1388.28125 658.125 1451.875 631.796875 1518.203125 631.796875 C 1656.289062 631.796875 1768.203125 743.710938 1768.203125 881.796875 C 1768.203125 948.085938 1741.875 1011.71875 1694.960938 1058.59375 L 1270.703125 1482.851562 " transform="matrix(0.1,0,0,-0.1,0,240)"/>
<path style="fill:none;stroke-width:10;stroke-linecap:butt;stroke-linejoin:miter;stroke:rgb(0%,0%,0%);stroke-opacity:1;stroke-miterlimit:10;" d="M 1058.59375 846.445312 L 634.296875 1270.703125 C 568.671875 1336.367188 531.796875 1425.390625 531.796875 1518.203125 C 531.796875 1711.484375 688.515625 1868.203125 881.796875 1868.203125 C 974.609375 1868.203125 1063.632812 1831.328125 1129.296875 1765.664062 L 1058.59375 1694.960938 C 1011.71875 1741.875 948.085938 1768.203125 881.796875 1768.203125 C 743.710938 1768.203125 631.796875 1656.289062 631.796875 1518.203125 C 631.796875 1451.875 658.125 1388.28125 705.039062 1341.40625 L 1129.296875 917.148438 L 1058.59375 846.445312 " transform="matrix(0.1,0,0,-0.1,0,240)"/>
<path style="fill:none;stroke-width:10;stroke-linecap:butt;stroke-linejoin:miter;stroke:rgb(0%,0%,0%);stroke-opacity:1;stroke-miterlimit:10;" d="M 1200 563.59375 C 1115.625 479.21875 1001.132812 431.796875 881.796875 431.796875 C 633.28125 431.796875 431.796875 633.28125 431.796875 881.796875 C 431.796875 1001.132812 479.21875 1115.625 563.59375 1200 C 479.21875 1284.375 431.796875 1398.867188 431.796875 1518.203125 C 431.796875 1766.71875 633.28125 1968.203125 881.796875 1968.203125 C 1001.132812 1968.203125 1115.625 1920.78125 1200 1836.40625 C 1284.375 1920.78125 1398.867188 1968.203125 1518.203125 1968.203125 C 1766.71875 1968.203125 1968.203125 1766.71875 1968.203125 1518.203125 C 1968.203125 1398.867188 1920.78125 1284.375 1836.40625 1200 C 1920.78125 1115.625 1968.203125 1001.132812 1968.203125 881.796875 C 1968.203125 633.28125 1766.71875 431.796875 1518.203125 431.796875 C 1398.867188 431.796875 1284.375 479.21875 1200 563.59375 " transform="matrix(0.1,0,0,-0.1,0,240)"/>
</g>
</svg>
