<?xml version="1.0" encoding="UTF-8"?>
<svg xmlns="http://www.w3.org/2000/svg" xmlns:xlink="http://www.w3.org/1999/xlink" width="612pt" height="792pt" viewBox="0 0 612 792" version="1.1">
<g id="surface1">
<path style="fill:none;stroke-width:10;stroke-linecap:butt;stroke-linejoin:miter;stroke:rgb(0%,0%,0%);stroke-opacity:1;stroke-miterlimit:10;" d="M 800 1000 C 689.53125 1000 600 910.46875 600 800 C 600 689.53125 689.53125 600 800 600 C 910.46875 600 1000 689.53125 1000 800 C 1000 965.703125 1134.335938 1100 1300 1100 C 1410.46875 1100 1500 1189.53125 1500 1300 C 1500 1410.46875 1410.46875 1500 1300 1500 C 1189.53125 1500 1100 1410.46875 1100 1300 C 1100 1134.335938 965.703125 1000 800 1000 " transform="matrix(0.1,0,0,-0.1,0,792)"/>
<path style="fill:none;stroke-width:10;stroke-linecap:butt;stroke-linejoin:miter;stroke:rgb(0%,0%,0%);stroke-opacity:1;stroke-miterlimit:10;" d="M 1800 1000 C 1689.53125 1000 1600 910.46875 1600 800 C 1600 689.53125 1689.53125 600 1800 600 C 1910.46875 600 2000 689.53125 2000 800 C 2000 965.703125 2134.335938 1100 2300 1100 C 2410.46875 1100 2500 1189.53125 2500 1300 C 2500 1410.46875 2410.46875 1500 2300 1500 C 2189.53125 1500 2100 1410.46875 2100 1300 C 2100 1134.335938 1965.664062 1000 1800 1000 " transform="matrix(0.1,0,0,-0.1,0,792)"/>
<path style="fill:none;stroke-width:10;stroke-linecap:butt;stroke-linejoin:miter;stroke:rgb(0%,0%,0%);stroke-opacity:1;stroke-miterlimit:10;" d="M 2800 1000 C 2689.53125 1000 2600 910.46875 2600 800 C 2600 689.53125 2689.53125 600 2800 600 C 2910.46875 600 3000 689.53125 3000 800 C 3000 965.703125 3134.335938 1100 3300 1100 C 3410.46875 1100 3500 1189.53125 3500 1300 C 3500 1410.46875 3410.46875 1500 3300 1500 C 3189.53125 1500 3100 1410.46875 3100 1300 C 3100 1134.335938 2965.664062 1000 2800 1000 " transform="matrix(0.1,0,0,-0.1,0,792)"/>
<path style="fill:none;stroke-width:10;stroke-linecap:butt;stroke-linejoin:miter;stroke:rgb(0%,0%,0%);stroke-opacity:1;stroke-miterlimit:10;" d="M 800 2000 C 689.53125 2000 600 1910.46875 600 1800 C 600 1689.53125 689.53125 1600 800 1600 C 910.46875 1600 1000 1689.53125 1000 1800 C 1000 1965.664062 1134.335938 2100 1300 2100 C 1410.46875 2100 1500 2189.53125 1500 2300 C 1500 2410.46875 1410.46875 2500 1300 2500 C 1189.53125 2500 1100 2410.46875 1100 2300 C 1100 2134.335938 965.703125 2000 800 2000 " transform="matrix(0.1,0,0,-0.1,0,792)"/>
<path style="fill:none;stroke-width:10;stroke-linecap:butt;stroke-linejoin:miter;stroke:rgb(0%,0%,0%);stroke-opacity:1;stroke-miterlimit:10;" d="M 1300 1600 C 1189.53125 1600 1100 1689.53125 1100 1800 C 1100 1910.46875 1189.53125 2000 1300 2000 C 1410.46875 2000 1500 1910.46875 1500 1800 C 1500 1634.335938 1634.335938 1500 1800 1500 C 1910.46875 1500 2000 1410.46875 2000 1300 C 2000 1189.53125 1910.46875 1100 1800 1100 C 1689.53125 1100 1600 1189.53125 1600 1300 C 1600 1465.664062 1465.664062 1600 1300 1600 " transform="matrix(0.1,0,0,-0.1,0,792)"/>
<path style="fill:none;stroke-width:10;stroke-linecap:butt;stroke-linejoin:miter;stroke:rgb(0%,0%,0%);stroke-opacity:1;stroke-miterlimit:10;" d="M 1800 2000 C 1689.53125 2000 1600 1910.46875 1600 1800 C 1600 1689.53125 1689.53125 1600 1800 1600 C 1910.46875 1600 2000 1689.53125 2000 1800 C 2000 1965.664062 2134.335938 2100 2300 2100 C 2410.46875 2100 2500 2189.53125 2500 2300 C 2500 2410.46875 2410.46875 2500 2300 2500 C 2189.53125 2500 2100 2410.46875 2100 2300 C 2100 2134.335938 1965.664062 2000 1800 2000 " transform="matrix(0.1,0,0,-0.1,0,792)"/>
<path style="fill:none;stroke-width:10;stroke-linecap:butt;stroke-linejoin:miter;stroke:rgb(0%,0%,0%);stroke-opacity:1;stroke-miterlimit:10;" d="M 2300 1600 C 2189.53125 1600 2100 1689.53125 2100 1800 C 2100 1910.46875 2189.53125 2000 2300 2000 C 2410.46875 2000 2500 1910.46875 2500 1800 C 2500 1634.335938 2634.335938 1500 2800 1500 C 2910.46875 1500 3000 1410.46875 3000 1300 C 3000 1189.53125 2910.46875 1100 2800 1100 C 2689.53125 1100 2600 1189.53125 2600 1300 C 2600 1465.664062 2465.664062 1600 2300 1600 " transform="matrix(0.1,0,0,-0.1,0,792)"/>
<path style="fill:none;stroke-width:10;stroke-linecap:butt;stroke-linejoin:miter;stroke:rgb(0%,0%,0%);stroke-opacity:1;stroke-miterlimit:10;" d="M 2800 2000 C 2689.53125 2000 2600 1910.46875 2600 1800 C 2600 1689.53125 2689.53125 1600 2800 1600 C 2910.46875 1600 3000 1689.53125 3000 1800 C 3000 1965.664062 3134.335938 2100 3300 2100 C 3410.46875 2100 3500 2189.53125 3500 2300 C 3500 2410.46875 3410.46875 2500 3300 2500 C 3189.53125 2500 3100 2410.46875 3100 2300 C 3100 2134.335938 2965.664062 2000 2800 2000 " transform="matrix(0.1,0,0,-0.1,0,792)"/>
<path style="fill:none;stroke-width:10;stroke-linecap:butt;stroke-linejoin:miter;stroke:rgb(0%,0%,0%);stroke-opacity:1;stroke-miterlimit:10;" d="M 800 3000 C 689.53125 3000 600 2910.46875 600 2800 C 600 2689.53125 689.53125 2600 800 2600 C 910.46875 2600 1000 2689.53125 1000 2800 C 1000 2965.664062 1134.335938 3100 1300 3100 C 1410.46875 3100 1500 3189.53125 1500 3300 C 1500 3410.46875 1410.46875 3500 1300 3500 C 1189.53125 3500 1100 3410.46875 1100 3300 C 1100 3134.335938 965.703125 3000 800 3000 " transform="matrix(0.1,0,0,-0.1,0,792)"/>
<path style="fill:none;stroke-width:10;stroke-linecap:butt;stroke-linejoin:miter;stroke:rgb(0%,0%,0%);stroke-opacity:1;stroke-miterlimit:10;" d="M 1300 2600 C 1189.53125 2600 1100 2689.53125 1100 2800 C 1100 2910.46875 1189.53125 3000 1300 3000 C 1410.46875 3000 1500 2910.46875 1500 2800 C 1500 2634.335938 1634.335938 2500 1800 2500 C 1910.46875 2500 2000 2410.46875 2000 2300 C 2000 2189.53125 1910.46875 2100 1800 2100 C 1689.53125 2100 1600 2189.53125 1600 2300 C 1600 2465.664062 1465.664062 2600 1300 2600 " transform="matrix(0.1,0,0,-0.1,0,792)"/>
<path style="fill:none;stroke-width:10;stroke-linecap:butt;stroke-linejoin:miter;stroke:rgb(0%,0%,0%);stroke-opacity:1;stroke-miterlimit:10;" d="M 1800 3000 C 1689.53125 3000 1600 2910.46875 1600 2800 C 1600 2689.53125 1689.53125 2600 1800 2600 C 1910.46875 2600 2000 2689.53125 2000 2800 C 2000 2965.664062 2134.335938 3100 2300 3100 C 2410.46875 3100 2500 3189.53125 2500 3300 C 2500 3410.46875 2410.46875 3500 2300 3500 C 2189.53125 3500 2100 3410.46875 2100 3300 C 2100 3134.335938 1965.664062 3000 1800 3000 " transform="matrix(0.1,0,0,-0.1,0,792)"/>
<path style="fill:none;stroke-width:10;stroke-linecap:butt;stroke-linejoin:miter;stroke:rgb(0%,0%,0%);stroke-opacity:1;stroke-miterlimit:10;" d="M 2300 2600 C 2189.53125 2600 2100 2689.53125 2100 2800 C 2100 2910.46875 2189.53125 3000 2300 3000 C 2410.46875 3000 2500 2910.46875 2500 2800 C 2500 2634.335938 2634.335938 2500 2800 2500 C 2910.46875 2500 3000 2410.46875 3000 2300 C 3000 2189.53125 2910.46875 2100 2800 2100 C 2689.53125 2100 2600 2189.53125 2600 2300 C 2600 2465.664062 2465.664062 2600 2300 2600 " transform="matrix(0.1,0,0,-0.1,0,792)"/>
<path style="fill:none;stroke-width:10;stroke-linecap:butt;stroke-linejoin:miter;stroke:rgb(0%,0%,0%);stroke-opacity:1;stroke-miterlimit:10;" d="M 2800 3000 C 2689.53125 3000 2600 2910.46875 2600 2800 C 2600 2689.53125 2689.53125 2600 2800 2600 C 2910.46875 2600 3000 2689.53125 3000 2800 C 3000 2965.664062 3134.335938 3100 3300 3100 C 3410.46875 3100 3500 3189.53125 3500 3300 C 3500 3410.46875 3410.46875 3500 3300 3500 C 3189.53125 3500 3100 3410.46875 3100 3300 C 3100 3134.335938 2965.664062 3000 2800 3000 " transform="matrix(0.1,0,0,-0.1,0,792)"/>
<path style="fill:none;stroke-width:10;stroke-linecap:butt;stroke-linejoin:miter;stroke:rgb(0%,0%,0%);stroke-opacity:1;stroke-miterlimit:10;" d="M 1000 1300 C 1000 1410.46875 910.46875 1500 800 1500 C 689.53125 1500 600 1410.46875 600 1300 C 600 1189.53125 689.53125 1100 800 1100 C 910.46875 1100 1000 1189.53125 1000 1300 " transform="matrix(0.1,0,0,-0.1,0,792)"/>
<path style="fill:none;stroke-width:10;stroke-linecap:butt;stroke-linejoin:miter;stroke:rgb(0%,0%,0%);stroke-opacity:1;stroke-miterlimit:10;" d="M 1000 2300 C 1000 2410.46875 910.46875 2500 800 2500 C 689.53125 2500 600 2410.46875 600 2300 C 600 2189.53125 689.53125 2100 800 2100 C 910.46875 2100 1000 2189.53125 1000 2300 " transform="matrix(0.1,0,0,-0.1,0,792)"/>
<path style="fill:none;stroke-width:10;stroke-linecap:butt;stroke-linejoin:miter;stroke:rgb(0%,0%,0%);stroke-opacity:1;stroke-miterlimit:10;" d="M 1000 3300 C 1000 3410.46875 910.46875 3500 800 3500 C 689.53125 3500 600 3410.46875 600 3300 C 600 3189.53125 689.53125 3100 800 3100 C 910.46875 3100 1000 3189.53125 1000 3300 " transform="matrix(0.1,0,0,-0.1,0,792)"/>
<path style="fill:none;stroke-width:10;stroke-linecap:butt;stroke-linejoin:miter;stroke:rgb(0%,0%,0%);stroke-opacity:1;stroke-miterlimit:10;" d="M 3500 800 C 3500 910.46875 3410.46875 1000 3300 1000 C 3189.53125 1000 3100 910.46875 3100 800 C 3100 689.53125 3189.53125 600 3300 600 C 3410.46875 600 3500 689.53125 3500 800 " transform="matrix(0.1,0,0,-0.1,0,792)"/>
<path style="fill:none;stroke-width:10;stroke-linecap:butt;stroke-linejoin:miter;stroke:rgb(0%,0%,0%);stroke-opacity:1;stroke-miterlimit:10;" d="M 3500 1800 C 3500 1910.46875 3410.46875 2000 3300 2000 C 3189.53125 2000 3100 1910.46875 3100 1800 C 3100 1689.53125 3189.53125 1600 3300 1600 C 3410.46875 1600 3500 1689.53125 3500 1800 " transform="matrix(0.1,0,0,-0.1,0,792)"/>
<path style="fill:none;stroke-width:10;stroke-linecap:butt;stroke-linejoin:miter;stroke:rgb(0%,0%,0%);stroke-opacity:1;stroke-miterlimit:10;" d="M 3500 2800 C 3500 2910.46875 3410.46875 3000 3300 3000 C 3189.53125 3000 3100 2910.46875 3100 2800 C 3100 2689.53125 3189.53125 2600 3300 2600 C 3410.46875 2600 3500 2689.53125 3500 2800 " transform="matrix(0.1,0,0,-0.1,0,792)"/>
<path style="fill:none;stroke-width:10;stroke-linecap:butt;stroke-linejoin:miter;stroke:rgb(0%,0%,0%);stroke-opacity:1;stroke-miterlimit:10;" d="M 1500 800 C 1500 910.46875 1410.46875 1000 1300 1000 C 1189.53125 1000 1100 910.46875 1100 800 C 1100 689.53125 1189.53125 600 1300 600 C 1410.46875 600 1500 689.53125 1500 800 " transform="matrix(0.1,0,0,-0.1,0,792)"/>
<path style="fill:none;stroke-width:10;stroke-linecap:butt;stroke-linejoin:miter;stroke:rgb(0%,0%,0%);stroke-opacity:1;stroke-miterlimit:10;" d="M 2500 800 C 2500 910.46875 2410.46875 1000 2300 1000 C 2189.53125 1000 2100 910.46875 2100 800 C 2100 689.53125 2189.53125 600 2300 600 C 2410.46875 600 2500 689.53125 2500 800 " transform="matrix(0.1,0,0,-0.1,0,792)"/>
<path style="fill:none;stroke-width:10;stroke-linecap:butt;stroke-linejoin:miter;stroke:rgb(0%,0%,0%);stroke-opacity:1;stroke-miterlimit:10;" d="M 3500 800 C 3500 910.46875 3410.46875 1000 3300 1000 C 3189.53125 1000 3100 910.46875 3100 800 C 3100 689.53125 3189.53125 600 3300 600 C 3410.46875 600 3500 689.53125 3500 800 " transform="matrix(0.1,0,0,-0.1,0,792)"/>
<path style="fill:none;stroke-width:10;stroke-linecap:butt;stroke-linejoin:miter;stroke:rgb(0%,0%,0%);stroke-opacity:1;stroke-miterlimit:10;" d="M 1000 3300 C 1000 3410.46875 910.46875 3500 800 3500 C 689.53125 3500 600 3410.46875 600 3300 C 600 3189.53125 689.53125 3100 800 3100 C 910.46875 3100 1000 3189.53125 1000 3300 " transform="matrix(0.1,0,0,-0.1,0,792)"/>
<path style="fill:none;stroke-width:10;stroke-linecap:butt;stroke-linejoin:miter;stroke:rgb(0%,0%,0%);stroke-opacity:1;stroke-miterlimit:10;" d="M 2000 3300 C 2000 3410.46875 1910.46875 3500 1800 3500 C 1689.53125 3500 1600 3410.46875 1600 3300 C 1600 3189.53125 1689.53125 3100 1800 3100 C 1910.46875 3100 2000 3189.53125 2000 3300 " transform="matrix(0.1,0,0,-0.1,0,792)"/>
<path style="fill:none;stroke-width:10;stroke-linecap:butt;stroke-linejoin:miter;stroke:rgb(0%,0%,0%);stroke-opacity:1;stroke-miterlimit:10;" d="M 3000 3300 C 3000 3410.46875 2910.46875 3500 2800 3500 C 2689.53125 3500 2600 3410.46875 2600 3300 C 2600 3189.53125 2689.53125 3100 2800 3100 C 2910.46875 3100 3000 3189.53125 3000 3300 " transform="matrix(0.1,0,0,-0.1,0,792)"/>
<path style="fill:none;stroke-width:10;stroke-linecap:butt;stroke-linejoin:miter;stroke:rgb(0%,0%,0%);stroke-opacity:1;stroke-miterlimit:10;" d="M 800 500 C 699.453125 500 605.585938 550.390625 550 634.179688 M 800 500 C 900.546875 500 994.414062 550.390625 1050 634.179688 M 1300 500 C 1199.453125 500 1105.585938 550.390625 1050 634.179688 M 1300 500 C 1400.546875 500 1494.414062 550.390625 1550 634.179688 M 1800 500 C 1699.453125 500 1605.585938 550.390625 1550 634.179688 M 1800 500 C 1900.546875 500 1994.414062 550.390625 2050 634.179688 M 2300 500 C 2199.453125 500 2105.585938 550.390625 2050 634.179688 M 2300 500 C 2400.546875 500 2494.414062 550.390625 2550 634.179688 M 2800 500 C 2699.453125 500 2605.585938 550.390625 2550 634.179688 M 2800 500 C 2900.546875 500 2994.414062 550.390625 3050 634.179688 M 3300 500 C 3199.453125 500 3105.585938 550.390625 3050 634.179688 M 3300 500 C 3400.546875 500 3494.414062 550.390625 3550 634.179688 M 3600 800 C 3600 699.453125 3549.648438 605.585938 3465.820312 550 M 3600 800 C 3600 900.546875 3549.648438 994.414062 3465.820312 1050 M 3600 1300 C 3600 1199.453125 3549.648438 1105.585938 3465.820312 1050 M 3600 1300 C 3600 1400.546875 3549.648438 1494.414062 3465.820312 1550 M 3600 1800 C 3600 1699.453125 3549.648438 1605.585938 3465.820312 1550 M 3600 1800 C 3600 1900.546875 3549.648438 1994.414062 3465.820312 2050 M 3600 2300 C 3600 2199.453125 3549.648438 2105.585938 3465.820312 2050 M 3600 2300 C 3600 2400.546875 3549.648438 2494.414062 3465.820312 2550 M 3600 2800 C 3600 2699.453125 3549.648438 2605.585938 3465.820312 2550 M 3600 2800 C 3600 2900.546875 3549.648438 2994.414062 3465.820312 3050 M 3600 3300 C 3600 3199.453125 3549.648438 3105.585938 3465.820312 3050 M 3600 3300 C 3600 3400.546875 3549.648438 3494.414062 3465.820312 3550 M 3600 800 C 3600 699.453125 3549.648438 605.585938 3465.820312 550 M 3600 800 C 3600 900.546875 3549.648438 994.414062 3465.820312 1050 M 3600 1300 C 3600 1199.453125 3549.648438 1105.585938 3465.820312 1050 M 3600 1300 C 3600 1400.546875 3549.648438 1494.414062 3465.820312 1550 M 3600 1800 C 3600 1699.453125 3549.648438 1605.585938 3465.820312 1550 M 3600 1800 C 3600 1900.546875 3549.648438 1994.414062 3465.820312 2050 M 3600 2300 C 3600 2199.453125 3549.648438 2105.585938 3465.820312 2050 M 3600 2300 C 3600 2400.546875 3549.648438 2494.414062 3465.820312 2550 M 3600 2800 C 3600 2699.453125 3549.648438 2605.585938 3465.820312 2550 M 3600 2800 C 3600 2900.546875 3549.648438 2994.414062 3465.820312 3050 M 3600 3300 C 3600 3199.453125 3549.648438 3105.585938 3465.820312 3050 M 3600 3300 C 3600 3400.546875 3549.648438 3494.414062 3465.820312 3550 M 500 800 C 500 900.546875 550.390625 994.414062 634.179688 1050 M 500 800 C 500 699.453125 550.390625 605.585938 634.179688 550 M 500 1300 C 500 1400.546875 550.390625 1494.414062 634.179688 1550 M 500 1300 C 500 1199.453125 550.390625 1105.585938 634.179688 1050 M 500 1800 C 500 1900.546875 550.390625 1994.414062 634.179688 2050 M 500 1800 C 500 1699.453125 550.390625 1605.585938 634.179688 1550 M 500 2300 C 500 2400.546875 550.390625 2494.414062 634.179688 2550 M 500 2300 C 500 2199.453125 550.390625 2105.585938 634.179688 2050 M 500 2800 C 500 2900.546875 550.390625 2994.414062 634.179688 3050 M 500 2800 C 500 2699.453125 550.390625 2605.585938 634.179688 2550 M 500 3300 C 500 3400.546875 550.390625 3494.414062 634.179688 3550 M 500 3300 C 500 3199.453125 550.390625 3105.585938 634.179688 3050 M 800 3600 C 900.546875 3600 994.414062 3549.648438 1050 3465.820312 M 800 3600 C 699.453125 3600 605.585938 3549.648438 550 3465.820312 M 1300 3600 C 1400.546875 3600 1494.414062 3549.648438 1550 3465.820312 M 1300 3600 C 1199.453125 3600 1105.585938 3549.648438 1050 3465.820312 M 1800 3600 C 1900.546875 3600 1994.414062 3549.648438 2050 3465.820312 M 1800 3600 C 1699.453125 3600 1605.585938 3549.648438 1550 3465.820312 M 2300 3600 C 2400.546875 3600 2494.414062 3549.648438 2550 3465.820312 M 2300 3600 C 2199.453125 3600 2105.585938 3549.648438 2050 3465.820312 M 2800 3600 C 2900.546875 3600 2994.414062 3549.648438 3050 3465.820312 M 2800 3600 C 2699.453125 3600 2605.585938 3549.648438 2550 3465.820312 M 3300 3600 C 3400.546875 3600 3494.414062 3549.648438 3550 3465.820312 M 3300 3600 C 3199.453125 3600 3105.585938 3549.648438 3050 3465.820312 " transform="matrix(0.1,0,0,-0.1,0,792)"/>
</g>
</svg>
