<?xml version="1.0" encoding="UTF-8" standalone="no"?>
<svg
   width="311pt"
   height="311pt"
   viewBox="0 0 311 311"
   version="1.1"
   id="svg55"
   xmlns="http://www.w3.org/2000/svg"
   xmlns:svg="http://www.w3.org/2000/svg">
  <defs
     id="defs59" />
  <g
     id="surface1"
     transform="translate(-49.5,-431.5)">
    <path
       style="fill:none;stroke:#000000;stroke-width:10;stroke-linecap:butt;stroke-linejoin:miter;stroke-miterlimit:10;stroke-opacity:1"
       d="m 800,1000 c -110.46875,0 -200,-89.53125 -200,-200 0,-110.46875 89.53125,-200 200,-200 110.46875,0 200,89.53125 200,200 0,165.70312 134.3359,300 300,300 110.4688,0 200,89.5313 200,200 0,110.4688 -89.5312,200 -200,200 -110.4687,0 -200,-89.5312 -200,-200 0,-165.6641 -134.29688,-300 -300,-300"
       transform="matrix(0.1,0,0,-0.1,0,792)"
       id="path2" />
    <path
       style="fill:none;stroke:#000000;stroke-width:10;stroke-linecap:butt;stroke-linejoin:miter;stroke-miterlimit:10;stroke-opacity:1"
       d="m 1800,1000 c -110.4687,0 -200,-89.53125 -200,-200 0,-110.46875 89.5313,-200 200,-200 110.4688,0 200,89.53125 200,200 0,165.70312 134.3359,300 300,300 110.4688,0 200,89.5313 200,200 0,110.4688 -89.5312,200 -200,200 -110.4687,0 -200,-89.5312 -200,-200 0,-165.6641 -134.3359,-300 -300,-300"
       transform="matrix(0.1,0,0,-0.1,0,792)"
       id="path4" />
    <path
       style="fill:none;stroke:#000000;stroke-width:10;stroke-linecap:butt;stroke-linejoin:miter;stroke-miterlimit:10;stroke-opacity:1"
       d="m 2800,1000 c -110.4687,0 -200,-89.53125 -200,-200 0,-110.46875 89.5313,-200 200,-200 110.4688,0 200,89.53125 200,200 0,165.70312 134.3359,300 300,300 110.4688,0 200,89.5313 200,200 0,110.4688 -89.5312,200 -200,200 -110.4687,0 -200,-89.5312 -200,-200 0,-165.6641 -134.3359,-300 -300,-300"
       transform="matrix(0.1,0,0,-0.1,0,792)"
       id="path6" />
    <path
       style="fill:none;stroke:#000000;stroke-width:10;stroke-linecap:butt;stroke-linejoin:miter;stroke-miterlimit:10;stroke-opacity:1"
       d="m 800,2000 c -110.46875,0 -200,-89.5312 -200,-200 0,-110.4687 89.53125,-200 200,-200 110.46875,0 200,89.5313 200,200 0,165.6641 134.3359,300 300,300 110.4688,0 200,89.5313 200,200 0,110.4688 -89.5312,200 -200,200 -110.4687,0 -200,-89.5312 -200,-200 0,-165.6641 -134.29688,-300 -300,-300"
       transform="matrix(0.1,0,0,-0.1,0,792)"
       id="path8" />
    <path
       style="fill:none;stroke:#000000;stroke-width:10;stroke-linecap:butt;stroke-linejoin:miter;stroke-miterlimit:10;stroke-opacity:1"
       d="m 1300,1600 c -110.4687,0 -200,89.5313 -200,200 0,110.4688 89.5313,200 200,200 110.4688,0 200,-89.5312 200,-200 0,-165.6641 134.3359,-300 300,-300 110.4688,0 200,-89.5312 200,-200 0,-110.4687 -89.5312,-200 -200,-200 -110.4687,0 -200,89.5313 -200,200 0,165.6641 -134.3359,300 -300,300"
       transform="matrix(0.1,0,0,-0.1,0,792)"
       id="path10" />
    <path
       style="fill:none;stroke:#000000;stroke-width:10;stroke-linecap:butt;stroke-linejoin:miter;stroke-miterlimit:10;stroke-opacity:1"
       d="m 1800,2000 c -110.4687,0 -200,-89.5312 -200,-200 0,-110.4687 89.5313,-200 200,-200 110.4688,0 200,89.5313 200,200 0,165.6641 134.3359,300 300,300 110.4688,0 200,89.5313 200,200 0,110.4688 -89.5312,200 -200,200 -110.4687,0 -200,-89.5312 -200,-200 0,-165.6641 -134.3359,-300 -300,-300"
       transform="matrix(0.1,0,0,-0.1,0,792)"
       id="path12" />
    <path
       style="fill:none;stroke:#000000;stroke-width:10;stroke-linecap:butt;stroke-linejoin:miter;stroke-miterlimit:10;stroke-opacity:1"
       d="m 2300,1600 c -110.4687,0 -200,89.5313 -200,200 0,110.4688 89.5313,200 200,200 110.4688,0 200,-89.5312 200,-200 0,-165.6641 134.3359,-300 300,-300 110.4688,0 200,-89.5312 200,-200 0,-110.4687 -89.5312,-200 -200,-200 -110.4687,0 -200,89.5313 -200,200 0,165.6641 -134.3359,300 -300,300"
       transform="matrix(0.1,0,0,-0.1,0,792)"
       id="path14" />
    <path
       style="fill:none;stroke:#000000;stroke-width:10;stroke-linecap:butt;stroke-linejoin:miter;stroke-miterlimit:10;stroke-opacity:1"
       d="m 2800,2000 c -110.4687,0 -200,-89.5312 -200,-200 0,-110.4687 89.5313,-200 200,-200 110.4688,0 200,89.5313 200,200 0,165.6641 134.3359,300 300,300 110.4688,0 200,89.5313 200,200 0,110.4688 -89.5312,200 -200,200 -110.4687,0 -200,-89.5312 -200,-200 0,-165.6641 -134.3359,-300 -300,-300"
       transform="matrix(0.1,0,0,-0.1,0,792)"
       id="path16" />
    <path
       style="fill:none;stroke:#000000;stroke-width:10;stroke-linecap:butt;stroke-linejoin:miter;stroke-miterlimit:10;stroke-opacity:1"
       d="m 800,3000 c -110.46875,0 -200,-89.5312 -200,-200 0,-110.4687 89.53125,-200 200,-200 110.46875,0 200,89.5313 200,200 0,165.6641 134.3359,300 300,300 110.4688,0 200,89.5313 200,200 0,110.4688 -89.5312,200 -200,200 -110.4687,0 -200,-89.5312 -200,-200 0,-165.6641 -134.29688,-300 -300,-300"
       transform="matrix(0.1,0,0,-0.1,0,792)"
       id="path18" />
    <path
       style="fill:none;stroke:#000000;stroke-width:10;stroke-linecap:butt;stroke-linejoin:miter;stroke-miterlimit:10;stroke-opacity:1"
       d="m 1300,2600 c -110.4687,0 -200,89.5313 -200,200 0,110.4688 89.5313,200 200,200 110.4688,0 200,-89.5312 200,-200 0,-165.6641 134.3359,-300 300,-300 110.4688,0 200,-89.5312 200,-200 0,-110.4687 -89.5312,-200 -200,-200 -110.4687,0 -200,89.5313 -200,200 0,165.6641 -134.3359,300 -300,300"
       transform="matrix(0.1,0,0,-0.1,0,792)"
       id="path20" />
    <path
       style="fill:none;stroke:#000000;stroke-width:10;stroke-linecap:butt;stroke-linejoin:miter;stroke-miterlimit:10;stroke-opacity:1"
       d="m 1800,3000 c -110.4687,0 -200,-89.5312 -200,-200 0,-110.4687 89.5313,-200 200,-200 110.4688,0 200,89.5313 200,200 0,165.6641 134.3359,300 300,300 110.4688,0 200,89.5313 200,200 0,110.4688 -89.5312,200 -200,200 -110.4687,0 -200,-89.5312 -200,-200 0,-165.6641 -134.3359,-300 -300,-300"
       transform="matrix(0.1,0,0,-0.1,0,792)"
       id="path22" />
    <path
       style="fill:none;stroke:#000000;stroke-width:10;stroke-linecap:butt;stroke-linejoin:miter;stroke-miterlimit:10;stroke-opacity:1"
       d="m 2300,2600 c -110.4687,0 -200,89.5313 -200,200 0,110.4688 89.5313,200 200,200 110.4688,0 200,-89.5312 200,-200 0,-165.6641 134.3359,-300 300,-300 110.4688,0 200,-89.5312 200,-200 0,-110.4687 -89.5312,-200 -200,-200 -110.4687,0 -200,89.5313 -200,200 0,165.6641 -134.3359,300 -300,300"
       transform="matrix(0.1,0,0,-0.1,0,792)"
       id="path24" />
    <path
       style="fill:none;stroke:#000000;stroke-width:10;stroke-linecap:butt;stroke-linejoin:miter;stroke-miterlimit:10;stroke-opacity:1"
       d="m 2800,3000 c -110.4687,0 -200,-89.5312 -200,-200 0,-110.4687 89.5313,-200 200,-200 110.4688,0 200,89.5313 200,200 0,165.6641 134.3359,300 300,300 110.4688,0 200,89.5313 200,200 0,110.4688 -89.5312,200 -200,200 -110.4687,0 -200,-89.5312 -200,-200 0,-165.6641 -134.3359,-300 -300,-300"
       transform="matrix(0.1,0,0,-0.1,0,792)"
       id="path26" />
    <path
       style="fill:none;stroke:#000000;stroke-width:10;stroke-linecap:butt;stroke-linejoin:miter;stroke-miterlimit:10;stroke-opacity:1"
       d="m 1000,1300 c 0,110.4688 -89.53125,200 -200,200 -110.46875,0 -200,-89.5312 -200,-200 0,-110.4687 89.53125,-200 200,-200 110.46875,0 200,89.5313 200,200"
       transform="matrix(0.1,0,0,-0.1,0,792)"
       id="path28" />
    <path
       style="fill:none;stroke:#000000;stroke-width:10;stroke-linecap:butt;stroke-linejoin:miter;stroke-miterlimit:10;stroke-opacity:1"
       d="m 1000,2300 c 0,110.4688 -89.53125,200 -200,200 -110.46875,0 -200,-89.5312 -200,-200 0,-110.4687 89.53125,-200 200,-200 110.46875,0 200,89.5313 200,200"
       transform="matrix(0.1,0,0,-0.1,0,792)"
       id="path30" />
    <path
       style="fill:none;stroke:#000000;stroke-width:10;stroke-linecap:butt;stroke-linejoin:miter;stroke-miterlimit:10;stroke-opacity:1"
       d="m 1000,3300 c 0,110.4688 -89.53125,200 -200,200 -110.46875,0 -200,-89.5312 -200,-200 0,-110.4687 89.53125,-200 200,-200 110.46875,0 200,89.5313 200,200"
       transform="matrix(0.1,0,0,-0.1,0,792)"
       id="path32" />
    <path
       style="fill:none;stroke:#000000;stroke-width:10;stroke-linecap:butt;stroke-linejoin:miter;stroke-miterlimit:10;stroke-opacity:1"
       d="m 3500,800 c 0,110.46875 -89.5312,200 -200,200 -110.4687,0 -200,-89.53125 -200,-200 0,-110.46875 89.5313,-200 200,-200 110.4688,0 200,89.53125 200,200"
       transform="matrix(0.1,0,0,-0.1,0,792)"
       id="path34" />
    <path
       style="fill:none;stroke:#000000;stroke-width:10;stroke-linecap:butt;stroke-linejoin:miter;stroke-miterlimit:10;stroke-opacity:1"
       d="m 3500,1800 c 0,110.4688 -89.5312,200 -200,200 -110.4687,0 -200,-89.5312 -200,-200 0,-110.4687 89.5313,-200 200,-200 110.4688,0 200,89.5313 200,200"
       transform="matrix(0.1,0,0,-0.1,0,792)"
       id="path36" />
    <path
       style="fill:none;stroke:#000000;stroke-width:10;stroke-linecap:butt;stroke-linejoin:miter;stroke-miterlimit:10;stroke-opacity:1"
       d="m 3500,2800 c 0,110.4688 -89.5312,200 -200,200 -110.4687,0 -200,-89.5312 -200,-200 0,-110.4687 89.5313,-200 200,-200 110.4688,0 200,89.5313 200,200"
       transform="matrix(0.1,0,0,-0.1,0,792)"
       id="path38" />
    <path
       style="fill:none;stroke:#000000;stroke-width:10;stroke-linecap:butt;stroke-linejoin:miter;stroke-miterlimit:10;stroke-opacity:1"
       d="m 1500,800 c 0,110.46875 -89.5312,200 -200,200 -110.4687,0 -200,-89.53125 -200,-200 0,-110.46875 89.5313,-200 200,-200 110.4688,0 200,89.53125 200,200"
       transform="matrix(0.1,0,0,-0.1,0,792)"
       id="path40" />
    <path
       style="fill:none;stroke:#000000;stroke-width:10;stroke-linecap:butt;stroke-linejoin:miter;stroke-miterlimit:10;stroke-opacity:1"
       d="m 2500,800 c 0,110.46875 -89.5312,200 -200,200 -110.4687,0 -200,-89.53125 -200,-200 0,-110.46875 89.5313,-200 200,-200 110.4688,0 200,89.53125 200,200"
       transform="matrix(0.1,0,0,-0.1,0,792)"
       id="path42" />
    <path
       style="fill:none;stroke:#000000;stroke-width:10;stroke-linecap:butt;stroke-linejoin:miter;stroke-miterlimit:10;stroke-opacity:1"
       d="m 3500,800 c 0,110.46875 -89.5312,200 -200,200 -110.4687,0 -200,-89.53125 -200,-200 0,-110.46875 89.5313,-200 200,-200 110.4688,0 200,89.53125 200,200"
       transform="matrix(0.1,0,0,-0.1,0,792)"
       id="path44" />
    <path
       style="fill:none;stroke:#000000;stroke-width:10;stroke-linecap:butt;stroke-linejoin:miter;stroke-miterlimit:10;stroke-opacity:1"
       d="m 1000,3300 c 0,110.4688 -89.53125,200 -200,200 -110.46875,0 -200,-89.5312 -200,-200 0,-110.4687 89.53125,-200 200,-200 110.46875,0 200,89.5313 200,200"
       transform="matrix(0.1,0,0,-0.1,0,792)"
       id="path46" />
    <path
       style="fill:none;stroke:#000000;stroke-width:10;stroke-linecap:butt;stroke-linejoin:miter;stroke-miterlimit:10;stroke-opacity:1"
       d="m 2000,3300 c 0,110.4688 -89.5312,200 -200,200 -110.4687,0 -200,-89.5312 -200,-200 0,-110.4687 89.5313,-200 200,-200 110.4688,0 200,89.5313 200,200"
       transform="matrix(0.1,0,0,-0.1,0,792)"
       id="path48" />
    <path
       style="fill:none;stroke:#000000;stroke-width:10;stroke-linecap:butt;stroke-linejoin:miter;stroke-miterlimit:10;stroke-opacity:1"
       d="m 3000,3300 c 0,110.4688 -89.5312,200 -200,200 -110.4687,0 -200,-89.5312 -200,-200 0,-110.4687 89.5313,-200 200,-200 110.4688,0 200,89.5313 200,200"
       transform="matrix(0.1,0,0,-0.1,0,792)"
       id="path50" />
    <path
       style="fill:none;stroke:#000000;stroke-width:10;stroke-linecap:butt;stroke-linejoin:miter;stroke-miterlimit:10;stroke-opacity:1"
       d="M 800,500 C 699.45312,500 605.58594,550.39062 550,634.17969 M 800,500 c 100.54687,0 194.41406,50.39062 250,134.17969 M 1300,500 c -100.5469,0 -194.4141,50.39062 -250,134.17969 M 1300,500 c 100.5469,0 194.4141,50.39062 250,134.17969 M 1800,500 c -100.5469,0 -194.4141,50.39062 -250,134.17969 M 1800,500 c 100.5469,0 194.4141,50.39062 250,134.17969 M 2300,500 c -100.5469,0 -194.4141,50.39062 -250,134.17969 M 2300,500 c 100.5469,0 194.4141,50.39062 250,134.17969 M 2800,500 c -100.5469,0 -194.4141,50.39062 -250,134.17969 M 2800,500 c 100.5469,0 194.4141,50.39062 250,134.17969 M 3300,500 c -100.5469,0 -194.4141,50.39062 -250,134.17969 M 3300,500 c 100.5469,0 194.4141,50.39062 250,134.17969 M 3600,800 c 0,-100.54688 -50.3516,-194.41406 -134.1797,-250 M 3600,800 c 0,100.54687 -50.3516,194.41406 -134.1797,250 M 3600,1300 c 0,-100.5469 -50.3516,-194.4141 -134.1797,-250 M 3600,1300 c 0,100.5469 -50.3516,194.4141 -134.1797,250 M 3600,1800 c 0,-100.5469 -50.3516,-194.4141 -134.1797,-250 M 3600,1800 c 0,100.5469 -50.3516,194.4141 -134.1797,250 M 3600,2300 c 0,-100.5469 -50.3516,-194.4141 -134.1797,-250 M 3600,2300 c 0,100.5469 -50.3516,194.4141 -134.1797,250 M 3600,2800 c 0,-100.5469 -50.3516,-194.4141 -134.1797,-250 M 3600,2800 c 0,100.5469 -50.3516,194.4141 -134.1797,250 M 3600,3300 c 0,-100.5469 -50.3516,-194.4141 -134.1797,-250 M 3600,3300 c 0,100.5469 -50.3516,194.4141 -134.1797,250 M 3600,800 c 0,-100.54688 -50.3516,-194.41406 -134.1797,-250 M 3600,800 c 0,100.54687 -50.3516,194.41406 -134.1797,250 M 3600,1300 c 0,-100.5469 -50.3516,-194.4141 -134.1797,-250 M 3600,1300 c 0,100.5469 -50.3516,194.4141 -134.1797,250 M 3600,1800 c 0,-100.5469 -50.3516,-194.4141 -134.1797,-250 M 3600,1800 c 0,100.5469 -50.3516,194.4141 -134.1797,250 M 3600,2300 c 0,-100.5469 -50.3516,-194.4141 -134.1797,-250 M 3600,2300 c 0,100.5469 -50.3516,194.4141 -134.1797,250 M 3600,2800 c 0,-100.5469 -50.3516,-194.4141 -134.1797,-250 M 3600,2800 c 0,100.5469 -50.3516,194.4141 -134.1797,250 M 3600,3300 c 0,-100.5469 -50.3516,-194.4141 -134.1797,-250 M 3600,3300 c 0,100.5469 -50.3516,194.4141 -134.1797,250 M 500,800 c 0,100.54687 50.39062,194.41406 134.17969,250 M 500,800 C 500,699.45312 550.39062,605.58594 634.17969,550 M 500,1300 c 0,100.5469 50.39062,194.4141 134.17969,250 M 500,1300 c 0,-100.5469 50.39062,-194.4141 134.17969,-250 M 500,1800 c 0,100.5469 50.39062,194.4141 134.17969,250 M 500,1800 c 0,-100.5469 50.39062,-194.4141 134.17969,-250 M 500,2300 c 0,100.5469 50.39062,194.4141 134.17969,250 M 500,2300 c 0,-100.5469 50.39062,-194.4141 134.17969,-250 M 500,2800 c 0,100.5469 50.39062,194.4141 134.17969,250 M 500,2800 c 0,-100.5469 50.39062,-194.4141 134.17969,-250 M 500,3300 c 0,100.5469 50.39062,194.4141 134.17969,250 M 500,3300 c 0,-100.5469 50.39062,-194.4141 134.17969,-250 M 800,3600 c 100.54687,0 194.41406,-50.3516 250,-134.1797 M 800,3600 c -100.54688,0 -194.41406,-50.3516 -250,-134.1797 M 1300,3600 c 100.5469,0 194.4141,-50.3516 250,-134.1797 M 1300,3600 c -100.5469,0 -194.4141,-50.3516 -250,-134.1797 M 1800,3600 c 100.5469,0 194.4141,-50.3516 250,-134.1797 M 1800,3600 c -100.5469,0 -194.4141,-50.3516 -250,-134.1797 M 2300,3600 c 100.5469,0 194.4141,-50.3516 250,-134.1797 M 2300,3600 c -100.5469,0 -194.4141,-50.3516 -250,-134.1797 M 2800,3600 c 100.5469,0 194.4141,-50.3516 250,-134.1797 M 2800,3600 c -100.5469,0 -194.4141,-50.3516 -250,-134.1797 M 3300,3600 c 100.5469,0 194.4141,-50.3516 250,-134.1797 M 3300,3600 c -100.5469,0 -194.4141,-50.3516 -250,-134.1797"
       transform="matrix(0.1,0,0,-0.1,0,792)"
       id="path52" />
  </g>
</svg>
