<?xml version="1.0" encoding="UTF-8" standalone="no"?>
<svg
   width="488.89935pt"
   height="465.05847pt"
   viewBox="0 0 488.89935 465.05847"
   version="1.1"
   id="svg37"
   xmlns="http://www.w3.org/2000/svg"
   xmlns:svg="http://www.w3.org/2000/svg">
  <defs
     id="defs41" />
  <g
     id="surface1"
     transform="translate(0.25036172,-327.19418)">
    <path
       style="fill:none;stroke:#000000;stroke-width:5;stroke-linecap:butt;stroke-linejoin:miter;stroke-miterlimit:10;stroke-opacity:1"
       d="m 1836.1328,817.89062 13.9063,7.69532 13.8672,7.8125 13.8281,7.89062 13.75,8.00781 13.6719,8.125 13.6328,8.20313 13.5547,8.32031 13.5156,8.4375 25.7031,16.5625 15,9.6875 7.4609,4.88281 7.5,4.84375 5.1954,3.63282 4.2968,3.24218 3.3985,3.04688 2.5781,2.92969 1.7187,2.85156 0.9375,2.85156 0.078,3.00781 -0.7422,3.24219 -1.4844,3.55469 -2.2656,3.90625 -3.0078,4.41406 -3.2813,4.33594 -6.7187,8.51562 -3.4375,4.17969 -7.8516,9.76563 -7.8125,9.84375 -7.7734,9.84371 -7.6953,9.9219 -7.6172,9.9609 -7.5782,10.0001 -7.539,10.039 -7.4219,10.0781 -7.8516,10.6641 -7.7734,10.7031 -7.7734,10.7422 -7.6953,10.7422 -15.2344,21.6406 -7.5391,10.8594 -7.5,10.8984 -7.4219,10.9375 -7.3828,10.9766 -7.3828,11.0156 -7.2656,11.0547 -28.2422,43.2422 -61.3281,16.1719 -9.1016,2.4609 -9.0234,2.5391 -9.0625,2.539 -9.0235,2.6172 -9.0234,2.6563 -8.9844,2.6562 -8.9843,2.7344 -8.9844,2.7734 -11.4063,3.5157 -11.3672,3.5547 -11.4062,3.5937 -11.3281,3.6328 -11.3672,3.711 -11.3281,3.7109 -11.3282,3.75 -11.289,3.7891 -11.3282,3.8281 -11.25,3.8672 -11.289,3.9062 -11.25,3.9453 -10.7813,3.9063 -10.7422,3.9844 -10.664,4.1015 -10.6641,4.1797 -2.6562,1.0547 -2.6563,1.0156 -2.6953,0.9766 -2.6953,0.8984 -2.7344,0.8985 -2.7344,0.8203 -2.7343,0.7812 -2.7344,0.7422 -0.8594,0.1953 -0.8203,0.1563 -0.8594,0.078 -0.8593,0.039 -0.4688,-0.078 -0.2344,-0.1172 -2.0703,-3.4375 -2.539,-6.2109 -2.9688,-8.6719 -2.0312,-6.875 -1.9922,-6.875 -1.9532,-6.875 -1.914,-6.914 -1.836,-6.9141 -1.7968,-6.9141 -1.7188,-6.9531 -1.6797,-6.9531 -3.2031,-13.4766 -3.1641,-13.4765 -3.0859,-13.4766 -3.0078,-13.5156 -2.9688,-13.5156 -2.9296,-13.5157 -2.8516,-13.5547 -2.8125,-13.5546 -2.7344,-13.5547 -2.6953,-13.5547 -2.6172,-13.5938 -2.5781,-13.5937 -3.5938,-19.5313 -1.7578,-9.8047 -1.6797,-9.7656 -1.6406,-9.8047 -1.6015,-9.8047 -1.5625,-9.8046 -1.5235,-9.8047 -1.4062,-10 -1.3672,-10.00004 -1.2891,-10 -1.2109,-10.03906 -1.1328,-10.03906 -1.0547,-10.03907 -0.9766,-10.03906 -0.8984,-10.07812 -1.1328,-13.04688 -1.0547,-13.04687 -1.0156,-13.00782 -0.9375,-13.08593 -0.8985,-13.04688 -0.8203,-13.04687 -0.7812,-13.08594 -0.7032,-13.04688 -0.625,-13.08593 -0.5859,-13.08594 -0.5469,-13.04688 -0.4297,-13.08593 -0.3906,-13.08594 -0.3516,-13.08594 -0.2734,-13.08594 -0.2344,-13.08593 -0.078,-6.48438 -0.039,-6.52344 v -6.52343 l 0.039,-6.48438 0.078,-6.52344 0.1172,-6.48437 0.1953,-6.52344 0.1953,-6.48437 0.7032,-13.08594 0.9765,-10.50781 1.25,-7.69532 1.5235,-4.57031 1.8359,-1.21094 5.2344,1.44532 10.3906,2.73437 5.2344,1.32813 9.5312,2.5 9.4922,2.57812 9.4922,2.65625 9.4531,2.73438 9.4532,2.8125 9.414,2.89062 9.375,3.00781 9.375,3.04688 9.336,3.125 9.2968,3.20312 9.2969,3.24219 9.2578,3.28125 9.2578,3.35938 9.2578,3.39843 9.1797,3.4375 9.2188,3.51563 9.1797,3.55469 18.2812,7.26562 9.1016,3.75 14.8828,6.17188 14.8437,6.28906 14.7657,6.40625 14.7656,6.48437 14.6875,6.60157 14.6484,6.67968 14.6094,6.79688 14.5703,6.91406 14.4922,6.99219 14.4531,7.10937 14.4141,7.1875 14.375,7.30469 14.3359,7.42188 14.2578,7.5 14.1797,7.57812 z m 0,0"
       transform="matrix(0.1,0,0,-0.1,0,792)"
       id="path2" />
    <path
       style="fill:none;stroke:#000000;stroke-width:5;stroke-linecap:butt;stroke-linejoin:miter;stroke-miterlimit:10;stroke-opacity:1"
       d="m 2414.1016,1020.9766 10.664,10.4687 10.625,10.5469 10.5469,10.625 10.4688,10.6641 10.3515,10.7812 10.3125,10.8594 10.2344,10.9375 10.1562,10.9765 14.4922,16.1329 34.2188,38.6718 12.2656,0.8594 12.2266,0.8594 12.2265,0.8984 12.2266,0.8594 12.2266,0.8984 12.2265,0.9375 12.2266,0.8985 12.2265,0.9765 11.3672,0.8594 11.3672,0.9375 22.7344,2.0313 11.3672,1.0546 11.3281,1.1329 11.3672,1.1718 11.3281,1.211 9.6485,1.2109 9.6875,1.25 19.2968,2.5 7.9297,0.8984 6.7578,0.5469 5.625,0.1172 4.4141,-0.3125 3.3203,-0.8203 2.1484,-1.4453 1.0157,-2.1094 -0.078,-2.8125 -1.1718,-3.5547 -2.2266,-4.4531 -3.3594,-5.3516 -3.9453,-5.5859 -4.0234,-5.5469 -4.1016,-5.5078 -4.2187,-5.3906 -6.3672,-8.1641 -6.3672,-8.125 -6.4063,-8.125 -6.3671,-8.125 -62.461,-76.4062 -65.3906,-73.59379 -68.125,-70.66406 -70.8203,-67.69531 -73.3594,-64.64844 -75.7812,-61.5625 -78.0469,-58.39844 -80.2735,-55.15625 -82.3046,-51.83594 -84.2579,-48.47656 -86.0937,-45.03906 -87.7734,-41.5625 -89.375,-37.96875 -90.8204,-34.375 -92.1484,-30.625 -93.3984,-26.875 -94.4532,-23.08594 -95.4687,-19.14062 -96.3281,-15.23438 -97.0703,-11.17187 -23.3985,-2.1875 -4.2969,19.53125 -12.8906,62.69531 -11.2109,62.89062 -9.4922,63.04688 -7.8125,63.20312 -6.1328,63.35938 -4.4141,63.47656 -2.7344,63.59375 -1.0547,63.71094 0.6641,63.78906 2.3438,63.86719 4.0234,63.94531 5.7422,63.98438 7.3828,64.02346 9.1016,64.0234 10.7812,64.0625 12.5,64.0625 14.1406,64.0235 15.8594,64.0234 17.5,63.9453 19.2188,63.9063 1.0937,3.5546 1.1328,3.5157 1.1719,3.4765 1.2891,3.4766 1.0547,2.4609 1.1328,1.9922 0.2343,0.3906 0.2735,0.3907 0.5469,0.7031 0.664,0.6641 0.3516,0.3125 0.3906,0.2343 0.3906,0.2735 0.3907,0.2343 0.3906,0.1954 0.4297,0.1562 1.7187,0.3906 1.9922,-0.039 1.0156,-0.1953 0.9766,-0.1954 0.9766,-0.2734 1.0156,-0.2734 0.9765,-0.3516 0.9375,-0.3516 0.9766,-0.3906 0.9375,-0.4297 4.1406,-1.9922 4.1016,-2.1484 4.1016,-2.1875 3.9843,-2.3047 8.9453,-5.1172 8.9063,-5.039 8.9844,-5 8.9843,-4.961 9.0235,-4.9218 9.0234,-4.8438 9.0625,-4.8047 9.1016,-4.7656 10.7812,-5.6641 10.8203,-5.5468 10.8204,-5.4688 10.8984,-5.4297 5.6641,-2.9297 4.8437,-2.7343 4.1406,-2.5782 3.3985,-2.539 2.6953,-2.5782 0.8203,-0.9765 0.7812,-1.0156 0.6641,-1.0547 0.5859,-1.0938 0.5079,-1.1719 0.4296,-1.2109 0.3125,-1.2109 0.2344,-1.211 0.3125,-3.7109 -0.2344,-4.1797 -0.7421,-4.7266 -1.0547,-4.7265 -1.1328,-4.6875 -1.25,-4.6875 -1.3282,-4.6094 -4.2578,-14.375 -4.1797,-14.375 -4.0625,-14.4141 -3.9843,-14.4531 -3.9454,-14.4531 -3.789,-14.4922 -3.711,-14.4922 -3.6328,-14.5312 -10.4687,-44.375 -9.5313,-44.4532 -8.6328,-44.5703 -7.7344,-44.6093 -6.8359,-44.6875 -5.9375,-44.72661 -5.0391,-44.72657 -4.1015,-44.76562 -3.2031,-44.72656 -2.3047,-44.72657 -1.4063,-44.64843 -0.4687,-44.64844 0.4297,-44.53125 1.3671,-44.45313 2.2657,-44.33593 3.164,-44.21875 4.1407,-44.0625 5,-43.90625 0.8984,-7.53907 1.7187,-15 0.8204,-7.53906 0.7031,-5.23437 0.7031,-4.45313 0.8203,-3.71094 0.9375,-2.96875 1.1719,-2.34375 0.1953,-0.35156 0.2344,-0.35156 0.8203,-0.9375 0.3125,-0.27344 0.3125,-0.23437 0.3516,-0.27344 0.3125,-0.23438 0.3906,-0.19531 0.3515,-0.19531 0.3907,-0.15625 0.3515,-0.15625 0.3907,-0.11719 0.4296,-0.11719 0.3907,-0.0781 2.5,-0.27344 3.0078,0.11719 3.125,0.42969 3.125,0.50781 3.0859,0.54687 3.086,0.66407 4.6875,0.97656 4.6484,0.97656 4.6875,0.9375 4.6875,0.89844 44.6094,8.78906 44.8828,10 45.1172,11.13281 45.2343,12.22657 45.2735,13.32031 45.2344,14.33594 45.1171,15.35156 44.9219,16.28906 44.6094,17.26563 44.2578,18.125 43.7891,19.02343 43.2422,19.80469 42.6562,20.625 41.9141,21.40625 41.1328,22.07031 40.2734,22.77344 39.2969,23.4375 38.2422,24.0625 37.1484,24.60938 35.9375,25.15625 10.3516,7.46093 10.4297,7.46094 10.4297,7.38281 10.4296,7.34375 8.2032,5.82032 8.164,5.89843 8.086,5.9375 8.0468,6.01563 8.0079,6.05469 7.9296,6.17187 7.8907,6.21094 7.8515,6.28906 11.6407,9.45313 11.6015,9.49218 11.5235,9.60938 11.4453,9.6875 11.4062,9.72656 11.3672,9.84375 11.25,9.88281 11.2109,9.96094 11.875,10.66406 11.7969,10.70313 11.7578,10.78125 11.6797,10.82031 11.6016,10.9375 11.5625,10.97656 11.4844,11.01556 z m 0,0"
       transform="matrix(0.1,0,0,-0.1,0,792)"
       id="path4" />
    <path
       style="fill:none;stroke:#000000;stroke-width:5;stroke-linecap:butt;stroke-linejoin:miter;stroke-miterlimit:10;stroke-opacity:1"
       d="m 2554.0625,453.67187 -47.6562,33.98438 -46.211,34.88281 -18.9062,14.6875 -21.0938,-16.40625 -60.5469,-45.15625 -63.5156,-43.71094 -66.1719,-42.1875 -68.5546,-40.50781 -70.7422,-38.78906 -72.5782,-36.95313 -74.2578,-35.03906 -75.5859,-33.04687 -76.6797,-30.9375 -77.5,-28.71094 -78.0469,-26.44531 -78.3984,-24.062502 -78.3984,-21.5625 -78.2032,-18.984376 -77.6953,-16.328124 -76.9531,-13.59375 -75.9766,-10.703126 -74.6484,-7.773437 -73.125,-4.726563 L 951.32812,0 l -35,42.5 -19.0625,71.79688 -16.83593,72.85156 -14.60938,73.78906 -12.38281,74.57031 -10.19531,75.27344 -7.92969,75.85937 -5.78125,76.36719 -3.55469,76.71875 -1.32812,76.99219 0.85937,77.14844 3.04688,77.14843 5.27343,77.10938 7.42188,76.9531 9.64844,76.6407 11.79687,76.2109 14.02344,75.7031 16.17187,75.0781 18.35938,74.375 20.54687,73.5157 22.73438,72.5781 2.42187,7.2266 2.46094,7.2265 2.46094,7.2656 2.42187,7.2657 1.60157,5.2343 1.17187,4.6094 0.78125,4.1016 0.27344,3.6328 v 1.0937 l -0.0781,1.0547 -0.11718,1.0938 -0.19532,1.0547 -0.23437,1.0547 -0.3125,1.0546 -0.39063,1.0157 -0.42968,0.9765 -0.50782,0.9766 -0.54687,0.8984 -0.625,0.8985 -0.66406,0.8593 -2.5,2.8516 -2.73438,2.5 -1.44531,1.2109 -1.40625,1.211 -1.44531,1.1719 -2.96875,2.2656 -1.52344,1.0937 -6.48438,4.6094 -6.44531,4.6094 -6.48437,4.6094 -6.52344,4.5703 -59.92188,44.4531 -58.59375,46.1719 -57.22656,47.8515 -55.82031,49.4922 -54.33594,51.0547 -52.89062,52.6563 -51.36719,54.1015 -49.80469,55.586 -48.24219,56.9531 -46.5625,58.3203 -44.92187,59.6484 -43.24219,60.8985 -41.48437,62.1093 -39.72657,63.3204 -37.89062,64.414 -36.05469,65.4688 -34.17968,66.4843 -32.26563,67.5 -30.3125,68.4375 -4.648438,11.2891 -4.648437,11.3281 -4.648437,11.2891 -4.609376,11.3281 -4.570312,11.3281 -4.53125,11.3282 -4.570312,11.3672 -4.492188,11.3671 -2.382812,5.8985 -2.265626,5.9375 -2.1875,5.9765 -2.070312,6.0157 -1.796875,6.2109 -1.25,5.5078 -0.546874999999,4.961 0.117187999999,4.4531 0.820312,4.1015 1.601562,3.8282 2.34375,3.7109 3.203126,3.6328 3.984374,3.6719 4.921876,3.8281 5,3.5156 5.039062,3.4375 5.078125,3.3594 5.15625,3.2813 8.710937,5.5468 9.765626,6.25 62.070312,38.7891 62.69531,36.875 63.4375,34.9609 64.0625,33.0079 64.80469,31.1328 65.46875,29.1797 66.13281,27.3046 66.83594,25.3907 67.53906,23.4375 68.24219,21.5234 68.94531,19.6484 69.60938,17.6954 70.3125,15.8203 71.05468,13.8672 71.71875,11.9921 72.4219,10.0391 73.164,8.1641 73.8281,6.25 74.5704,4.3359 75.2734,2.4219 105.5078,2.0312 22.3047,68.6719 24.4922,71.6016 26.7578,71.0156 28.9062,70.3516 31.0157,69.5312 33.125,68.7109 35.0781,67.8125 37.0703,66.7969 38.9453,65.7031 40.8203,64.5704 42.5782,63.3593 44.375,62.0313 46.0156,60.625 47.6562,59.1797 49.2578,57.6171 50.7422,56.0547 52.2657,54.2969 53.6328,52.5391 55.039,50.7031 56.3282,48.75 57.5781,46.7578 5.4687,4.2969 4.961,3.8672 4.6093,3.2812 4.336,2.6563 4.2187,2.0312 4.1797,1.25 4.375,0.4688 4.6094,-0.3907 5,-1.3281 5.5469,-2.3047 6.1718,-3.3203 6.9922,-4.4922 7.8516,-5.625 3.9062,-2.9687 3.8282,-3.0078 3.8672,-3.0469 3.789,-3.0469 3.7891,-3.0859 3.789,-3.125 3.75,-3.125 3.711,-3.1641 7.6953,-6.5625 7.6953,-6.6015 15.3125,-13.2032 15.3125,-13.2812 7.6172,-6.6406 7.6172,-6.6797 53.0859,-47.9688 52.6953,-51.0547 52.1875,-53.8281 51.4453,-56.2891 50.5079,-58.5156 49.375,-60.4297 48.0859,-61.9922 46.6016,-63.3203 44.9218,-64.375 43.0469,-65.0781 40.9766,-65.5078 38.75,-65.6641 36.289,-65.5078 33.711,-65.039 30.8593,-64.336 27.8516,-63.2812 24.6484,-61.9922 21.3282,-60.3516 17.6953,-58.4375 13.9844,-56.25 2.2656,-10.3125 105.664,-2.0312 75.625,-2.3828 74.8829,-4.336 74.1796,-6.2109 73.4375,-8.1641 72.6954,-10.0781 71.9921,-12.0312 71.25,-13.9063 70.5469,-15.8203 69.8438,-17.7734 69.1015,-19.6875 68.3985,-21.6016 67.6562,-23.5156 66.9531,-25.4688 66.25,-27.3828 65.5469,-29.2969 64.8438,-31.2109 64.1015,-33.1641 63.3985,-35.039 62.6953,-36.9922 61.9922,-38.9453 9.7265,-6.211 5.7422,-3.6328 5.7813,-3.6719 5.7031,-3.7109 5.7031,-3.75 5.7422,-3.9844 4.8437,-3.6718 3.9454,-3.4766 3.125,-3.3984 2.3437,-3.4375 1.5625,-3.5547 0.8203,-3.7891 0.1563,-4.1016 -0.5469,-4.5703 -1.1328,-5.1172 -1.7578,-5.7421 -1.9922,-5.625 -2.1094,-5.586 -2.1484,-5.5469 -2.1875,-5.5468 -3.7891,-9.4141 -4.1797,-10.625 -28.6328,-70.2344 -30.625,-69.2968 -32.6172,-68.3594 -34.5703,-67.3438 -36.4453,-66.25 -38.2813,-65.1562 -40.1562,-63.9844 -41.875,-62.7734 -43.6328,-61.4844 -45.3516,-60.1563 -46.9922,-58.8281 -48.5937,-57.3437 -50.1953,-55.8985 -51.7188,-54.375 -53.2031,-52.7734 -54.6875,-51.1719 -56.0938,-49.4531 -57.4609,-47.7344 -58.8281,-45.9375 -60.1172,-44.1015 -3.3984,-2.461 -3.3203,-2.3437 -3.2813,-2.3438 -3.1641,-2.2656 -3.0859,-2.1875 -2.9687,-2.1094 -2.8516,-2.0312 -2.6953,-1.9141 -9.0625,-6.4062 -4.4922,-3.2422 -4.5313,-3.2032 0.039,-0.2343 v -0.2344 l 0.039,-0.2344 v -0.2344 l 0.078,-0.4687 0.078,-0.2344 0.039,-0.2344 2.0312,-7.3437 2.1485,-7.3438 2.2265,-7.3046 2.3047,-7.2657 2.0703,-6.4843 2.1094,-6.4454 2.0703,-6.4453 2.1094,-6.4453 22.6562,-72.4609 20.5469,-73.5547 18.3203,-74.5703 16.1719,-75.4688 13.9844,-76.1328 11.8359,-76.6797 9.6485,-77.1484 7.5,-77.42189 5.2734,-77.53906 3.0859,-77.53906 0.8985,-77.42188 -1.2891,-77.14844 -3.5156,-76.71875 -5.7031,-76.13281 -7.8907,-75.42969 -10.1172,-74.60937 -12.3437,-73.59375 -14.5313,-72.46094 -16.7578,-71.21093 -19.0234,-69.76563 -1.2891,-4.453125 -1.289,-4.492187 -1.211,-4.453126 -1.2109,-4.492187 -1.1719,-4.492187 -1.0937,-4.492188 -1.0938,-4.53125 -1.0156,-4.53125 -0.1953,-0.820312 -0.2344,-1.71875 -0.078,-0.859376 -1.7188,-1.914062 -4.9218,-1.40625 -7.8907,-0.9375 -10.7031,-0.507812 -13.2812,-0.039063 -9.2188,0.234375 -9.2578,0.273438 -9.2578,0.390624 -9.2578,0.429688 -9.2188,0.507812 -9.2578,0.585938 -9.2187,0.625 -9.2579,0.703125 -15.7812,1.328125 -15.7813,1.367188 -15.7812,1.445312 -15.7813,1.523438 -15.7812,1.601562 -15.7422,1.71875 -15.7812,1.757812 -15.7032,1.835938 -15.7422,1.953125 -15.7421,1.992187 -15.7032,2.109376 -15.7031,2.1875 -15.7031,2.226562 -15.6641,2.34375 -15.664,2.382812 -15.6641,2.5 -24.1797,4.140626 -59.8437,11.367187 -59.8829,12.96875 -59.8828,14.492187 -59.7265,16.015626 -59.5313,17.421872 -59.2187,18.86719 -58.8672,20.27344 -58.3985,21.5625 -57.8125,22.92968 -57.2265,24.17969 -56.4844,25.42969 -55.6641,26.60156 -54.8046,27.8125 -53.8282,28.90625 -52.7343,30 -51.6407,31.01563 -50.3906,32.07031 z m 0,0"
       transform="matrix(0.1,0,0,-0.1,0,792)"
       id="path6" />
    <path
       style="fill:none;stroke:#000000;stroke-width:5;stroke-linecap:butt;stroke-linejoin:miter;stroke-miterlimit:10;stroke-opacity:1"
       d="m 2842.1484,1569.375 47.7344,9.375 47.5,10.2344 47.0313,11.0937 46.3672,11.9141 45.5859,12.7344 44.6094,13.4765 43.4765,14.2188 14.9219,5.1953 14.8438,5.3125 14.8437,5.3906 14.8047,5.4688 3.0469,1.1328 3.0078,1.1328 6.0937,2.1094 3.086,1.0156 3.0859,0.9766 6.1719,1.875 4.414,1.0156 3.9063,0.5859 3.3984,0.1563 0.9766,-0.039 0.9375,-0.1172 0.9766,-0.1562 0.9375,-0.2344 0.8984,-0.2734 0.8984,-0.3125 0.8985,-0.4297 0.8593,-0.4297 0.8204,-0.5078 0.7812,-0.586 0.7422,-0.5859 0.7031,-0.6641 2.1094,-2.3828 0.8984,-1.25 0.8594,-1.25 0.8594,-1.289 0.8203,-1.2891 0.7812,-1.2891 0.7422,-1.3281 0.7422,-1.3672 0.7031,-1.3672 4.2188,-8.2812 4.1797,-8.3203 4.1406,-8.3594 4.1797,-8.3203 12.4219,-25.0781 4.1015,-8.3594 4.4532,-9.1406 4.3359,-9.1797 4.2578,-9.2578 4.1406,-9.2579 4.0235,-9.6093 3.2422,-8.4375 2.3828,-7.3438 1.6406,-6.4062 0.8594,-5.5078 0.1172,-4.7266 -0.586,-4.0625 -0.3906,-1.2891 -0.4688,-1.289 -0.625,-1.25 -0.7031,-1.1719 -0.7812,-1.1328 -0.8594,-1.0547 -0.9375,-1.0156 -1.0547,-0.8985 -3.2031,-2.3437 -3.8672,-2.1875 -4.4141,-2.1094 -5,-2.1484 -35.039,-13.9453 -35.9766,-13.4375 -36.9531,-12.8516 -37.8125,-12.3047 -14.6875,-4.5312 -14.7656,-4.4532 -14.7266,-4.3359 -14.8047,-4.2188 -14.8047,-4.1015 -14.8437,-4.0235 -14.8828,-3.9062 -14.8829,-3.7891 -15.5078,-3.8672 -15.5468,-3.75 -15.5469,-3.6328 -15.586,-3.5156 -15.5859,-3.4766 -15.625,-3.3203 -15.625,-3.2422 -15.7031,-3.125 -16.2891,-3.125 -16.3672,-3.0859 -16.3672,-2.9297 -16.3671,-2.8515 -16.4063,-2.7344 -16.4062,-2.6563 -16.4454,-2.539 -16.4453,-2.461 -16.4453,-2.3437 -16.4844,-2.2656 -16.4843,-2.1485 -16.4844,-2.0703 -16.5234,-1.9531 -16.5235,-1.836 -16.5234,-1.7578 -16.5235,-1.6797 -15.1171,-1.4062 -15.0782,-1.3672 -15.1172,-1.2891 -15.0781,-1.1718 -15.1172,-1.0938 -15.1172,-1.0547 -15.1171,-0.9375 -15.1172,-0.8593 -15.1563,-0.8204 -15.1172,-0.7031 -15.1562,-0.625 -15.1563,-0.5469 -63.6328,-2.1484 -7.5781,9.375 -7.4609,9.4531 -7.4219,9.5313 -7.3047,9.6094 -8.0078,10.8593 -7.9297,10.8985 -7.8906,10.9375 -7.8125,10.9765 -7.7735,11.0547 -7.6953,11.0547 -7.6172,11.1328 -7.539,11.1719 -4.1407,6.0937 -4.1406,6.1719 -4.0625,6.1328 -4.0625,6.211 -4.0234,6.1718 -3.9844,6.211 -7.8906,12.5 -2.8906,4.6484 -2.8125,4.6875 -2.6954,4.7266 -2.6171,4.8047 -1.7188,3.6718 -0.625,2.1485 0.039,0.078 v 0.1172 l 0.1562,0.4687 0.039,0.078 0.078,0.1172 0.039,0.078 0.078,0.1172 0.2344,0.2343 0.1172,0.078 0.078,0.039 0.1172,0.078 0.078,0.078 0.1172,0.039 0.078,0.039 0.1172,0.039 1.0937,0.3125 1.0938,0.2343 1.0937,0.1563 1.1329,0.039 2.1875,0.039 2.1484,-0.039 2.1875,-0.078 2.1484,-0.078 2.1485,-0.1172 2.1875,-0.1562 2.1484,-0.1953 2.1484,-0.2344 2.7735,-0.2735 37.6562,-3.125 39.4141,-1.914 41.0937,-0.7422 42.5,0.3516 43.7891,1.4453 44.9219,2.539 45.8203,3.5938 46.5625,4.6484 47.1875,5.625 47.5781,6.6016 47.8125,7.539 z m 0,0"
       transform="matrix(0.1,0,0,-0.1,0,792)"
       id="path8" />
    <path
       style="fill:none;stroke:#000000;stroke-width:5;stroke-linecap:butt;stroke-linejoin:miter;stroke-miterlimit:10;stroke-opacity:1"
       d="m 3018.6719,2106.0156 8.4375,40 3.0078,15.1953 2.8906,15.2735 2.8125,15.2734 2.6563,15.2735 2.5781,15.3125 2.4609,15.3515 2.3438,15.3125 2.2656,15.3906 2.1484,15.7032 2.0704,15.7031 1.9921,15.7422 1.836,15.7812 1.7578,15.7422 1.6406,15.7813 1.5235,15.7812 1.4453,15.8203 1.3672,16.211 1.25,16.2109 1.1328,16.25 1.0547,16.25 0.9375,16.2109 0.8203,16.25 0.7031,16.2891 0.625,16.25 1.2109,44.2188 0.4688,44.6484 0.3125,131.5625 7.8906,1.3672 7.9297,1.3281 7.8906,1.25 15.8594,2.4219 7.9297,1.0937 7.9687,1.0938 7.9688,1.0156 10.8984,1.4844 10.9375,1.3672 10.8985,1.3672 10.9375,1.289 10.9375,1.25 10.9375,1.211 10.9765,1.1718 10.9375,1.1328 9.9219,0.8204 9.9219,0.7812 9.9218,0.7031 9.9219,0.625 2.1875,-35.9765 0.625,-11.1328 0.5469,-11.1329 0.4687,-11.1328 0.4297,-11.1718 0.3516,-11.1329 0.3125,-11.1328 0.2344,-11.1718 0.1562,-11.1329 0.1172,-11.1718 0.039,-11.1328 -0.039,-11.1719 -0.039,-11.1328 -0.2343,-16.211 -0.3125,-16.2109 -0.3907,-16.1719 -0.4687,-16.2109 -0.5859,-16.1719 -0.6641,-16.2109 -0.7813,-16.1719 -0.8203,-16.1719 -0.9375,-16.1719 -1.0547,-16.1718 -1.1328,-16.1719 -1.2109,-16.1328 -1.2891,-16.1719 -1.4062,-16.1328 -1.4844,-16.1328 -1.6016,-16.1328 -1.6796,-16.0938 -1.7579,-16.0937 -1.875,-16.1328 -1.914,-16.0547 -1.3281,-10.7032 -1.4063,-10.664 -1.4453,-10.6641 -1.5234,-10.664 -1.5625,-10.625 -1.6407,-10.6641 -1.6797,-10.625 -1.7187,-10.625 -1.7969,-10.625 -1.8359,-10.5859 -1.9141,-10.625 -1.9531,-10.586 -2.5391,-12.7344 -2.5781,-12.7734 -2.6562,-12.7344 -2.6954,-12.7343 -2.7734,-12.6954 -2.8125,-12.7343 -2.8906,-12.6563 -2.9688,-12.6953 -2.7343,-11.7187 -2.8125,-11.7188 -2.8125,-11.6797 -2.8907,-11.6797 -2.9297,-11.6797 -2.9687,-11.6796 -3.0078,-11.6407 -3.0469,-11.6406 -3.125,-11.6406 -3.1641,-11.6406 -3.2031,-11.6016 -3.2422,-11.6016 -1.9531,-6.914 -1.9922,-6.9141 -2.0703,-6.9141 -2.1094,-6.875 -2.1875,-6.875 -2.2265,-6.8359 -2.2657,-6.8359 -2.3437,-6.836 -3.3984,-8.9062 -2.8907,-6.5625 -2.4218,-3.9844 -1.25,-0.9766 -2.7344,-1.3671 -2.7344,-1.2891 -2.8125,-1.1719 -2.8125,-1.1328 -9.3359,-3.4766 -9.375,-3.3984 -9.4141,-3.2812 -9.4531,-3.1641 -22.7344,-7.4219 -11.4062,-3.6328 -11.4063,-3.5547 -11.4062,-3.5156 -11.4454,-3.4766 -11.4843,-3.3984 -11.4844,-3.3594 -11.4844,-3.2812 -11.5234,-3.2422 -11.5235,-3.2031 -11.5234,-3.125 -6.9922,-1.9532 -7.0312,-1.914 -14.0625,-3.6719 -2.5391,-0.625 -2.5391,-0.5469 -2.5781,-0.4687 -2.5781,-0.3516 h -1.3672 l -0.9766,0.1563 -0.664,0.3515 -0.3906,0.5078 -0.078,0.2735 -0.078,0.3125 -0.039,0.2734 -0.078,0.625 v 0.5859 l 0.039,0.3125 0.039,0.8985 0.039,0.9375 0.039,0.8984 0.1172,0.8985 0.7031,3.2031 0.8203,3.2031 0.9375,3.1641 1.0156,3.125 1.5625,4.6093 1.6797,4.6485 1.6797,4.5703 1.7969,4.5703 14.375,37.1484 13.6328,37.5 12.8906,37.8125 12.1484,38.2032 11.4063,38.5156 10.6641,38.8672 9.9218,39.2578 z m 0,0"
       transform="matrix(0.1,0,0,-0.1,0,792)"
       id="path10" />
    <path
       style="fill:none;stroke:#000000;stroke-width:5;stroke-linecap:butt;stroke-linejoin:miter;stroke-miterlimit:10;stroke-opacity:1"
       d="m 3460.1953,1693.1641 -19.8828,40.8593 -20.5078,39.6875 -21.0156,38.3594 -21.5625,36.9141 -21.9922,35.3906 -8.2031,12.6953 8.2421,28.9844 3.3594,12.5781 3.2813,12.6563 3.125,12.6562 3.0468,12.6563 3.5547,14.8828 6.875,29.7656 6.6407,29.8438 3.2031,14.9218 3.164,14.961 3.125,14.9609 1.6407,8.3594 1.5625,8.3984 1.5234,8.3985 1.4844,8.3984 0.5859,3.125 0.6641,3.125 0.7422,3.0859 0.8203,3.086 1.0156,2.8125 1.0547,2.1875 1.1719,1.5234 1.3281,0.8594 1.4453,0.1953 1.6797,-0.4688 1.875,-1.1328 2.1484,-1.7968 2.1485,-2.2657 2.1093,-2.3437 1.9922,-2.3828 1.9141,-2.461 4.1406,-5.5078 4.0625,-5.5078 3.9844,-5.5469 3.9844,-5.5859 54.8828,-80.9375 51.3672,-83.75 47.8125,-86.4063 44.2578,-88.75 40.625,-90.9375 36.9531,-92.8125 33.2422,-94.4921 29.4531,-95.9766 25.625,-97.1484 21.7578,-98.125 17.8516,-98.8282 13.9062,-99.375 9.8829,-99.60935 5.8203,-99.64844 1.7187,-99.41406 -2.4219,-98.98438 -6.6406,-98.32031 -10.8984,-97.38281 -15.1563,-96.25 -19.5312,-94.84375 -6.7188,-29.17969 -12.2265,0.3125 -6.3282,0.50781 -6.289,0.54688 -6.3281,0.66406 -6.2891,0.74219 -14.6875,1.71875 -14.6484,1.75781 -14.6485,1.83594 -14.6484,1.91406 -59.4531,8.47656 -58.8672,9.80469 -58.3203,11.17188 -57.7344,12.46093 -57.1485,13.78907 -56.6406,15.11718 -56.0937,16.44532 -55.5469,17.77343 -54.9609,19.14063 -54.4532,20.42969 -53.9062,21.79687 -53.3594,23.08594 -52.8125,24.45312 -52.3047,25.78125 -51.7578,27.14844 -51.25,28.47656 -50.7031,29.80469 -50.1953,31.13281 -49.6875,32.5 -49.1407,33.82813 -5.7812,3.98437 -5.7422,4.02344 -5.7812,3.98438 -5.7422,4.02343 -5.8594,4.25782 -4.8828,3.82812 -3.9844,3.59375 -3.0078,3.39844 -2.0313,3.28125 -1.0546,3.32031 -0.078,3.4375 0.9766,3.63281 1.9922,3.94532 3.0078,4.375 4.0234,4.88281 5.1563,5.46875 5.3906,5.35156 5.4297,5.3125 5.5078,5.23438 5.5078,5.19531 9.0625,8.4375 8.9844,8.47656 8.9453,8.51563 8.9063,8.55468 8.8671,8.59375 8.8282,8.67188 8.789,8.67187 8.75,8.71094 3.3985,3.39844 3.3203,3.4375 3.2812,3.51562 3.2422,3.55469 0.7422,0.85938 0.7031,0.9375 0.6641,0.9375 0.625,0.9375 0.8203,1.25 0.8984,1.17187 1.0157,1.09375 1.0937,1.01563 0.3125,0.19531 0.7031,0.39062 0.3907,0.11719 0.3515,0.15625 1.1719,0.23438 h 0.3906 l 0.3907,0.0391 0.7812,-0.0781 0.7813,-0.15625 0.7812,-0.23437 2.1094,-0.85938 1.0547,-0.46875 1.0156,-0.50781 0.9766,-0.54687 1.0156,-0.54688 0.9765,-0.625 0.9375,-0.625 4.4141,-2.92969 4.3359,-2.96875 4.336,-3.00781 4.2578,-3.08594 4.7266,-3.39843 36.5234,-25.66407 37.8125,-25.07812 39.0234,-24.57031 40.1172,-23.90625 41.0938,-23.28125 42.0312,-22.57813 42.8125,-21.83594 43.5156,-21.05468 44.1407,-20.23438 44.6484,-19.375 45.0781,-18.47656 45.3907,-17.57813 45.5859,-16.52343 45.7422,-15.54688 45.7422,-14.45312 45.7031,-13.35938 45.5078,-12.22656 45.2344,-11.01563 44.8828,-9.80468 44.4141,-8.51563 35.8593,-6.40625 1.6016,7.10938 3.7109,18.63281 3.3985,21.09375 1.25,9.41406 1.1718,9.41406 1.0938,9.41407 1.0156,9.45312 0.9766,9.45313 0.8984,9.45312 0.7813,9.45313 0.7422,9.49218 1.0546,15.19532 0.9375,15.23437 0.8594,15.19531 0.7422,15.23438 0.625,15.23437 0.5469,15.23438 0.3906,15.23437 0.3516,15.27344 0.2343,14.60938 0.1954,14.64843 0.078,14.60938 0.039,14.64844 -0.039,14.60937 -0.1172,14.64844 -0.1953,14.60937 -0.2344,14.60938 -0.3516,14.64844 -0.3906,14.60937 -0.4687,14.60938 -0.5469,14.64843 -0.625,14.60938 -0.6641,14.60937 -0.7812,14.60938 -0.8203,14.60937 -0.9766,15.35157 -1.0547,15.35156 -1.2109,15.39062 -1.3281,15.3125 -1.4063,15.35157 -1.5625,15.3125 -1.6797,15.3125 -1.7969,15.31254 -6.289,45.4687 -7.461,45.9375 -8.5937,46.3282 -9.6875,46.5625 -10.7813,46.7187 -11.7968,46.7578 -12.7735,46.6797 -13.7109,46.5235 -14.6484,46.1718 -15.5079,45.7422 -16.3281,45.2344 -17.1094,44.5703 -17.8906,43.8281 -18.5937,42.9688 z m 0,0"
       transform="matrix(0.1,0,0,-0.1,0,792)"
       id="path12" />
    <path
       style="fill:none;stroke:#000000;stroke-width:5;stroke-linecap:butt;stroke-linejoin:miter;stroke-miterlimit:10;stroke-opacity:1"
       d="m 3421.2891,1268.5938 -2.8516,11.0546 -2.9297,11.0547 -3.0078,11.0157 -3.0859,10.9765 -2.2657,7.6953 -1.9531,5.9766 -1.5234,4.1016 -1.0938,2.0703 -0.1562,0.039 -1.6406,-0.3906 -1.5625,-0.4687 -1.5625,-0.5079 -1.5625,-0.625 -4.7657,-1.7968 -4.7656,-1.836 -4.7266,-1.914 -4.7265,-1.9532 -9.1016,-3.5937 -9.1406,-3.5156 -9.1797,-3.3985 -9.2187,-3.3203 -13.8672,-4.8437 -13.9063,-4.7657 -13.9062,-4.7265 -13.9063,-4.6485 -13.9453,-4.6484 -13.9844,-4.5703 -13.9453,-4.5313 -14.0234,-4.4531 -13.7891,-4.414 -13.8672,-4.375 -13.8672,-4.2969 -13.8671,-4.2578 -13.8672,-4.1797 -13.9453,-4.1406 -13.9063,-4.1016 -13.9453,-4.0234 -8.9844,-2.5782 -9.0234,-2.4609 -9.0235,-2.3047 -9.1015,-2.2266 -7.2656,-1.5234 -4.4141,-0.5078 -0.3125,-0.1172 -0.2734,-0.078 -0.2344,-0.1172 -0.2735,-0.1563 -0.7031,-0.4687 -0.2344,-0.1953 -1.6015,-1.5625 -1.5235,-1.5625 -1.4453,-1.6797 -1.4062,-1.6797 -2.8125,-3.5937 -2.7344,-3.6719 -2.6953,-3.6719 -2.6953,-3.7109 -2.6172,-3.711 -2.5781,-3.789 -2.5,-3.7891 -2.5,-3.8281 -6.0547,-9.336 -6.1328,-9.3359 -6.1328,-9.2969 -6.211,-9.2968 -6.2109,-9.2188 -6.2891,-9.2187 -6.3281,-9.2188 -6.3281,-9.1406 -6.4453,-9.1406 -6.4063,-9.1016 -6.5234,-9.0625 -6.5235,-9.0234 -9.2187,-12.7735 -9.336,-12.7344 -9.375,-12.6562 -9.4531,-12.6172 -9.5312,-12.5391 -9.6094,-12.5 -9.6484,-12.4609 -9.7657,-12.42188 -7.5781,-9.6875 -7.5,-9.72656 -7.4609,-9.80469 -7.3828,-9.88281 -0.3516,-0.46875 -0.3516,-0.50781 -0.3515,-0.54688 -0.3125,-0.54687 0.8593,-2.10938 3.4375,-3.47656 5.8204,-4.72656 8.0078,-5.82031 6.1328,-4.21875 6.1719,-4.17969 6.2109,-4.10156 6.2109,-4.0625 6.25,-4.02344 6.2891,-3.98438 6.2891,-3.94531 6.3671,-3.90625 22.1094,-13.4375 11.0938,-6.64062 11.1328,-6.64063 22.3437,-13.04687 11.25,-6.48438 11.25,-6.40625 11.25,-6.36719 11.3282,-6.32812 11.3281,-6.25 11.3281,-6.21094 11.3672,-6.17187 11.4453,-6.13282 11.4063,-6.09375 11.4843,-6.01562 10.7422,-5.50781 10.7813,-5.42969 10.8593,-5.35156 10.8594,-5.27344 10.9375,-5.15625 10.9766,-5.07813 10.9765,-4.96093 11.0547,-4.92188 12.6172,-5.50781 12.6563,-5.46875 12.6562,-5.39063 12.6953,-5.35156 12.6953,-5.3125 12.7344,-5.23437 12.7735,-5.15625 12.7734,-5.11719 12.7734,-5.07813 12.8516,-5 12.8516,-4.92187 12.8515,-4.88281 12.9297,-4.84375 12.8906,-4.76563 12.9297,-4.72656 12.9688,-4.64844 7.6953,-2.69531 7.6953,-2.65625 7.6953,-2.61719 7.7344,-2.53906 7.7734,-2.5 7.7735,-2.42188 7.7734,-2.38281 7.8125,-2.30469 11.3672,-3.04687 9.3359,-2.07031 7.1094,-1.05469 0.1953,0.0781 0.3906,0.82032 0.3125,0.85937 0.2344,0.89844 0.1563,0.89844 0.5078,2.89062 0.8593,5.85938 0.3907,2.96875 0.3515,2.92968 0.3125,2.92969 0.2735,2.96875 0.2343,2.92969 0.5469,6.875 0.4297,6.83594 0.3906,6.875 0.3125,6.83593 0.2344,6.875 0.1563,6.875 0.078,6.875 0.039,6.83594 -0.039,10.35156 -0.078,10.39063 -0.1563,10.35156 -0.1953,10.35156 -0.2734,10.35157 -0.7813,20.70312 -0.5078,10.3125 -0.7813,14.84375 -0.8203,14.80469 -0.9765,14.80469 -1.0157,14.80468 -1.0937,14.80469 -1.2109,14.80469 -1.2891,14.76562 -1.3672,14.80469 -1.4453,14.76563 -1.5234,14.76562 -1.6407,14.72656 -1.7187,14.76563 -1.7969,14.72656 -1.8359,14.72656 -1.9922,14.6875 -2.0313,14.6875 -1.3672,9.4532 -1.4453,9.414 -1.4843,9.375 -1.5235,9.4141 -1.6015,9.375 -1.6797,9.375 -1.7188,9.3359 -1.7969,9.336 -2.9296,14.2187 -3.0079,14.2188 -3.0859,14.1796 -3.125,14.1407 -3.2031,14.1797 -3.2813,14.1015 -3.3203,14.1406 -3.3984,14.1016 -2.5781,10.5859 -2.6172,10.586 z m 0,0"
       transform="matrix(0.1,0,0,-0.1,0,792)"
       id="path14" />
    <path
       style="fill:none;stroke:#000000;stroke-width:5;stroke-linecap:butt;stroke-linejoin:miter;stroke-miterlimit:10;stroke-opacity:1"
       d="m 2169.7266,1772.3438 8.125,-17.3438 11.2109,-23.3203 6.7188,-0.8984 6.7187,-0.8594 6.7188,-0.8203 6.7187,-0.7813 6.7188,-0.7422 6.7578,-0.7422 13.4375,-1.3281 11.7968,-1.0156 11.7579,-0.9375 11.7578,-0.8984 11.7578,-0.7813 11.7969,-0.7422 11.7578,-0.664 11.7968,-0.625 11.7969,-0.5079 15.2735,-0.625 15.2734,-0.5078 15.2734,-0.4297 15.2735,-0.3515 15.3125,-0.2344 15.2734,-0.1562 15.2734,-0.078 h 15.3125 l 15.2735,0.1172 15.2734,0.1953 15.2735,0.3125 15.3125,0.3516 10.8203,0.3516 10.8593,0.4296 10.8594,0.5079 10.8594,0.5859 10.8203,0.6641 10.8594,0.7421 10.8203,0.8204 10.8203,0.8984 12.1094,0.8984 12.1094,0.9375 12.1484,1.0157 12.0703,1.0546 8.5156,0.8985 7.2657,0.9765 6.1718,1.0938 5.2344,1.25 4.4141,1.4844 3.6718,1.7187 1.1719,0.7031 1.1328,0.7813 1.0938,0.8203 1.0156,0.8984 0.9766,0.9766 0.9375,0.9766 0.8593,1.0547 0.8204,1.0937 2.0312,3.3203 1.6406,3.2422 1.5235,3.2422 1.4843,3.3203 1.4063,3.3594 3.2031,7.3828 3.2422,7.3437 3.2422,7.3829 3.2812,7.3437 5.9766,13.8672 5.8594,13.9453 5.7422,13.9844 5.625,13.9844 5.5468,14.0625 5.4297,14.1015 5.3125,14.1797 5.1953,14.1797 5.1172,14.2187 5,14.2579 4.8438,14.2968 4.7656,14.336 4.0234,12.2265 3.9063,12.3047 3.8672,12.2656 3.789,12.3047 3.711,12.3438 3.5937,12.3437 3.5547,12.3828 3.4766,12.4219 3.3984,12.4219 3.3203,12.4219 3.2422,12.5 3.125,12.4609 3.086,12.5 3.0078,12.5391 2.9297,12.539 2.8515,12.5782 12.6953,57.1093 -19.7656,18.125 -9.1406,8.3203 -9.1797,8.2422 -9.2188,8.1641 -9.2968,8.125 -9.336,8.0859 -9.375,8.0078 -9.414,7.9688 -9.4922,7.8906 -9.5313,7.8516 -9.5703,7.7734 -9.6094,7.7344 -9.6484,7.6562 -9.7266,7.6172 -9.7656,7.5391 -9.8047,7.4609 -9.8437,7.461 -10.9766,8.2031 -11.0156,8.125 -11.0938,8.0859 -11.1328,7.9688 -11.2109,7.8906 -11.2109,7.8516 -11.3282,7.7343 -11.3281,7.6954 -11.4062,7.6171 -11.4454,7.5 -11.5234,7.461 -11.5234,7.3828 -11.6407,7.2656 -11.6406,7.2266 -11.7187,7.1094 -11.7578,7.0703 -19.2969,11.3281 -9.6485,5.625 -9.6875,5.625 -2.5,1.4062 -2.5,1.2891 -2.6171,1.2109 -2.6172,1.0938 -1.2891,0.5078 -1.3281,0.3906 -1.3672,0.3125 -1.3672,0.1953 -1.3672,0.1172 -1.4062,0.078 -1.3672,-0.078 -1.3672,-0.1562 -1.1719,-0.2344 -1.1328,-0.2734 -1.1328,-0.3516 -1.0938,-0.3516 -1.1328,-0.3906 -1.0547,-0.4297 -1.0937,-0.4687 -1.0547,-0.5078 -4.2578,-2.1875 -4.2578,-2.3047 -4.1406,-2.4219 -4.1407,-2.4609 -22.8515,-13.4766 -7.6563,-4.5312 -13.0469,-7.9297 -13.0078,-8.0078 -12.9297,-8.125 -12.8906,-8.2422 -12.8125,-8.2813 -12.7734,-8.3984 -12.6953,-8.4766 -12.6953,-8.5547 -12.5782,-8.6718 -12.5,-8.75 -12.5,-8.8282 -12.3828,-8.9062 -10.625,-7.6563 -10.5469,-7.7734 -10.5078,-7.7734 -10.4687,-7.8907 -10.3906,-7.9297 -10.3907,-8.0078 -10.2734,-8.0468 -10.2734,-8.125 -10.1954,-8.2032 -10.1953,-8.2812 -10.0781,-8.3203 -10.0391,-8.3594 -7.5,-6.3672 -7.4609,-6.4062 -7.3828,-6.4454 -7.3438,-6.4843 -7.3046,-6.5625 -7.2266,-6.6407 -7.2266,-6.6796 -7.1093,-6.7188 -15.3907,-14.7266 4.2969,-22.2265 2.1094,-10.625 2.2265,-10.6641 2.3047,-10.625 2.3438,-10.5859 2.4609,-10.586 2.5391,-10.5468 2.6172,-10.5469 2.6953,-10.5469 3.4765,-13.2812 3.5547,-13.2422 3.6719,-13.2422 3.7109,-13.2031 3.7891,-13.2032 3.8672,-13.2031 3.9453,-13.125 4.0234,-13.125 4.0625,-13.125 4.1797,-13.0859 4.2578,-13.0469 4.2969,-13.0469 4.4141,-13.0078 4.4531,-12.9687 4.5313,-12.9688 4.6093,-12.9297 4.8047,-13.2812 4.9219,-13.2813 5,-13.2031 5.1562,-13.2031 5.2344,-13.125 5.3125,-13.086 5.4688,-13.0468 5.5468,-13.0078 z m 0,0"
       transform="matrix(0.1,0,0,-0.1,0,792)"
       id="path16" />
    <path
       style="fill:none;stroke:#000000;stroke-width:5;stroke-linecap:butt;stroke-linejoin:miter;stroke-miterlimit:10;stroke-opacity:1"
       d="m 2059.4531,1550.7422 -20.5859,39.6484 -19.7656,40 -18.9844,40.3907 -18.2031,40.7031 -17.3047,40.9765 -16.5235,41.25 -15.625,41.4454 -14.7265,41.6406 -13.8281,41.7969 -12.9297,41.914 -3.5547,12.5391 -10.7813,37.6172 -0.7812,2.8515 -0.8594,2.7735 -0.8594,2.8125 -1.875,5.5468 -0.9765,2.7344 -2.1094,5.4688 -0.3516,0.8593 -0.4297,0.8594 -0.4687,0.8203 -0.5078,0.8203 -0.2735,0.3516 -0.2734,0.1172 -1.2109,-0.6641 -2.1094,-1.9531 -4.2188,-4.5312 -2.0703,-2.3047 -4.0625,-4.6875 -1.9922,-2.3438 -1.9531,-2.3828 -1.9531,-2.4219 -6.9531,-8.5937 -6.9141,-8.6719 -6.875,-8.6719 -13.5937,-17.5 -6.7188,-8.789 -6.6797,-8.8282 -6.6406,-8.8671 -7.1484,-9.5313 -7.0704,-9.5703 -13.9843,-19.2969 -6.9141,-9.6875 -6.8359,-9.7265 -6.7969,-9.8047 -6.7578,-9.8047 16.289,-48.2031 4.8438,-14.1016 4.9609,-14.0625 5,-14.0234 5.1172,-14.0235 5.1953,-13.9844 5.3125,-13.9453 5.3907,-13.9062 5.4687,-13.8672 5.5859,-13.8281 5.6641,-13.7891 5.7422,-13.7891 5.8203,-13.7109 5.9375,-13.6719 6.0156,-13.6328 6.1328,-13.6328 6.1719,-13.5547 6.4063,-13.75 6.4453,-13.7109 6.5234,-13.6328 6.6406,-13.6328 6.7188,-13.5938 6.7969,-13.5547 6.914,-13.4765 6.9532,-13.4375 7.0703,-13.4375 7.1093,-13.3594 7.2266,-13.3203 7.3047,-13.2813 7.3828,-13.2031 7.4609,-13.2031 7.5782,-13.125 7.6172,-13.086 7.6953,-13.0468 7.8125,-13.0079 7.8906,-12.9296 7.9297,-12.8907 8.0469,-12.8515 8.125,-12.7735 8.2031,-12.7734 8.2422,-12.6563 8.3593,-12.6562 8.4375,-12.5781 8.5157,-12.5391 8.5937,-12.5 8.6719,-12.4219 8.7109,-12.3828 8.8282,-12.3047 8.9062,-12.2656 6.7188,-9.1016 6.7578,-9.1015 6.7968,-9.0235 6.875,-9.0234 6.875,-8.9844 6.9141,-8.9843 6.9531,-8.9063 6.9922,-8.9062 9.2969,-11.7579 9.2187,-11.7968 9.1797,-11.836 9.1407,-11.875 0.664,-0.625 0.8985,-0.2734 1.1328,0.039 1.4062,0.4687 1.3672,0.5469 1.3281,0.664 1.25,0.7813 1.6407,1.0937 1.6015,1.1329 1.5625,1.1328 1.6016,1.1718 1.5234,1.1719 1.5235,1.25 1.5234,1.211 1.4844,1.289 6.7187,5.7813 6.6406,5.8593 6.5625,5.9766 6.5235,6.0156 12.1094,11.3672 24.1406,22.8906 12.0312,11.4844 5.0782,4.6875 5,4.7266 4.9609,4.7265 4.9609,4.8047 3.2422,3.4766 2.5781,3.1641 1.9532,2.8515 1.25,2.7344 0.3125,0.9766 0.1953,1.0156 0.1562,0.9765 0.039,1.0547 -0.039,1.0157 -0.1172,1.0156 -0.2343,0.9765 -0.3125,1.0157 -1.211,2.8906 -1.8359,3.1641 -2.1484,3.0859 -2.2266,3.0078 -2.3047,2.9688 -2.3437,2.8906 -3.5547,4.3359 -7.0313,8.6719 -3.4765,4.375 -26.875,34.6875 -26.211,35.3906 -25.5859,36.0547 -24.9219,36.6406 -24.2187,37.2266 -23.5547,37.7734 -22.8125,38.2813 -22.0703,38.789 z m 0,0"
       transform="matrix(0.1,0,0,-0.1,0,792)"
       id="path18" />
    <path
       style="fill:none;stroke:#000000;stroke-width:5;stroke-linecap:butt;stroke-linejoin:miter;stroke-miterlimit:10;stroke-opacity:1"
       d="m 1492.6563,1541.3672 24.2187,-10.1563 12.1484,-5 12.1875,-4.9609 12.1875,-4.9219 12.1875,-4.8437 12.2266,-4.8438 12.2266,-4.7656 12.2656,-4.7266 12.2656,-4.6875 24.6094,-9.2187 4.1016,-1.5234 4.1015,-1.4844 8.2813,-2.8906 4.1406,-1.4063 4.1797,-1.3672 4.1406,-1.3672 4.1797,-1.289 4.6094,-1.25 2.8515,-0.4688 0.2735,0.078 0.1562,0.3516 0.039,0.4297 v 0.8984 l -0.039,0.4297 -0.1562,0.8594 -0.1172,0.4687 -0.1172,0.3907 -0.5469,2.0312 -1.25,3.9844 -0.664,1.9922 -1.4063,3.9062 -1.5625,3.9063 -2.7734,6.7187 -2.8907,6.7578 -2.9296,6.6797 -3.0469,6.6407 -5.586,12.4609 -5.5468,12.5 -5.5078,12.5391 -5.4297,12.539 -5.3907,12.5781 -5.3125,12.5782 -5.2734,12.6172 -5.2344,12.6562 -4.1406,10.2734 -4.1016,10.3125 -4.0234,10.3516 -3.9453,10.3906 -2.5,6.25 -1.3672,3.125 -1.3672,3.086 -1.4453,3.0859 -1.4453,3.0469 -3.125,6.0156 -0.7813,1.4063 -0.8593,1.4062 -0.9375,1.3281 -1.0157,1.25 -0.5468,0.4688 -0.4297,0.2734 -45.5469,17.6953 -46.4062,20.1953 -47.1875,22.5 -47.7344,24.7266 -48.125,26.8359 -48.4375,28.8672 -48.5156,30.7032 -48.4766,32.4609 -48.2813,34.1016 -47.9296,35.625 -47.3829,37.0312 -46.7578,38.2813 -45.89841,39.4921 -44.96094,40.5079 -43.78906,41.4453 -42.5,42.2265 -41.09375,42.9688 -39.45313,43.4765 -37.73437,43.9844 -35.82032,44.2969 -6.91406,8.9844 -6.875,9.0625 -6.83594,9.1015 -6.79687,9.1407 -6.67969,9.1796 -6.67969,9.2188 -6.60156,9.2578 -6.52344,9.2969 -7.34375,10.4687 -7.30468,10.5078 -7.22657,10.5079 -7.22656,10.5468 -7.1875,10.586 -14.21875,21.25 -7.07031,10.664 -7.03125,10.6641 -6.99219,10.7031 -6.95312,10.7422 -6.875,10.7422 -6.875,10.7812 -6.83594,10.8204 -6.79688,10.8203 -6.75781,10.8593 -5.11719,8.2813 -5.07812,8.3203 -5,8.3203 -4.96094,8.3985 -4.92187,8.3984 -4.84375,8.4766 -4.76563,8.4765 -4.72656,8.5156 -6.48438,12.3829 -4.80468,10.0781 -2.96875,7.6562 -1.05469,4.8828 0.74219,0.9766 2.1875,1.5625 5.15625,2.9688 2.57812,1.4453 2.61719,1.4062 2.61719,1.3672 2.65625,1.3672 2.65625,1.2891 2.69531,1.289 10.07812,4.8438 10.07813,4.7656 10.11719,4.6875 10.15625,4.6484 10.19531,4.6094 10.19531,4.5703 10.23438,4.4922 10.23437,4.4141 13.24219,5.7422 13.28125,5.625 13.28125,5.5859 13.35937,5.4687 13.35938,5.3907 13.39844,5.3125 13.47656,5.2343 13.4375,5.1172 13.51562,5.0782 13.55469,4.9609 13.55469,4.8828 13.59375,4.8047 13.63281,4.7266 13.67188,4.6093 13.67187,4.5313 13.75,4.4922 14.45313,4.5703 14.53125,4.4531 14.53125,4.375 14.57031,4.2578 14.60937,4.1797 14.60938,4.0625 14.64844,3.9453 14.6875,3.8281 14.72656,3.75 14.72656,3.6329 14.76563,3.5546 14.80468,3.4375 14.80469,3.3204 14.84375,3.2031 14.84374,3.0859 14.8828,3.0078 14.9219,2.8907 14.9219,2.8125 14.9219,2.6562 14.9609,2.5781 16.1328,2.6563 16.1328,2.539 16.1328,2.4219 16.1719,2.3047 16.1719,2.2266 16.2109,2.0703 16.211,1.9922 16.1718,1.8359 16.25,1.7578 16.25,1.6406 16.25,1.5625 16.25,1.4063 15.2735,1.2109 15.3125,1.1719 15.2734,1.0547 15.2734,1.0156 15.3125,0.8985 15.3125,0.7812 15.3125,0.7422 15.3125,0.625 57.4219,2.3047 2.5,15.625 2.5781,15.625 2.6563,15.5859 2.7734,15.586 2.1875,12.5781 2.1875,12.6172 2.2266,12.5781 4.5312,25.1562 4.6094,25.1563 2.3438,12.5781 0.4297,1.875 1.8359,7.5 -64.5313,-0.039 -45.039,-0.625 -45.7422,-1.7579 -46.3672,-2.8906 -46.875,-3.9844 -47.3437,-5.0781 -47.6563,-6.1328 -47.9687,-7.2266 -48.1641,-8.2031 -48.2422,-9.2578 -48.28125,-10.2344 -48.24219,-11.1718 -48.08594,-12.1875 -47.89062,-13.086 -47.57813,-14.0234 L 709.64844,3012.5 662.92969,2996.7188 616.75781,2980.0391 571.25,2962.5 526.44531,2944.1406 482.46094,2925 l -10.66407,-4.8828 -10.66406,-4.9609 -10.66406,-5 -10.625,-5.0391 -10.58594,-5.0781 -10.58594,-5.1563 -10.54687,-5.1953 -10.50781,-5.2344 -14.53125,-7.2265 -14.45313,-7.3047 -14.41406,-7.3438 -14.41406,-7.4609 -14.375,-7.5 -14.33594,-7.5781 -14.29688,-7.6172 -14.25781,-7.6953 -4.57031,-2.5 -4.60938,-2.5391 -4.53125,-2.5391 -4.57031,-2.6171 -4.53125,-2.6172 -4.49219,-2.6172 -4.49218,-2.6953 -4.45313,-2.7344 -5.19531,-3.3984 -3.35938,-2.5 v -2.6954 l 1.83594,-6.0156 3.51563,-9.0625 4.60937,-10.5469 2.38281,-5.2734 2.34375,-5.2344 2.42188,-5.2343 2.46094,-5.2344 2.46093,-5.1953 2.5,-5.1953 4.96094,-10.1954 5,-10.1562 10.07813,-20.3125 10.23437,-20.2344 5.11719,-10.0781 10.39062,-20.1563 5.23438,-10.039 5.27344,-10.0391 5.3125,-10 6.44531,-12.2656 6.52344,-12.2266 6.60156,-12.1875 6.64062,-12.1484 6.71875,-12.1094 6.75782,-12.1094 6.83593,-12.0703 6.875,-12.0312 8.86719,-15.0781 4.25781,-6.9532 4.33594,-6.914 4.45313,-6.875 4.53125,-6.7969 8.04687,-12.1875 8.04688,-12.2656 7.96875,-12.2266 7.96875,-12.3047 37.03125,-55.3125 38.82812,-54.414 40.58594,-53.3594 42.30469,-52.3438 43.90625,-51.2109 45.50781,-50.0781 47.07031,-48.8672 48.51563,-47.6563 49.96093,-46.3672 51.36719,-45.039 52.61719,-43.6719 53.90625,-42.2266 55.11715,-40.7812 56.2891,-39.2578 57.3828,-37.6563 58.4375,-36.0937 59.4141,-34.4531 60.3515,-32.6954 61.25,-30.9765 62.0704,-29.2188 8.7109,-3.8672 8.75,-3.8671 8.75,-3.7891 z m 0,0"
       transform="matrix(0.1,0,0,-0.1,0,792)"
       id="path20" />
    <path
       style="fill:none;stroke:#000000;stroke-width:5;stroke-linecap:butt;stroke-linejoin:miter;stroke-miterlimit:10;stroke-opacity:1"
       d="m 1203.7109,2136.4063 7.461,-5.5079 6.0156,-4.1406 4.3359,-2.539 2.6172,-0.8985 0.2344,0.1563 0.2734,0.1172 0.1954,0.1562 0.2343,0.1563 0.1953,0.1953 0.2344,0.1953 0.1563,0.2344 0.1953,0.1953 2.6172,3.2812 2.539,3.3594 2.461,3.3984 2.3828,3.4375 3.6719,5.5469 3.6328,5.5469 3.5937,5.5859 3.5547,5.586 5.2734,7.9296 5.3125,7.8907 5.3516,7.8906 5.3906,7.8516 5.4297,7.8515 5.4688,7.7735 5.4687,7.8125 5.5469,7.7343 7.6562,10.7813 7.7344,10.7422 7.7735,10.7031 7.7734,10.6641 15.7031,21.3281 15.8594,21.1719 7.9687,10.5468 8.0079,10.5469 8.0468,10.4688 8.086,10.4687 3.8672,5.0391 3.9453,5 3.9453,4.9609 3.9844,4.9609 3.9843,4.9219 4.0235,4.8828 4.0625,4.9219 4.1015,4.8438 5.7032,6.5234 10.625,11.6406 -2.9688,33.3594 -0.3516,5.2734 -0.625,10.625 -0.4687,10.625 -0.3125,10.625 -0.1172,5.3125 -0.2734,12.8907 -0.2735,12.9296 -0.3906,25.7813 -0.1562,12.8906 -0.1563,12.9297 -0.1562,25.7813 -0.039,12.8906 v 12.9297 l 0.078,25.7812 0.078,12.9297 0.1172,12.8906 0.3125,25.7813 0.078,5.2344 0.078,5.2734 0.3125,10.4687 0.2344,5.2735 0.2343,5.2344 0.2735,5.2343 0.3125,5.2344 2.5781,30.8203 -29.5313,-0.039 -8.3984,-0.1172 -8.3984,-0.1563 -8.4375,-0.2344 -8.3985,-0.3125 -8.3984,-0.3515 -8.3984,-0.4688 -8.3985,-0.5078 -8.3594,-0.5469 -15.3515,-1.1718 -15.3125,-1.2891 -15.3125,-1.3672 -15.3125,-1.4844 -15.3125,-1.6015 -15.2735,-1.6797 -15.2734,-1.7969 -15.2734,-1.914 -14.0625,-1.836 -14.0235,-1.875 -14.0234,-1.9922 -14.0234,-2.0312 -14.0235,-2.1485 -13.9844,-2.2656 -13.9843,-2.3047 -13.9844,-2.3828 -13.9453,-2.5 -13.9453,-2.539 -13.9063,-2.6563 -13.9062,-2.7344 -9.8047,-1.9922 -9.8047,-2.1093 -9.7656,-2.1485 -9.7657,-2.2265 -9.72653,-2.3438 -9.72656,-2.3828 -9.6875,-2.4609 -9.6875,-2.5 -14.49219,-3.8672 -14.45312,-3.9453 -14.45313,-3.9844 -14.45312,-4.0625 -14.41406,-4.1406 -14.375,-4.1797 -14.375,-4.2578 -14.375,-4.336 -14.33594,-4.375 -14.33594,-4.414 -14.29687,-4.5313 -14.25782,-4.5703 -5.03906,-1.6406 -5,-1.6406 -10,-3.4375 -9.92187,-3.5938 -4.96094,-1.8359 -4.92188,-1.875 -5.70312,-2.461 -3.63281,-1.875 -0.74219,-2.7734 1.75781,-5.5078 4.10156,-8.0078 6.25,-10.3516 8.20313,-12.3828 4.17969,-6.0156 4.25781,-6.0157 4.25781,-5.9375 8.67188,-11.875 4.375,-5.8593 8.90625,-11.7188 9.76562,-12.6172 9.88281,-12.5781 9.92188,-12.5 10,-12.4609 10.07812,-12.3828 10.15625,-12.3829 10.19532,-12.2656 10.3125,-12.2265 7.1875,-8.5547 7.26562,-8.5157 7.30469,-8.4765 7.34375,-8.4766 7.34375,-8.3984 7.42187,-8.3985 7.42188,-8.3593 7.46094,-8.3594 7.5,-8.2813 7.53906,-8.2812 7.57812,-8.2422 7.61719,-8.2031 8.28125,-8.7891 8.35938,-8.75 8.39843,-8.6328 8.51558,-8.5937 8.5547,-8.5157 8.6328,-8.4375 8.711,-8.3593 8.7891,-8.2813 10.8984,-10.1953 10.9766,-10.1563 10.9765,-10.1171 11.0547,-10.0391 11.0938,-9.9609 11.1718,-9.961 11.211,-9.8437 11.25,-9.8438 11.289,-9.7656 11.3282,-9.6875 11.4062,-9.6875 11.4453,-9.5703 7.3438,-6.0938 7.4218,-5.9765 7.461,-5.9375 z m 0,0"
       transform="matrix(0.1,0,0,-0.1,0,792)"
       id="path22" />
    <path
       style="fill:none;stroke:#000000;stroke-width:5;stroke-linecap:butt;stroke-linejoin:miter;stroke-miterlimit:10;stroke-opacity:1"
       d="m 1615.3516,2660.8203 5.1953,99.0235 8.8672,98.0468 12.6562,96.9922 16.3281,95.8985 19.9219,94.7265 23.5938,93.4766 27.1093,92.0703 30.7032,90.6641 34.1797,89.1796 37.6171,87.5391 41.0938,85.8984 44.4531,84.1407 47.8125,82.3047 51.1328,80.3906 54.4532,78.4375 57.6562,76.289 60.8594,74.1797 64.0625,71.9531 67.1484,69.6094 70.3125,67.2266 6.3281,5.8984 6.3672,5.8203 12.8907,11.5625 3.125,2.7344 1.6406,1.3281 1.6015,1.2891 1.6407,1.2891 1.6797,1.25 1.6796,1.2109 1.7579,1.1719 3.5546,2.1875 3.3204,1.5234 0.9375,0.3516 0.9765,0.3125 0.9766,0.2343 0.9765,0.1954 1.0157,0.1171 1.0156,0.039 h 1.0156 l 0.9766,-0.078 1.0156,-0.1172 0.9766,-0.1953 0.9765,-0.2735 0.9766,-0.3125 2.9687,-1.3281 1.2891,-0.7812 1.3281,-0.8203 1.25,-0.8594 1.2891,-0.8594 1.2109,-0.8984 1.25,-0.9375 1.1719,-0.9375 1.2109,-1.0157 3.2813,-2.8125 3.2812,-2.8515 3.2813,-2.8906 3.2422,-2.8516 43.4375,-39.4531 42.6953,-41.0547 41.7969,-42.6172 40.9375,-44.1016 40.039,-45.4687 39.0625,-46.836 38.0469,-48.1249 36.9922,-49.2969 35.8984,-50.4688 34.7657,-51.5234 33.5937,-52.5781 32.3438,-53.4766 31.0546,-54.3359 29.7657,-55.1953 28.3984,-55.8985 26.9922,-56.6015 25.5078,-57.1875 24.0625,-57.7344 22.5,-58.2031 20.9375,-58.6329 2.8516,-8.0859 2.8515,-8.125 2.8516,-8.0859 2.8516,-8.125 1.8359,-5.7422 1.2891,-5 0.7421,-4.2578 0.1172,-3.5938 -0.5468,-3.0078 -1.2891,-2.5391 -2.0313,-2.0703 -2.8515,-1.7187 -3.75,-1.4063 -4.6875,-1.2109 -5,-0.8984 -5,-0.8204 -5.0391,-0.7031 -5.039,-0.625 -14.2579,-1.6406 -14.2187,-1.7578 -14.2188,-1.7969 -14.1796,-1.9141 -14.1797,-1.9531 -14.1797,-2.0703 -14.1797,-2.1094 -14.1797,-2.1875 -5.625,-1.0156 -5.6641,-1.0547 -5.625,-1.0547 -5.664,-1.0547 -1.5625,-0.3125 -1.6016,-0.3125 -1.5625,-0.2343 -1.6015,-0.1953 -3.2032,-0.3125 -3.2031,-0.1563 h -0.7812 l -0.7813,0.039 -0.7422,0.078 -0.7812,0.1172 -0.7422,0.1953 -0.7422,0.2344 -0.7031,0.2343 -0.7422,0.3125 -0.586,0.3516 -0.5859,0.3906 -0.5859,0.4297 -0.5469,0.4688 -0.5078,0.4687 -0.4297,0.5469 -0.4688,0.5469 -0.3906,0.5859 -0.7031,1.1719 -0.625,1.2109 -0.625,1.25 -0.5469,1.211 -0.5469,1.289 -0.5078,1.25 -0.4687,1.2891 -0.3906,1.3281 -4.4922,13.5156 -4.5313,13.5157 -4.6094,13.4765 -4.6484,13.4766 -15.5469,42.1484 -16.6797,42.1094 -17.7734,42.0703 -18.8672,41.9531 -19.9219,41.836 -20.9375,41.6406 -21.9921,41.4453 -22.9688,41.1328 -23.9062,40.8594 -24.8438,40.5469 -25.7422,40.1172 -26.6797,39.6875 -27.5,39.2578 -28.3593,38.7109 -29.1407,38.1641 -29.9218,37.5781 -30.7422,36.9531 -31.4453,36.2891 -32.1485,35.5468 -33.2422,35.9766 -21.3672,-20.9766 -47.6953,-49.0624 -46.4453,-52.2657 -45.1172,-55.2343 -43.7109,-58.0079 -42.1094,-60.4687 -40.5078,-62.8125 -38.75,-64.8438 -36.9141,-66.7187 -34.9218,-68.3203 -32.9297,-69.7266 -30.7031,-70.8594 -28.5157,-71.8359 -26.1328,-72.5391 -23.6719,-73.0468 -21.0937,-73.3203 -18.4375,-73.3204 -15.7031,-73.164 -12.8125,-72.7735 -9.8438,-72.1093 -6.7969,-71.25 -2.2265,-30.7422 -7.461,-5.7422 -7.3828,-5.8203 -7.3437,-5.8203 -7.3047,-5.9375 -7.2656,-5.9375 -7.2266,-6.0157 -7.1875,-6.0546 -7.1484,-6.0938 -12.2266,-10.4297 -12.1484,-10.4687 -12.1094,-10.5469 -12.0703,-10.5859 -11.9922,-10.625 -11.9922,-10.7032 -11.9531,-10.7031 -11.875,-10.7812 -6.6797,-6.25 -13.3594,-12.5782 -6.6406,-6.25 -3.9453,-3.5547 -3.4766,-2.8906 -2.9687,-2.1875 -2.5391,-1.4062 -2.1094,-0.586 -1.7578,0.1953 -1.4062,1.0938 -1.0547,2.0312 -0.8203,2.9297 -0.5469,3.9453 -0.2344,4.4922 -0.1562,4.5313 -0.039,4.5312 0.078,4.5313 0.2344,10.0781 0.625,20.1563 z m 0,0"
       transform="matrix(0.1,0,0,-0.1,0,792)"
       id="path24" />
    <path
       style="fill:none;stroke:#000000;stroke-width:5;stroke-linecap:butt;stroke-linejoin:miter;stroke-miterlimit:10;stroke-opacity:1"
       d="m 1919.5313,2360.4688 -34.336,-32.3829 -33.6328,-33.0078 -32.9297,-33.6328 -32.1875,-34.1406 -31.289,-34.6484 -30.3907,-35 -29.414,-35.3907 -28.3985,-35.664 -27.2656,-35.8594 -26.1328,-36.0156 -24.8828,-36.0938 -23.5938,-36.1328 -2.6172,-4.2578 -5.3125,-8.4375 -2.7343,-4.1797 -2.1094,-2.9297 -2.0313,-2.3828 -2.0312,-1.8359 -0.7422,-0.5469 -0.7812,-0.5078 -0.8204,-0.4297 -0.8593,-0.3516 -0.8985,-0.2734 -0.9375,-0.1953 -0.8984,-0.1172 -0.9375,-0.039 -2.8125,0.1953 -3.1641,0.7422 -1.6015,0.5469 -1.6016,0.5859 -1.6016,0.625 -1.5625,0.625 -1.5625,0.7032 -1.5625,0.664 -1.5234,0.7422 -1.5234,0.7813 -6.6797,3.4375 -6.6406,3.5156 -6.6407,3.5937 -6.6015,3.5938 -10.625,5.7422 -10.6641,5.7422 -10.6641,5.7031 -10.625,5.7422 -9.375,5 -9.3359,5.0781 -9.2969,5.1563 -9.2187,5.2343 -9.1797,5.4297 -7.6563,4.8828 -6.25,4.4532 -4.9218,4.1406 -3.6719,3.8672 -2.5,3.789 -1.4063,3.711 -0.3906,3.75 0.5469,3.9062 1.4062,4.2188 2.1875,4.5312 2.8907,4.961 8.5937,13.3593 8.6719,13.2813 8.7109,13.2422 8.75,13.2031 23.9844,34.6875 25.1563,34.8437 26.25,34.8829 27.2656,34.8437 7.0312,8.7891 14.2188,17.5 14.375,17.3437 7.2265,8.6328 7.2657,8.6328 7.3047,8.5547 7.3828,8.5547 7.3828,8.4766 7.4219,8.4765 7.4609,8.4766 10.0781,11.2891 10.1563,11.289 10.1953,11.1719 10.2734,11.1719 10.3516,11.0547 10.3906,11.0547 10.4688,10.9765 10.5468,10.8985 10.586,10.8593 10.625,10.7813 10.7031,10.7422 10.7812,10.664 32.3438,31.3672 32.5781,30.4688 32.7735,29.5703 32.8515,28.5156 32.8125,27.4219 32.7344,26.25 32.5781,24.9219 32.3047,23.5156 22.3828,15.8984 12.2266,-3.3594 12.1875,-3.4375 12.1875,-3.5546 12.1484,-3.6329 10.5469,-3.3203 10.5078,-3.3984 10.5469,-3.4375 10.4687,-3.5156 10.4688,-3.5547 10.4687,-3.6328 10.4297,-3.6719 10.3906,-3.7891 10.3907,-3.8281 10.3515,-3.8672 10.3125,-3.9453 10.3125,-4.0234 4.4141,-1.7188 4.4141,-1.7969 4.375,-1.7968 4.375,-1.836 4.375,-1.875 8.6718,-3.8281 4.2969,-1.9922 5.8203,-2.8515 4.336,-2.461 2.8125,-1.9531 1.0937,-1.4063 v -0.5078 l -0.039,-0.2343 -0.039,-0.2735 -0.2344,-0.7031 -0.1172,-0.2344 -0.1172,-0.1953 -0.1562,-0.2344 -0.1172,-0.1953 -0.1953,-0.1953 -1.211,-1.4453 -1.25,-1.4063 -1.3671,-1.289 -1.4063,-1.25 -5,-3.9844 -5.0781,-3.8281 -2.6172,-1.875 -2.5781,-1.7969 -2.6563,-1.7969 -2.6562,-1.7578 -10.9766,-7.2265 -21.875,-14.5313 -10.9375,-7.3437 -37.1484,-25.9766 -36.9141,-27.0703 -36.6406,-28.125 -36.3281,-29.1016 -35.8985,-30.039 -35.4297,-30.8594 z m 0,0"
       transform="matrix(0.1,0,0,-0.1,0,792)"
       id="path26" />
    <path
       style="fill:none;stroke:#000000;stroke-width:5;stroke-linecap:butt;stroke-linejoin:miter;stroke-miterlimit:10;stroke-opacity:1"
       d="m 2466.7188,2707.3828 -38.9063,19.4531 -39.2187,18.6329 -39.4922,17.8125 -39.8047,17.0312 -40.0781,16.2109 -40.3516,15.3907 -40.625,14.5703 -40.8594,13.7109 -41.1328,12.8906 -41.3281,12.0313 -57.5,16.1328 0.2344,16.5234 0.3125,3.711 0.3906,3.7109 0.5078,3.711 1.0156,7.0703 1.0547,7.1093 1.0938,7.0704 1.1718,7.0703 1.1719,7.0312 1.1719,7.0703 1.25,7.0703 1.289,7.0313 1.875,10.4297 1.9141,10.3906 1.9922,10.3906 2.0703,10.3907 2.1094,10.3906 2.1484,10.3906 2.2266,10.3516 2.2656,10.3515 1.0938,4.8438 1.1718,4.8437 1.25,4.8047 1.3672,4.8047 0.078,0.3516 0.2344,0.7031 0.3125,0.625 0.1953,0.3125 0.2344,0.3125 0.4688,0.5469 0.2734,0.2734 0.2734,0.1953 0.3125,0.2344 0.3125,0.1562 0.3516,0.1172 0.3516,0.1563 0.3125,0.1172 0.7031,0.1562 0.3906,0.078 0.3516,0.078 0.3515,0.039 h 0.3907 l 0.3515,0.039 h 0.3516 l 2.8906,-0.1563 1.4453,-0.1562 1.4063,-0.1563 1.4453,-0.1953 2.8125,-0.5468 1.4453,-0.3125 6.9922,-1.6407 6.9531,-1.7187 6.9922,-1.7969 6.9141,-1.9141 9.6484,-2.6953 19.2969,-5.4687 9.6093,-2.8125 9.6485,-2.8125 9.6094,-2.8125 9.6093,-2.8516 9.6094,-2.8906 12.3828,-3.8281 12.3438,-3.8672 12.3437,-3.9453 12.3438,-3.9844 12.3047,-4.1016 12.2656,-4.1015 12.2265,-4.1797 12.2657,-4.2969 12.1875,-4.2969 12.1875,-4.414 12.1875,-4.4532 12.1484,-4.4921 12.1094,-4.5704 12.0703,-4.6484 12.0703,-4.7266 12.0703,-4.7656 15.1953,-6.1328 15.1563,-6.2109 15.1562,-6.3282 15.0391,-6.4453 15.0391,-6.5234 15,-6.6406 14.9609,-6.7578 14.8828,-6.836 14.8438,-6.9531 14.8046,-7.0313 14.7657,-7.1484 14.7265,-7.2656 14.6485,-7.3438 14.6093,-7.4609 14.5313,-7.5391 14.5312,-7.6562 14.4141,-7.7344 14.4141,-7.8516 14.3359,-7.9687 14.2969,-8.0078 13.3203,-7.6563 13.2812,-7.6953 13.2032,-7.8125 13.2031,-7.8515 13.125,-7.9688 13.0469,-8.0469 13.0468,-8.125 12.9688,-8.2422 12.8906,-8.2812 12.8906,-8.3984 12.8125,-8.4375 12.7344,-8.5547 12.6953,-8.6328 12.6563,-8.711 12.5781,-8.789 12.5391,-8.8672 37.8906,-27.0313 -1.6406,-111.7187 -0.078,-8.75 -0.3515,-26.25 -0.1563,-8.711 -0.4687,-26.25 -0.4688,-12.4218 -0.5859,-10.5469 -0.8594,-8.75 -1.1328,-7.0313 -1.4844,-5.4297 -1.875,-3.8671 -2.3047,-2.3829 -2.8125,-1.0546 -3.3984,0.2343 -3.9844,1.4844 -4.6484,2.5781 -5.3906,3.6328 -5.3125,4.0235 -5.3125,4.1015 -5.2344,4.1016 -5.2344,4.1406 -8.8281,7.0313 -35.2734,27.1875 -35.7032,26.4453 -36.0937,25.6641 -36.4844,24.9218 -36.8359,24.1407 -37.2266,23.3984 -37.5781,22.6172 -37.8906,21.7969 -38.2813,21.0546 z m 0,0"
       transform="matrix(0.1,0,0,-0.1,0,792)"
       id="path28" />
    <path
       style="fill:none;stroke:#000000;stroke-width:5;stroke-linecap:butt;stroke-linejoin:miter;stroke-miterlimit:10;stroke-opacity:1"
       d="m 2839.5313,3074.1797 90.0781,20.3516 90.664,16.8359 91.0938,13.3594 91.4453,9.8828 91.6797,6.4062 91.7969,2.9297 91.7187,-0.4687 91.6016,-3.9063 91.3281,-7.3047 90.9375,-10.7422 90.4688,-14.1406 89.8046,-17.5 89.0625,-20.8594 88.2032,-24.2578 87.1875,-27.5781 86.1328,-30.8984 84.8437,-34.2578 83.5156,-37.5391 82.0704,-40.8203 12.9296,-6.7578 12.8907,-6.7969 12.8515,-6.9141 12.8125,-6.914 12.7735,-7.0313 12.7343,-7.0703 12.7344,-7.1484 12.6563,-7.1875 5.0781,-2.8907 5,-3.0078 4.9609,-3.0859 4.8828,-3.1641 1.9922,-1.4062 1.25,-1.0547 0.3516,-0.8594 -0.078,-1.6015 -0.5078,-2.3047 -0.586,-2.3047 -0.664,-2.2266 -0.7813,-2.2265 -1.3281,-3.5938 -1.3672,-3.5937 -1.4063,-3.5938 -1.4062,-3.5547 -1.4844,-3.5547 -1.4844,-3.5156 -3.0468,-7.0312 -4.336,-9.6485 -4.375,-9.6094 -8.9062,-19.1406 -4.5313,-9.5312 -4.5703,-9.5313 -4.6094,-9.4922 -4.6484,-9.4531 -5.8984,-11.9531 -6.1719,-12.4219 -25.5469,-49.6094 -27.0312,-49.2968 -28.4766,-48.9454 -29.8437,-48.5156 -31.1329,-48.0078 -32.4609,-47.5 -33.6328,-46.8359 -34.8047,-46.211 -35.8984,-45.4297 -36.9922,-44.6484 -37.9688,-43.7891 -38.9062,-42.8515 -39.8438,-41.875 -40.664,-40.7813 -41.4453,-39.6875 -42.1875,-38.5547 -42.8907,-37.2656 -43.5156,-35.9765 -44.1015,-34.5704 -44.6094,-33.2031 -4.4531,-3.2812 -4.4922,-3.2422 -4.5313,-3.2031 -4.5312,-3.2422 -2.1094,-1.4844 -2.1875,-1.4063 -2.2266,-1.3281 -2.2265,-1.289 -2.2266,-1.0157 -1.9531,-0.664 -0.3906,-0.1172 -0.3907,-0.078 -0.7812,-0.078 h -0.3906 l -0.7813,0.078 -0.3906,0.078 -0.3906,0.1172 -0.3516,0.1172 -0.3906,0.1562 -0.3516,0.1563 -0.3125,0.1953 -0.3516,0.2343 -0.2734,0.2344 -0.3125,0.2735 -1.0156,1.1718 -0.8985,1.25 -0.8203,1.3282 -0.7031,1.3671 -2.8125,6.0938 -1.3281,3.0469 -1.2891,3.0859 -5.8203,12.5391 -5.8984,12.5 -5.9766,12.4218 -6.0937,12.4219 -13.125,26.7188 -6.6407,13.3593 -6.6015,13.3204 -6.6407,13.3593 -6.6796,13.3203 -6.6797,13.2813 -6.6797,13.3203 8.2422,5.4688 27.0703,18.75 27.9687,20.664 28.6328,22.5391 29.2188,24.2187 29.6875,25.8203 30.0391,27.2266 11.6015,10.8594 11.5625,10.9375 11.4844,11.0156 11.4062,11.0938 11.3282,11.1718 11.25,11.25 11.1718,11.3282 11.0938,11.4062 9.5703,9.9219 9.5313,10.039 9.4921,10.0391 9.4141,10.0781 9.375,10.1953 9.2969,10.1954 9.2969,10.2343 18.3593,20.625 9.1016,10.3907 9.0625,10.4296 8.9844,10.5079 8.9453,10.5078 8.9062,10.5859 8.8281,10.625 8.75,10.6641 27.6172,34.3359 26.7188,34.4922 25.7422,34.4531 24.6093,34.375 23.3594,34.1016 8.125,12.3047 8.0469,12.4218 7.9687,12.4219 7.8907,12.5 7.8125,12.5391 7.6953,12.6172 7.6172,12.6562 7.539,12.7344 5.8594,10.1172 5.8984,10.1562 5.8594,10.1563 11.6406,20.3906 5.7813,10.1953 5.7812,10.2344 5.7422,10.2344 0.7032,1.25 0.664,1.3281 1.25,2.6562 0.5469,1.3282 0.5469,1.4062 0.5078,1.3672 0.4687,1.3672 0.1563,0.7812 v 0.625 l -0.039,0.1563 -0.078,0.1953 -1.3672,0.8984 -4.9219,2.5391 -4.9218,2.5 -4.961,2.3828 -5,2.3438 -13.4765,6.289 -13.4766,6.25 -13.5156,6.211 -13.5157,6.1328 -13.5546,6.0547 -13.5938,6.0547 -13.5937,5.9765 -13.6329,5.8985 -5.2734,2.2265 -5.3125,2.1485 -5.3125,2.0703 -5.3516,1.9922 -8.3984,3.164 -8.3203,3.2813 -8.2813,3.3203 -8.2812,3.4375 -53.3203,21.7578 -55.625,20.0391 -57.7344,18.3593 -59.6484,16.6407 -61.3281,14.8437 -62.8516,13.1641 -64.1406,11.3672 -65.2344,9.5703 -66.1719,7.8125 -66.875,5.9765 -67.3828,4.1407 -67.6953,2.3046 -67.8125,0.4688 -67.7734,-1.4453 -67.461,-3.2813 -66.9922,-5.1953 -66.289,-7.1094 -65.4688,-9.0625 -64.375,-10.9765 -63.125,-12.9688 -47.3047,-10.5859 -24.1406,15.5859 -8.0859,5.1172 -8.086,5.1563 -16.1718,10.2343 -8.125,5.0782 -9.7657,6.0937 -19.6093,12.0313 -9.8438,5.9375 -9.8828,5.9375 -9.8828,5.8984 -9.9219,5.8594 -9.9219,5.8203 -9.9609,5.7812 -10,5.7422 -10,5.7032 -10,5.664 -6.6016,3.6719 -6.6797,3.5937 -6.6796,3.5547 -6.7188,3.4375 -2.2266,1.1328 -2.1875,1.25 -2.1093,1.3282 -2.0313,1.4453 -1.6406,1.5625 -1.0156,1.4844 -0.3125,1.4843 0.3906,1.4453 1.2109,1.5235 1.9922,1.5625 2.8906,1.6406 3.4375,1.5625 3.5157,1.4844 3.5547,1.3672 3.5937,1.25 8.2813,2.7343 8.2812,2.6172 8.3203,2.5391 8.3203,2.4609 11.1719,3.2422 12.3438,3.5547 z m 0,0"
       transform="matrix(0.1,0,0,-0.1,0,792)"
       id="path30" />
    <path
       style="fill:none;stroke:#000000;stroke-width:5;stroke-linecap:butt;stroke-linejoin:miter;stroke-miterlimit:10;stroke-opacity:1"
       d="m 3450.4297,2737.8125 0.7031,-16.3281 0.3125,-8.2031 0.2735,-8.125 0.2343,-8.2032 0.2344,-8.164 0.1563,-8.1641 0.1171,-8.1641 0.1954,-12.6562 0.1562,-12.6563 0.1563,-12.6171 0.078,-12.6563 0.039,-12.6562 v -25.3125 l -0.1562,-25.3125 -0.1563,-12.6172 -0.1562,-12.6563 -0.2344,-12.6562 -0.1953,-9.6094 -0.2734,-9.6094 -0.3516,-9.6094 -0.4687,-9.5703 -3.7891,-72.7734 30.9766,-38.9063 26.5625,-33.4375 6.6015,-8.3593 6.6406,-8.3985 13.2032,-16.7968 5.8984,-7.8516 11.7188,-15.7813 5.7812,-7.9296 5.7813,-7.9688 5.7421,-7.9687 5.7032,-8.0079 5.7031,-8.0468 6.7969,-9.5703 6.7578,-9.6094 13.4375,-19.2969 6.6406,-9.6875 6.6016,-9.7266 13.125,-19.5312 3.9062,-6.0547 3.8672,-6.0937 3.8281,-6.0938 3.8282,-6.1328 1.3281,-2.1484 1.4062,-2.0704 1.4844,-2.0312 1.6016,-1.9922 1.7187,-1.7578 0.3516,-0.3516 0.3515,-0.3125 0.3907,-0.3125 0.3906,-0.2734 0.8594,-0.4688 0.4687,-0.1953 0.4297,-0.1953 0.4688,-0.1172 0.5078,-0.1172 0.4687,-0.1171 0.4688,-0.039 1.914,0.1172 2.0703,0.5859 1.0547,0.4688 1.0157,0.4687 0.9765,0.5078 0.9766,0.5469 0.9765,0.5859 2.8125,1.875 3.9844,3.0079 3.9844,3.0468 3.9062,3.086 3.9063,3.125 10.8594,8.6328 10.7812,8.6719 10.7422,8.7109 10.6641,8.7891 10.625,8.9062 10.5859,8.9063 10.5078,9.0234 10.4297,9.0625 10.3906,9.1406 10.3516,9.2188 10.2344,9.2578 10.2343,9.375 10.1563,9.375 10.0781,9.4922 10.0391,9.5312 9.9609,9.6094 9.8828,9.6484 9.8828,9.7266 9.7657,9.8047 9.7265,9.8437 8.4375,8.6328 8.3985,8.6719 8.3203,8.75 8.3203,8.7891 8.2422,8.8281 8.164,8.8672 8.1641,8.9453 8.0859,8.9844 8.0079,9.0234 8.0078,9.0625 7.8906,9.1016 7.8906,9.1797 7.8125,9.2187 7.7344,9.2578 7.7344,9.2969 7.6562,9.3359 7.8125,9.8047 7.7735,9.8438 7.6953,9.8828 7.6562,9.9219 7.5781,10 7.5,10 7.461,10.0781 7.3828,10.1562 5.7031,7.8125 5.6641,7.8516 5.625,7.8516 11.0937,15.8593 5.5078,7.9688 10.8594,16.0156 2.1094,3.2422 2.0703,3.2422 1.9922,3.2812 1.914,3.3204 1.1329,2.3437 0.3125,1.2109 -1.5625,1.5235 -3.7891,2.1484 -5.8203,2.6172 -4.961,1.9922 -5,1.9531 -5.039,1.9141 -5.0391,1.875 -5.039,1.7969 -5.0782,1.7578 -5.1171,1.7578 -5.0782,1.6797 -15.7812,5.1562 -15.8594,5.0391 -15.8203,4.9609 -15.8984,4.8828 -15.9375,4.7657 -15.9375,4.6484 -15.9766,4.5703 -16.0156,4.4531 -9.8828,2.7735 -9.8829,2.6562 -9.9218,2.6563 -9.9219,2.5781 -9.9609,2.5391 -9.961,2.4609 -9.9609,2.4219 -9.961,2.3437 -13.6718,3.0469 -13.6719,2.9687 -13.7109,2.8516 -13.711,2.7344 -13.7109,2.6562 -13.75,2.5391 -13.7891,2.4609 -13.789,2.3828 -16.25,2.6954 -16.211,2.6171 -16.25,2.5 -16.289,2.4219 -16.25,2.3047 -16.3282,2.1875 -16.289,2.1094 -16.3282,1.9922 -16.3281,1.914 -16.3672,1.7969 -16.3281,1.6797 -16.3672,1.6016 -8.2031,0.7421 -16.4063,1.3282 -16.4062,1.0937 -8.2031,0.4688 -8.2422,0.3906 -8.2031,0.3516 -17.4219,0.3515 -14.6875,-0.2344 -11.7578,-0.8984 -8.4766,-1.5234 -4.9219,-2.2266 -1.1328,-2.9297 0.625,-3.7109 0.625,-6.0938 z m 0,0"
       transform="matrix(0.1,0,0,-0.1,0,792)"
       id="path32" />
    <path
       style="fill:none;stroke:#000000;stroke-width:5;stroke-linecap:butt;stroke-linejoin:miter;stroke-miterlimit:10;stroke-opacity:1"
       d="m 2118.9453,3246.9922 25.8985,-7.6172 8.6328,-2.5 8.6328,-2.5391 17.2656,-5 8.6328,-2.4609 14.5313,-4.2969 14.4531,-4.375 14.4531,-4.4531 14.4531,-4.4922 14.375,-4.5703 14.4141,-4.6484 14.3359,-4.7657 14.375,-4.7656 14.2969,-4.8828 14.2969,-4.9219 14.2578,-5 14.2578,-5.0781 5.4688,-1.9922 5.5078,-1.9922 5.4687,-2.0312 10.8594,-4.2188 5.4297,-2.1484 5.4297,-2.1875 5.3906,-2.1875 4.7266,-2.0313 4.6875,-1.9921 9.4531,-3.9063 1.5234,-0.625 1.5235,-0.5859 1.5234,-0.5469 1.5625,-0.5078 1.5625,-0.4688 1.5625,-0.4297 1.6016,-0.4296 1.5625,-0.3516 1.6797,-0.2344 1.6406,-0.1953 1.6797,-0.039 h 1.6406 l 1.6797,0.1172 1.6406,0.2344 1.6406,0.3125 1.6407,0.3906 3.5937,1.0547 3.5156,1.1719 3.5157,1.25 3.4765,1.4062 4.5703,1.7969 12.8907,5.1563 12.8906,5.039 12.9687,4.961 12.9688,4.8437 13.0078,4.7656 13.0859,4.6485 13.0469,4.6094 13.125,4.4531 12.6172,4.2578 12.5781,4.2187 12.6172,4.1407 12.6563,4.0625 12.6562,4.0234 12.6953,3.9844 12.6953,3.9062 12.6953,3.8672 12.7344,3.75 12.7735,3.75 12.7734,3.6719 12.7734,3.6328 7.9688,2.2656 7.9297,2.2657 7.9297,2.3437 7.9296,2.3828 3.3594,1.0547 3.3594,1.1328 3.3203,1.1719 3.2813,1.2891 2.8515,1.289 2.1485,1.25 1.5625,1.211 0.5078,0.5078 0.2343,0.2734 0.1954,0.2734 0.1562,0.3516 0.1563,0.3125 0.1562,0.3516 0.078,0.3125 0.1172,0.3515 0.039,0.3516 0.039,0.3906 v 0.7031 l -0.039,0.3516 -0.078,0.3516 -0.1172,0.3515 -0.586,1.9532 -0.625,1.914 -0.664,1.9531 -0.7032,1.9141 -3.3203,10.1563 -3.4375,10.1562 -3.5156,10.1172 -3.5937,10.0781 -3.6719,10.0391 -3.7891,10.039 -3.8672,10 -3.9453,9.961 -3.9844,9.8047 -4.0234,9.8047 -8.2812,19.5312 -4.2188,9.7266 -4.2969,9.6875 -4.3359,9.6875 -4.375,9.6484 -4.4531,9.6094 -4.4922,9.6094 -4.5703,9.5703 -4.6094,9.5312 -6.2891,12.7735 -6.3281,12.7343 -6.4062,12.6953 -6.5235,12.6563 -6.5625,12.6172 -6.6797,12.5781 -6.7187,12.5391 -6.7969,12.5 -6.9141,12.4609 -6.9531,12.3828 -7.0312,12.3828 -7.1094,12.3047 -7.1875,12.2656 -7.2656,12.2657 -7.3438,12.1875 -7.4219,12.1484 -7.5,12.0703 -7.5781,12.0703 -7.6172,11.9922 -7.7343,11.9531 -7.7735,11.9141 -7.8515,11.8359 -7.9297,11.836 -8.0078,11.7578 -7.3438,10.5859 -7.4219,10.5469 -7.5,10.5078 -7.539,10.4297 -7.6563,10.3906 -7.7344,10.3125 -7.7734,10.2735 -7.8516,10.2343 -5.3125,6.9532 -5.4687,6.7968 -2.0313,2.2266 -1.7968,1.7578 -1.6797,1.2891 -0.3125,0.2344 -0.7031,0.3906 -0.3907,0.1562 -0.7812,0.2344 -0.3906,0.078 -0.3907,0.039 h -0.7812 l -0.4297,-0.039 -0.3906,-0.078 -0.7813,-0.2344 -0.3515,-0.1562 -0.3516,-0.1953 -1.5625,-1.0547 -1.4844,-1.3672 -1.4062,-1.4453 -1.3282,-1.4844 -1.289,-1.5625 -6.25,-8.1641 -6.211,-8.164 -12.4218,-16.4063 -8.1641,-10.9765 -8.0859,-11.0547 -8.0469,-11.0938 -7.9297,-11.1328 -7.8906,-11.2109 -7.8516,-11.211 -7.7344,-11.3281 -7.6953,-11.3281 -7.5781,-11.3672 -7.5391,-11.4453 -7.4609,-11.4844 -7.3828,-11.5234 -7.3438,-11.6016 -7.2265,-11.6015 -7.1875,-11.6797 -7.0703,-11.7188 -7.0313,-11.7578 -6.9531,-11.7969 -6.875,-11.8359 -6.7969,-11.875 -6.7187,-11.9531 -6.6407,-11.9532 -6.6015,-12.0312 -6.4844,-12.0313 -6.8359,-12.9296 -6.7188,-13.0079 -6.6406,-13.0078 -6.5234,-13.0859 -6.4063,-13.125 -6.2891,-13.2031 -6.2109,-13.2422 -6.0937,-13.2813 -5.9766,-13.3593 -5.8984,-13.3594 -5.7422,-13.4375 -5.6641,-13.4766 -5.3906,-12.8515 -5.3516,-12.8907 -5.2344,-12.9297 -5.1953,-12.9296 -5.1172,-12.9688 -5.0781,-13.0078 -4.9609,-13.0469 -4.9219,-13.0469 -2.3437,-6.3281 -1.1329,-3.164 -1.0937,-3.2032 -1.0547,-3.2031 -1.0156,-3.2031 -1.9531,-6.4844 -0.625,-2.9297 0.078,-1.289 3.4765,-1.1719 3.5157,-1.1328 z m 0,0"
       transform="matrix(0.1,0,0,-0.1,0,792)"
       id="path34" />
  </g>
</svg>
