<?xml version="1.0" encoding="UTF-8" standalone="no"?>
<!-- Created with Inkscape (http://www.inkscape.org/) -->

<svg
   version="1.1"
   id="svg2"
   width="1465.2131"
   height="1393.6643"
   viewBox="0 0 1465.2131 1393.6643"
   xmlns="http://www.w3.org/2000/svg"
   xmlns:svg="http://www.w3.org/2000/svg">
  <defs
     id="defs6" />
  <g
     id="g8"
     transform="translate(2401.0758,1072.8195)">
    <path
       style="fill:#000000"
       d="m -2126.1712,308.09478 c -40.3277,-142.5117 -36.1342,-307.90880171 11.4601,-452.0005 6.0473,-18.3082 7.1401,-15.1006 -9.129,-26.7958 -121.1797,-87.1112 -216.3397,-209.77934 -270.9484,-349.2721 -9.3131,-23.78947 -10.1436,-21.06109 10.4484,-34.32547 123.4115,-79.49592 260.4005,-120.61064 411.6508,-123.54937 l 31.6507,-0.61496 6.6974,-20.5959 c 46.7601,-143.79837 139.1159,-276.96359 255.5011,-368.39998 11.5688,-9.0888 10.276,-9.7121 48,23.1413 106.4016,92.66395 209.367,252.68693 233.4153,362.76083 l 0.6769,3.09806 31.7039,0.60286 c 151.9636,2.88967 289.3391,44.14124 412.6206,123.90308 20.4494,13.23055 19.3824,9.96244 10.5967,32.45552 -55.1984,141.31876 -151.5307,265.45143 -273.0134,351.80153 -6.875,4.8868 -12.6593,9.0044 -12.854,9.1503 -0.1946,0.1458 2.1462,7.8309 5.2019,17.0779 47.4812,143.68369829 51.8421,312.848 11.6241,450.909 -1.6346,5.6112 -2.972,10.9225 -2.972,11.8029 0,4.316 -69.1738,-1.6278 -116.5,-10.0102 -119.6154,-21.1865 -241.815,-74.5038 -332.6669,-145.147 l -5.6668,-4.4064 -6.3332,4.9222 c -117.9947,91.7064 -300.0104,156.2422 -440.6629,156.2422 h -6.8933 z m 35.6129,8.2354 c 152.4292,-11.4186 308.7303,-70.3878 417.1057,-157.3654 4.9476,-3.9708 4.7031,-4.0058 11.9707,1.7122 115.1891,90.6276 299.5337,156.6712 438.6429,157.1489 l 5.5012,0.019 3.6992,-13.25 c 40.1833,-143.9317 35.4524,-305.6811017 -13.1681,-450.2125 -2.7684,-8.2294 -5.0334,-15.273 -5.0334,-15.6525 0,-0.3795 6.1875,-5.1005 13.75,-10.4912 121.9768,-86.9469 217.4163,-209.37714 272.2959,-349.30203 3.8248,-9.75187 6.9541,-18.22705 6.9541,-18.83374 0,-1.4114 -28.2667,-19.54932 -49.287,-31.626 -116.8709,-67.14536 -239.3762,-100.49287 -380.1313,-103.47662 l -30.9182,-0.65541 -0.8989,-3 c -45.1232,-150.59384 -137.9466,-288.62021 -258.4098,-384.25008 -10.9725,-8.7106 -9.3387,-8.6192 -18.9691,-1.0614 -115.1285,90.35059 -207.6291,224.13415 -254.0347,367.41045 l -6.8338,21.09907 -32.0086,0.60947 c -157.344,2.99595 -301.5832,48.11243 -427.78,133.80509 -1.1493,0.78043 10.9415,31.71348 22.019,56.33353 55.5165,123.38593 145.9707,233.71357 256.0792,312.34187 16.3102,11.6471 15.4546,8.8387 8.8132,28.9285 -47.5534,143.84559829 -52.2392,310.8883 -12.5596,447.7394 4.6414,16.0077 0.4358,14.4839 33.2014,12.0294 z m 8.8898,-59.1287 c -27.4916,-125.2013 -21.0512,-254.3433017 19.0555,-382.0966 2.7443,-8.7415 2.359,-8.7055 15.0756,-1.4097 5.6085,3.2178 16.6544,9.1471 24.5463,13.1763 17.3542,8.8602 16.3206,6.0399 10.1116,27.591198 -25.3657,88.0440003 -32.8294,179.184 -21.8531,266.852302 2.3791,19.0017 -0.011,16.7543 14.8925,14.0014 88.8416,-16.41 185.2726,-57.0942 255.8614,-107.947902 4.5988,-3.313 10.2238,-7.3165 12.5,-8.8967 28.9731,-20.1127 75.9518,-62.8064 103.9958,-94.51 l 10.2747,-11.6155 23.3925,-1.6925 c 12.8658,-0.9309 28.8303,-2.3937 35.4766,-3.2507 24.3855,-3.1446 24.1042,-4.5802 4.1047,20.9417 -121.9655,155.643202 -304.3308,255.774102 -499.1269,274.054402 l -7.0212,0.6589 z m 28.3284,-0.4346 c 186.5264,-22.9363 359.0811,-121.1889 477.0591,-271.637202 6.7829,-8.6497 12.2087,-15.8504 12.0575,-16.0017 -0.1513,-0.1512 -5.1894,0.3826 -11.1958,1.1864 -6.0064,0.8037 -21.8971,2.2543 -35.3125,3.2235 l -24.3918,1.7622 -9.7356,11.0664 c -27.3301,31.066 -75.6663,75.0064 -104.6195,95.1053 -2.2762,1.5802 -7.9012,5.5837 -12.5,8.8967 -71.9331,51.822102 -174.6051,94.559002 -262.0807,109.090302 -12.924,2.1469 -11.1747,4.21 -13.6632,-16.114 -10.9512,-89.439202 -3.7958,-180.6764017 21.0128,-267.929902 5.9751,-21.014798 7.3253,-17.733998 -11.1303,-27.045698 -6.875,-3.4688 -16.412,-8.5706 -21.1934,-11.3374 l -8.6934,-5.0305 -3.5109,10.6717 c -37.2715,113.2896983 -44.1373,250.1821 -18.4273,367.4088 l 2.1355,9.737 3.5947,-0.4807 c 1.9772,-0.2644 11.2448,-1.4215 20.5948,-2.5712 z m 767.5,3.0824 c -119.4385,-15.6577 -227.4936,-57.7712 -325.3047,-126.7846 -18.0384,-12.7275 -18.4088,-9.8222 3.958,-31.0483 9.9843,-9.475202 18.8822,-18.339902 19.7731,-19.699602 2.2142,-3.3793 2.424,-3.3139 12.3317,3.8417 71.6956,51.780502 171.1932,93.771702 259.504,109.519002 l 10.7621,1.9191 0.4767,-2.1259 c 7.7964,-34.7699 8.5033,-121.822202 1.4465,-178.125902 -11.3277,-90.3782 -47.1214,-192.679398 -91.6038,-261.810298 l -2.4518,-3.8103 2.4687,-8.6897 c 3.1667,-11.1467 11.0848,-46.04844 13.0632,-57.58089 2.1951,-12.79506 2.4175,-12.77605 12.27,1.04813 113.183,158.80816 157.5583,379.441858 114.158,567.59306 l -2.0183,8.75 -3.6667,-0.089 c -2.0167,-0.049 -13.3417,-1.3568 -25.1667,-2.907 z m 26.9725,-3.7545 c 47.4717,-166.910202 -1.3978,-412.0283 -113.1267,-567.41725 l -5.513,-7.66724 -1.191,7.66724 c -1.3878,8.93395 -9.3837,44.43825 -12.3326,54.76065 l -2.0265,7.0934 9.98,17.4066 c 72.2679,126.046 102.1134,275.904398 83.2898,418.21 -2.2248,16.819 -0.5896,15.4879 -15.7871,12.8515 -88.2046,-15.3017 -188.0465,-57.118 -260.5474,-109.124002 l -7.7821,-5.5822 -9.2179,9.0303 c -5.0699,4.9667 -13.6134,13.257902 -18.9855,18.424902 -5.3721,5.167 -9.6471,9.4807 -9.5,9.5861 110.9156,79.4461 241.764,129.6922 360.4705,138.4215 0.6616,0.049 1.6829,-1.599 2.2695,-3.6615 z m -727.9725,-153.5099 c 0,-62.097202 6.5473,-110.8757017 22.6827,-168.990102 2.6241,-9.4514 5.1595,-16.75 5.8186,-16.75 0.6424,0 5.5422,1.7798 10.8885,3.9552 16.1375,6.5661 52.8736,18.6249 74.1102,24.327 l 20,5.3701 9,13.5455 c 14.4671,21.774 28.6827,41.4823003 42.5403,58.9772 7.112,8.9787 12.9374,16.864 12.9453,17.5229 0.052,4.3484 -65.9713,43.2331 -98.9856,58.2977 -30.988,14.140102 -89.3686,35.004402 -97.9458,35.004402 -0.7164,0 -1.0542,-10.0159 -1.0542,-31.2599 z m 11,25.2401 c 47.631,-12.0547 115.6176,-43.407502 166.25,-76.668102 18.7373,-12.3086 18.221,-9.2122 4.4297,-26.5669 -13.0153,-16.3780997 -29.668,-39.5356 -41.9024,-58.2702 l -8.4732,-12.975 -18.4021,-4.8471 c -19.1852,-5.0535 -59.2452,-18.0863 -73.902,-24.0429 -4.675,-1.8999 -8.7746,-3.1519 -9.1102,-2.7822 -3.6499,4.0209 -17.5427,67.1325 -21.8667,99.3351 -5.1059,38.0261 -7.2664,109.622902 -3.2731,108.464002 0.9625,-0.2793 3.775,-1.0204 6.25,-1.6467 z m 607.5,1.6142 c -57.6316,-17.3938 -113.2544,-43.431202 -162.1483,-75.902802 -20.5643,-13.6572 -20.1903,-11.1582 -4.6234,-30.8931 14.7304,-18.6744997 31.2635,-41.7507 42.74,-59.6545 4.3562,-6.7957 8.3954,-12.4791 8.976,-12.6296 32.6121,-8.4544 70.9411,-20.5129 92.7996,-29.1952 13.792,-5.4782 12.1261,-6.3276 16.4191,8.371 17.2358,59.0116 27.2295,139.5897 23.8822,192.559802 -0.8762,13.8664 1.0147,13.0968 -18.0452,7.3444 z m 15.0516,-9.3444 c 2.1635,-28.571302 -2.5629,-89.979002 -9.9925,-129.8282017 -3.8965,-20.8992003 -15.2876,-67.2111003 -17.0159,-69.1803003 -0.1248,-0.1422 -3.5605,1.1321 -7.635,2.8316 -17.6282,7.3533 -86.318,28.9269 -92.1023,28.9269 -0.8925,0 -4.896,5.2119 -9.4097,12.25 -11.0113,17.1695 -27.7899,40.6381003 -41.8962,58.6011 -6.6,8.4045 -12.1238,15.6225 -12.275,16.04 -0.9959,2.7486 53.635,35.2832 84.275,50.1886 32.787,15.950002 92.7615,38.792902 104.6567,39.861302 0.3611,0.033 0.9889,-4.3285 1.3949,-9.691 z M -1751.3401,3.0986783 c -59.1846,-73.9033003 -99.4094,-145.7738983 -126.6097,-226.2163983 -6.2147,-18.3792 -6.5007,-16.3874 4.5805,-31.8924 20.6995,-28.96281 35.5292,-45.89536 35.5292,-40.56722 0,2.42602 7.4591,27.98682 13.6927,46.92212 19.8471,60.288 49.982,120.0726 87.2018,172.999998 10.6793,15.1861 31.1303,41.5 32.2536,41.5 3.5205,0 -10.1243,14.4658 -32.3062,34.25000029 -8.7377,7.79320001 -10.2523,8.11050001 -14.3419,3.00390001 z m 30.4907,-22.9489003 c 14.2794,-13.6805 13.8892,-10.4051 2.8956,-24.305 -54.3518,-68.720198 -96.3719,-151.674198 -119.4186,-235.749998 -1.5454,-5.6375 -3.1789,-10.25 -3.63,-10.25 -1.4389,0 -22.7478,27.3974 -34.6431,44.5415 l -4.1919,6.0415 4.8889,14.4585 c 25.124,74.3019 65.2659,148.174298 114.5426,210.790698 6.6362,8.4327003 12.4927,15.9373003 13.0145,16.6768003 1.0821,1.5336 6.4684,-2.97240001 26.542,-22.2040003 z m 41.2851,-65.475 c -11.8644,-14.949498 -36.2758,-51.111998 -36.2758,-53.738198 0,-0.8665 2.0356,-0.9696 7.75,-0.3924 73.3783,7.4114 186.1695,-9.3226 269.0027,-39.9098 19.2527,-7.1093 17.9304,-7.3791 24.097,4.9172 19.7364,39.3547 20.1243,41.201 9.5703,45.5586 -68.9966,28.4882 -158.7617,46.170498 -250.0202,49.249998 l -19.1003,0.6446 z m 61.2242,0.5759 c 50.368,-3.5575 99.6608,-12.156 146.5,-25.554998 27.973,-8.002 71,-23.0861 71,-24.8906 0,-0.7589 -13.8596,-30.8017 -18.5501,-40.2103 -3.3551,-6.7299 -2.7715,-6.61 -12.9727,-2.6653 -73.3497,28.3632 -153.2082,42.4537 -240.2272,42.3865 -20.4875,-0.016 -37.25,0.1475 -37.25,0.3629 0,1.047 19.8354,30.1156 27.949,40.959098 l 9.1984,12.2932 16.6763,-0.5986 c 9.172,-0.3292 26.1263,-1.2661 37.6763,-2.0819 z m -288.5,-34.855598 c -147.1333,-50.5725 -282.5063,-156.2297 -366.5013,-286.0503 -4.2702,-6.6 -8.9908,-13.8 -10.4901,-16 -15.8171,-23.20888 -54.0525,-99.5 -49.8672,-99.5 0.6278,0 7.7153,-3.76664 15.75,-8.37032 101.2653,-58.02224 229.136,-92.51157 343.3586,-92.61079 l 21.75,-0.0189 v 2.47909 c 0,1.3635 -1.7598,12.276 -3.9106,24.25 -2.1508,11.974 -4.1949,23.85172 -4.5424,26.39494 l -0.6318,4.62403 -18.2076,0.70066 c -94.6714,3.6431 -176.2354,22.62415 -258.9257,60.25554 l -18.7181,8.51839 1.6198,3.13868 c 66.599,129.04447 208.2771,257.72307 333.5348,302.93147 1.8478,0.6669 2.9616,2.9955 8.4692,17.7072 3.9818,10.6362 19.4395,45.7021 22.3967,50.8072 3.8151,6.5862 2.1534,6.668 -15.0843,0.7431 z m 5.8388,-11.8003 c -8.394,-18.6535 -14.3263,-32.6863 -18.4386,-43.6168 -2.1451,-5.7017 -4.5752,-10.6129 -5.4002,-10.9137 -90.0914,-32.8508 -201.006,-117.37645 -270.6016,-206.2195 -24.161,-30.84311 -66.3984,-96.89495 -66.3984,-103.83549 0,-1.32653 30.3281,-15.14246 53,-24.14412 72.1234,-28.63586 143.4679,-43.29703 226.7285,-46.59228 l 17.2285,-0.68186 0.4863,-3.12313 c 1.0679,-6.85768 7.6969,-44.26696 8.2174,-46.37312 l 0.5561,-2.25 -19.3584,0.0189 c -89.3625,0.0872 -194.2144,23.37171 -281.3427,62.47784 -23.7892,10.6774 -68.702,33.99781 -73.4158,38.12025 -2.0493,1.79219 36.7062,76.97798 48.9087,94.88302 1.4993,2.2 6.2199,9.4 10.4901,16 72.2132,111.61099 181.6423,204.95419 306.5675,261.50269 20.5312,9.2936 62.8653,25.7763 66.6344,25.9439 0.6903,0.031 -0.9513,-4.7287 -3.8618,-11.1966 z m 189.6612,-60.7933 c -4.95,-0.4204 -14.9596,-1.3256 -22.2436,-2.0114 l -13.2435,-1.2471 -3.6274,-7.5991 c -16.9646,-35.5395 -37.0194,-97.6208 -43.4331,-134.45086 l -1.1837,-6.79739 2.8657,-3.01603 c 19.7013,-20.73521 72.0032,-59.54739 110.2115,-81.78567 14.5926,-8.49334 11.9973,-8.45454 26.0436,-0.38932 36.9866,21.23724 73.514,48.03137 106.8605,78.38589 7.7129,7.02091 7.6674,6.24287 1.8424,31.45428 -10.1491,43.9273 -35.8883,117.2419 -43.2258,123.1228 -4.9609,3.9761 -89.4224,7.0046 -120.8666,4.3339 z m 87.5228,-3.447 c 34.6285,-2.7929 30.3509,-1.0884 36.4125,-14.5097 15.6512,-34.6543 29.3925,-76.33737 38.1207,-115.6353 l 3.8058,-17.13531 -5.9309,-5.44446 c -31.3798,-28.80621 -69.2656,-56.64463 -105.6282,-77.6156 -12.9177,-7.44983 -10.2745,-7.48817 -23.751,0.34455 -36.7361,21.35146 -80.0023,53.23512 -106.1698,78.23846 l -4.6181,4.41265 1.2886,6.66751 c 7.5703,39.1709 26.4799,97.1994 42.5802,130.6675 l 3.3674,7 6.5,0.8093 c 30.0274,3.7386 82.4168,4.7496 114.0228,2.2004 z m 96.9772,-13.4837 c 0,-1.0857 1.3949,-5.4732 3.0998,-9.75 29.4905,-73.9798 44.0888,-154.45801 44.3051,-244.248 l 0.095,-39.47199 4.4209,-0.75504 c 9.5984,-1.63928 35.4503,-4.84913 43.8653,-5.44644 l 8.8929,-0.63124 0.6605,10.79392 c 3.0301,49.52365 -1.1848,117.91972 -10.4753,169.98279 -6.1775,34.6185 -21.8669,94.868 -26.099,100.2241 -1.2408,1.5704 -29.4118,10.8007 -50.9762,16.7024 -19.4842,5.3325 -17.7891,5.0848 -17.7891,2.5995 z m 25.6994,-8.4512 c 10.3403,-2.9839 23.7169,-7.1464 29.7257,-9.25 l 10.9252,-3.8248 2.3686,-7 c 24.8995,-73.58671 38.7993,-180.60908 33.6186,-258.84964 l -0.6522,-9.84965 -6.5927,0.66122 c -5.9083,0.59258 -28.1562,3.42726 -40.1579,5.11666 l -4.5653,0.64263 0.023,38.13939 c 0.052,87.84859 -16.7323,180.61188 -44.3276,244.98909 -2.5189,5.8764 -3.5565,5.9174 19.635,-0.7749 z m 245.8536,-0.8248 c -1.4961,-3.4375 -7.295,-15.4114 -12.8866,-26.6087 l -10.1664,-20.3587 2.4698,-1.6413 c 53.306,-35.42473 125.6034,-112.66684 168.1413,-179.6413 8.247,-12.98461 12.7148,-20.54211 25.6147,-43.32851 1.3478,-2.38067 2.2398,-4.53919 1.9823,-4.7967 -1.0396,-1.03962 -37.2015,-17.46104 -43.4736,-19.74172 -3.704,-1.34686 -8.9845,-3.42364 -11.7345,-4.61506 -104.2502,-45.1657 -258.3687,-56.79506 -383.1944,-28.9148 l -14.1945,3.17038 -14.8055,-9.46278 c -14.357,-9.17606 -38.3946,-23.32829 -47.0556,-27.70419 -8.241,-4.16368 -7.3792,-4.72986 18.5703,-12.20026 177.9722,-51.23494 372.3604,-31.97722 534.9033,52.99199 18.5559,9.70011 35.9346,19.44602 37.6715,21.12604 1.0507,1.01628 -5.9259,16.89185 -18.5566,42.2262 -49.5902,99.46765 -129.8649,194.17721 -219.5804,259.06511 -11.2001,8.1006 -10.3799,8.0746 -13.7051,0.4343 z m 13.947,-5.098 c 94.1467,-67.61299 179.8725,-173.4912 229.0727,-282.92318 l 5.2923,-11.77118 -2.1825,-1.35496 c -137.2066,-85.1819 -325.5007,-118.75475 -494.4131,-88.1539 -26.8387,4.8622 -86.6419,19.63418 -89.0411,21.99403 -0.1494,0.14697 7.3703,4.64385 16.7106,9.99307 9.3402,5.34921 23.1137,13.66834 30.6077,18.48695 l 13.6255,8.76112 7.664,-1.86157 c 120.2521,-29.20917 285.7307,-17.26597 390.6639,28.19563 2.75,1.19142 8.0305,3.2682 11.7345,4.61506 9.5551,3.47445 42.8809,19.05211 44.7243,20.90567 1.7195,1.72907 1.5003,2.20371 -11.7627,25.46126 -42.094,73.81508 -102.0757,142.75365 -170.4553,195.9089 l -14.6765,11.4089 7.767,15.0911 c 4.2719,8.3001 9.4284,18.8326 11.4589,23.4056 2.5743,5.7974 4.0731,8.0951 4.9509,7.5896 0.6924,-0.3987 4.4089,-2.9871 8.2589,-5.7521 z m -713.5,-38.0081 c -37.5478,-20.21086 -35.7618,-17.9968 -26.3464,-32.66032 44.0467,-68.59839 115.2636,-143.69446 179.5607,-189.34142 l 6.7142,-4.76672 7.6019,2.13308 c 22.107,6.20325 58.8218,20.02525 59.2815,22.3177 0.2067,1.0305 -3.1688,3.81224 -10,8.24112 -74.6989,48.42948 -147.6468,121.44014 -193.5161,193.68266 -6.6983,10.5496 -4.4977,10.5124 -23.2958,0.3939 z m 22.2465,-5.3939 c 48.1691,-73.42874 125.3815,-150.2465 192.9193,-191.93323 8.067,-4.97922 4.4187,-7.00002 -36.4844,-20.20858 -18.9814,-6.12956 -17.0226,-6.05682 -24.2686,-0.90112 -63.6436,45.28368 -133.3197,118.92742 -178.2032,188.35089 -6.5122,10.07278 -6.7606,9.03526 3.5647,14.88824 8.0768,4.5785 35.5029,19.5048 35.901,19.5388 0.096,0.01 3.0534,-4.3725 6.5712,-9.735 z m -116.3498,-56.03861 c -47.6729,-38.23222 -85.47,-78.19915 -120.5479,-127.46808 -16.012,-22.48975 -16.7505,-19.6253 7.1512,-27.73701 59.8759,-20.32052 129.7407,-32.88876 183.3624,-32.98575 l 11.3625,-0.0205 -0.785,14.25 c -1.0938,19.85753 -0.8114,68.66186 0.4872,84.20303 l 1.0823,12.95303 -3.3367,3.54697 c -9.7951,10.41248 -40.8739,52.37995 -54.6499,73.79697 -8.7393,13.58668 -6.4491,13.63781 -24.1261,-0.53861 z m 21.1127,-1.46139 c 11.3712,-18.00776 44.1316,-62.33326 54.5076,-73.75 l 3.181,-3.5 -0.8882,-10 c -1.1226,-12.63862 -1.3824,-74.95464 -0.3638,-87.25 l 0.7663,-9.25 -8.8561,0.0205 c -29.2949,0.068 -82.9327,6.90116 -118.3562,15.07797 -23.8717,5.5103 -73.72,20.53831 -78.7958,23.75494 -4.1308,2.6178 45.5512,64.72247 76.9482,96.18859 20.8025,20.84838 62.5567,56.958 65.8614,56.958 0.4323,0 3.1303,-3.7125 5.9956,-8.25 z m 716.3184,3.48779 c -7.344,-11.59236 -26.7625,-39.20029 -34.3693,-48.86399 -2.9758,-3.78059 -9.6185,-12.1628 -14.7615,-18.62714 l -9.3509,-11.75334 1.2167,-25.24666 c 1.1493,-23.84899 0.7652,-65.53164 -0.7363,-79.89743 l -0.6114,-5.84923 h 11.4024 c 57.3812,0 139.9669,15.82064 198.1325,37.95554 6.6992,2.54938 6.7468,2.71279 2.5794,8.86428 -37.9462,56.01217 -83.1441,104.62243 -134.8121,144.99017 -12.8123,10.01014 -11.2696,10.13991 -18.6895,-1.5722 z m 18.0333,-2.44435 c 37.5489,-29.60944 74.6099,-66.52644 103.1926,-102.79175 12.0352,-15.27006 30.4692,-41.27155 30.1027,-42.46041 -0.7578,-2.45813 -49.3756,-17.50995 -77.4598,-23.98116 -50.4477,-11.62425 -130.5819,-19.90315 -128.833,-13.31012 1.3297,5.01267 1.8389,61.08486 0.7453,82.07512 l -1.1371,21.82511 9.288,11.67489 c 5.1084,6.42118 11.7229,14.76809 14.6987,18.54868 7.3871,9.38464 27.0614,37.30167 33.3742,47.35661 6.2325,9.92712 4.8996,9.83871 16.0284,1.06303 z m -256.5808,-96.76728 c -70.1613,-55.13517 -148.6202,-95.31363 -231.5303,-118.56576 l -17.25,-4.83775 v -3.83831 c 0,-5.5643 6.9374,-43.06405 9.6436,-52.12745 0.7045,-2.35955 2.5477,-2.03523 24.8564,4.37372 80.4866,23.12253 154.5104,58.67713 221.3759,106.32977 l 11.3759,8.10721 -0.4929,33.5162 c -0.6426,43.69271 0.6793,41.70438 -17.9786,27.04237 z m 15.0782,-33.52616 0.1198,-25 -10.7391,-7.62208 c -56.7613,-40.28613 -119.6471,-72.46233 -184.7392,-94.52386 -19.0365,-6.45198 -52.1778,-16.35406 -54.7355,-16.35406 -1.8979,0 -12.1238,48.97402 -10.5538,50.54408 0.2558,0.25574 9.6505,3.12549 20.8772,6.37722 81.8107,23.69592 158.0696,63.05733 226.285,116.79819 l 12.1271,9.55384 0.6193,-7.38667 c 0.3406,-4.06266 0.6732,-18.63666 0.7392,-32.38666 z m -381.4711,-23.75 c 6.5258,-198.88739 88.8988,-380.40295 232.5365,-512.41277 15.7611,-14.48511 14.8457,-14.29141 25.0487,-5.30069 87.6605,77.24536 160.3955,188.03385 200.6514,305.6284 6.9964,20.43783 8.8635,17.84668 -15.0519,20.88851 -10.8434,1.37919 -23.1706,3.1688 -27.3937,3.97691 -11.3861,2.17878 -10.665,2.5352 -13.7178,-6.78036 -27.5802,-84.15892 -78.8303,-169.68479 -143.8431,-240.04442 l -9.9741,-10.79442 -6.4113,6.29442 c -96.56,94.79871 -170.4255,257.98448 -180.8358,399.50743 l -0.6777,9.21302 -6.1073,4.78698 c -8.7446,6.85405 -33.6155,28.52203 -43.7463,38.11252 -11.9084,11.27325 -11.3014,12.03068 -10.4776,-13.07553 z m 34.6126,-13.32813 c 6.325,-5.46072 14.0274,-11.89923 17.1165,-14.30781 l 5.6166,-4.37923 0.6704,-9.11742 c 10.4163,-141.64357 79.155,-294.18746 179.2854,-397.86741 11.5606,-11.9705 9.8875,-12.11597 23.0034,2 64.8714,69.81786 118.0195,158.10918 144.3204,239.75 1.2403,3.85 2.3992,7.26111 2.5753,7.58025 0.1761,0.31914 4.7284,-0.19705 10.1161,-1.1471 5.3877,-0.95005 16.6604,-2.53585 25.0504,-3.52401 8.39,-0.98816 15.7185,-2.08342 16.2856,-2.43392 1.8966,-1.17216 -15.5854,-48.63321 -28.5294,-77.453 -39.2653,-87.42429 -93.7999,-164.02383 -164.2971,-230.77222 -19.824,-18.76978 -16.1904,-18.32358 -31.8501,-3.91082 -141.3096,130.05743 -222.8643,309.15966 -230.9268,507.13801 l -0.7117,17.47719 10.3875,-9.55197 c 5.7131,-5.25358 15.5625,-14.01982 21.8875,-19.48054 z m 201.5,-131.03165 c -20.9088,-8.59466 -85.9672,-29.39022 -91.9465,-29.39022 -6.603,0 23.4532,-69.79123 49.3103,-114.5 16.961,-29.32679 50.9024,-77.5748 54.4949,-77.46518 3.3045,0.10084 36.3807,47.04336 53.1735,75.46518 22.0128,37.25656 54.8478,111.69812 50.9046,115.40771 -0.5152,0.4847 -10.7455,3.66371 -22.7339,7.06446 -23.3195,6.61504 -51.0597,15.94191 -69.6595,23.42104 -13.5813,5.46114 -10.2494,5.46156 -23.5434,-0.003 z m 22.7299,-3.48942 c 17.8876,-7.13966 43.5327,-15.76132 66.6603,-22.41063 25.8475,-7.43128 23.6411,-6.31537 22.0918,-11.17317 -16.2985,-51.10414 -54.5181,-121.5168 -92.8653,-171.08702 -7.602,-9.827 -6.3757,-9.73861 -13.1167,-0.94547 -28.4044,37.05158 -53.958,79.18729 -71.996,118.71549 -9.3746,20.5434 -23.6559,56.68802 -22.7519,57.58301 0.1364,0.13495 9.6979,2.96411 21.2479,6.28701 24.2569,6.97863 54.7912,17.2203 68.5,22.97594 11.7586,4.93683 10.0094,4.93251 22.2299,0.0548 z"
       id="path293" />
  </g>
</svg>
